<svg width="299" height="196" viewBox="0 0 299 196" fill="none" xmlns="http://www.w3.org/2000/svg">
<g filter="url(#filter0_d_1_54)">
<rect width="283" height="180" rx="16" fill="white"/>
<rect x="108" y="23" width="67" height="67" rx="26.3215" fill="#02172B"/>
<path d="M133.228 53.6954C133.58 53.5781 133.962 53.5194 134.343 53.5194C134.959 53.5194 135.566 53.6759 136.094 53.9595L137.414 52.6391L139.898 50.1549L141.972 52.2283L145.327 48.8736L144.896 48.4041C146.804 44.8146 146.51 40.2764 143.801 36.9119C141.062 33.5083 136.641 32.2661 132.7 33.4202L139.047 41.3034L132.768 46.36L126.44 38.4768C124.474 42.0859 124.748 46.673 127.487 50.0668C129.003 51.9545 131.037 53.1771 133.228 53.6954Z" fill="#80DB42"/>
<path d="M149.904 53.8818L146.764 57.0214L148.838 59.0949L145.209 62.7235L145.043 62.8898L153.092 74.2842C155 76.9836 158.785 77.5118 161.357 75.4383C163.929 73.3648 164.223 69.5602 161.993 67.115L149.904 53.8818Z" fill="#80DB42"/>
<path d="M143.195 62.7909L136.202 55.7978L135.967 55.563C135.077 54.673 133.629 54.673 132.739 55.563L121.668 66.6347C120.777 67.5247 120.777 68.9722 121.668 69.8623L129.14 77.3347C130.03 78.2247 131.477 78.2247 132.368 77.3347L143.439 66.263C144.329 65.373 144.329 63.9255 143.439 63.0354L143.195 62.7909Z" fill="#80DB42"/>
<path d="M163.558 41.3133L158.844 46.0275C158.355 46.5165 157.553 46.5165 157.064 46.0275L156.448 45.4113L148.975 52.8642L144.818 57.0111L146.892 59.0846L144.232 61.745L144.153 61.8232L143.752 61.4222L137.571 55.2311L137.17 54.8301L138.383 53.6173L139.899 52.1013L141.972 54.1748L146.256 49.8909L153.592 42.5554L152.975 41.9392C152.486 41.4404 152.486 40.6482 152.975 40.1592L157.69 35.4449C158.179 34.9559 158.981 34.9559 159.47 35.4449L163.558 39.5332C164.047 40.0222 164.047 40.8145 163.558 41.3133Z" fill="white"/>
<path d="M56.2021 109.76C53.8021 109.76 52.6021 110.664 52.6021 112.472C52.6021 113.48 52.8741 114.176 53.4181 114.56C53.9781 114.928 55.0981 115.304 56.7781 115.688C58.4741 116.056 59.6741 116.544 60.3781 117.152C61.0821 117.744 61.4341 118.728 61.4341 120.104C61.4341 123.512 59.6661 125.216 56.1301 125.216C54.9621 125.216 53.4981 125.08 51.7381 124.808L50.8741 124.688L51.0661 123.152C53.2421 123.44 54.8981 123.584 56.0341 123.584C58.4021 123.584 59.5861 122.472 59.5861 120.248C59.5861 119.352 59.3221 118.712 58.7941 118.328C58.2821 117.928 57.3141 117.592 55.8901 117.32C54.0181 116.92 52.6901 116.408 51.9061 115.784C51.1221 115.144 50.7301 114.08 50.7301 112.592C50.7301 109.616 52.5141 108.128 56.0821 108.128C57.2501 108.128 58.6501 108.248 60.2821 108.488L61.0981 108.608L60.9301 110.168C58.7061 109.896 57.1301 109.76 56.2021 109.76ZM64.3139 125V113H66.1139V125H64.3139ZM64.3139 110.288V108.2H66.1139V110.288H64.3139ZM73.3319 114.368C71.5879 114.368 70.7159 114.976 70.7159 116.192C70.7159 116.752 70.9159 117.152 71.3159 117.392C71.7159 117.616 72.6279 117.856 74.0519 118.112C75.4759 118.352 76.4839 118.696 77.0759 119.144C77.6679 119.592 77.9639 120.432 77.9639 121.664C77.9639 122.896 77.5639 123.8 76.7639 124.376C75.9799 124.952 74.8279 125.24 73.3079 125.24C72.3159 125.24 71.1479 125.128 69.8039 124.904L69.0839 124.784L69.1799 123.224C71.0039 123.496 72.3799 123.632 73.3079 123.632C74.2359 123.632 74.9399 123.488 75.4199 123.2C75.9159 122.896 76.1639 122.4 76.1639 121.712C76.1639 121.008 75.9559 120.536 75.5399 120.296C75.1239 120.04 74.2119 119.8 72.8039 119.576C71.3959 119.352 70.3959 119.024 69.8039 118.592C69.2119 118.16 68.9159 117.36 68.9159 116.192C68.9159 115.024 69.3239 114.16 70.1399 113.6C70.9719 113.04 72.0039 112.76 73.2359 112.76C74.2119 112.76 75.4359 112.872 76.9079 113.096L77.5799 113.216L77.5319 114.752C75.7559 114.496 74.3559 114.368 73.3319 114.368ZM86.9362 114.56H83.1202V120.296C83.1202 121.672 83.2162 122.576 83.4082 123.008C83.6162 123.44 84.0962 123.656 84.8482 123.656L86.9842 123.512L87.1042 125C86.0322 125.176 85.2162 125.264 84.6562 125.264C83.4082 125.264 82.5442 124.96 82.0642 124.352C81.5842 123.744 81.3442 122.584 81.3442 120.872V114.56H79.6402V113H81.3442V109.328H83.1202V113H86.9362V114.56ZM97.2943 123.512L97.9903 123.44L98.0383 124.856C96.2143 125.112 94.6543 125.24 93.3583 125.24C91.6303 125.24 90.4063 124.744 89.6863 123.752C88.9663 122.744 88.6063 121.184 88.6063 119.072C88.6063 114.864 90.2783 112.76 93.6223 112.76C95.2383 112.76 96.4463 113.216 97.2463 114.128C98.0463 115.024 98.4463 116.44 98.4463 118.376L98.3503 119.744H90.4303C90.4303 121.072 90.6703 122.056 91.1503 122.696C91.6303 123.336 92.4623 123.656 93.6463 123.656C94.8463 123.656 96.0623 123.608 97.2943 123.512ZM96.6463 118.304C96.6463 116.832 96.4063 115.792 95.9263 115.184C95.4623 114.576 94.6943 114.272 93.6223 114.272C92.5663 114.272 91.7663 114.592 91.2223 115.232C90.6943 115.872 90.4223 116.896 90.4062 118.304H96.6463ZM103.051 125H101.251V113H103.027V113.84C104.227 113.12 105.395 112.76 106.531 112.76C108.019 112.76 109.059 113.168 109.651 113.984C110.179 113.664 110.859 113.384 111.691 113.144C112.539 112.888 113.283 112.76 113.923 112.76C115.523 112.76 116.595 113.192 117.139 114.056C117.699 114.904 117.979 116.44 117.979 118.664V125H116.179V118.712C116.179 117.048 116.019 115.912 115.699 115.304C115.379 114.68 114.699 114.368 113.659 114.368C113.131 114.368 112.587 114.448 112.027 114.608C111.467 114.752 111.035 114.896 110.731 115.04L110.275 115.256C110.483 115.784 110.587 116.952 110.587 118.76V125H108.787V118.808C108.787 117.08 108.627 115.912 108.307 115.304C108.003 114.68 107.323 114.368 106.267 114.368C105.755 114.368 105.227 114.448 104.683 114.608C104.155 114.752 103.747 114.896 103.459 115.04L103.051 115.256V125ZM129.786 116.624V122.768C129.834 123.36 130.298 123.712 131.178 123.824L131.106 125.24C129.842 125.24 128.89 124.92 128.25 124.28C126.81 124.92 125.37 125.24 123.93 125.24C122.826 125.24 121.986 124.928 121.41 124.304C120.834 123.68 120.546 122.784 120.546 121.616C120.546 120.448 120.842 119.592 121.434 119.048C122.026 118.488 122.954 118.144 124.218 118.016L127.986 117.656V116.624C127.986 115.808 127.81 115.224 127.458 114.872C127.106 114.52 126.626 114.344 126.018 114.344C124.738 114.344 123.41 114.424 122.034 114.584L121.29 114.656L121.218 113.288C122.978 112.936 124.538 112.76 125.898 112.76C127.258 112.76 128.242 113.072 128.85 113.696C129.474 114.32 129.786 115.296 129.786 116.624ZM122.394 121.52C122.394 122.992 123.002 123.728 124.218 123.728C125.306 123.728 126.378 123.544 127.434 123.176L127.986 122.984V119.024L124.434 119.36C123.714 119.424 123.194 119.632 122.874 119.984C122.554 120.336 122.394 120.848 122.394 121.52ZM138.611 130.328V113H140.387V113.864C141.603 113.128 142.803 112.76 143.987 112.76C145.507 112.76 146.611 113.248 147.299 114.224C147.987 115.184 148.331 116.776 148.331 119C148.331 121.224 147.923 122.824 147.107 123.8C146.307 124.76 144.971 125.24 143.099 125.24C142.123 125.24 141.227 125.152 140.411 124.976V130.328H138.611ZM143.723 114.368C143.243 114.368 142.723 114.448 142.163 114.608C141.619 114.768 141.187 114.928 140.867 115.088L140.411 115.328V123.416C141.547 123.592 142.411 123.68 143.003 123.68C144.299 123.68 145.203 123.312 145.715 122.576C146.243 121.84 146.507 120.64 146.507 118.976C146.507 117.312 146.267 116.128 145.787 115.424C145.323 114.72 144.635 114.368 143.723 114.368ZM151.267 125V113H153.043V114.632C154.435 113.672 155.899 113.04 157.435 112.736V114.56C156.763 114.688 156.059 114.888 155.323 115.16C154.603 115.432 154.051 115.672 153.667 115.88L153.067 116.192V125H151.267ZM158.802 118.976C158.802 116.784 159.194 115.2 159.978 114.224C160.762 113.248 162.082 112.76 163.938 112.76C165.81 112.76 167.13 113.248 167.898 114.224C168.682 115.2 169.074 116.784 169.074 118.976C169.074 121.168 168.706 122.76 167.97 123.752C167.234 124.744 165.89 125.24 163.938 125.24C161.986 125.24 160.642 124.744 159.906 123.752C159.17 122.76 158.802 121.168 158.802 118.976ZM160.65 118.952C160.65 120.696 160.858 121.92 161.274 122.624C161.706 123.328 162.594 123.68 163.938 123.68C165.298 123.68 166.186 123.336 166.602 122.648C167.018 121.944 167.226 120.712 167.226 118.952C167.226 117.192 166.994 115.984 166.53 115.328C166.066 114.656 165.202 114.32 163.938 114.32C162.69 114.32 161.826 114.656 161.346 115.328C160.882 115.984 160.65 117.192 160.65 118.952ZM181.225 107.768V125H179.449V124.184C178.217 124.888 177.001 125.24 175.801 125.24C175.161 125.24 174.601 125.16 174.121 125C173.641 124.84 173.193 124.552 172.777 124.136C171.913 123.272 171.481 121.68 171.481 119.36C171.481 117.024 171.865 115.344 172.633 114.32C173.417 113.28 174.705 112.76 176.497 112.76C177.425 112.76 178.409 112.864 179.449 113.072V107.768H181.225ZM174.169 122.84C174.425 123.144 174.697 123.352 174.985 123.464C175.273 123.576 175.641 123.632 176.089 123.632C176.553 123.632 177.065 123.56 177.625 123.416C178.201 123.256 178.649 123.104 178.969 122.96L179.449 122.744V114.608C178.425 114.416 177.473 114.32 176.593 114.32C175.377 114.32 174.529 114.712 174.049 115.496C173.569 116.264 173.329 117.464 173.329 119.096C173.329 120.952 173.609 122.2 174.169 122.84ZM192.2 113H194V125H192.2V124.16C191 124.88 189.816 125.24 188.648 125.24C187.016 125.24 185.928 124.816 185.384 123.968C184.856 123.12 184.592 121.552 184.592 119.264V113H186.392V119.24C186.392 120.984 186.544 122.152 186.848 122.744C187.152 123.336 187.84 123.632 188.912 123.632C189.44 123.632 189.976 123.56 190.52 123.416C191.064 123.256 191.48 123.104 191.768 122.96L192.2 122.744V113ZM203.678 114.56H199.862V120.296C199.862 121.672 199.958 122.576 200.15 123.008C200.358 123.44 200.838 123.656 201.59 123.656L203.726 123.512L203.846 125C202.774 125.176 201.958 125.264 201.398 125.264C200.15 125.264 199.286 124.96 198.806 124.352C198.326 123.744 198.086 122.584 198.086 120.872V114.56H196.382V113H198.086V109.328H199.862V113H203.678V114.56ZM205.876 125V113H207.676V125H205.876ZM205.876 110.288V108.2H207.676V110.288H205.876ZM209.998 113H211.918L214.726 123.44H215.614L218.518 113H220.366L216.982 125H213.382L209.998 113ZM221.942 118.976C221.942 116.784 222.334 115.2 223.118 114.224C223.902 113.248 225.222 112.76 227.078 112.76C228.95 112.76 230.27 113.248 231.038 114.224C231.822 115.2 232.214 116.784 232.214 118.976C232.214 121.168 231.846 122.76 231.11 123.752C230.374 124.744 229.03 125.24 227.078 125.24C225.126 125.24 223.782 124.744 223.046 123.752C222.31 122.76 221.942 121.168 221.942 118.976ZM223.79 118.952C223.79 120.696 223.998 121.92 224.414 122.624C224.846 123.328 225.734 123.68 227.078 123.68C228.438 123.68 229.326 123.336 229.742 122.648C230.158 121.944 230.366 120.712 230.366 118.952C230.366 117.192 230.134 115.984 229.67 115.328C229.206 114.656 228.342 114.32 227.078 114.32C225.83 114.32 224.966 114.656 224.486 115.328C224.022 115.984 223.79 117.192 223.79 118.952ZM63.7936 152H61.9936V140H63.7696V140.84C65.0656 140.12 66.3056 139.76 67.4896 139.76C69.0896 139.76 70.1616 140.192 70.7056 141.056C71.2656 141.92 71.5456 143.456 71.5456 145.664V152H69.7696V145.712C69.7696 144.048 69.6016 142.912 69.2656 142.304C68.9456 141.68 68.2496 141.368 67.1776 141.368C66.6656 141.368 66.1216 141.448 65.5456 141.608C64.9856 141.752 64.5536 141.896 64.2496 142.04L63.7936 142.256V152ZM83.3563 143.624V149.768C83.4043 150.36 83.8683 150.712 84.7483 150.824L84.6763 152.24C83.4123 152.24 82.4603 151.92 81.8203 151.28C80.3803 151.92 78.9403 152.24 77.5003 152.24C76.3963 152.24 75.5563 151.928 74.9803 151.304C74.4043 150.68 74.1163 149.784 74.1163 148.616C74.1163 147.448 74.4123 146.592 75.0043 146.048C75.5963 145.488 76.5243 145.144 77.7883 145.016L81.5563 144.656V143.624C81.5563 142.808 81.3803 142.224 81.0283 141.872C80.6763 141.52 80.1963 141.344 79.5883 141.344C78.3083 141.344 76.9803 141.424 75.6043 141.584L74.8603 141.656L74.7883 140.288C76.5483 139.936 78.1083 139.76 79.4683 139.76C80.8283 139.76 81.8123 140.072 82.4203 140.696C83.0443 141.32 83.3563 142.296 83.3563 143.624ZM75.9643 148.52C75.9643 149.992 76.5723 150.728 77.7883 150.728C78.8763 150.728 79.9483 150.544 81.0043 150.176L81.5563 149.984V146.024L78.0043 146.36C77.2843 146.424 76.7643 146.632 76.4443 146.984C76.1243 147.336 75.9643 147.848 75.9643 148.52ZM80.5243 137.312C80.1883 137.312 79.6043 137.128 78.7723 136.76C77.9563 136.376 77.4443 136.184 77.2363 136.184C76.8683 136.184 76.3723 136.424 75.7483 136.904L75.4363 137.144L75.0043 135.992C75.8043 135.16 76.5323 134.744 77.1883 134.744C77.5243 134.744 78.1083 134.928 78.9403 135.296C79.7723 135.664 80.2763 135.848 80.4523 135.848C80.8043 135.848 81.2843 135.616 81.8923 135.152L82.1803 134.936L82.5883 136.088C81.8523 136.904 81.1643 137.312 80.5243 137.312ZM86.3797 145.976C86.3797 143.784 86.7717 142.2 87.5557 141.224C88.3397 140.248 89.6597 139.76 91.5157 139.76C93.3877 139.76 94.7077 140.248 95.4757 141.224C96.2597 142.2 96.6517 143.784 96.6517 145.976C96.6517 148.168 96.2837 149.76 95.5477 150.752C94.8117 151.744 93.4677 152.24 91.5157 152.24C89.5637 152.24 88.2197 151.744 87.4837 150.752C86.7477 149.76 86.3797 148.168 86.3797 145.976ZM88.2277 145.952C88.2277 147.696 88.4357 148.92 88.8517 149.624C89.2837 150.328 90.1717 150.68 91.5157 150.68C92.8757 150.68 93.7637 150.336 94.1797 149.648C94.5957 148.944 94.8037 147.712 94.8037 145.952C94.8037 144.192 94.5717 142.984 94.1077 142.328C93.6437 141.656 92.7797 141.32 91.5157 141.32C90.2677 141.32 89.4037 141.656 88.9237 142.328C88.4597 142.984 88.2277 144.192 88.2277 145.952ZM113.021 150.512L113.717 150.44L113.765 151.856C111.941 152.112 110.381 152.24 109.085 152.24C107.357 152.24 106.133 151.744 105.413 150.752C104.693 149.744 104.333 148.184 104.333 146.072C104.333 141.864 106.005 139.76 109.349 139.76C110.965 139.76 112.173 140.216 112.973 141.128C113.773 142.024 114.173 143.44 114.173 145.376L114.077 146.744H106.157C106.157 148.072 106.397 149.056 106.877 149.696C107.357 150.336 108.189 150.656 109.373 150.656C110.573 150.656 111.789 150.608 113.021 150.512ZM112.373 145.304C112.373 143.832 112.133 142.792 111.653 142.184C111.189 141.576 110.421 141.272 109.349 141.272C108.293 141.272 107.493 141.592 106.949 142.232C106.421 142.872 106.149 143.896 106.133 145.304H112.373ZM120.746 141.368C119.002 141.368 118.13 141.976 118.13 143.192C118.13 143.752 118.33 144.152 118.73 144.392C119.13 144.616 120.042 144.856 121.466 145.112C122.89 145.352 123.898 145.696 124.49 146.144C125.082 146.592 125.378 147.432 125.378 148.664C125.378 149.896 124.978 150.8 124.178 151.376C123.394 151.952 122.242 152.24 120.722 152.24C119.73 152.24 118.562 152.128 117.218 151.904L116.498 151.784L116.594 150.224C118.418 150.496 119.794 150.632 120.722 150.632C121.65 150.632 122.354 150.488 122.834 150.2C123.33 149.896 123.578 149.4 123.578 148.712C123.578 148.008 123.37 147.536 122.954 147.296C122.538 147.04 121.626 146.8 120.218 146.576C118.81 146.352 117.81 146.024 117.218 145.592C116.626 145.16 116.33 144.36 116.33 143.192C116.33 142.024 116.738 141.16 117.554 140.6C118.386 140.04 119.418 139.76 120.65 139.76C121.626 139.76 122.85 139.872 124.322 140.096L124.994 140.216L124.946 141.752C123.17 141.496 121.77 141.368 120.746 141.368ZM134.35 141.56H130.534V147.296C130.534 148.672 130.63 149.576 130.822 150.008C131.03 150.44 131.51 150.656 132.262 150.656L134.398 150.512L134.518 152C133.446 152.176 132.63 152.264 132.07 152.264C130.822 152.264 129.958 151.96 129.478 151.352C128.998 150.744 128.758 149.584 128.758 147.872V141.56H127.054V140H128.758V136.328H130.534V140H134.35V141.56ZM136.548 152V140H138.324V141.632C139.716 140.672 141.18 140.04 142.716 139.736V141.56C142.044 141.688 141.34 141.888 140.604 142.16C139.884 142.432 139.332 142.672 138.948 142.88L138.348 143.192V152H136.548ZM152.333 140H154.133V152H152.333V151.16C151.133 151.88 149.949 152.24 148.781 152.24C147.149 152.24 146.061 151.816 145.517 150.968C144.989 150.12 144.725 148.552 144.725 146.264V140H146.525V146.24C146.525 147.984 146.677 149.152 146.981 149.744C147.285 150.336 147.973 150.632 149.045 150.632C149.573 150.632 150.109 150.56 150.653 150.416C151.197 150.256 151.613 150.104 151.901 149.96L152.333 149.744V140ZM163.811 141.56H159.995V147.296C159.995 148.672 160.091 149.576 160.283 150.008C160.491 150.44 160.971 150.656 161.723 150.656L163.859 150.512L163.979 152C162.907 152.176 162.091 152.264 161.531 152.264C160.283 152.264 159.419 151.96 158.939 151.352C158.459 150.744 158.219 149.584 158.219 147.872V141.56H156.515V140H158.219V136.328H159.995V140H163.811V141.56ZM173.497 140H175.297V152H173.497V151.16C172.297 151.88 171.113 152.24 169.945 152.24C168.313 152.24 167.225 151.816 166.681 150.968C166.153 150.12 165.889 148.552 165.889 146.264V140H167.689V146.24C167.689 147.984 167.841 149.152 168.145 149.744C168.449 150.336 169.137 150.632 170.209 150.632C170.737 150.632 171.273 150.56 171.817 150.416C172.361 150.256 172.777 150.104 173.065 149.96L173.497 149.744V140ZM178.759 152V140H180.535V141.632C181.927 140.672 183.391 140.04 184.927 139.736V141.56C184.255 141.688 183.551 141.888 182.815 142.16C182.095 142.432 181.543 142.672 181.159 142.88L180.559 143.192V152H178.759ZM195.528 143.624V149.768C195.576 150.36 196.04 150.712 196.92 150.824L196.848 152.24C195.584 152.24 194.632 151.92 193.992 151.28C192.552 151.92 191.112 152.24 189.672 152.24C188.568 152.24 187.728 151.928 187.152 151.304C186.576 150.68 186.288 149.784 186.288 148.616C186.288 147.448 186.584 146.592 187.176 146.048C187.768 145.488 188.696 145.144 189.96 145.016L193.728 144.656V143.624C193.728 142.808 193.552 142.224 193.2 141.872C192.848 141.52 192.368 141.344 191.76 141.344C190.48 141.344 189.152 141.424 187.776 141.584L187.032 141.656L186.96 140.288C188.72 139.936 190.28 139.76 191.64 139.76C193 139.76 193.984 140.072 194.592 140.696C195.216 141.32 195.528 142.296 195.528 143.624ZM188.136 148.52C188.136 149.992 188.744 150.728 189.96 150.728C191.048 150.728 192.12 150.544 193.176 150.176L193.728 149.984V146.024L190.176 146.36C189.456 146.424 188.936 146.632 188.616 146.984C188.296 147.336 188.136 147.848 188.136 148.52ZM208.296 134.768V152H206.52V151.184C205.288 151.888 204.072 152.24 202.872 152.24C202.232 152.24 201.672 152.16 201.192 152C200.712 151.84 200.264 151.552 199.848 151.136C198.984 150.272 198.552 148.68 198.552 146.36C198.552 144.024 198.936 142.344 199.704 141.32C200.488 140.28 201.776 139.76 203.568 139.76C204.496 139.76 205.48 139.864 206.52 140.072V134.768H208.296ZM201.24 149.84C201.496 150.144 201.768 150.352 202.056 150.464C202.344 150.576 202.712 150.632 203.16 150.632C203.624 150.632 204.136 150.56 204.696 150.416C205.272 150.256 205.72 150.104 206.04 149.96L206.52 149.744V141.608C205.496 141.416 204.544 141.32 203.664 141.32C202.448 141.32 201.6 141.712 201.12 142.496C200.64 143.264 200.4 144.464 200.4 146.096C200.4 147.952 200.68 149.2 201.24 149.84ZM211.255 145.976C211.255 143.784 211.647 142.2 212.431 141.224C213.215 140.248 214.535 139.76 216.391 139.76C218.263 139.76 219.583 140.248 220.351 141.224C221.135 142.2 221.527 143.784 221.527 145.976C221.527 148.168 221.159 149.76 220.423 150.752C219.687 151.744 218.343 152.24 216.391 152.24C214.439 152.24 213.095 151.744 212.359 150.752C211.623 149.76 211.255 148.168 211.255 145.976ZM213.103 145.952C213.103 147.696 213.311 148.92 213.727 149.624C214.159 150.328 215.047 150.68 216.391 150.68C217.751 150.68 218.639 150.336 219.055 149.648C219.471 148.944 219.679 147.712 219.679 145.952C219.679 144.192 219.447 142.984 218.983 142.328C218.519 141.656 217.655 141.32 216.391 141.32C215.143 141.32 214.279 141.656 213.799 142.328C213.335 142.984 213.103 144.192 213.103 145.952Z" fill="#02172B"/>
</g>
<defs>
<filter id="filter0_d_1_54" x="0" y="0" width="299" height="196" filterUnits="userSpaceOnUse" color-interpolation-filters="sRGB">
<feFlood flood-opacity="0" result="BackgroundImageFix"/>
<feColorMatrix in="SourceAlpha" type="matrix" values="0 0 0 0 0 0 0 0 0 0 0 0 0 0 0 0 0 0 127 0" result="hardAlpha"/>
<feOffset dx="8" dy="8"/>
<feGaussianBlur stdDeviation="4"/>
<feComposite in2="hardAlpha" operator="out"/>
<feColorMatrix type="matrix" values="0 0 0 0 0 0 0 0 0 0 0 0 0 0 0 0 0 0 0.25 0"/>
<feBlend mode="normal" in2="BackgroundImageFix" result="effect1_dropShadow_1_54"/>
<feBlend mode="normal" in="SourceGraphic" in2="effect1_dropShadow_1_54" result="shape"/>
</filter>
</defs>
</svg>
