<svg width="299" height="196" viewBox="0 0 299 196" fill="none" xmlns="http://www.w3.org/2000/svg">
<g filter="url(#filter0_d_1_56)">
<rect width="283" height="180" rx="16" fill="white"/>
<rect x="108" y="23" width="67" height="67" rx="26.3215" fill="#02172B"/>
<path d="M155.625 50.0967L145.078 39.5592C144.816 39.2967 144.384 39.2967 144.113 39.5592L141.591 42.0811C141.328 42.3436 141.328 42.7748 141.591 43.0373L143.447 44.8936L140.156 48.1842L142.594 50.6217C142.847 50.8748 142.847 51.2967 142.594 51.5498C142.463 51.6811 142.294 51.7373 142.125 51.7373C141.956 51.7373 141.788 51.6717 141.656 51.5498L139.219 49.1123L137.034 51.2967L139.472 53.7342C139.725 53.9873 139.725 54.4092 139.472 54.6623C139.341 54.7936 139.172 54.8592 139.003 54.8592C138.834 54.8592 138.666 54.7936 138.534 54.6623L136.097 52.2248L133.903 54.4186L136.341 56.8561C136.594 57.1092 136.594 57.5311 136.341 57.7842C136.209 57.9154 136.041 57.9811 135.872 57.9811C135.703 57.9811 135.534 57.9154 135.403 57.7842L132.966 55.3467L130.566 57.7467C130.181 58.1404 130.003 58.6936 130.097 59.2279L130.275 60.1842C130.369 60.7279 130.2 61.2811 129.806 61.6748L127.369 64.1592C126.347 65.1811 126.366 66.8592 127.425 67.8623C128.447 68.8279 130.069 68.7623 131.063 67.7686L133.491 65.3404C133.875 64.9467 134.438 64.7779 134.981 64.8717L135.938 65.0404C136.481 65.1436 137.034 64.9654 137.419 64.5811L150.272 51.7279L152.128 53.5842C152.391 53.8467 152.822 53.8467 153.084 53.5842L155.606 51.0623C155.888 50.7998 155.888 50.3686 155.625 50.0967ZM137.738 59.1717C137.709 59.1998 137.672 59.2279 137.634 59.2561C137.597 59.2842 137.559 59.3029 137.522 59.3123C137.484 59.3311 137.438 59.3404 137.4 59.3498C137.363 59.3592 137.316 59.3592 137.269 59.3592C137.1 59.3592 136.931 59.2936 136.8 59.1717C136.772 59.1436 136.744 59.1061 136.716 59.0686C136.688 59.0311 136.669 58.9936 136.659 58.9561C136.641 58.9186 136.631 58.8717 136.622 58.8342C136.613 58.7873 136.613 58.7498 136.613 58.7029C136.613 58.5342 136.688 58.3561 136.8 58.2342C136.95 58.0842 137.175 58.0092 137.391 58.0561C137.428 58.0654 137.475 58.0748 137.513 58.0936C137.55 58.1123 137.588 58.1311 137.625 58.1498C137.663 58.1779 137.7 58.1967 137.728 58.2342C137.85 58.3561 137.925 58.5248 137.925 58.7029C137.925 58.8811 137.859 59.0498 137.738 59.1717ZM141.038 55.7217C141.028 55.7592 141.019 55.8061 141 55.8436C140.981 55.8811 140.963 55.9186 140.944 55.9561C140.916 55.9936 140.897 56.0217 140.859 56.0592C140.738 56.1811 140.569 56.2467 140.4 56.2467C140.231 56.2467 140.063 56.1717 139.931 56.0592C139.903 56.0311 139.875 55.9936 139.847 55.9561C139.819 55.9186 139.8 55.8811 139.791 55.8436C139.772 55.8061 139.763 55.7592 139.753 55.7217C139.744 55.6748 139.744 55.6373 139.744 55.5904C139.744 55.4217 139.819 55.2436 139.931 55.1217C140.053 54.9998 140.222 54.9342 140.4 54.9342C140.578 54.9342 140.738 55.0092 140.859 55.1217C140.981 55.2436 141.056 55.4123 141.056 55.5904C141.047 55.6279 141.047 55.6748 141.038 55.7217ZM144.15 52.5998C144.141 52.6373 144.131 52.6842 144.113 52.7217C144.094 52.7592 144.075 52.7967 144.056 52.8342C144.028 52.8717 144.009 52.9092 143.972 52.9373C143.944 52.9654 143.906 52.9936 143.869 53.0217C143.831 53.0498 143.794 53.0686 143.756 53.0779C143.719 53.0967 143.672 53.1061 143.634 53.1154C143.597 53.1248 143.55 53.1248 143.503 53.1248C143.456 53.1248 143.419 53.1248 143.372 53.1154C143.325 53.1061 143.288 53.0967 143.25 53.0779C143.213 53.0592 143.175 53.0404 143.138 53.0217C143.1 52.9936 143.072 52.9654 143.034 52.9373C143.006 52.9092 142.978 52.8717 142.95 52.8342C142.922 52.7967 142.903 52.7592 142.894 52.7217C142.875 52.6842 142.866 52.6373 142.856 52.5998C142.847 52.5529 142.847 52.5154 142.847 52.4686C142.847 52.2904 142.922 52.1217 143.034 51.9998C143.063 51.9717 143.1 51.9436 143.138 51.9154C143.175 51.8873 143.213 51.8686 143.25 51.8592C143.288 51.8404 143.334 51.8311 143.372 51.8217C143.456 51.8029 143.541 51.8029 143.625 51.8217C143.672 51.8311 143.709 51.8404 143.747 51.8592C143.784 51.8779 143.822 51.8967 143.859 51.9154C143.897 51.9436 143.925 51.9623 143.963 51.9998C143.991 52.0279 144.019 52.0654 144.047 52.1029C144.075 52.1404 144.094 52.1779 144.103 52.2154C144.122 52.2529 144.131 52.2998 144.141 52.3373C144.15 52.3748 144.15 52.4217 144.15 52.4686C144.159 52.5154 144.159 52.5529 144.15 52.5998Z" fill="white"/>
<path d="M159.656 35.5188C157.631 33.4938 154.35 33.4938 152.325 35.5188C151.331 36.5125 150.825 37.8156 150.806 39.1281L148.65 41.2844L153.9 46.525L156.056 44.3687C157.359 44.35 158.662 43.8531 159.666 42.85C161.681 40.825 161.681 37.5438 159.656 35.5188ZM158.128 37.9844C157.997 38.1156 157.828 38.1719 157.659 38.1719C157.491 38.1719 157.322 38.1063 157.2 37.9844C156.534 37.3188 155.456 37.3188 154.791 37.9844C154.537 38.2375 154.116 38.2375 153.862 37.9844C153.609 37.7313 153.609 37.3094 153.862 37.0563C155.034 35.8844 156.956 35.8844 158.128 37.0563C158.381 37.3094 158.381 37.7219 158.128 37.9844Z" fill="#80DB42"/>
<path d="M123 74.8184C123 76.6277 124.05 77.6121 125.344 77.6121C126.638 77.6121 127.688 76.6371 127.688 74.8184C127.688 73.009 125.344 70.5996 125.344 70.5996C125.344 70.5996 123 73.009 123 74.8184Z" fill="white"/>
<path d="M63.8994 125V108.392H65.7474V125H63.8994ZM71.2936 125H69.4936V113H71.2696V113.84C72.5656 113.12 73.8056 112.76 74.9896 112.76C76.5896 112.76 77.6616 113.192 78.2056 114.056C78.7656 114.92 79.0456 116.456 79.0456 118.664V125H77.2696V118.712C77.2696 117.048 77.1016 115.912 76.7656 115.304C76.4456 114.68 75.7496 114.368 74.6776 114.368C74.1656 114.368 73.6216 114.448 73.0456 114.608C72.4856 114.752 72.0536 114.896 71.7496 115.04L71.2936 115.256V125ZM86.1523 114.368C84.4083 114.368 83.5363 114.976 83.5363 116.192C83.5363 116.752 83.7363 117.152 84.1363 117.392C84.5363 117.616 85.4483 117.856 86.8723 118.112C88.2963 118.352 89.3043 118.696 89.8963 119.144C90.4883 119.592 90.7843 120.432 90.7843 121.664C90.7843 122.896 90.3843 123.8 89.5843 124.376C88.8003 124.952 87.6483 125.24 86.1283 125.24C85.1363 125.24 83.9683 125.128 82.6243 124.904L81.9043 124.784L82.0003 123.224C83.8243 123.496 85.2003 123.632 86.1283 123.632C87.0563 123.632 87.7603 123.488 88.2403 123.2C88.7363 122.896 88.9843 122.4 88.9843 121.712C88.9843 121.008 88.7763 120.536 88.3603 120.296C87.9443 120.04 87.0323 119.8 85.6243 119.576C84.2163 119.352 83.2163 119.024 82.6243 118.592C82.0323 118.16 81.7363 117.36 81.7363 116.192C81.7363 115.024 82.1443 114.16 82.9603 113.6C83.7923 113.04 84.8243 112.76 86.0563 112.76C87.0323 112.76 88.2563 112.872 89.7283 113.096L90.4003 113.216L90.3523 114.752C88.5763 114.496 87.1763 114.368 86.1523 114.368ZM99.7565 114.56H95.9405V120.296C95.9405 121.672 96.0365 122.576 96.2285 123.008C96.4365 123.44 96.9165 123.656 97.6685 123.656L99.8045 123.512L99.9245 125C98.8525 125.176 98.0365 125.264 97.4765 125.264C96.2285 125.264 95.3645 124.96 94.8845 124.352C94.4045 123.744 94.1645 122.584 94.1645 120.872V114.56H92.4605V113H94.1645V109.328H95.9405V113H99.7565V114.56ZM110.427 116.624V122.768C110.475 123.36 110.939 123.712 111.819 123.824L111.747 125.24C110.483 125.24 109.531 124.92 108.891 124.28C107.451 124.92 106.011 125.24 104.571 125.24C103.467 125.24 102.627 124.928 102.051 124.304C101.475 123.68 101.187 122.784 101.187 121.616C101.187 120.448 101.483 119.592 102.075 119.048C102.667 118.488 103.595 118.144 104.859 118.016L108.627 117.656V116.624C108.627 115.808 108.451 115.224 108.099 114.872C107.747 114.52 107.267 114.344 106.659 114.344C105.379 114.344 104.051 114.424 102.675 114.584L101.931 114.656L101.859 113.288C103.619 112.936 105.179 112.76 106.539 112.76C107.899 112.76 108.883 113.072 109.491 113.696C110.115 114.32 110.427 115.296 110.427 116.624ZM103.035 121.52C103.035 122.992 103.643 123.728 104.859 123.728C105.947 123.728 107.019 123.544 108.075 123.176L108.627 122.984V119.024L105.075 119.36C104.355 119.424 103.835 119.632 103.515 119.984C103.195 120.336 103.035 120.848 103.035 121.52ZM119.282 112.76C120.898 112.76 122.026 113.224 122.666 114.152C123.322 115.064 123.65 116.672 123.65 118.976C123.65 121.28 123.242 122.904 122.426 123.848C121.626 124.776 120.146 125.24 117.986 125.24C117.314 125.24 116.202 125.176 114.65 125.048L113.978 124.976V107.768H115.754V113.6C116.97 113.04 118.146 112.76 119.282 112.76ZM117.962 123.632C119.53 123.632 120.562 123.28 121.058 122.576C121.57 121.856 121.826 120.648 121.826 118.952C121.826 117.256 121.626 116.072 121.226 115.4C120.826 114.712 120.114 114.368 119.09 114.368C118.162 114.368 117.21 114.544 116.234 114.896L115.754 115.064V123.512C116.794 123.592 117.53 123.632 117.962 123.632ZM126.611 125V113H128.411V125H126.611ZM126.611 110.288V108.2H128.411V110.288H126.611ZM132.005 125V107.768H133.805V125H132.005ZM137.416 125V113H139.215V125H137.416ZM137.416 110.288V108.2H139.215V110.288H137.416ZM151.882 107.768V125H150.106V124.184C148.874 124.888 147.658 125.24 146.458 125.24C145.818 125.24 145.258 125.16 144.778 125C144.298 124.84 143.85 124.552 143.434 124.136C142.57 123.272 142.138 121.68 142.138 119.36C142.138 117.024 142.522 115.344 143.29 114.32C144.074 113.28 145.362 112.76 147.154 112.76C148.082 112.76 149.066 112.864 150.106 113.072V107.768H151.882ZM144.826 122.84C145.082 123.144 145.354 123.352 145.642 123.464C145.93 123.576 146.298 123.632 146.746 123.632C147.21 123.632 147.722 123.56 148.282 123.416C148.858 123.256 149.306 123.104 149.626 122.96L150.106 122.744V114.608C149.082 114.416 148.13 114.32 147.25 114.32C146.034 114.32 145.186 114.712 144.706 115.496C144.226 116.264 143.986 117.464 143.986 119.096C143.986 120.952 144.266 122.2 144.826 122.84ZM163.841 116.624V122.768C163.889 123.36 164.353 123.712 165.233 123.824L165.161 125.24C163.897 125.24 162.945 124.92 162.305 124.28C160.865 124.92 159.425 125.24 157.985 125.24C156.881 125.24 156.041 124.928 155.465 124.304C154.889 123.68 154.601 122.784 154.601 121.616C154.601 120.448 154.897 119.592 155.489 119.048C156.081 118.488 157.009 118.144 158.273 118.016L162.041 117.656V116.624C162.041 115.808 161.865 115.224 161.513 114.872C161.161 114.52 160.681 114.344 160.073 114.344C158.793 114.344 157.465 114.424 156.089 114.584L155.345 114.656L155.273 113.288C157.033 112.936 158.593 112.76 159.953 112.76C161.313 112.76 162.297 113.072 162.905 113.696C163.529 114.32 163.841 115.296 163.841 116.624ZM156.449 121.52C156.449 122.992 157.057 123.728 158.273 123.728C159.361 123.728 160.433 123.544 161.489 123.176L162.041 122.984V119.024L158.489 119.36C157.769 119.424 157.249 119.632 156.929 119.984C156.609 120.336 156.449 120.848 156.449 121.52ZM176.608 107.768V125H174.832V124.184C173.6 124.888 172.384 125.24 171.184 125.24C170.544 125.24 169.984 125.16 169.504 125C169.024 124.84 168.576 124.552 168.16 124.136C167.296 123.272 166.864 121.68 166.864 119.36C166.864 117.024 167.248 115.344 168.016 114.32C168.8 113.28 170.088 112.76 171.88 112.76C172.808 112.76 173.792 112.864 174.832 113.072V107.768H176.608ZM169.552 122.84C169.808 123.144 170.08 123.352 170.368 123.464C170.656 123.576 171.024 123.632 171.472 123.632C171.936 123.632 172.448 123.56 173.008 123.416C173.584 123.256 174.032 123.104 174.352 122.96L174.832 122.744V114.608C173.808 114.416 172.856 114.32 171.976 114.32C170.76 114.32 169.912 114.712 169.432 115.496C168.952 116.264 168.712 117.464 168.712 119.096C168.712 120.952 168.992 122.2 169.552 122.84ZM188.255 123.512L188.951 123.44L188.999 124.856C187.175 125.112 185.615 125.24 184.319 125.24C182.591 125.24 181.367 124.744 180.647 123.752C179.927 122.744 179.567 121.184 179.567 119.072C179.567 114.864 181.239 112.76 184.583 112.76C186.199 112.76 187.407 113.216 188.207 114.128C189.007 115.024 189.407 116.44 189.407 118.376L189.311 119.744H181.391C181.391 121.072 181.631 122.056 182.111 122.696C182.591 123.336 183.423 123.656 184.607 123.656C185.807 123.656 187.023 123.608 188.255 123.512ZM187.607 118.304C187.607 116.832 187.367 115.792 186.887 115.184C186.423 114.576 185.655 114.272 184.583 114.272C183.527 114.272 182.727 114.592 182.183 115.232C181.655 115.872 181.383 116.896 181.367 118.304H187.607ZM206.702 107.768V125H204.926V124.184C203.694 124.888 202.478 125.24 201.278 125.24C200.638 125.24 200.078 125.16 199.598 125C199.118 124.84 198.67 124.552 198.254 124.136C197.39 123.272 196.958 121.68 196.958 119.36C196.958 117.024 197.342 115.344 198.11 114.32C198.894 113.28 200.182 112.76 201.974 112.76C202.902 112.76 203.886 112.864 204.926 113.072V107.768H206.702ZM199.646 122.84C199.902 123.144 200.174 123.352 200.462 123.464C200.75 123.576 201.118 123.632 201.566 123.632C202.03 123.632 202.542 123.56 203.102 123.416C203.678 123.256 204.126 123.104 204.446 122.96L204.926 122.744V114.608C203.902 114.416 202.95 114.32 202.07 114.32C200.854 114.32 200.006 114.712 199.526 115.496C199.046 116.264 198.806 117.464 198.806 119.096C198.806 120.952 199.086 122.2 199.646 122.84ZM209.661 118.976C209.661 116.784 210.053 115.2 210.837 114.224C211.621 113.248 212.941 112.76 214.797 112.76C216.669 112.76 217.989 113.248 218.757 114.224C219.541 115.2 219.933 116.784 219.933 118.976C219.933 121.168 219.565 122.76 218.829 123.752C218.093 124.744 216.749 125.24 214.797 125.24C212.845 125.24 211.501 124.744 210.765 123.752C210.029 122.76 209.661 121.168 209.661 118.976ZM211.509 118.952C211.509 120.696 211.717 121.92 212.133 122.624C212.565 123.328 213.453 123.68 214.797 123.68C216.157 123.68 217.045 123.336 217.461 122.648C217.877 121.944 218.085 120.712 218.085 118.952C218.085 117.192 217.853 115.984 217.389 115.328C216.925 114.656 216.061 114.32 214.797 114.32C213.549 114.32 212.685 114.656 212.205 115.328C211.741 115.984 211.509 117.192 211.509 118.952ZM90.0651 141.56H86.2491V147.296C86.2491 148.672 86.3451 149.576 86.5371 150.008C86.7451 150.44 87.2251 150.656 87.9771 150.656L90.1131 150.512L90.2331 152C89.1611 152.176 88.3451 152.264 87.7851 152.264C86.5371 152.264 85.6731 151.96 85.1931 151.352C84.7131 150.744 84.4731 149.584 84.4731 147.872V141.56H82.7691V140H84.4731V136.328H86.2491V140H90.0651V141.56ZM100.423 150.512L101.119 150.44L101.167 151.856C99.3432 152.112 97.7832 152.24 96.4872 152.24C94.7592 152.24 93.5352 151.744 92.8152 150.752C92.0952 149.744 91.7352 148.184 91.7352 146.072C91.7352 141.864 93.4072 139.76 96.7512 139.76C98.3672 139.76 99.5752 140.216 100.375 141.128C101.175 142.024 101.575 143.44 101.575 145.376L101.479 146.744H93.5592C93.5592 148.072 93.7992 149.056 94.2792 149.696C94.7592 150.336 95.5912 150.656 96.7752 150.656C97.9752 150.656 99.1912 150.608 100.423 150.512ZM99.7752 145.304C99.7752 143.832 99.5352 142.792 99.0552 142.184C98.5912 141.576 97.8232 141.272 96.7512 141.272C95.6952 141.272 94.8952 141.592 94.3512 142.232C93.8232 142.872 93.5512 143.896 93.5352 145.304H99.7752ZM103.852 145.976C103.852 143.784 104.244 142.2 105.028 141.224C105.812 140.248 107.132 139.76 108.988 139.76C110.86 139.76 112.18 140.248 112.948 141.224C113.732 142.2 114.124 143.784 114.124 145.976C114.124 148.168 113.756 149.76 113.02 150.752C112.284 151.744 110.94 152.24 108.988 152.24C107.036 152.24 105.692 151.744 104.956 150.752C104.22 149.76 103.852 148.168 103.852 145.976ZM105.7 145.952C105.7 147.696 105.908 148.92 106.324 149.624C106.756 150.328 107.644 150.68 108.988 150.68C110.348 150.68 111.236 150.336 111.652 149.648C112.068 148.944 112.276 147.712 112.276 145.952C112.276 144.192 112.044 142.984 111.58 142.328C111.116 141.656 110.252 141.32 108.988 141.32C107.74 141.32 106.876 141.656 106.396 142.328C105.932 142.984 105.7 144.192 105.7 145.952ZM117.06 152V140H118.836V141.632C120.228 140.672 121.692 140.04 123.228 139.736V141.56C122.556 141.688 121.852 141.888 121.116 142.16C120.396 142.432 119.844 142.672 119.46 142.88L118.86 143.192V152H117.06ZM139.846 134.768V152H138.07V151.184C136.838 151.888 135.622 152.24 134.422 152.24C133.782 152.24 133.222 152.16 132.742 152C132.262 151.84 131.814 151.552 131.398 151.136C130.534 150.272 130.102 148.68 130.102 146.36C130.102 144.024 130.486 142.344 131.254 141.32C132.038 140.28 133.326 139.76 135.118 139.76C136.046 139.76 137.03 139.864 138.07 140.072V134.768H139.846ZM132.79 149.84C133.046 150.144 133.318 150.352 133.606 150.464C133.894 150.576 134.262 150.632 134.71 150.632C135.174 150.632 135.686 150.56 136.246 150.416C136.822 150.256 137.27 150.104 137.59 149.96L138.07 149.744V141.608C137.046 141.416 136.094 141.32 135.214 141.32C133.998 141.32 133.15 141.712 132.67 142.496C132.19 143.264 131.95 144.464 131.95 146.096C131.95 147.952 132.23 149.2 132.79 149.84ZM151.493 150.512L152.189 150.44L152.237 151.856C150.413 152.112 148.853 152.24 147.557 152.24C145.829 152.24 144.605 151.744 143.885 150.752C143.165 149.744 142.805 148.184 142.805 146.072C142.805 141.864 144.477 139.76 147.821 139.76C149.437 139.76 150.645 140.216 151.445 141.128C152.245 142.024 152.645 143.44 152.645 145.376L152.549 146.744H144.629C144.629 148.072 144.869 149.056 145.349 149.696C145.829 150.336 146.661 150.656 147.845 150.656C149.045 150.656 150.261 150.608 151.493 150.512ZM150.845 145.304C150.845 143.832 150.605 142.792 150.125 142.184C149.661 141.576 148.893 141.272 147.821 141.272C146.765 141.272 145.965 141.592 145.421 142.232C144.893 142.872 144.621 143.896 144.605 145.304H150.845ZM159.308 137.048V135.392H171.308V137.048H166.244V152H164.42V137.048H159.308ZM183.965 152V144.488H175.517V152H173.669V135.392H175.517V142.832H183.965V135.392H185.789V152H183.965ZM199.896 151.736C198.248 152.072 196.768 152.24 195.456 152.24C194.144 152.24 193.08 152.064 192.264 151.712C191.464 151.344 190.84 150.784 190.392 150.032C189.96 149.264 189.656 148.392 189.48 147.416C189.32 146.424 189.24 145.192 189.24 143.72C189.24 142.248 189.32 141.016 189.48 140.024C189.656 139.016 189.96 138.128 190.392 137.36C190.84 136.592 191.464 136.032 192.264 135.68C193.064 135.328 194.104 135.152 195.384 135.152C196.664 135.152 198.168 135.328 199.896 135.68L199.824 137.24C198.208 136.952 196.768 136.808 195.504 136.808C193.744 136.808 192.576 137.336 192 138.392C191.44 139.432 191.16 141.216 191.16 143.744C191.16 145.008 191.208 146.024 191.304 146.792C191.416 147.56 191.624 148.256 191.928 148.88C192.232 149.488 192.672 149.928 193.248 150.2C193.84 150.456 194.696 150.584 195.816 150.584C196.952 150.584 198.288 150.44 199.824 150.152L199.896 151.736Z" fill="#02172B"/>
</g>
<defs>
<filter id="filter0_d_1_56" x="0" y="0" width="299" height="196" filterUnits="userSpaceOnUse" color-interpolation-filters="sRGB">
<feFlood flood-opacity="0" result="BackgroundImageFix"/>
<feColorMatrix in="SourceAlpha" type="matrix" values="0 0 0 0 0 0 0 0 0 0 0 0 0 0 0 0 0 0 127 0" result="hardAlpha"/>
<feOffset dx="8" dy="8"/>
<feGaussianBlur stdDeviation="4"/>
<feComposite in2="hardAlpha" operator="out"/>
<feColorMatrix type="matrix" values="0 0 0 0 0 0 0 0 0 0 0 0 0 0 0 0 0 0 0.25 0"/>
<feBlend mode="normal" in2="BackgroundImageFix" result="effect1_dropShadow_1_56"/>
<feBlend mode="normal" in="SourceGraphic" in2="effect1_dropShadow_1_56" result="shape"/>
</filter>
</defs>
</svg>
