<svg width="299" height="196" viewBox="0 0 299 196" fill="none" xmlns="http://www.w3.org/2000/svg">
<g filter="url(#filter0_d_1_55)">
<rect width="283" height="180" rx="16" fill="white"/>
<rect x="108" y="23" width="67" height="67" rx="26.3215" fill="#02172B"/>
<path d="M153.063 51.9859V33.5313C153.063 32.6919 152.389 32 151.546 32H125.65C124.807 32 124.133 32.6806 124.133 33.5313V51.9859L138.604 62.7614L153.063 51.9859ZM143.648 38.3746H146.614C147.109 38.3746 147.513 38.7829 147.513 39.282C147.513 39.7811 147.109 40.1894 146.614 40.1894H143.648C143.154 40.1894 142.749 39.7811 142.749 39.282C142.749 38.7829 143.154 38.3746 143.648 38.3746ZM143.648 44.6925H146.614C147.109 44.6925 147.513 45.1008 147.513 45.5999C147.513 46.099 147.109 46.5073 146.614 46.5073H143.648C143.154 46.5073 142.749 46.099 142.749 45.5999C142.749 45.1008 143.154 44.6925 143.648 44.6925ZM143.648 50.999H146.614C147.109 50.999 147.513 51.4074 147.513 51.9065C147.513 52.4055 147.109 52.8139 146.614 52.8139H143.648C143.154 52.8139 142.749 52.4055 142.749 51.9065C142.749 51.4074 143.154 50.999 143.648 50.999ZM130.571 38.3746H138.536C139.031 38.3746 139.435 38.7829 139.435 39.282C139.435 39.7811 139.031 40.1894 138.536 40.1894H130.571C130.076 40.1894 129.672 39.7811 129.672 39.282C129.672 38.7829 130.076 38.3746 130.571 38.3746ZM130.571 44.6925H138.536C139.031 44.6925 139.435 45.1008 139.435 45.5999C139.435 46.099 139.031 46.5073 138.536 46.5073H130.571C130.076 46.5073 129.672 46.099 129.672 45.5999C129.672 45.1008 130.076 44.6925 130.571 44.6925ZM130.571 52.8139C130.076 52.8139 129.672 52.4055 129.672 51.9065C129.672 51.4074 130.076 50.999 130.571 50.999H138.536C139.031 50.999 139.435 51.4074 139.435 51.9065C139.435 52.4055 139.031 52.8139 138.536 52.8139H130.571Z" fill="#80DB42"/>
<path d="M156.772 58.1251H159.199V49.6861L153.065 54.2573L138.594 65.0328L124.134 54.2459L118 49.6748V73.7213H150.604V69.6833C150.604 68.5491 151.166 67.5509 152.02 66.9497V62.9231C152.02 60.2802 154.154 58.1251 156.772 58.1251Z" fill="white"/>
<path d="M164.585 68.1921V62.9177C164.585 61.273 163.259 59.9346 161.63 59.9346H156.777C155.148 59.9346 153.822 61.273 153.822 62.9177V68.1921C153.035 68.2261 152.406 68.884 152.406 69.7006V78.4912C152.406 79.3193 153.069 79.9998 153.901 79.9998H164.506C165.338 79.9998 166.001 79.3193 166.001 78.4912V69.7006C166.001 68.884 165.372 68.2261 164.585 68.1921ZM161.248 73.5572C161.248 73.5798 161.248 73.5912 161.248 73.6139C161.17 74.3398 160.72 74.9523 160.102 75.2586V76.8465C160.102 77.3456 159.698 77.754 159.203 77.754C158.709 77.754 158.305 77.3456 158.305 76.8465V75.2586C157.709 74.9637 157.282 74.3965 157.17 73.716C157.17 73.6819 157.159 73.6479 157.159 73.6139C157.159 73.5912 157.159 73.5798 157.159 73.5572C157.147 73.5004 157.147 73.4551 157.147 73.3984C157.147 72.2527 158.069 71.3226 159.203 71.3226C160.338 71.3226 161.259 72.2527 161.259 73.3984C161.259 73.4551 161.259 73.5118 161.248 73.5572ZM162.787 68.1807H155.631V62.9177C155.631 62.2712 156.148 61.7494 156.788 61.7494H161.641C162.282 61.7494 162.799 62.2712 162.799 62.9177V68.1807H162.787Z" fill="#80DB42"/>
<path d="M93.2205 125L97.7805 108.392H101.813L106.373 125H104.549L103.349 120.728H96.2445L95.0445 125H93.2205ZM99.1725 109.976L96.6525 119.072H102.941L100.421 109.976H99.1725ZM110.469 125H108.669V113H110.445V113.84C111.645 113.12 112.813 112.76 113.949 112.76C115.437 112.76 116.477 113.168 117.069 113.984C117.597 113.664 118.277 113.384 119.109 113.144C119.957 112.888 120.701 112.76 121.341 112.76C122.941 112.76 124.013 113.192 124.557 114.056C125.117 114.904 125.397 116.44 125.397 118.664V125H123.597V118.712C123.597 117.048 123.437 115.912 123.117 115.304C122.797 114.68 122.117 114.368 121.077 114.368C120.549 114.368 120.005 114.448 119.445 114.608C118.885 114.752 118.453 114.896 118.149 115.04L117.693 115.256C117.901 115.784 118.005 116.952 118.005 118.76V125H116.205V118.808C116.205 117.08 116.045 115.912 115.725 115.304C115.421 114.68 114.741 114.368 113.685 114.368C113.173 114.368 112.645 114.448 112.101 114.608C111.573 114.752 111.165 114.896 110.877 115.04L110.469 115.256V125ZM134.036 112.76C135.652 112.76 136.78 113.224 137.42 114.152C138.076 115.064 138.404 116.672 138.404 118.976C138.404 121.28 137.996 122.904 137.18 123.848C136.38 124.776 134.9 125.24 132.74 125.24C132.068 125.24 130.956 125.176 129.404 125.048L128.732 124.976V107.768H130.508V113.6C131.724 113.04 132.9 112.76 134.036 112.76ZM132.716 123.632C134.284 123.632 135.316 123.28 135.812 122.576C136.324 121.856 136.58 120.648 136.58 118.952C136.58 117.256 136.38 116.072 135.98 115.4C135.58 114.712 134.868 114.368 133.844 114.368C132.916 114.368 131.964 114.544 130.988 114.896L130.508 115.064V123.512C131.548 123.592 132.284 123.632 132.716 123.632ZM141.365 125V113H143.165V125H141.365ZM141.365 110.288V108.2H143.165V110.288H141.365ZM154.775 123.512L155.471 123.44L155.519 124.856C153.695 125.112 152.135 125.24 150.839 125.24C149.111 125.24 147.887 124.744 147.167 123.752C146.447 122.744 146.087 121.184 146.087 119.072C146.087 114.864 147.759 112.76 151.103 112.76C152.719 112.76 153.927 113.216 154.727 114.128C155.527 115.024 155.927 116.44 155.927 118.376L155.831 119.744H147.911C147.911 121.072 148.151 122.056 148.631 122.696C149.111 123.336 149.943 123.656 151.127 123.656C152.327 123.656 153.543 123.608 154.775 123.512ZM154.127 118.304C154.127 116.832 153.887 115.792 153.407 115.184C152.943 114.576 152.175 114.272 151.103 114.272C150.047 114.272 149.247 114.592 148.703 115.232C148.175 115.872 147.903 116.896 147.887 118.304H154.127ZM160.532 125H158.732V113H160.508V113.84C161.804 113.12 163.044 112.76 164.228 112.76C165.828 112.76 166.9 113.192 167.444 114.056C168.004 114.92 168.284 116.456 168.284 118.664V125H166.508V118.712C166.508 117.048 166.34 115.912 166.004 115.304C165.684 114.68 164.988 114.368 163.916 114.368C163.404 114.368 162.86 114.448 162.284 114.608C161.724 114.752 161.292 114.896 160.988 115.04L160.532 115.256V125ZM177.768 114.56H173.952V120.296C173.952 121.672 174.048 122.576 174.24 123.008C174.448 123.44 174.928 123.656 175.68 123.656L177.816 123.512L177.936 125C176.864 125.176 176.048 125.264 175.488 125.264C174.24 125.264 173.376 124.96 172.896 124.352C172.416 123.744 172.176 122.584 172.176 120.872V114.56H170.472V113H172.176V109.328H173.952V113H177.768V114.56ZM188.126 123.512L188.822 123.44L188.87 124.856C187.046 125.112 185.486 125.24 184.19 125.24C182.462 125.24 181.238 124.744 180.518 123.752C179.798 122.744 179.438 121.184 179.438 119.072C179.438 114.864 181.11 112.76 184.454 112.76C186.07 112.76 187.278 113.216 188.078 114.128C188.878 115.024 189.278 116.44 189.278 118.376L189.182 119.744H181.262C181.262 121.072 181.502 122.056 181.982 122.696C182.462 123.336 183.294 123.656 184.478 123.656C185.678 123.656 186.894 123.608 188.126 123.512ZM187.478 118.304C187.478 116.832 187.238 115.792 186.758 115.184C186.294 114.576 185.526 114.272 184.454 114.272C183.398 114.272 182.598 114.592 182.054 115.232C181.526 115.872 181.254 116.896 181.238 118.304H187.478ZM46.1968 152V140H47.9728V141.632C49.3648 140.672 50.8288 140.04 52.3648 139.736V141.56C51.6928 141.688 50.9888 141.888 50.2528 142.16C49.5328 142.432 48.9808 142.672 48.5968 142.88L47.9967 143.192V152H46.1968ZM62.4193 150.512L63.1153 150.44L63.1633 151.856C61.3393 152.112 59.7793 152.24 58.4833 152.24C56.7553 152.24 55.5313 151.744 54.8113 150.752C54.0913 149.744 53.7313 148.184 53.7313 146.072C53.7313 141.864 55.4033 139.76 58.7473 139.76C60.3633 139.76 61.5713 140.216 62.3713 141.128C63.1713 142.024 63.5713 143.44 63.5713 145.376L63.4753 146.744H55.5553C55.5553 148.072 55.7953 149.056 56.2753 149.696C56.7553 150.336 57.5873 150.656 58.7713 150.656C59.9713 150.656 61.1873 150.608 62.4193 150.512ZM61.7713 145.304C61.7713 143.832 61.5313 142.792 61.0513 142.184C60.5873 141.576 59.8193 141.272 58.7473 141.272C57.6913 141.272 56.8913 141.592 56.3473 142.232C55.8193 142.872 55.5473 143.896 55.5312 145.304H61.7713ZM71.0084 157.64C69.0884 157.64 67.7444 157.376 66.9764 156.848C66.2244 156.336 65.8484 155.392 65.8484 154.016C65.8484 153.36 65.9924 152.824 66.2804 152.408C66.5684 152.008 67.0564 151.552 67.7444 151.04C67.2964 150.736 67.0724 150.184 67.0724 149.384C67.0724 149.112 67.2724 148.608 67.6724 147.872L67.8884 147.488C66.6244 146.912 65.9924 145.704 65.9924 143.864C65.9924 141.128 67.4884 139.76 70.4804 139.76C71.2484 139.76 71.9604 139.84 72.6164 140L72.9764 140.072L76.5284 139.976V141.512L74.2484 141.464C74.7764 141.992 75.0404 142.792 75.0404 143.864C75.0404 145.368 74.6644 146.424 73.9124 147.032C73.1764 147.624 72.0084 147.92 70.4084 147.92C69.9764 147.92 69.5844 147.888 69.2324 147.824C68.9444 148.528 68.8004 148.984 68.8004 149.192C68.8004 149.688 68.9524 150 69.2564 150.128C69.5604 150.24 70.4804 150.296 72.0164 150.296C73.5524 150.296 74.6564 150.536 75.3284 151.016C76.0004 151.496 76.3364 152.432 76.3364 153.824C76.3364 156.368 74.5604 157.64 71.0084 157.64ZM67.6244 153.872C67.6244 154.72 67.8564 155.304 68.3204 155.624C68.8004 155.96 69.6724 156.128 70.9364 156.128C72.2164 156.128 73.1284 155.952 73.6724 155.6C74.2324 155.248 74.5124 154.656 74.5124 153.824C74.5124 153.008 74.3124 152.48 73.9124 152.24C73.5124 152 72.7284 151.88 71.5604 151.88L68.9684 151.76C68.4404 152.144 68.0804 152.48 67.8884 152.768C67.7124 153.056 67.6244 153.424 67.6244 153.872ZM67.7924 143.864C67.7924 144.808 68.0004 145.48 68.4164 145.88C68.8484 146.28 69.5524 146.48 70.5284 146.48C71.5044 146.48 72.2004 146.28 72.6164 145.88C73.0324 145.48 73.2404 144.808 73.2404 143.864C73.2404 142.904 73.0324 142.224 72.6164 141.824C72.2004 141.424 71.5044 141.224 70.5284 141.224C69.5524 141.224 68.8484 141.432 68.4164 141.848C68.0004 142.248 67.7924 142.92 67.7924 143.864ZM86.1926 140H87.9926V152H86.1926V151.16C84.9926 151.88 83.8086 152.24 82.6406 152.24C81.0086 152.24 79.9206 151.816 79.3766 150.968C78.8486 150.12 78.5846 148.552 78.5846 146.264V140H80.3846V146.24C80.3846 147.984 80.5366 149.152 80.8406 149.744C81.1446 150.336 81.8326 150.632 82.9046 150.632C83.4326 150.632 83.9686 150.56 84.5126 150.416C85.0566 150.256 85.4726 150.104 85.7606 149.96L86.1926 149.744V140ZM91.5986 152V134.768H93.3986V152H91.5986ZM105.481 143.624V149.768C105.529 150.36 105.993 150.712 106.873 150.824L106.801 152.24C105.537 152.24 104.585 151.92 103.945 151.28C102.505 151.92 101.065 152.24 99.6253 152.24C98.5213 152.24 97.6813 151.928 97.1053 151.304C96.5293 150.68 96.2413 149.784 96.2413 148.616C96.2413 147.448 96.5373 146.592 97.1293 146.048C97.7213 145.488 98.6493 145.144 99.9133 145.016L103.681 144.656V143.624C103.681 142.808 103.505 142.224 103.153 141.872C102.801 141.52 102.321 141.344 101.713 141.344C100.433 141.344 99.1053 141.424 97.7293 141.584L96.9853 141.656L96.9133 140.288C98.6733 139.936 100.233 139.76 101.593 139.76C102.953 139.76 103.937 140.072 104.545 140.696C105.169 141.32 105.481 142.296 105.481 143.624ZM98.0893 148.52C98.0893 149.992 98.6973 150.728 99.9133 150.728C101.001 150.728 102.073 150.544 103.129 150.176L103.681 149.984V146.024L100.129 146.36C99.4093 146.424 98.8893 146.632 98.5693 146.984C98.2493 147.336 98.0893 147.848 98.0893 148.52ZM115.249 141.56H111.433V147.296C111.433 148.672 111.529 149.576 111.721 150.008C111.929 150.44 112.409 150.656 113.161 150.656L115.297 150.512L115.417 152C114.345 152.176 113.529 152.264 112.969 152.264C111.721 152.264 110.857 151.96 110.377 151.352C109.897 150.744 109.657 149.584 109.657 147.872V141.56H107.953V140H109.657V136.328H111.433V140H115.249V141.56ZM122.055 139.76C123.927 139.76 125.247 140.248 126.015 141.224C126.799 142.2 127.191 143.784 127.191 145.976C127.191 148.168 126.823 149.76 126.087 150.752C125.351 151.744 124.007 152.24 122.055 152.24C120.103 152.24 118.759 151.744 118.023 150.752C117.287 149.76 116.919 148.168 116.919 145.976C116.919 143.784 117.311 142.2 118.095 141.224C118.879 140.248 120.199 139.76 122.055 139.76ZM122.055 150.68C123.415 150.68 124.303 150.336 124.719 149.648C125.135 148.944 125.343 147.712 125.343 145.952C125.343 144.192 125.111 142.984 124.647 142.328C124.183 141.656 123.319 141.32 122.055 141.32C120.807 141.32 119.943 141.656 119.463 142.328C118.999 142.984 118.767 144.192 118.767 145.952C118.767 147.696 118.975 148.92 119.391 149.624C119.823 150.328 120.711 150.68 122.055 150.68ZM119.415 136.592L124.599 134.24L125.223 135.776L119.919 137.816L119.415 136.592ZM130.126 152V140H131.902V141.632C133.294 140.672 134.758 140.04 136.294 139.736V141.56C135.622 141.688 134.918 141.888 134.182 142.16C133.462 142.432 132.91 142.672 132.526 142.88L131.926 143.192V152H130.126ZM138.423 152V140H140.223V152H138.423ZM138.423 137.288V135.2H140.223V137.288H138.423ZM143.145 145.976C143.145 143.784 143.537 142.2 144.321 141.224C145.105 140.248 146.425 139.76 148.281 139.76C150.153 139.76 151.473 140.248 152.241 141.224C153.025 142.2 153.417 143.784 153.417 145.976C153.417 148.168 153.049 149.76 152.313 150.752C151.577 151.744 150.233 152.24 148.281 152.24C146.329 152.24 144.985 151.744 144.249 150.752C143.513 149.76 143.145 148.168 143.145 145.976ZM144.993 145.952C144.993 147.696 145.201 148.92 145.617 149.624C146.049 150.328 146.937 150.68 148.281 150.68C149.641 150.68 150.529 150.336 150.945 149.648C151.361 148.944 151.569 147.712 151.569 145.952C151.569 144.192 151.337 142.984 150.873 142.328C150.409 141.656 149.545 141.32 148.281 141.32C147.033 141.32 146.169 141.656 145.689 142.328C145.225 142.984 144.993 144.192 144.993 145.952ZM161.626 152V140H163.426V152H161.626ZM161.626 137.288V135.2H163.426V137.288H161.626ZM168.676 152H166.876V140H168.652V140.84C169.948 140.12 171.188 139.76 172.372 139.76C173.972 139.76 175.044 140.192 175.588 141.056C176.148 141.92 176.428 143.456 176.428 145.664V152H174.652V145.712C174.652 144.048 174.484 142.912 174.148 142.304C173.828 141.68 173.132 141.368 172.06 141.368C171.548 141.368 171.004 141.448 170.428 141.608C169.868 141.752 169.436 141.896 169.132 142.04L168.676 142.256V152ZM183.535 141.368C181.791 141.368 180.919 141.976 180.919 143.192C180.919 143.752 181.119 144.152 181.519 144.392C181.919 144.616 182.831 144.856 184.255 145.112C185.679 145.352 186.687 145.696 187.279 146.144C187.871 146.592 188.167 147.432 188.167 148.664C188.167 149.896 187.767 150.8 186.967 151.376C186.183 151.952 185.031 152.24 183.511 152.24C182.519 152.24 181.351 152.128 180.007 151.904L179.287 151.784L179.383 150.224C181.207 150.496 182.583 150.632 183.511 150.632C184.439 150.632 185.143 150.488 185.623 150.2C186.119 149.896 186.367 149.4 186.367 148.712C186.367 148.008 186.159 147.536 185.743 147.296C185.327 147.04 184.415 146.8 183.007 146.576C181.599 146.352 180.599 146.024 180.007 145.592C179.415 145.16 179.119 144.36 179.119 143.192C179.119 142.024 179.527 141.16 180.343 140.6C181.175 140.04 182.207 139.76 183.439 139.76C184.415 139.76 185.639 139.872 187.111 140.096L187.783 140.216L187.735 141.752C185.959 141.496 184.559 141.368 183.535 141.368ZM197.139 141.56H193.323V147.296C193.323 148.672 193.419 149.576 193.611 150.008C193.819 150.44 194.299 150.656 195.051 150.656L197.187 150.512L197.307 152C196.235 152.176 195.419 152.264 194.859 152.264C193.611 152.264 192.747 151.96 192.267 151.352C191.787 150.744 191.547 149.584 191.547 147.872V141.56H189.843V140H191.547V136.328H193.323V140H197.139V141.56ZM207.809 143.624V149.768C207.857 150.36 208.321 150.712 209.201 150.824L209.129 152.24C207.865 152.24 206.913 151.92 206.273 151.28C204.833 151.92 203.393 152.24 201.953 152.24C200.849 152.24 200.009 151.928 199.433 151.304C198.857 150.68 198.569 149.784 198.569 148.616C198.569 147.448 198.865 146.592 199.457 146.048C200.049 145.488 200.977 145.144 202.241 145.016L206.009 144.656V143.624C206.009 142.808 205.833 142.224 205.481 141.872C205.129 141.52 204.649 141.344 204.041 141.344C202.761 141.344 201.433 141.424 200.057 141.584L199.313 141.656L199.241 140.288C201.001 139.936 202.561 139.76 203.921 139.76C205.281 139.76 206.265 140.072 206.873 140.696C207.497 141.32 207.809 142.296 207.809 143.624ZM200.417 148.52C200.417 149.992 201.025 150.728 202.241 150.728C203.329 150.728 204.401 150.544 205.457 150.176L206.009 149.984V146.024L202.457 146.36C201.737 146.424 201.217 146.632 200.897 146.984C200.577 147.336 200.417 147.848 200.417 148.52ZM200.441 136.592L205.625 134.24L206.249 135.776L200.945 137.816L200.441 136.592ZM210.116 140H212.036L214.844 150.44H215.732L218.636 140H220.484L217.1 152H213.5L210.116 140ZM230.747 150.512L231.443 150.44L231.491 151.856C229.667 152.112 228.107 152.24 226.811 152.24C225.083 152.24 223.859 151.744 223.139 150.752C222.419 149.744 222.059 148.184 222.059 146.072C222.059 141.864 223.731 139.76 227.075 139.76C228.691 139.76 229.899 140.216 230.699 141.128C231.499 142.024 231.899 143.44 231.899 145.376L231.803 146.744H223.883C223.883 148.072 224.123 149.056 224.603 149.696C225.083 150.336 225.915 150.656 227.099 150.656C228.299 150.656 229.515 150.608 230.747 150.512ZM230.099 145.304C230.099 143.832 229.859 142.792 229.379 142.184C228.915 141.576 228.147 141.272 227.075 141.272C226.019 141.272 225.219 141.592 224.675 142.232C224.147 142.872 223.875 143.896 223.859 145.304H230.099ZM234.849 152V134.768H236.649V152H234.849Z" fill="#02172B"/>
</g>
<defs>
<filter id="filter0_d_1_55" x="0" y="0" width="299" height="196" filterUnits="userSpaceOnUse" color-interpolation-filters="sRGB">
<feFlood flood-opacity="0" result="BackgroundImageFix"/>
<feColorMatrix in="SourceAlpha" type="matrix" values="0 0 0 0 0 0 0 0 0 0 0 0 0 0 0 0 0 0 127 0" result="hardAlpha"/>
<feOffset dx="8" dy="8"/>
<feGaussianBlur stdDeviation="4"/>
<feComposite in2="hardAlpha" operator="out"/>
<feColorMatrix type="matrix" values="0 0 0 0 0 0 0 0 0 0 0 0 0 0 0 0 0 0 0.25 0"/>
<feBlend mode="normal" in2="BackgroundImageFix" result="effect1_dropShadow_1_55"/>
<feBlend mode="normal" in="SourceGraphic" in2="effect1_dropShadow_1_55" result="shape"/>
</filter>
</defs>
</svg>
