<svg width="299" height="196" viewBox="0 0 299 196" fill="none" xmlns="http://www.w3.org/2000/svg">
<g filter="url(#filter0_d_1_57)">
<rect width="283" height="180" rx="16" fill="white"/>
<rect x="108" y="36" width="67" height="67" rx="26.3215" fill="#02172B"/>
<path d="M122.009 88.6625C122.009 89.6562 122.816 90.4625 123.809 90.4625H143.356C144.35 90.4625 145.156 89.6562 145.156 88.6625V66.9219H122.009V88.6625ZM140.459 86.2812H136.897V82.7188H140.459V86.2812ZM136.728 69.6594C136.981 69.4062 137.403 69.4062 137.656 69.6594L138.444 70.4469L140.45 68.4406C140.703 68.1875 141.125 68.1875 141.378 68.4406C141.631 68.6937 141.631 69.1156 141.378 69.3687L138.912 71.8344C138.781 71.9656 138.622 72.0313 138.453 72.0313C138.284 72.0313 138.116 71.9656 137.994 71.8344L136.747 70.5875C136.475 70.3344 136.475 69.9219 136.728 69.6594ZM136.728 76.7844C136.981 76.5312 137.403 76.5312 137.656 76.7844L138.444 77.5719L140.45 75.5656C140.703 75.3125 141.125 75.3125 141.378 75.5656C141.631 75.8187 141.631 76.2406 141.378 76.4937L138.912 78.9594C138.781 79.0906 138.622 79.1562 138.453 79.1562C138.284 79.1562 138.116 79.0906 137.994 78.9594L136.747 77.7125C136.475 77.4594 136.475 77.0469 136.728 76.7844ZM126.95 69.5938H133.587C133.953 69.5938 134.244 69.8844 134.244 70.25C134.244 70.6156 133.953 70.9063 133.587 70.9063H126.95C126.584 70.9063 126.294 70.6156 126.294 70.25C126.294 69.8844 126.584 69.5938 126.95 69.5938ZM126.95 76.7188H133.587C133.953 76.7188 134.244 77.0094 134.244 77.375C134.244 77.7406 133.953 78.0313 133.587 78.0313H126.95C126.584 78.0313 126.294 77.7406 126.294 77.375C126.294 77.0094 126.584 76.7188 126.95 76.7188ZM126.95 83.8438H133.587C133.953 83.8438 134.244 84.1344 134.244 84.5C134.244 84.8656 133.953 85.1562 133.587 85.1562H126.95C126.584 85.1562 126.294 84.8656 126.294 84.5C126.294 84.1344 126.584 83.8438 126.95 83.8438Z" fill="#80DB42"/>
<path d="M151.531 47C146.609 47 142.494 50.4312 141.444 55.0344H141.613V57.275H143.356C143.572 57.275 143.788 57.2938 143.994 57.3406C143.994 53.1875 147.369 49.8125 151.531 49.8125C155.694 49.8125 159.069 53.1875 159.069 57.35C159.069 61.5125 155.694 64.8875 151.531 64.8875C149.581 64.8875 147.8 64.1469 146.469 62.9281V66.3781C147.969 67.2219 149.694 67.7 151.531 67.7C157.25 67.7 161.881 63.0688 161.881 57.35C161.872 51.6313 157.241 47 151.531 47Z" fill="#80DB42"/>
<path d="M144.125 58.7566C143.891 58.6441 143.628 58.5785 143.356 58.5785H140.3V56.3379H136.737V58.5785H130.428V56.3379H126.866V58.5785H123.8C122.806 58.5785 122 59.3848 122 60.3785V65.6098H145.138V60.3879C145.147 59.666 144.734 59.0473 144.125 58.7566Z" fill="white"/>
<path d="M151.831 59.1125H150.013C149.647 59.1125 149.356 59.4031 149.356 59.7688C149.356 60.1344 149.647 60.425 150.013 60.425H150.875V60.8563C150.875 61.2219 151.166 61.5125 151.531 61.5125C151.897 61.5125 152.188 61.2219 152.188 60.8563V60.3875C153.05 60.2188 153.697 59.4594 153.697 58.5594C153.697 57.5281 152.863 56.6938 151.831 56.6938H151.222C150.913 56.6938 150.669 56.4406 150.669 56.1406C150.669 55.8313 150.922 55.5875 151.222 55.5875H153.041C153.406 55.5875 153.697 55.2969 153.697 54.9313C153.697 54.5656 153.406 54.275 153.041 54.275H152.188V53.8438C152.188 53.4781 151.897 53.1875 151.531 53.1875C151.166 53.1875 150.875 53.4781 150.875 53.8438V54.3125C150.013 54.4813 149.356 55.2313 149.356 56.1406C149.356 57.1719 150.191 58.0063 151.222 58.0063H151.831C152.141 58.0063 152.385 58.25 152.385 58.5594C152.385 58.8594 152.141 59.1125 151.831 59.1125Z" fill="white"/>
<path d="M126.503 132.408H122.279V138H120.431V121.392H126.503C128.311 121.392 129.647 121.832 130.511 122.712C131.375 123.592 131.807 124.936 131.807 126.744C131.807 130.52 130.039 132.408 126.503 132.408ZM122.279 130.776H126.479C128.767 130.776 129.911 129.432 129.911 126.744C129.911 125.464 129.639 124.528 129.095 123.936C128.551 123.328 127.679 123.024 126.479 123.024H122.279V130.776ZM135.977 124.704C135.977 123.632 136.345 122.776 137.081 122.136C137.817 121.496 138.857 121.176 140.201 121.176C141.545 121.176 142.561 121.496 143.249 122.136C143.953 122.776 144.305 123.664 144.305 124.8C144.305 125.92 144.025 126.808 143.465 127.464C142.905 128.104 141.953 128.736 140.609 129.36L144.257 132.96C144.609 131.936 144.833 130.64 144.929 129.072L146.681 129.096C146.473 131.096 146.105 132.76 145.577 134.088L148.673 137.016L147.593 138.216L144.689 135.504C143.585 137.328 141.913 138.24 139.673 138.24C137.433 138.24 135.865 137.808 134.969 136.944C134.073 136.08 133.625 134.888 133.625 133.368C133.625 131.832 133.913 130.712 134.489 130.008C135.081 129.288 136.033 128.712 137.345 128.28C136.785 127.64 136.417 127.072 136.241 126.576C136.065 126.08 135.977 125.456 135.977 124.704ZM139.385 136.608C141.353 136.608 142.705 135.888 143.441 134.448L138.377 129.408C137.321 129.744 136.569 130.176 136.121 130.704C135.673 131.232 135.449 132.048 135.449 133.152C135.449 135.456 136.761 136.608 139.385 136.608ZM137.777 124.992C137.777 125.968 138.137 126.84 138.857 127.608L139.553 128.28C140.657 127.8 141.425 127.328 141.857 126.864C142.289 126.4 142.505 125.76 142.505 124.944C142.505 123.472 141.713 122.736 140.129 122.736C138.561 122.736 137.777 123.488 137.777 124.992ZM157.109 138H151.181V121.392H157.109C159.813 121.392 161.605 122.464 162.485 124.608C162.997 125.84 163.253 127.456 163.253 129.456C163.253 133.632 162.213 136.264 160.133 137.352C159.301 137.784 158.293 138 157.109 138ZM161.357 129.456C161.357 126.272 160.645 124.288 159.221 123.504C158.645 123.184 157.941 123.024 157.109 123.024H153.029V136.368H157.109C159.941 136.368 161.357 134.064 161.357 129.456Z" fill="#02172B"/>
</g>
<defs>
<filter id="filter0_d_1_57" x="0" y="0" width="299" height="196" filterUnits="userSpaceOnUse" color-interpolation-filters="sRGB">
<feFlood flood-opacity="0" result="BackgroundImageFix"/>
<feColorMatrix in="SourceAlpha" type="matrix" values="0 0 0 0 0 0 0 0 0 0 0 0 0 0 0 0 0 0 127 0" result="hardAlpha"/>
<feOffset dx="8" dy="8"/>
<feGaussianBlur stdDeviation="4"/>
<feComposite in2="hardAlpha" operator="out"/>
<feColorMatrix type="matrix" values="0 0 0 0 0 0 0 0 0 0 0 0 0 0 0 0 0 0 0.25 0"/>
<feBlend mode="normal" in2="BackgroundImageFix" result="effect1_dropShadow_1_57"/>
<feBlend mode="normal" in="SourceGraphic" in2="effect1_dropShadow_1_57" result="shape"/>
</filter>
</defs>
</svg>
