<svg width="230" height="130" viewBox="0 0 230 130" fill="none" xmlns="http://www.w3.org/2000/svg">
<rect x="81.5" width="67" height="67" rx="26.3215" fill="#02172B"/>
<path d="M118.17 18.0391V22.5511C123.509 23.263 127.634 27.8483 127.634 33.3862C127.634 38.9242 123.509 43.4991 118.17 44.2109V48.723C126.001 47.9797 132.114 41.3948 132.114 33.3758C132.114 25.3672 125.99 18.7823 118.17 18.0391Z" fill="white"/>
<path d="M115.235 13.5991V9.76758H111.874V11.7148H108.524V13.5991H111.874H115.235Z" fill="white"/>
<path d="M116.667 15H107.004V28.2116H116.667V15ZM111.83 22.1502C110.658 22.1502 109.705 21.1975 109.705 20.025C109.705 18.8525 110.658 17.8998 111.83 17.8998C113.003 17.8998 113.955 18.8525 113.955 20.025C113.955 21.1975 113.003 22.1502 111.83 22.1502Z" fill="#80DB42"/>
<path d="M113.11 33.7527V31.2716H115.476V29.7432H108.273V31.2716H110.65V33.7527H113.11Z" fill="white"/>
<path d="M116.709 48.7954V42.6398H105.811V40.0645H101.676V48.7954H105.811H116.709Z" fill="white"/>
<path d="M100.215 48.7969H97.8906V51.6863H104.601C105.009 51.6863 105.334 52.0108 105.334 52.4191C105.334 52.8273 105.009 53.1519 104.601 53.1519H97.8906V57.2242H127.046V50.2625L100.215 50.252V48.7969ZM121.006 51.1209C122.094 51.1209 122.974 52.0003 122.974 53.0891C122.974 54.1778 122.094 55.0572 121.006 55.0572C119.917 55.0572 119.027 54.1778 119.027 53.0891C119.027 52.0003 119.917 51.1209 121.006 51.1209ZM106.224 52.283C106.234 52.2306 106.245 52.1887 106.266 52.1469C106.287 52.105 106.308 52.0631 106.328 52.0212C106.36 51.9794 106.381 51.948 106.423 51.9061C106.59 51.7386 106.852 51.6548 107.082 51.7072C107.124 51.7177 107.176 51.7281 107.218 51.7491C107.26 51.77 107.302 51.7909 107.344 51.8119C107.386 51.8433 107.417 51.8747 107.459 51.9061C107.49 51.9375 107.522 51.9794 107.553 52.0212C107.585 52.0631 107.606 52.105 107.616 52.1469C107.637 52.1887 107.648 52.2411 107.658 52.283C107.668 52.3248 107.668 52.3772 107.668 52.4295C107.668 52.4819 107.668 52.5238 107.658 52.5761C107.648 52.6284 107.637 52.6703 107.616 52.7122C107.595 52.7541 107.574 52.7959 107.553 52.8378C107.532 52.8797 107.49 52.9111 107.459 52.953C107.428 52.9844 107.386 53.0158 107.344 53.0472C107.302 53.0786 107.26 53.0995 107.218 53.11C107.176 53.1309 107.124 53.1414 107.082 53.1519C107.03 53.1623 106.988 53.1623 106.936 53.1623C106.894 53.1623 106.841 53.1623 106.789 53.1519C106.747 53.1414 106.695 53.1309 106.653 53.11C106.611 53.0891 106.569 53.0681 106.527 53.0472C106.485 53.0158 106.454 52.9948 106.412 52.953C106.381 52.9216 106.349 52.8797 106.318 52.8378C106.287 52.7959 106.266 52.7541 106.255 52.7122C106.234 52.6703 106.224 52.618 106.213 52.5761C106.203 52.5342 106.203 52.4819 106.203 52.4295C106.213 52.3772 106.213 52.3248 106.224 52.283Z" fill="#D5F3C0"/>
<path d="M105.58 16.7715H103.35V26.5807H105.58V16.7715Z" fill="white"/>
<path d="M46.5986 80.392H52.6226C54.2706 80.392 55.5026 80.736 56.3186 81.424C57.1506 82.096 57.5666 83.16 57.5666 84.616C57.5666 85.656 57.3826 86.472 57.0146 87.064C56.6626 87.64 56.1346 88.096 55.4306 88.432C57.1906 89.04 58.0706 90.344 58.0706 92.344C58.0706 94.008 57.6306 95.2 56.7506 95.92C55.8706 96.64 54.5986 97 52.9346 97H46.5986V80.392ZM52.7426 89.368H48.4466V95.368H52.8626C53.9506 95.368 54.7746 95.144 55.3346 94.696C55.9106 94.232 56.1986 93.424 56.1986 92.272C56.1986 91.664 56.0786 91.152 55.8386 90.736C55.6146 90.32 55.3106 90.024 54.9266 89.848C54.2226 89.528 53.4946 89.368 52.7426 89.368ZM52.5506 82.024H48.4466V87.76H52.7186C53.7426 87.76 54.4866 87.52 54.9506 87.04C55.4306 86.544 55.6706 85.808 55.6706 84.832C55.6706 83.84 55.4146 83.128 54.9026 82.696C54.4066 82.248 53.6226 82.024 52.5506 82.024ZM69.5477 88.624V94.768C69.5957 95.36 70.0597 95.712 70.9397 95.824L70.8677 97.24C69.6037 97.24 68.6517 96.92 68.0117 96.28C66.5717 96.92 65.1317 97.24 63.6917 97.24C62.5877 97.24 61.7477 96.928 61.1717 96.304C60.5957 95.68 60.3077 94.784 60.3077 93.616C60.3077 92.448 60.6037 91.592 61.1957 91.048C61.7877 90.488 62.7157 90.144 63.9797 90.016L67.7477 89.656V88.624C67.7477 87.808 67.5717 87.224 67.2197 86.872C66.8677 86.52 66.3877 86.344 65.7797 86.344C64.4997 86.344 63.1717 86.424 61.7957 86.584L61.0517 86.656L60.9797 85.288C62.7397 84.936 64.2997 84.76 65.6597 84.76C67.0197 84.76 68.0037 85.072 68.6117 85.696C69.2357 86.32 69.5477 87.296 69.5477 88.624ZM62.1557 93.52C62.1557 94.992 62.7637 95.728 63.9797 95.728C65.0677 95.728 66.1397 95.544 67.1957 95.176L67.7477 94.984V91.024L64.1957 91.36C63.4757 91.424 62.9557 91.632 62.6357 91.984C62.3157 92.336 62.1557 92.848 62.1557 93.52ZM76.8671 86.368C75.1231 86.368 74.2511 86.976 74.2511 88.192C74.2511 88.752 74.4511 89.152 74.8511 89.392C75.2511 89.616 76.1631 89.856 77.5871 90.112C79.0111 90.352 80.0191 90.696 80.6111 91.144C81.2031 91.592 81.4991 92.432 81.4991 93.664C81.4991 94.896 81.0991 95.8 80.2991 96.376C79.5151 96.952 78.3631 97.24 76.8431 97.24C75.8511 97.24 74.6831 97.128 73.3391 96.904L72.6191 96.784L72.7151 95.224C74.5391 95.496 75.9151 95.632 76.8431 95.632C77.7711 95.632 78.4751 95.488 78.9551 95.2C79.4511 94.896 79.6991 94.4 79.6991 93.712C79.6991 93.008 79.4911 92.536 79.0751 92.296C78.6591 92.04 77.7471 91.8 76.3391 91.576C74.9311 91.352 73.9311 91.024 73.3391 90.592C72.7471 90.16 72.4511 89.36 72.4511 88.192C72.4511 87.024 72.8591 86.16 73.6751 85.6C74.5071 85.04 75.5391 84.76 76.7711 84.76C77.7471 84.76 78.9711 84.872 80.4431 85.096L81.1151 85.216L81.0671 86.752C79.2911 86.496 77.8911 86.368 76.8671 86.368ZM92.4153 95.512L93.1113 95.44L93.1593 96.856C91.3353 97.112 89.7753 97.24 88.4793 97.24C86.7513 97.24 85.5273 96.744 84.8073 95.752C84.0873 94.744 83.7273 93.184 83.7273 91.072C83.7273 86.864 85.3993 84.76 88.7433 84.76C90.3593 84.76 91.5673 85.216 92.3673 86.128C93.1673 87.024 93.5673 88.44 93.5673 90.376L93.4713 91.744H85.5513C85.5513 93.072 85.7913 94.056 86.2713 94.696C86.7513 95.336 87.5833 95.656 88.7673 95.656C89.9673 95.656 91.1833 95.608 92.4153 95.512ZM91.7673 90.304C91.7673 88.832 91.5273 87.792 91.0473 87.184C90.5833 86.576 89.8153 86.272 88.7433 86.272C87.6873 86.272 86.8873 86.592 86.3433 87.232C85.8153 87.872 85.5433 88.896 85.5273 90.304H91.7673ZM106.278 102.64C104.358 102.64 103.014 102.376 102.246 101.848C101.494 101.336 101.118 100.392 101.118 99.016C101.118 98.36 101.262 97.824 101.55 97.408C101.838 97.008 102.326 96.552 103.014 96.04C102.566 95.736 102.342 95.184 102.342 94.384C102.342 94.112 102.542 93.608 102.942 92.872L103.158 92.488C101.894 91.912 101.262 90.704 101.262 88.864C101.262 86.128 102.758 84.76 105.75 84.76C106.518 84.76 107.23 84.84 107.886 85L108.246 85.072L111.798 84.976V86.512L109.518 86.464C110.046 86.992 110.31 87.792 110.31 88.864C110.31 90.368 109.934 91.424 109.182 92.032C108.446 92.624 107.278 92.92 105.678 92.92C105.246 92.92 104.854 92.888 104.502 92.824C104.214 93.528 104.07 93.984 104.07 94.192C104.07 94.688 104.222 95 104.526 95.128C104.83 95.24 105.75 95.296 107.286 95.296C108.822 95.296 109.926 95.536 110.598 96.016C111.27 96.496 111.606 97.432 111.606 98.824C111.606 101.368 109.83 102.64 106.278 102.64ZM102.894 98.872C102.894 99.72 103.126 100.304 103.59 100.624C104.07 100.96 104.942 101.128 106.206 101.128C107.486 101.128 108.398 100.952 108.942 100.6C109.502 100.248 109.782 99.656 109.782 98.824C109.782 98.008 109.582 97.48 109.182 97.24C108.782 97 107.998 96.88 106.83 96.88L104.238 96.76C103.71 97.144 103.35 97.48 103.158 97.768C102.982 98.056 102.894 98.424 102.894 98.872ZM103.062 88.864C103.062 89.808 103.27 90.48 103.686 90.88C104.118 91.28 104.822 91.48 105.798 91.48C106.774 91.48 107.47 91.28 107.886 90.88C108.302 90.48 108.51 89.808 108.51 88.864C108.51 87.904 108.302 87.224 107.886 86.824C107.47 86.424 106.774 86.224 105.798 86.224C104.822 86.224 104.118 86.432 103.686 86.848C103.27 87.248 103.062 87.92 103.062 88.864ZM122.134 95.512L122.83 95.44L122.878 96.856C121.054 97.112 119.494 97.24 118.198 97.24C116.47 97.24 115.246 96.744 114.526 95.752C113.806 94.744 113.446 93.184 113.446 91.072C113.446 86.864 115.118 84.76 118.462 84.76C120.078 84.76 121.286 85.216 122.086 86.128C122.886 87.024 123.286 88.44 123.286 90.376L123.19 91.744H115.27C115.27 93.072 115.51 94.056 115.99 94.696C116.47 95.336 117.302 95.656 118.486 95.656C119.686 95.656 120.902 95.608 122.134 95.512ZM121.486 90.304C121.486 88.832 121.246 87.792 120.766 87.184C120.302 86.576 119.534 86.272 118.462 86.272C117.406 86.272 116.606 86.592 116.062 87.232C115.534 87.872 115.262 88.896 115.246 90.304H121.486ZM127.891 97H126.091V85H127.867V85.84C129.163 85.12 130.403 84.76 131.587 84.76C133.187 84.76 134.259 85.192 134.803 86.056C135.363 86.92 135.643 88.456 135.643 90.664V97H133.867V90.712C133.867 89.048 133.699 87.912 133.363 87.304C133.043 86.68 132.347 86.368 131.275 86.368C130.763 86.368 130.219 86.448 129.643 86.608C129.083 86.752 128.651 86.896 128.347 87.04L127.891 87.256V97ZM147.142 95.512L147.838 95.44L147.886 96.856C146.062 97.112 144.502 97.24 143.206 97.24C141.478 97.24 140.254 96.744 139.534 95.752C138.814 94.744 138.454 93.184 138.454 91.072C138.454 86.864 140.126 84.76 143.47 84.76C145.086 84.76 146.294 85.216 147.094 86.128C147.894 87.024 148.294 88.44 148.294 90.376L148.198 91.744H140.278C140.278 93.072 140.518 94.056 140.998 94.696C141.478 95.336 142.31 95.656 143.494 95.656C144.694 95.656 145.91 95.608 147.142 95.512ZM146.494 90.304C146.494 88.832 146.254 87.792 145.774 87.184C145.31 86.576 144.542 86.272 143.47 86.272C142.414 86.272 141.614 86.592 141.07 87.232C140.542 87.872 140.27 88.896 140.254 90.304H146.494ZM140.734 81.592L145.918 79.24L146.542 80.776L141.238 82.816L140.734 81.592ZM157.245 86.56H153.429V92.296C153.429 93.672 153.525 94.576 153.717 95.008C153.925 95.44 154.405 95.656 155.157 95.656L157.293 95.512L157.413 97C156.341 97.176 155.525 97.264 154.965 97.264C153.717 97.264 152.853 96.96 152.373 96.352C151.893 95.744 151.653 94.584 151.653 92.872V86.56H149.949V85H151.653V81.328H153.429V85H157.245V86.56ZM159.443 97V85H161.243V97H159.443ZM159.443 82.288V80.2H161.243V82.288H159.443ZM169.181 84.76C169.709 84.76 170.605 84.856 171.869 85.048L172.445 85.12L172.373 86.584C171.093 86.44 170.149 86.368 169.541 86.368C168.181 86.368 167.253 86.696 166.757 87.352C166.277 87.992 166.037 89.192 166.037 90.952C166.037 92.696 166.261 93.912 166.709 94.6C167.173 95.288 168.125 95.632 169.565 95.632L172.397 95.416L172.469 96.904C170.981 97.128 169.869 97.24 169.133 97.24C167.261 97.24 165.965 96.76 165.245 95.8C164.541 94.84 164.189 93.224 164.189 90.952C164.189 88.664 164.573 87.064 165.341 86.152C166.109 85.224 167.389 84.76 169.181 84.76ZM183.618 88.624V94.768C183.666 95.36 184.13 95.712 185.01 95.824L184.938 97.24C183.674 97.24 182.722 96.92 182.082 96.28C180.642 96.92 179.202 97.24 177.762 97.24C176.658 97.24 175.818 96.928 175.242 96.304C174.666 95.68 174.378 94.784 174.378 93.616C174.378 92.448 174.674 91.592 175.266 91.048C175.858 90.488 176.786 90.144 178.05 90.016L181.818 89.656V88.624C181.818 87.808 181.642 87.224 181.29 86.872C180.938 86.52 180.458 86.344 179.85 86.344C178.57 86.344 177.242 86.424 175.866 86.584L175.122 86.656L175.05 85.288C176.81 84.936 178.37 84.76 179.73 84.76C181.09 84.76 182.074 85.072 182.682 85.696C183.306 86.32 183.618 87.296 183.618 88.624ZM176.226 93.52C176.226 94.992 176.834 95.728 178.05 95.728C179.138 95.728 180.21 95.544 181.266 95.176L181.818 94.984V91.024L178.266 91.36C177.546 91.424 177.026 91.632 176.706 91.984C176.386 92.336 176.226 92.848 176.226 93.52ZM58.1694 124V112H59.9694V124H58.1694ZM58.1694 109.288V107.2H59.9694V109.288H58.1694ZM65.2194 124H63.4194V112H65.1954V112.84C66.4914 112.12 67.7314 111.76 68.9154 111.76C70.5154 111.76 71.5874 112.192 72.1314 113.056C72.6914 113.92 72.9714 115.456 72.9714 117.664V124H71.1954V117.712C71.1954 116.048 71.0274 114.912 70.6914 114.304C70.3714 113.68 69.6754 113.368 68.6034 113.368C68.0914 113.368 67.5474 113.448 66.9714 113.608C66.4114 113.752 65.9794 113.896 65.6754 114.04L65.2194 114.256V124ZM84.782 115.624V121.768C84.83 122.36 85.294 122.712 86.174 122.824L86.102 124.24C84.838 124.24 83.886 123.92 83.246 123.28C81.806 123.92 80.366 124.24 78.926 124.24C77.822 124.24 76.982 123.928 76.406 123.304C75.83 122.68 75.542 121.784 75.542 120.616C75.542 119.448 75.838 118.592 76.43 118.048C77.022 117.488 77.95 117.144 79.214 117.016L82.982 116.656V115.624C82.982 114.808 82.806 114.224 82.454 113.872C82.102 113.52 81.622 113.344 81.014 113.344C79.734 113.344 78.406 113.424 77.03 113.584L76.286 113.656L76.214 112.288C77.974 111.936 79.534 111.76 80.894 111.76C82.254 111.76 83.238 112.072 83.846 112.696C84.47 113.32 84.782 114.296 84.782 115.624ZM77.39 120.52C77.39 121.992 77.998 122.728 79.214 122.728C80.302 122.728 81.374 122.544 82.43 122.176L82.982 121.984V118.024L79.43 118.36C78.71 118.424 78.19 118.632 77.87 118.984C77.55 119.336 77.39 119.848 77.39 120.52ZM97.5495 106.768V124H95.7735V123.184C94.5415 123.888 93.3255 124.24 92.1255 124.24C91.4855 124.24 90.9255 124.16 90.4455 124C89.9655 123.84 89.5175 123.552 89.1015 123.136C88.2375 122.272 87.8055 120.68 87.8055 118.36C87.8055 116.024 88.1895 114.344 88.9575 113.32C89.7415 112.28 91.0295 111.76 92.8215 111.76C93.7495 111.76 94.7335 111.864 95.7735 112.072V106.768H97.5495ZM90.4935 121.84C90.7495 122.144 91.0215 122.352 91.3095 122.464C91.5975 122.576 91.9655 122.632 92.4135 122.632C92.8775 122.632 93.3895 122.56 93.9495 122.416C94.5255 122.256 94.9735 122.104 95.2935 121.96L95.7735 121.744V113.608C94.7495 113.416 93.7975 113.32 92.9175 113.32C91.7015 113.32 90.8535 113.712 90.3735 114.496C89.8935 115.264 89.6535 116.464 89.6535 118.096C89.6535 119.952 89.9335 121.2 90.4935 121.84ZM109.197 122.512L109.893 122.44L109.941 123.856C108.117 124.112 106.557 124.24 105.261 124.24C103.533 124.24 102.309 123.744 101.589 122.752C100.869 121.744 100.509 120.184 100.509 118.072C100.509 113.864 102.181 111.76 105.525 111.76C107.141 111.76 108.349 112.216 109.149 113.128C109.949 114.024 110.349 115.44 110.349 117.376L110.253 118.744H102.333C102.333 120.072 102.573 121.056 103.053 121.696C103.533 122.336 104.365 122.656 105.549 122.656C106.749 122.656 107.965 122.608 109.197 122.512ZM108.549 117.304C108.549 115.832 108.309 114.792 107.829 114.184C107.365 113.576 106.597 113.272 105.525 113.272C104.469 113.272 103.669 113.592 103.125 114.232C102.597 114.872 102.325 115.896 102.309 117.304H108.549ZM117.138 124.24C115.522 124.24 114.362 123.768 113.658 122.824C112.97 121.88 112.626 120.28 112.626 118.024C112.626 115.768 113.042 114.16 113.874 113.2C114.706 112.24 116.178 111.76 118.29 111.76L122.298 112V129.328H120.522V123.448C119.402 123.976 118.274 124.24 117.138 124.24ZM118.314 113.32C116.81 113.32 115.786 113.696 115.242 114.448C114.714 115.2 114.45 116.4 114.45 118.048C114.45 119.68 114.666 120.856 115.098 121.576C115.546 122.28 116.29 122.632 117.33 122.632C118.258 122.632 119.178 122.456 120.09 122.104L120.522 121.936V113.464C119.53 113.368 118.794 113.32 118.314 113.32ZM133.275 112H135.075V124H133.275V123.16C132.075 123.88 130.891 124.24 129.723 124.24C128.091 124.24 127.003 123.816 126.459 122.968C125.931 122.12 125.667 120.552 125.667 118.264V112H127.467V118.24C127.467 119.984 127.619 121.152 127.923 121.744C128.227 122.336 128.915 122.632 129.987 122.632C130.515 122.632 131.051 122.56 131.595 122.416C132.139 122.256 132.555 122.104 132.843 121.96L133.275 121.744V112ZM147.009 115.624V121.768C147.057 122.36 147.521 122.712 148.401 122.824L148.329 124.24C147.065 124.24 146.113 123.92 145.473 123.28C144.033 123.92 142.593 124.24 141.153 124.24C140.049 124.24 139.209 123.928 138.633 123.304C138.057 122.68 137.769 121.784 137.769 120.616C137.769 119.448 138.065 118.592 138.657 118.048C139.249 117.488 140.177 117.144 141.441 117.016L145.209 116.656V115.624C145.209 114.808 145.033 114.224 144.681 113.872C144.329 113.52 143.849 113.344 143.241 113.344C141.961 113.344 140.633 113.424 139.257 113.584L138.513 113.656L138.441 112.288C140.201 111.936 141.761 111.76 143.121 111.76C144.481 111.76 145.465 112.072 146.073 112.696C146.697 113.32 147.009 114.296 147.009 115.624ZM139.617 120.52C139.617 121.992 140.225 122.728 141.441 122.728C142.529 122.728 143.601 122.544 144.657 122.176L145.209 121.984V118.024L141.657 118.36C140.937 118.424 140.417 118.632 140.097 118.984C139.777 119.336 139.617 119.848 139.617 120.52ZM159.776 106.768V124H158V123.184C156.768 123.888 155.552 124.24 154.352 124.24C153.712 124.24 153.152 124.16 152.672 124C152.192 123.84 151.744 123.552 151.328 123.136C150.464 122.272 150.032 120.68 150.032 118.36C150.032 116.024 150.416 114.344 151.184 113.32C151.968 112.28 153.256 111.76 155.048 111.76C155.976 111.76 156.96 111.864 158 112.072V106.768H159.776ZM152.72 121.84C152.976 122.144 153.248 122.352 153.536 122.464C153.824 122.576 154.192 122.632 154.64 122.632C155.104 122.632 155.616 122.56 156.176 122.416C156.752 122.256 157.2 122.104 157.52 121.96L158 121.744V113.608C156.976 113.416 156.024 113.32 155.144 113.32C153.928 113.32 153.08 113.712 152.6 114.496C152.12 115.264 151.88 116.464 151.88 118.096C151.88 119.952 152.16 121.2 152.72 121.84ZM171.735 115.624V121.768C171.783 122.36 172.247 122.712 173.127 122.824L173.055 124.24C171.791 124.24 170.839 123.92 170.199 123.28C168.759 123.92 167.319 124.24 165.879 124.24C164.775 124.24 163.935 123.928 163.359 123.304C162.783 122.68 162.495 121.784 162.495 120.616C162.495 119.448 162.791 118.592 163.383 118.048C163.975 117.488 164.903 117.144 166.167 117.016L169.935 116.656V115.624C169.935 114.808 169.759 114.224 169.407 113.872C169.055 113.52 168.575 113.344 167.967 113.344C166.687 113.344 165.359 113.424 163.983 113.584L163.239 113.656L163.167 112.288C164.927 111.936 166.487 111.76 167.847 111.76C169.207 111.76 170.191 112.072 170.799 112.696C171.423 113.32 171.735 114.296 171.735 115.624ZM164.343 120.52C164.343 121.992 164.951 122.728 166.167 122.728C167.255 122.728 168.327 122.544 169.383 122.176L169.935 121.984V118.024L166.383 118.36C165.663 118.424 165.143 118.632 164.823 118.984C164.503 119.336 164.343 119.848 164.343 120.52Z" fill="#02172B"/>
</svg>
