<svg width="213" height="107" viewBox="0 0 213 107" fill="none" xmlns="http://www.w3.org/2000/svg">
<rect x="73" width="67" height="67" rx="26.3215" fill="#02172B"/>
<path d="M87.0093 52.6625C87.0093 53.6562 87.8155 54.4625 88.8093 54.4625H108.356C109.35 54.4625 110.156 53.6562 110.156 52.6625V30.9219H87.0093V52.6625ZM105.459 50.2812H101.897V46.7188H105.459V50.2812ZM101.728 33.6594C101.981 33.4062 102.403 33.4062 102.656 33.6594L103.444 34.4469L105.45 32.4406C105.703 32.1875 106.125 32.1875 106.378 32.4406C106.631 32.6937 106.631 33.1156 106.378 33.3687L103.912 35.8344C103.781 35.9656 103.622 36.0313 103.453 36.0313C103.284 36.0313 103.116 35.9656 102.994 35.8344L101.747 34.5875C101.475 34.3344 101.475 33.9219 101.728 33.6594ZM101.728 40.7844C101.981 40.5312 102.403 40.5312 102.656 40.7844L103.444 41.5719L105.45 39.5656C105.703 39.3125 106.125 39.3125 106.378 39.5656C106.631 39.8187 106.631 40.2406 106.378 40.4937L103.912 42.9594C103.781 43.0906 103.622 43.1562 103.453 43.1562C103.284 43.1562 103.116 43.0906 102.994 42.9594L101.747 41.7125C101.475 41.4594 101.475 41.0469 101.728 40.7844ZM91.9499 33.5938H98.5874C98.953 33.5938 99.2437 33.8844 99.2437 34.25C99.2437 34.6156 98.953 34.9063 98.5874 34.9063H91.9499C91.5843 34.9063 91.2937 34.6156 91.2937 34.25C91.2937 33.8844 91.5843 33.5938 91.9499 33.5938ZM91.9499 40.7188H98.5874C98.953 40.7188 99.2437 41.0094 99.2437 41.375C99.2437 41.7406 98.953 42.0313 98.5874 42.0313H91.9499C91.5843 42.0313 91.2937 41.7406 91.2937 41.375C91.2937 41.0094 91.5843 40.7188 91.9499 40.7188ZM91.9499 47.8438H98.5874C98.953 47.8438 99.2437 48.1344 99.2437 48.5C99.2437 48.8656 98.953 49.1562 98.5874 49.1562H91.9499C91.5843 49.1562 91.2937 48.8656 91.2937 48.5C91.2937 48.1344 91.5843 47.8438 91.9499 47.8438Z" fill="#80DB42"/>
<path d="M116.531 11C111.609 11 107.494 14.4312 106.444 19.0344H106.613V21.275H108.356C108.572 21.275 108.788 21.2938 108.994 21.3406C108.994 17.1875 112.369 13.8125 116.531 13.8125C120.694 13.8125 124.069 17.1875 124.069 21.35C124.069 25.5125 120.694 28.8875 116.531 28.8875C114.581 28.8875 112.8 28.1469 111.469 26.9281V30.3781C112.969 31.2219 114.694 31.7 116.531 31.7C122.25 31.7 126.881 27.0688 126.881 21.35C126.872 15.6313 122.241 11 116.531 11Z" fill="#80DB42"/>
<path d="M109.125 22.7566C108.891 22.6441 108.628 22.5785 108.356 22.5785H105.3V20.3379H101.737V22.5785H95.4281V20.3379H91.8656V22.5785H88.8C87.8063 22.5785 87 23.3848 87 24.3785V29.6098H110.138V24.3879C110.147 23.666 109.734 23.0473 109.125 22.7566Z" fill="white"/>
<path d="M116.831 23.1125H115.013C114.647 23.1125 114.356 23.4031 114.356 23.7688C114.356 24.1344 114.647 24.425 115.013 24.425H115.875V24.8563C115.875 25.2219 116.166 25.5125 116.531 25.5125C116.897 25.5125 117.188 25.2219 117.188 24.8563V24.3875C118.05 24.2188 118.697 23.4594 118.697 22.5594C118.697 21.5281 117.863 20.6938 116.831 20.6938H116.222C115.913 20.6938 115.669 20.4406 115.669 20.1406C115.669 19.8313 115.922 19.5875 116.222 19.5875H118.041C118.406 19.5875 118.697 19.2969 118.697 18.9313C118.697 18.5656 118.406 18.275 118.041 18.275H117.188V17.8438C117.188 17.4781 116.897 17.1875 116.531 17.1875C116.166 17.1875 115.875 17.4781 115.875 17.8438V18.3125C115.013 18.4813 114.356 19.2313 114.356 20.1406C114.356 21.1719 115.191 22.0063 116.222 22.0063H116.831C117.141 22.0063 117.385 22.25 117.385 22.5594C117.385 22.8594 117.141 23.1125 116.831 23.1125Z" fill="white"/>
<path d="M91.5026 96.408H87.2786V102H85.4306V85.392H91.5026C93.3106 85.392 94.6466 85.832 95.5106 86.712C96.3746 87.592 96.8066 88.936 96.8066 90.744C96.8066 94.52 95.0386 96.408 91.5026 96.408ZM87.2786 94.776H91.4786C93.7666 94.776 94.9106 93.432 94.9106 90.744C94.9106 89.464 94.6386 88.528 94.0946 87.936C93.5506 87.328 92.6786 87.024 91.4786 87.024H87.2786V94.776ZM100.977 88.704C100.977 87.632 101.345 86.776 102.081 86.136C102.817 85.496 103.857 85.176 105.201 85.176C106.545 85.176 107.561 85.496 108.249 86.136C108.953 86.776 109.305 87.664 109.305 88.8C109.305 89.92 109.025 90.808 108.465 91.464C107.905 92.104 106.953 92.736 105.609 93.36L109.257 96.96C109.609 95.936 109.833 94.64 109.929 93.072L111.681 93.096C111.473 95.096 111.105 96.76 110.577 98.088L113.673 101.016L112.593 102.216L109.689 99.504C108.585 101.328 106.913 102.24 104.673 102.24C102.433 102.24 100.865 101.808 99.9692 100.944C99.0732 100.08 98.6252 98.888 98.6252 97.368C98.6252 95.832 98.9132 94.712 99.4892 94.008C100.081 93.288 101.033 92.712 102.345 92.28C101.785 91.64 101.417 91.072 101.241 90.576C101.065 90.08 100.977 89.456 100.977 88.704ZM104.385 100.608C106.353 100.608 107.705 99.888 108.441 98.448L103.377 93.408C102.321 93.744 101.569 94.176 101.121 94.704C100.673 95.232 100.449 96.048 100.449 97.152C100.449 99.456 101.761 100.608 104.385 100.608ZM102.777 88.992C102.777 89.968 103.137 90.84 103.857 91.608L104.553 92.28C105.657 91.8 106.425 91.328 106.857 90.864C107.289 90.4 107.505 89.76 107.505 88.944C107.505 87.472 106.713 86.736 105.129 86.736C103.561 86.736 102.777 87.488 102.777 88.992ZM122.109 102H116.181V85.392H122.109C124.813 85.392 126.605 86.464 127.485 88.608C127.997 89.84 128.253 91.456 128.253 93.456C128.253 97.632 127.213 100.264 125.133 101.352C124.301 101.784 123.293 102 122.109 102ZM126.357 93.456C126.357 90.272 125.645 88.288 124.221 87.504C123.645 87.184 122.941 87.024 122.109 87.024H118.029V100.368H122.109C124.941 100.368 126.357 98.064 126.357 93.456Z" fill="#02172B"/>
</svg>
