<svg width="213" height="134" viewBox="0 0 213 134" fill="none" xmlns="http://www.w3.org/2000/svg">
<rect x="73" width="67" height="67" rx="26.3215" fill="#02172B"/>
<path d="M120.625 27.0967L110.078 16.5592C109.816 16.2967 109.384 16.2967 109.113 16.5592L106.591 19.0811C106.328 19.3436 106.328 19.7748 106.591 20.0373L108.447 21.8936L105.156 25.1842L107.594 27.6217C107.847 27.8748 107.847 28.2967 107.594 28.5498C107.463 28.6811 107.294 28.7373 107.125 28.7373C106.956 28.7373 106.788 28.6717 106.656 28.5498L104.219 26.1123L102.034 28.2967L104.472 30.7342C104.725 30.9873 104.725 31.4092 104.472 31.6623C104.341 31.7936 104.172 31.8592 104.003 31.8592C103.834 31.8592 103.666 31.7936 103.534 31.6623L101.097 29.2248L98.9032 31.4186L101.341 33.8561C101.594 34.1092 101.594 34.5311 101.341 34.7842C101.209 34.9154 101.041 34.9811 100.872 34.9811C100.703 34.9811 100.534 34.9154 100.403 34.7842L97.9657 32.3467L95.5657 34.7467C95.1813 35.1404 95.0032 35.6936 95.0969 36.2279L95.2751 37.1842C95.3688 37.7279 95.2001 38.2811 94.8063 38.6748L92.3688 41.1592C91.3469 42.1811 91.3657 43.8592 92.4251 44.8623C93.4469 45.8279 95.0688 45.7623 96.0626 44.7686L98.4907 42.3404C98.8751 41.9467 99.4376 41.7779 99.9813 41.8717L100.938 42.0404C101.481 42.1436 102.034 41.9654 102.419 41.5811L115.272 28.7279L117.128 30.5842C117.391 30.8467 117.822 30.8467 118.084 30.5842L120.606 28.0623C120.888 27.7998 120.888 27.3686 120.625 27.0967ZM102.738 36.1717C102.709 36.1998 102.672 36.2279 102.634 36.2561C102.597 36.2842 102.559 36.3029 102.522 36.3123C102.484 36.3311 102.438 36.3404 102.4 36.3498C102.363 36.3592 102.316 36.3592 102.269 36.3592C102.1 36.3592 101.931 36.2936 101.8 36.1717C101.772 36.1436 101.744 36.1061 101.716 36.0686C101.688 36.0311 101.669 35.9936 101.659 35.9561C101.641 35.9186 101.631 35.8717 101.622 35.8342C101.613 35.7873 101.613 35.7498 101.613 35.7029C101.613 35.5342 101.688 35.3561 101.8 35.2342C101.95 35.0842 102.175 35.0092 102.391 35.0561C102.428 35.0654 102.475 35.0748 102.513 35.0936C102.55 35.1123 102.588 35.1311 102.625 35.1498C102.663 35.1779 102.7 35.1967 102.728 35.2342C102.85 35.3561 102.925 35.5248 102.925 35.7029C102.925 35.8811 102.859 36.0498 102.738 36.1717ZM106.038 32.7217C106.028 32.7592 106.019 32.8061 106 32.8436C105.981 32.8811 105.963 32.9186 105.944 32.9561C105.916 32.9936 105.897 33.0217 105.859 33.0592C105.738 33.1811 105.569 33.2467 105.4 33.2467C105.231 33.2467 105.063 33.1717 104.931 33.0592C104.903 33.0311 104.875 32.9936 104.847 32.9561C104.819 32.9186 104.8 32.8811 104.791 32.8436C104.772 32.8061 104.763 32.7592 104.753 32.7217C104.744 32.6748 104.744 32.6373 104.744 32.5904C104.744 32.4217 104.819 32.2436 104.931 32.1217C105.053 31.9998 105.222 31.9342 105.4 31.9342C105.578 31.9342 105.738 32.0092 105.859 32.1217C105.981 32.2436 106.056 32.4123 106.056 32.5904C106.047 32.6279 106.047 32.6748 106.038 32.7217ZM109.15 29.5998C109.141 29.6373 109.131 29.6842 109.113 29.7217C109.094 29.7592 109.075 29.7967 109.056 29.8342C109.028 29.8717 109.009 29.9092 108.972 29.9373C108.944 29.9654 108.906 29.9936 108.869 30.0217C108.831 30.0498 108.794 30.0686 108.756 30.0779C108.719 30.0967 108.672 30.1061 108.634 30.1154C108.597 30.1248 108.55 30.1248 108.503 30.1248C108.456 30.1248 108.419 30.1248 108.372 30.1154C108.325 30.1061 108.288 30.0967 108.25 30.0779C108.213 30.0592 108.175 30.0404 108.138 30.0217C108.1 29.9936 108.072 29.9654 108.034 29.9373C108.006 29.9092 107.978 29.8717 107.95 29.8342C107.922 29.7967 107.903 29.7592 107.894 29.7217C107.875 29.6842 107.866 29.6373 107.856 29.5998C107.847 29.5529 107.847 29.5154 107.847 29.4686C107.847 29.2904 107.922 29.1217 108.034 28.9998C108.063 28.9717 108.1 28.9436 108.138 28.9154C108.175 28.8873 108.213 28.8686 108.25 28.8592C108.288 28.8404 108.334 28.8311 108.372 28.8217C108.456 28.8029 108.541 28.8029 108.625 28.8217C108.672 28.8311 108.709 28.8404 108.747 28.8592C108.784 28.8779 108.822 28.8967 108.859 28.9154C108.897 28.9436 108.925 28.9623 108.963 28.9998C108.991 29.0279 109.019 29.0654 109.047 29.1029C109.075 29.1404 109.094 29.1779 109.103 29.2154C109.122 29.2529 109.131 29.2998 109.141 29.3373C109.15 29.3748 109.15 29.4217 109.15 29.4686C109.159 29.5154 109.159 29.5529 109.15 29.5998Z" fill="white"/>
<path d="M124.656 12.5188C122.631 10.4938 119.35 10.4938 117.325 12.5188C116.331 13.5125 115.825 14.8156 115.806 16.1281L113.65 18.2844L118.9 23.525L121.056 21.3687C122.359 21.35 123.662 20.8531 124.666 19.85C126.681 17.825 126.681 14.5438 124.656 12.5188ZM123.128 14.9844C122.997 15.1156 122.828 15.1719 122.659 15.1719C122.491 15.1719 122.322 15.1063 122.2 14.9844C121.534 14.3188 120.456 14.3188 119.791 14.9844C119.537 15.2375 119.116 15.2375 118.862 14.9844C118.609 14.7313 118.609 14.3094 118.862 14.0563C120.034 12.8844 121.956 12.8844 123.128 14.0563C123.381 14.3094 123.381 14.7219 123.128 14.9844Z" fill="#80DB42"/>
<path d="M88 51.8184C88 53.6277 89.05 54.6121 90.3438 54.6121C91.6375 54.6121 92.6875 53.6371 92.6875 51.8184C92.6875 50.009 90.3438 47.5996 90.3438 47.5996C90.3438 47.5996 88 50.009 88 51.8184Z" fill="white"/>
<path d="M28.8994 102V85.392H30.7474V102H28.8994ZM36.2936 102H34.4936V90H36.2696V90.84C37.5656 90.12 38.8056 89.76 39.9896 89.76C41.5896 89.76 42.6616 90.192 43.2056 91.056C43.7656 91.92 44.0456 93.456 44.0456 95.664V102H42.2696V95.712C42.2696 94.048 42.1016 92.912 41.7656 92.304C41.4456 91.68 40.7496 91.368 39.6776 91.368C39.1656 91.368 38.6216 91.448 38.0456 91.608C37.4856 91.752 37.0536 91.896 36.7496 92.04L36.2936 92.256V102ZM51.1523 91.368C49.4083 91.368 48.5363 91.976 48.5363 93.192C48.5363 93.752 48.7363 94.152 49.1363 94.392C49.5363 94.616 50.4483 94.856 51.8723 95.112C53.2963 95.352 54.3043 95.696 54.8963 96.144C55.4883 96.592 55.7843 97.432 55.7843 98.664C55.7843 99.896 55.3843 100.8 54.5843 101.376C53.8003 101.952 52.6483 102.24 51.1283 102.24C50.1363 102.24 48.9683 102.128 47.6243 101.904L46.9043 101.784L47.0003 100.224C48.8243 100.496 50.2003 100.632 51.1283 100.632C52.0563 100.632 52.7603 100.488 53.2403 100.2C53.7363 99.896 53.9843 99.4 53.9843 98.712C53.9843 98.008 53.7763 97.536 53.3603 97.296C52.9443 97.04 52.0323 96.8 50.6243 96.576C49.2163 96.352 48.2163 96.024 47.6243 95.592C47.0323 95.16 46.7363 94.36 46.7363 93.192C46.7363 92.024 47.1443 91.16 47.9603 90.6C48.7923 90.04 49.8243 89.76 51.0563 89.76C52.0323 89.76 53.2563 89.872 54.7283 90.096L55.4003 90.216L55.3523 91.752C53.5763 91.496 52.1763 91.368 51.1523 91.368ZM64.7565 91.56H60.9405V97.296C60.9405 98.672 61.0365 99.576 61.2285 100.008C61.4365 100.44 61.9165 100.656 62.6685 100.656L64.8045 100.512L64.9245 102C63.8525 102.176 63.0365 102.264 62.4765 102.264C61.2285 102.264 60.3645 101.96 59.8845 101.352C59.4045 100.744 59.1645 99.584 59.1645 97.872V91.56H57.4605V90H59.1645V86.328H60.9405V90H64.7565V91.56ZM75.4266 93.624V99.768C75.4746 100.36 75.9386 100.712 76.8186 100.824L76.7466 102.24C75.4826 102.24 74.5306 101.92 73.8906 101.28C72.4506 101.92 71.0106 102.24 69.5706 102.24C68.4666 102.24 67.6266 101.928 67.0506 101.304C66.4746 100.68 66.1866 99.784 66.1866 98.616C66.1866 97.448 66.4826 96.592 67.0746 96.048C67.6666 95.488 68.5946 95.144 69.8586 95.016L73.6266 94.656V93.624C73.6266 92.808 73.4506 92.224 73.0986 91.872C72.7466 91.52 72.2666 91.344 71.6586 91.344C70.3786 91.344 69.0506 91.424 67.6746 91.584L66.9306 91.656L66.8586 90.288C68.6186 89.936 70.1786 89.76 71.5386 89.76C72.8986 89.76 73.8826 90.072 74.4906 90.696C75.1146 91.32 75.4266 92.296 75.4266 93.624ZM68.0346 98.52C68.0346 99.992 68.6426 100.728 69.8586 100.728C70.9466 100.728 72.0186 100.544 73.0746 100.176L73.6266 99.984V96.024L70.0746 96.36C69.3546 96.424 68.8346 96.632 68.5146 96.984C68.1946 97.336 68.0346 97.848 68.0346 98.52ZM84.282 89.76C85.898 89.76 87.026 90.224 87.666 91.152C88.322 92.064 88.65 93.672 88.65 95.976C88.65 98.28 88.242 99.904 87.426 100.848C86.626 101.776 85.146 102.24 82.986 102.24C82.314 102.24 81.202 102.176 79.65 102.048L78.978 101.976V84.768H80.754V90.6C81.97 90.04 83.146 89.76 84.282 89.76ZM82.962 100.632C84.53 100.632 85.562 100.28 86.058 99.576C86.57 98.856 86.826 97.648 86.826 95.952C86.826 94.256 86.626 93.072 86.226 92.4C85.826 91.712 85.114 91.368 84.09 91.368C83.162 91.368 82.21 91.544 81.234 91.896L80.754 92.064V100.512C81.794 100.592 82.53 100.632 82.962 100.632ZM91.6108 102V90H93.4108V102H91.6108ZM91.6108 87.288V85.2H93.4108V87.288H91.6108ZM97.0048 102V84.768H98.8048V102H97.0048ZM102.416 102V90H104.215V102H102.416ZM102.416 87.288V85.2H104.215V87.288H102.416ZM116.882 84.768V102H115.106V101.184C113.874 101.888 112.658 102.24 111.458 102.24C110.818 102.24 110.258 102.16 109.778 102C109.298 101.84 108.85 101.552 108.434 101.136C107.57 100.272 107.138 98.68 107.138 96.36C107.138 94.024 107.522 92.344 108.29 91.32C109.074 90.28 110.362 89.76 112.154 89.76C113.082 89.76 114.066 89.864 115.106 90.072V84.768H116.882ZM109.826 99.84C110.082 100.144 110.354 100.352 110.642 100.464C110.93 100.576 111.298 100.632 111.746 100.632C112.21 100.632 112.722 100.56 113.282 100.416C113.858 100.256 114.306 100.104 114.626 99.96L115.106 99.744V91.608C114.082 91.416 113.13 91.32 112.25 91.32C111.034 91.32 110.186 91.712 109.706 92.496C109.226 93.264 108.986 94.464 108.986 96.096C108.986 97.952 109.266 99.2 109.826 99.84ZM128.841 93.624V99.768C128.889 100.36 129.353 100.712 130.233 100.824L130.161 102.24C128.897 102.24 127.945 101.92 127.305 101.28C125.865 101.92 124.425 102.24 122.985 102.24C121.881 102.24 121.041 101.928 120.465 101.304C119.889 100.68 119.601 99.784 119.601 98.616C119.601 97.448 119.897 96.592 120.489 96.048C121.081 95.488 122.009 95.144 123.273 95.016L127.041 94.656V93.624C127.041 92.808 126.865 92.224 126.513 91.872C126.161 91.52 125.681 91.344 125.073 91.344C123.793 91.344 122.465 91.424 121.089 91.584L120.345 91.656L120.273 90.288C122.033 89.936 123.593 89.76 124.953 89.76C126.313 89.76 127.297 90.072 127.905 90.696C128.529 91.32 128.841 92.296 128.841 93.624ZM121.449 98.52C121.449 99.992 122.057 100.728 123.273 100.728C124.361 100.728 125.433 100.544 126.489 100.176L127.041 99.984V96.024L123.489 96.36C122.769 96.424 122.249 96.632 121.929 96.984C121.609 97.336 121.449 97.848 121.449 98.52ZM141.608 84.768V102H139.832V101.184C138.6 101.888 137.384 102.24 136.184 102.24C135.544 102.24 134.984 102.16 134.504 102C134.024 101.84 133.576 101.552 133.16 101.136C132.296 100.272 131.864 98.68 131.864 96.36C131.864 94.024 132.248 92.344 133.016 91.32C133.8 90.28 135.088 89.76 136.88 89.76C137.808 89.76 138.792 89.864 139.832 90.072V84.768H141.608ZM134.552 99.84C134.808 100.144 135.08 100.352 135.368 100.464C135.656 100.576 136.024 100.632 136.472 100.632C136.936 100.632 137.448 100.56 138.008 100.416C138.584 100.256 139.032 100.104 139.352 99.96L139.832 99.744V91.608C138.808 91.416 137.856 91.32 136.976 91.32C135.76 91.32 134.912 91.712 134.432 92.496C133.952 93.264 133.712 94.464 133.712 96.096C133.712 97.952 133.992 99.2 134.552 99.84ZM153.255 100.512L153.951 100.44L153.999 101.856C152.175 102.112 150.615 102.24 149.319 102.24C147.591 102.24 146.367 101.744 145.647 100.752C144.927 99.744 144.567 98.184 144.567 96.072C144.567 91.864 146.239 89.76 149.583 89.76C151.199 89.76 152.407 90.216 153.207 91.128C154.007 92.024 154.407 93.44 154.407 95.376L154.311 96.744H146.391C146.391 98.072 146.631 99.056 147.111 99.696C147.591 100.336 148.423 100.656 149.607 100.656C150.807 100.656 152.023 100.608 153.255 100.512ZM152.607 95.304C152.607 93.832 152.367 92.792 151.887 92.184C151.423 91.576 150.655 91.272 149.583 91.272C148.527 91.272 147.727 91.592 147.183 92.232C146.655 92.872 146.383 93.896 146.367 95.304H152.607ZM171.702 84.768V102H169.926V101.184C168.694 101.888 167.478 102.24 166.278 102.24C165.638 102.24 165.078 102.16 164.598 102C164.118 101.84 163.67 101.552 163.254 101.136C162.39 100.272 161.958 98.68 161.958 96.36C161.958 94.024 162.342 92.344 163.11 91.32C163.894 90.28 165.182 89.76 166.974 89.76C167.902 89.76 168.886 89.864 169.926 90.072V84.768H171.702ZM164.646 99.84C164.902 100.144 165.174 100.352 165.462 100.464C165.75 100.576 166.118 100.632 166.566 100.632C167.03 100.632 167.542 100.56 168.102 100.416C168.678 100.256 169.126 100.104 169.446 99.96L169.926 99.744V91.608C168.902 91.416 167.95 91.32 167.07 91.32C165.854 91.32 165.006 91.712 164.526 92.496C164.046 93.264 163.806 94.464 163.806 96.096C163.806 97.952 164.086 99.2 164.646 99.84ZM174.661 95.976C174.661 93.784 175.053 92.2 175.837 91.224C176.621 90.248 177.941 89.76 179.797 89.76C181.669 89.76 182.989 90.248 183.757 91.224C184.541 92.2 184.933 93.784 184.933 95.976C184.933 98.168 184.565 99.76 183.829 100.752C183.093 101.744 181.749 102.24 179.797 102.24C177.845 102.24 176.501 101.744 175.765 100.752C175.029 99.76 174.661 98.168 174.661 95.976ZM176.509 95.952C176.509 97.696 176.717 98.92 177.133 99.624C177.565 100.328 178.453 100.68 179.797 100.68C181.157 100.68 182.045 100.336 182.461 99.648C182.877 98.944 183.085 97.712 183.085 95.952C183.085 94.192 182.853 92.984 182.389 92.328C181.925 91.656 181.061 91.32 179.797 91.32C178.549 91.32 177.685 91.656 177.205 92.328C176.741 92.984 176.509 94.192 176.509 95.952ZM55.0651 118.56H51.2491V124.296C51.2491 125.672 51.3451 126.576 51.5371 127.008C51.7451 127.44 52.2251 127.656 52.9771 127.656L55.1131 127.512L55.2331 129C54.1611 129.176 53.3451 129.264 52.7851 129.264C51.5371 129.264 50.6731 128.96 50.1931 128.352C49.7131 127.744 49.4731 126.584 49.4731 124.872V118.56H47.7691V117H49.4731V113.328H51.2491V117H55.0651V118.56ZM65.4232 127.512L66.1192 127.44L66.1672 128.856C64.3432 129.112 62.7832 129.24 61.4872 129.24C59.7592 129.24 58.5352 128.744 57.8152 127.752C57.0952 126.744 56.7352 125.184 56.7352 123.072C56.7352 118.864 58.4072 116.76 61.7512 116.76C63.3672 116.76 64.5752 117.216 65.3752 118.128C66.1752 119.024 66.5752 120.44 66.5752 122.376L66.4792 123.744H58.5592C58.5592 125.072 58.7992 126.056 59.2792 126.696C59.7592 127.336 60.5912 127.656 61.7752 127.656C62.9752 127.656 64.1912 127.608 65.4232 127.512ZM64.7752 122.304C64.7752 120.832 64.5352 119.792 64.0552 119.184C63.5912 118.576 62.8232 118.272 61.7512 118.272C60.6952 118.272 59.8952 118.592 59.3512 119.232C58.8232 119.872 58.5512 120.896 58.5352 122.304H64.7752ZM68.8523 122.976C68.8523 120.784 69.2443 119.2 70.0283 118.224C70.8123 117.248 72.1323 116.76 73.9883 116.76C75.8603 116.76 77.1803 117.248 77.9483 118.224C78.7323 119.2 79.1243 120.784 79.1243 122.976C79.1243 125.168 78.7563 126.76 78.0203 127.752C77.2843 128.744 75.9403 129.24 73.9883 129.24C72.0363 129.24 70.6923 128.744 69.9563 127.752C69.2203 126.76 68.8523 125.168 68.8523 122.976ZM70.7003 122.952C70.7003 124.696 70.9083 125.92 71.3243 126.624C71.7563 127.328 72.6443 127.68 73.9883 127.68C75.3483 127.68 76.2363 127.336 76.6523 126.648C77.0683 125.944 77.2763 124.712 77.2763 122.952C77.2763 121.192 77.0443 119.984 76.5803 119.328C76.1163 118.656 75.2523 118.32 73.9883 118.32C72.7403 118.32 71.8763 118.656 71.3963 119.328C70.9323 119.984 70.7003 121.192 70.7003 122.952ZM82.06 129V117H83.836V118.632C85.228 117.672 86.692 117.04 88.228 116.736V118.56C87.556 118.688 86.852 118.888 86.116 119.16C85.396 119.432 84.844 119.672 84.46 119.88L83.86 120.192V129H82.06ZM104.846 111.768V129H103.07V128.184C101.838 128.888 100.622 129.24 99.4223 129.24C98.7823 129.24 98.2223 129.16 97.7423 129C97.2623 128.84 96.8143 128.552 96.3983 128.136C95.5343 127.272 95.1023 125.68 95.1023 123.36C95.1023 121.024 95.4863 119.344 96.2543 118.32C97.0383 117.28 98.3263 116.76 100.118 116.76C101.046 116.76 102.03 116.864 103.07 117.072V111.768H104.846ZM97.7903 126.84C98.0463 127.144 98.3183 127.352 98.6063 127.464C98.8943 127.576 99.2623 127.632 99.7103 127.632C100.174 127.632 100.686 127.56 101.246 127.416C101.822 127.256 102.27 127.104 102.59 126.96L103.07 126.744V118.608C102.046 118.416 101.094 118.32 100.214 118.32C98.9983 118.32 98.1503 118.712 97.6703 119.496C97.1903 120.264 96.9503 121.464 96.9503 123.096C96.9503 124.952 97.2303 126.2 97.7903 126.84ZM116.493 127.512L117.189 127.44L117.237 128.856C115.413 129.112 113.853 129.24 112.557 129.24C110.829 129.24 109.605 128.744 108.885 127.752C108.165 126.744 107.805 125.184 107.805 123.072C107.805 118.864 109.477 116.76 112.821 116.76C114.437 116.76 115.645 117.216 116.445 118.128C117.245 119.024 117.645 120.44 117.645 122.376L117.549 123.744H109.629C109.629 125.072 109.869 126.056 110.349 126.696C110.829 127.336 111.661 127.656 112.845 127.656C114.045 127.656 115.261 127.608 116.493 127.512ZM115.845 122.304C115.845 120.832 115.605 119.792 115.125 119.184C114.661 118.576 113.893 118.272 112.821 118.272C111.765 118.272 110.965 118.592 110.421 119.232C109.893 119.872 109.621 120.896 109.605 122.304H115.845ZM124.308 114.048V112.392H136.308V114.048H131.244V129H129.42V114.048H124.308ZM148.965 129V121.488H140.517V129H138.669V112.392H140.517V119.832H148.965V112.392H150.789V129H148.965ZM164.896 128.736C163.248 129.072 161.768 129.24 160.456 129.24C159.144 129.24 158.08 129.064 157.264 128.712C156.464 128.344 155.84 127.784 155.392 127.032C154.96 126.264 154.656 125.392 154.48 124.416C154.32 123.424 154.24 122.192 154.24 120.72C154.24 119.248 154.32 118.016 154.48 117.024C154.656 116.016 154.96 115.128 155.392 114.36C155.84 113.592 156.464 113.032 157.264 112.68C158.064 112.328 159.104 112.152 160.384 112.152C161.664 112.152 163.168 112.328 164.896 112.68L164.824 114.24C163.208 113.952 161.768 113.808 160.504 113.808C158.744 113.808 157.576 114.336 157 115.392C156.44 116.432 156.16 118.216 156.16 120.744C156.16 122.008 156.208 123.024 156.304 123.792C156.416 124.56 156.624 125.256 156.928 125.88C157.232 126.488 157.672 126.928 158.248 127.2C158.84 127.456 159.696 127.584 160.816 127.584C161.952 127.584 163.288 127.44 164.824 127.152L164.896 128.736Z" fill="#02172B"/>
</svg>
