<svg width="213" height="134" viewBox="0 0 213 134" fill="none" xmlns="http://www.w3.org/2000/svg">
<rect x="73" width="67" height="67" rx="26.3215" fill="#02172B"/>
<path d="M98.228 30.6954C98.5801 30.5781 98.9616 30.5194 99.343 30.5194C99.9592 30.5194 100.566 30.6759 101.094 30.9595L102.414 29.6391L104.898 27.1549L106.972 29.2283L110.327 25.8736L109.896 25.4041C111.804 21.8146 111.51 17.2764 108.801 13.9119C106.062 10.5083 101.641 9.26612 97.6999 10.4202L104.047 18.3034L97.7683 23.36L91.4403 15.4768C89.4744 19.0859 89.7482 23.673 92.4868 27.0668C94.0028 28.9545 96.0372 30.1771 98.228 30.6954Z" fill="#80DB42"/>
<path d="M114.904 30.8818L111.764 34.0214L113.838 36.0949L110.209 39.7235L110.043 39.8898L118.092 51.2842C120 53.9836 123.785 54.5118 126.357 52.4383C128.929 50.3648 129.223 46.5602 126.993 44.115L114.904 30.8818Z" fill="#80DB42"/>
<path d="M108.195 39.7909L101.202 32.7978L100.967 32.563C100.077 31.673 98.6292 31.673 97.7392 32.563L86.6675 43.6347C85.7775 44.5247 85.7775 45.9722 86.6675 46.8623L94.1399 54.3347C95.0299 55.2247 96.4775 55.2247 97.3675 54.3347L108.439 43.263C109.329 42.373 109.329 40.9255 108.439 40.0354L108.195 39.7909Z" fill="#80DB42"/>
<path d="M128.558 18.3133L123.844 23.0275C123.355 23.5165 122.553 23.5165 122.064 23.0275L121.448 22.4113L113.975 29.8642L109.818 34.0111L111.892 36.0846L109.232 38.745L109.153 38.8232L108.752 38.4222L102.571 32.2311L102.17 31.8301L103.383 30.6173L104.899 29.1013L106.972 31.1748L111.256 26.8909L118.592 19.5554L117.975 18.9392C117.486 18.4404 117.486 17.6482 117.975 17.1592L122.69 12.4449C123.179 11.9559 123.981 11.9559 124.47 12.4449L128.558 16.5332C129.047 17.0222 129.047 17.8145 128.558 18.3133Z" fill="white"/>
<path d="M21.2021 86.76C18.8021 86.76 17.6021 87.664 17.6021 89.472C17.6021 90.48 17.8741 91.176 18.4181 91.56C18.9781 91.928 20.0981 92.304 21.7781 92.688C23.4741 93.056 24.6741 93.544 25.3781 94.152C26.0821 94.744 26.4341 95.728 26.4341 97.104C26.4341 100.512 24.6661 102.216 21.1301 102.216C19.9621 102.216 18.4981 102.08 16.7381 101.808L15.8741 101.688L16.0661 100.152C18.2421 100.44 19.8981 100.584 21.0341 100.584C23.4021 100.584 24.5861 99.472 24.5861 97.248C24.5861 96.352 24.3221 95.712 23.7941 95.328C23.2821 94.928 22.3141 94.592 20.8901 94.32C19.0181 93.92 17.6901 93.408 16.9061 92.784C16.1221 92.144 15.7301 91.08 15.7301 89.592C15.7301 86.616 17.5141 85.128 21.0821 85.128C22.2501 85.128 23.6501 85.248 25.2821 85.488L26.0981 85.608L25.9301 87.168C23.7061 86.896 22.1301 86.76 21.2021 86.76ZM29.3139 102V90H31.1139V102H29.3139ZM29.3139 87.288V85.2H31.1139V87.288H29.3139ZM38.3319 91.368C36.5879 91.368 35.7159 91.976 35.7159 93.192C35.7159 93.752 35.9159 94.152 36.3159 94.392C36.7159 94.616 37.6279 94.856 39.0519 95.112C40.4759 95.352 41.4839 95.696 42.0759 96.144C42.6679 96.592 42.9639 97.432 42.9639 98.664C42.9639 99.896 42.5639 100.8 41.7639 101.376C40.9799 101.952 39.8279 102.24 38.3079 102.24C37.3159 102.24 36.1479 102.128 34.8039 101.904L34.0839 101.784L34.1799 100.224C36.0039 100.496 37.3799 100.632 38.3079 100.632C39.2359 100.632 39.9399 100.488 40.4199 100.2C40.9159 99.896 41.1639 99.4 41.1639 98.712C41.1639 98.008 40.9559 97.536 40.5399 97.296C40.1239 97.04 39.2119 96.8 37.8039 96.576C36.3959 96.352 35.3959 96.024 34.8039 95.592C34.2119 95.16 33.9159 94.36 33.9159 93.192C33.9159 92.024 34.3239 91.16 35.1399 90.6C35.9719 90.04 37.0039 89.76 38.2359 89.76C39.2119 89.76 40.4359 89.872 41.9079 90.096L42.5799 90.216L42.5319 91.752C40.7559 91.496 39.3559 91.368 38.3319 91.368ZM51.9362 91.56H48.1202V97.296C48.1202 98.672 48.2162 99.576 48.4082 100.008C48.6162 100.44 49.0962 100.656 49.8482 100.656L51.9842 100.512L52.1042 102C51.0322 102.176 50.2162 102.264 49.6562 102.264C48.4082 102.264 47.5442 101.96 47.0642 101.352C46.5842 100.744 46.3442 99.584 46.3442 97.872V91.56H44.6402V90H46.3442V86.328H48.1202V90H51.9362V91.56ZM62.2943 100.512L62.9903 100.44L63.0383 101.856C61.2143 102.112 59.6543 102.24 58.3583 102.24C56.6303 102.24 55.4063 101.744 54.6863 100.752C53.9663 99.744 53.6063 98.184 53.6063 96.072C53.6063 91.864 55.2783 89.76 58.6223 89.76C60.2383 89.76 61.4463 90.216 62.2463 91.128C63.0463 92.024 63.4463 93.44 63.4463 95.376L63.3503 96.744H55.4303C55.4303 98.072 55.6703 99.056 56.1503 99.696C56.6303 100.336 57.4623 100.656 58.6463 100.656C59.8463 100.656 61.0623 100.608 62.2943 100.512ZM61.6463 95.304C61.6463 93.832 61.4063 92.792 60.9263 92.184C60.4623 91.576 59.6943 91.272 58.6223 91.272C57.5663 91.272 56.7663 91.592 56.2223 92.232C55.6943 92.872 55.4223 93.896 55.4062 95.304H61.6463ZM68.0514 102H66.2514V90H68.0274V90.84C69.2274 90.12 70.3954 89.76 71.5314 89.76C73.0194 89.76 74.0594 90.168 74.6514 90.984C75.1794 90.664 75.8594 90.384 76.6914 90.144C77.5394 89.888 78.2834 89.76 78.9234 89.76C80.5234 89.76 81.5954 90.192 82.1394 91.056C82.6994 91.904 82.9794 93.44 82.9794 95.664V102H81.1794V95.712C81.1794 94.048 81.0194 92.912 80.6994 92.304C80.3794 91.68 79.6994 91.368 78.6594 91.368C78.1314 91.368 77.5874 91.448 77.0274 91.608C76.4674 91.752 76.0354 91.896 75.7314 92.04L75.2754 92.256C75.4834 92.784 75.5874 93.952 75.5874 95.76V102H73.7874V95.808C73.7874 94.08 73.6274 92.912 73.3074 92.304C73.0034 91.68 72.3234 91.368 71.2674 91.368C70.7554 91.368 70.2274 91.448 69.6834 91.608C69.1554 91.752 68.7474 91.896 68.4594 92.04L68.0514 92.256V102ZM94.7859 93.624V99.768C94.8339 100.36 95.2979 100.712 96.1779 100.824L96.1059 102.24C94.8419 102.24 93.8899 101.92 93.2499 101.28C91.8099 101.92 90.3699 102.24 88.9299 102.24C87.8259 102.24 86.9859 101.928 86.4099 101.304C85.8339 100.68 85.5459 99.784 85.5459 98.616C85.5459 97.448 85.8419 96.592 86.4339 96.048C87.0259 95.488 87.9539 95.144 89.2179 95.016L92.9859 94.656V93.624C92.9859 92.808 92.8099 92.224 92.4579 91.872C92.1059 91.52 91.6259 91.344 91.0179 91.344C89.7379 91.344 88.4099 91.424 87.0339 91.584L86.2899 91.656L86.2179 90.288C87.9779 89.936 89.5379 89.76 90.8979 89.76C92.2579 89.76 93.2419 90.072 93.8499 90.696C94.4739 91.32 94.7859 92.296 94.7859 93.624ZM87.3939 98.52C87.3939 99.992 88.0019 100.728 89.2179 100.728C90.3059 100.728 91.3779 100.544 92.4339 100.176L92.9859 99.984V96.024L89.4339 96.36C88.7139 96.424 88.1939 96.632 87.8739 96.984C87.5539 97.336 87.3939 97.848 87.3939 98.52ZM103.611 107.328V90H105.387V90.864C106.603 90.128 107.803 89.76 108.987 89.76C110.507 89.76 111.611 90.248 112.299 91.224C112.987 92.184 113.331 93.776 113.331 96C113.331 98.224 112.923 99.824 112.107 100.8C111.307 101.76 109.971 102.24 108.099 102.24C107.123 102.24 106.227 102.152 105.411 101.976V107.328H103.611ZM108.723 91.368C108.243 91.368 107.723 91.448 107.163 91.608C106.619 91.768 106.187 91.928 105.867 92.088L105.411 92.328V100.416C106.547 100.592 107.411 100.68 108.003 100.68C109.299 100.68 110.203 100.312 110.715 99.576C111.243 98.84 111.507 97.64 111.507 95.976C111.507 94.312 111.267 93.128 110.787 92.424C110.323 91.72 109.635 91.368 108.723 91.368ZM116.267 102V90H118.043V91.632C119.435 90.672 120.899 90.04 122.435 89.736V91.56C121.763 91.688 121.059 91.888 120.323 92.16C119.603 92.432 119.051 92.672 118.667 92.88L118.067 93.192V102H116.267ZM123.802 95.976C123.802 93.784 124.194 92.2 124.978 91.224C125.762 90.248 127.082 89.76 128.938 89.76C130.81 89.76 132.13 90.248 132.898 91.224C133.682 92.2 134.074 93.784 134.074 95.976C134.074 98.168 133.706 99.76 132.97 100.752C132.234 101.744 130.89 102.24 128.938 102.24C126.986 102.24 125.642 101.744 124.906 100.752C124.17 99.76 123.802 98.168 123.802 95.976ZM125.65 95.952C125.65 97.696 125.858 98.92 126.274 99.624C126.706 100.328 127.594 100.68 128.938 100.68C130.298 100.68 131.186 100.336 131.602 99.648C132.018 98.944 132.226 97.712 132.226 95.952C132.226 94.192 131.994 92.984 131.53 92.328C131.066 91.656 130.202 91.32 128.938 91.32C127.69 91.32 126.826 91.656 126.346 92.328C125.882 92.984 125.65 94.192 125.65 95.952ZM146.225 84.768V102H144.449V101.184C143.217 101.888 142.001 102.24 140.801 102.24C140.161 102.24 139.601 102.16 139.121 102C138.641 101.84 138.193 101.552 137.777 101.136C136.913 100.272 136.481 98.68 136.481 96.36C136.481 94.024 136.865 92.344 137.633 91.32C138.417 90.28 139.705 89.76 141.497 89.76C142.425 89.76 143.409 89.864 144.449 90.072V84.768H146.225ZM139.169 99.84C139.425 100.144 139.697 100.352 139.985 100.464C140.273 100.576 140.641 100.632 141.089 100.632C141.553 100.632 142.065 100.56 142.625 100.416C143.201 100.256 143.649 100.104 143.969 99.96L144.449 99.744V91.608C143.425 91.416 142.473 91.32 141.593 91.32C140.377 91.32 139.529 91.712 139.049 92.496C138.569 93.264 138.329 94.464 138.329 96.096C138.329 97.952 138.609 99.2 139.169 99.84ZM157.2 90H159V102H157.2V101.16C156 101.88 154.816 102.24 153.648 102.24C152.016 102.24 150.928 101.816 150.384 100.968C149.856 100.12 149.592 98.552 149.592 96.264V90H151.392V96.24C151.392 97.984 151.544 99.152 151.848 99.744C152.152 100.336 152.84 100.632 153.912 100.632C154.44 100.632 154.976 100.56 155.52 100.416C156.064 100.256 156.48 100.104 156.768 99.96L157.2 99.744V90ZM168.678 91.56H164.862V97.296C164.862 98.672 164.958 99.576 165.15 100.008C165.358 100.44 165.838 100.656 166.59 100.656L168.726 100.512L168.846 102C167.774 102.176 166.958 102.264 166.398 102.264C165.15 102.264 164.286 101.96 163.806 101.352C163.326 100.744 163.086 99.584 163.086 97.872V91.56H161.382V90H163.086V86.328H164.862V90H168.678V91.56ZM170.876 102V90H172.676V102H170.876ZM170.876 87.288V85.2H172.676V87.288H170.876ZM174.998 90H176.918L179.726 100.44H180.614L183.518 90H185.366L181.982 102H178.382L174.998 90ZM186.942 95.976C186.942 93.784 187.334 92.2 188.118 91.224C188.902 90.248 190.222 89.76 192.078 89.76C193.95 89.76 195.27 90.248 196.038 91.224C196.822 92.2 197.214 93.784 197.214 95.976C197.214 98.168 196.846 99.76 196.11 100.752C195.374 101.744 194.03 102.24 192.078 102.24C190.126 102.24 188.782 101.744 188.046 100.752C187.31 99.76 186.942 98.168 186.942 95.976ZM188.79 95.952C188.79 97.696 188.998 98.92 189.414 99.624C189.846 100.328 190.734 100.68 192.078 100.68C193.438 100.68 194.326 100.336 194.742 99.648C195.158 98.944 195.366 97.712 195.366 95.952C195.366 94.192 195.134 92.984 194.67 92.328C194.206 91.656 193.342 91.32 192.078 91.32C190.83 91.32 189.966 91.656 189.486 92.328C189.022 92.984 188.79 94.192 188.79 95.952ZM28.7936 129H26.9936V117H28.7696V117.84C30.0656 117.12 31.3056 116.76 32.4896 116.76C34.0896 116.76 35.1616 117.192 35.7056 118.056C36.2656 118.92 36.5456 120.456 36.5456 122.664V129H34.7696V122.712C34.7696 121.048 34.6016 119.912 34.2656 119.304C33.9456 118.68 33.2496 118.368 32.1776 118.368C31.6656 118.368 31.1216 118.448 30.5456 118.608C29.9856 118.752 29.5536 118.896 29.2496 119.04L28.7936 119.256V129ZM48.3563 120.624V126.768C48.4043 127.36 48.8683 127.712 49.7483 127.824L49.6763 129.24C48.4123 129.24 47.4603 128.92 46.8203 128.28C45.3803 128.92 43.9403 129.24 42.5003 129.24C41.3963 129.24 40.5563 128.928 39.9803 128.304C39.4043 127.68 39.1163 126.784 39.1163 125.616C39.1163 124.448 39.4123 123.592 40.0043 123.048C40.5963 122.488 41.5243 122.144 42.7883 122.016L46.5563 121.656V120.624C46.5563 119.808 46.3803 119.224 46.0283 118.872C45.6763 118.52 45.1963 118.344 44.5883 118.344C43.3083 118.344 41.9803 118.424 40.6043 118.584L39.8603 118.656L39.7883 117.288C41.5483 116.936 43.1083 116.76 44.4683 116.76C45.8283 116.76 46.8123 117.072 47.4203 117.696C48.0443 118.32 48.3563 119.296 48.3563 120.624ZM40.9643 125.52C40.9643 126.992 41.5723 127.728 42.7883 127.728C43.8763 127.728 44.9483 127.544 46.0043 127.176L46.5563 126.984V123.024L43.0043 123.36C42.2843 123.424 41.7643 123.632 41.4443 123.984C41.1243 124.336 40.9643 124.848 40.9643 125.52ZM45.5243 114.312C45.1883 114.312 44.6043 114.128 43.7723 113.76C42.9563 113.376 42.4443 113.184 42.2363 113.184C41.8683 113.184 41.3723 113.424 40.7483 113.904L40.4363 114.144L40.0043 112.992C40.8043 112.16 41.5323 111.744 42.1883 111.744C42.5243 111.744 43.1083 111.928 43.9403 112.296C44.7723 112.664 45.2763 112.848 45.4523 112.848C45.8043 112.848 46.2843 112.616 46.8923 112.152L47.1803 111.936L47.5883 113.088C46.8523 113.904 46.1643 114.312 45.5243 114.312ZM51.3797 122.976C51.3797 120.784 51.7717 119.2 52.5557 118.224C53.3397 117.248 54.6597 116.76 56.5157 116.76C58.3877 116.76 59.7077 117.248 60.4757 118.224C61.2597 119.2 61.6517 120.784 61.6517 122.976C61.6517 125.168 61.2837 126.76 60.5477 127.752C59.8117 128.744 58.4677 129.24 56.5157 129.24C54.5637 129.24 53.2197 128.744 52.4837 127.752C51.7477 126.76 51.3797 125.168 51.3797 122.976ZM53.2277 122.952C53.2277 124.696 53.4357 125.92 53.8517 126.624C54.2837 127.328 55.1717 127.68 56.5157 127.68C57.8757 127.68 58.7637 127.336 59.1797 126.648C59.5957 125.944 59.8037 124.712 59.8037 122.952C59.8037 121.192 59.5717 119.984 59.1077 119.328C58.6437 118.656 57.7797 118.32 56.5157 118.32C55.2677 118.32 54.4037 118.656 53.9237 119.328C53.4597 119.984 53.2277 121.192 53.2277 122.952ZM78.0208 127.512L78.7168 127.44L78.7648 128.856C76.9408 129.112 75.3808 129.24 74.0848 129.24C72.3568 129.24 71.1328 128.744 70.4128 127.752C69.6928 126.744 69.3328 125.184 69.3328 123.072C69.3328 118.864 71.0048 116.76 74.3488 116.76C75.9648 116.76 77.1728 117.216 77.9728 118.128C78.7728 119.024 79.1728 120.44 79.1728 122.376L79.0768 123.744H71.1568C71.1568 125.072 71.3968 126.056 71.8768 126.696C72.3568 127.336 73.1888 127.656 74.3728 127.656C75.5728 127.656 76.7888 127.608 78.0208 127.512ZM77.3728 122.304C77.3728 120.832 77.1328 119.792 76.6528 119.184C76.1888 118.576 75.4208 118.272 74.3488 118.272C73.2928 118.272 72.4928 118.592 71.9488 119.232C71.4208 119.872 71.1488 120.896 71.1328 122.304H77.3728ZM85.746 118.368C84.002 118.368 83.13 118.976 83.13 120.192C83.13 120.752 83.33 121.152 83.73 121.392C84.13 121.616 85.042 121.856 86.466 122.112C87.89 122.352 88.898 122.696 89.49 123.144C90.082 123.592 90.378 124.432 90.378 125.664C90.378 126.896 89.978 127.8 89.178 128.376C88.394 128.952 87.242 129.24 85.722 129.24C84.73 129.24 83.562 129.128 82.218 128.904L81.498 128.784L81.594 127.224C83.418 127.496 84.794 127.632 85.722 127.632C86.65 127.632 87.354 127.488 87.834 127.2C88.33 126.896 88.578 126.4 88.578 125.712C88.578 125.008 88.37 124.536 87.954 124.296C87.538 124.04 86.626 123.8 85.218 123.576C83.81 123.352 82.81 123.024 82.218 122.592C81.626 122.16 81.33 121.36 81.33 120.192C81.33 119.024 81.738 118.16 82.554 117.6C83.386 117.04 84.418 116.76 85.65 116.76C86.626 116.76 87.85 116.872 89.322 117.096L89.994 117.216L89.946 118.752C88.17 118.496 86.77 118.368 85.746 118.368ZM99.3503 118.56H95.5343V124.296C95.5343 125.672 95.6303 126.576 95.8223 127.008C96.0303 127.44 96.5103 127.656 97.2623 127.656L99.3983 127.512L99.5183 129C98.4463 129.176 97.6303 129.264 97.0703 129.264C95.8223 129.264 94.9583 128.96 94.4783 128.352C93.9983 127.744 93.7583 126.584 93.7583 124.872V118.56H92.0543V117H93.7583V113.328H95.5343V117H99.3503V118.56ZM101.548 129V117H103.324V118.632C104.716 117.672 106.18 117.04 107.716 116.736V118.56C107.044 118.688 106.34 118.888 105.604 119.16C104.884 119.432 104.332 119.672 103.948 119.88L103.348 120.192V129H101.548ZM117.333 117H119.133V129H117.333V128.16C116.133 128.88 114.949 129.24 113.781 129.24C112.149 129.24 111.061 128.816 110.517 127.968C109.989 127.12 109.725 125.552 109.725 123.264V117H111.525V123.24C111.525 124.984 111.677 126.152 111.981 126.744C112.285 127.336 112.973 127.632 114.045 127.632C114.573 127.632 115.109 127.56 115.653 127.416C116.197 127.256 116.613 127.104 116.901 126.96L117.333 126.744V117ZM128.811 118.56H124.995V124.296C124.995 125.672 125.091 126.576 125.283 127.008C125.491 127.44 125.971 127.656 126.723 127.656L128.859 127.512L128.979 129C127.907 129.176 127.091 129.264 126.531 129.264C125.283 129.264 124.419 128.96 123.939 128.352C123.459 127.744 123.219 126.584 123.219 124.872V118.56H121.515V117H123.219V113.328H124.995V117H128.811V118.56ZM138.497 117H140.297V129H138.497V128.16C137.297 128.88 136.113 129.24 134.945 129.24C133.313 129.24 132.225 128.816 131.681 127.968C131.153 127.12 130.889 125.552 130.889 123.264V117H132.689V123.24C132.689 124.984 132.841 126.152 133.145 126.744C133.449 127.336 134.137 127.632 135.209 127.632C135.737 127.632 136.273 127.56 136.817 127.416C137.361 127.256 137.777 127.104 138.065 126.96L138.497 126.744V117ZM143.759 129V117H145.535V118.632C146.927 117.672 148.391 117.04 149.927 116.736V118.56C149.255 118.688 148.551 118.888 147.815 119.16C147.095 119.432 146.543 119.672 146.159 119.88L145.559 120.192V129H143.759ZM160.528 120.624V126.768C160.576 127.36 161.04 127.712 161.92 127.824L161.848 129.24C160.584 129.24 159.632 128.92 158.992 128.28C157.552 128.92 156.112 129.24 154.672 129.24C153.568 129.24 152.728 128.928 152.152 128.304C151.576 127.68 151.288 126.784 151.288 125.616C151.288 124.448 151.584 123.592 152.176 123.048C152.768 122.488 153.696 122.144 154.96 122.016L158.728 121.656V120.624C158.728 119.808 158.552 119.224 158.2 118.872C157.848 118.52 157.368 118.344 156.76 118.344C155.48 118.344 154.152 118.424 152.776 118.584L152.032 118.656L151.96 117.288C153.72 116.936 155.28 116.76 156.64 116.76C158 116.76 158.984 117.072 159.592 117.696C160.216 118.32 160.528 119.296 160.528 120.624ZM153.136 125.52C153.136 126.992 153.744 127.728 154.96 127.728C156.048 127.728 157.12 127.544 158.176 127.176L158.728 126.984V123.024L155.176 123.36C154.456 123.424 153.936 123.632 153.616 123.984C153.296 124.336 153.136 124.848 153.136 125.52ZM173.296 111.768V129H171.52V128.184C170.288 128.888 169.072 129.24 167.872 129.24C167.232 129.24 166.672 129.16 166.192 129C165.712 128.84 165.264 128.552 164.848 128.136C163.984 127.272 163.552 125.68 163.552 123.36C163.552 121.024 163.936 119.344 164.704 118.32C165.488 117.28 166.776 116.76 168.568 116.76C169.496 116.76 170.48 116.864 171.52 117.072V111.768H173.296ZM166.24 126.84C166.496 127.144 166.768 127.352 167.056 127.464C167.344 127.576 167.712 127.632 168.16 127.632C168.624 127.632 169.136 127.56 169.696 127.416C170.272 127.256 170.72 127.104 171.04 126.96L171.52 126.744V118.608C170.496 118.416 169.544 118.32 168.664 118.32C167.448 118.32 166.6 118.712 166.12 119.496C165.64 120.264 165.4 121.464 165.4 123.096C165.4 124.952 165.68 126.2 166.24 126.84ZM176.255 122.976C176.255 120.784 176.647 119.2 177.431 118.224C178.215 117.248 179.535 116.76 181.391 116.76C183.263 116.76 184.583 117.248 185.351 118.224C186.135 119.2 186.527 120.784 186.527 122.976C186.527 125.168 186.159 126.76 185.423 127.752C184.687 128.744 183.343 129.24 181.391 129.24C179.439 129.24 178.095 128.744 177.359 127.752C176.623 126.76 176.255 125.168 176.255 122.976ZM178.103 122.952C178.103 124.696 178.311 125.92 178.727 126.624C179.159 127.328 180.047 127.68 181.391 127.68C182.751 127.68 183.639 127.336 184.055 126.648C184.471 125.944 184.679 124.712 184.679 122.952C184.679 121.192 184.447 119.984 183.983 119.328C183.519 118.656 182.655 118.32 181.391 118.32C180.143 118.32 179.279 118.656 178.799 119.328C178.335 119.984 178.103 121.192 178.103 122.952Z" fill="#02172B"/>
</svg>
