<svg width="213" height="135" viewBox="0 0 213 135" fill="none" xmlns="http://www.w3.org/2000/svg">
<rect x="73" width="67" height="67" rx="26.3215" fill="#02172B"/>
<path d="M118.063 28.9859V10.5313C118.063 9.69191 117.389 9 116.546 9H90.6495C89.8069 9 89.1328 9.68056 89.1328 10.5313V28.9859L103.604 39.7614L118.063 28.9859ZM108.648 15.3746H111.614C112.109 15.3746 112.513 15.7829 112.513 16.282C112.513 16.7811 112.109 17.1894 111.614 17.1894H108.648C108.154 17.1894 107.749 16.7811 107.749 16.282C107.749 15.7829 108.154 15.3746 108.648 15.3746ZM108.648 21.6925H111.614C112.109 21.6925 112.513 22.1008 112.513 22.5999C112.513 23.099 112.109 23.5073 111.614 23.5073H108.648C108.154 23.5073 107.749 23.099 107.749 22.5999C107.749 22.1008 108.154 21.6925 108.648 21.6925ZM108.648 27.999H111.614C112.109 27.999 112.513 28.4074 112.513 28.9065C112.513 29.4055 112.109 29.8139 111.614 29.8139H108.648C108.154 29.8139 107.749 29.4055 107.749 28.9065C107.749 28.4074 108.154 27.999 108.648 27.999ZM95.5705 15.3746H103.536C104.031 15.3746 104.435 15.7829 104.435 16.282C104.435 16.7811 104.031 17.1894 103.536 17.1894H95.5705C95.0762 17.1894 94.6717 16.7811 94.6717 16.282C94.6717 15.7829 95.0762 15.3746 95.5705 15.3746ZM95.5705 21.6925H103.536C104.031 21.6925 104.435 22.1008 104.435 22.5999C104.435 23.099 104.031 23.5073 103.536 23.5073H95.5705C95.0762 23.5073 94.6717 23.099 94.6717 22.5999C94.6717 22.1008 95.0762 21.6925 95.5705 21.6925ZM95.5705 29.8139C95.0762 29.8139 94.6717 29.4055 94.6717 28.9065C94.6717 28.4074 95.0762 27.999 95.5705 27.999H103.536C104.031 27.999 104.435 28.4074 104.435 28.9065C104.435 29.4055 104.031 29.8139 103.536 29.8139H95.5705Z" fill="#80DB42"/>
<path d="M121.772 35.1251H124.199V26.6861L118.065 31.2573L103.594 42.0328L89.1344 31.2459L83 26.6748V50.7213H115.604V46.6833C115.604 45.5491 116.166 44.5509 117.02 43.9497V39.9231C117.02 37.2802 119.154 35.1251 121.772 35.1251Z" fill="white"/>
<path d="M129.585 45.1921V39.9177C129.585 38.273 128.259 36.9346 126.63 36.9346H121.777C120.148 36.9346 118.822 38.273 118.822 39.9177V45.1921C118.035 45.2261 117.406 45.884 117.406 46.7006V55.4912C117.406 56.3193 118.069 56.9998 118.901 56.9998H129.506C130.338 56.9998 131.001 56.3193 131.001 55.4912V46.7006C131.001 45.884 130.372 45.2261 129.585 45.1921ZM126.248 50.5572C126.248 50.5798 126.248 50.5912 126.248 50.6139C126.17 51.3398 125.72 51.9523 125.102 52.2586V53.8465C125.102 54.3456 124.698 54.754 124.203 54.754C123.709 54.754 123.305 54.3456 123.305 53.8465V52.2586C122.709 51.9637 122.282 51.3965 122.17 50.716C122.17 50.6819 122.159 50.6479 122.159 50.6139C122.159 50.5912 122.159 50.5798 122.159 50.5572C122.147 50.5004 122.147 50.4551 122.147 50.3984C122.147 49.2527 123.069 48.3226 124.203 48.3226C125.338 48.3226 126.259 49.2527 126.259 50.3984C126.259 50.4551 126.259 50.5118 126.248 50.5572ZM127.787 45.1807H120.631V39.9177C120.631 39.2712 121.148 38.7494 121.788 38.7494H126.641C127.282 38.7494 127.799 39.2712 127.799 39.9177V45.1807H127.787Z" fill="#80DB42"/>
<path d="M58.2205 102L62.7805 85.392H66.8125L71.3725 102H69.5485L68.3485 97.728H61.2445L60.0445 102H58.2205ZM64.1725 86.976L61.6525 96.072H67.9405L65.4205 86.976H64.1725ZM75.4694 102H73.6694V90H75.4454V90.84C76.6454 90.12 77.8134 89.76 78.9494 89.76C80.4374 89.76 81.4774 90.168 82.0694 90.984C82.5974 90.664 83.2774 90.384 84.1094 90.144C84.9574 89.888 85.7014 89.76 86.3414 89.76C87.9414 89.76 89.0134 90.192 89.5574 91.056C90.1174 91.904 90.3974 93.44 90.3974 95.664V102H88.5974V95.712C88.5974 94.048 88.4374 92.912 88.1174 92.304C87.7974 91.68 87.1174 91.368 86.0774 91.368C85.5494 91.368 85.0054 91.448 84.4454 91.608C83.8854 91.752 83.4534 91.896 83.1494 92.04L82.6934 92.256C82.9014 92.784 83.0054 93.952 83.0054 95.76V102H81.2054V95.808C81.2054 94.08 81.0454 92.912 80.7254 92.304C80.4214 91.68 79.7414 91.368 78.6854 91.368C78.1734 91.368 77.6454 91.448 77.1014 91.608C76.5734 91.752 76.1654 91.896 75.8774 92.04L75.4694 92.256V102ZM99.0359 89.76C100.652 89.76 101.78 90.224 102.42 91.152C103.076 92.064 103.404 93.672 103.404 95.976C103.404 98.28 102.996 99.904 102.18 100.848C101.38 101.776 99.8999 102.24 97.7399 102.24C97.0679 102.24 95.9559 102.176 94.4039 102.048L93.7319 101.976V84.768H95.5079V90.6C96.7239 90.04 97.8999 89.76 99.0359 89.76ZM97.7159 100.632C99.2839 100.632 100.316 100.28 100.812 99.576C101.324 98.856 101.58 97.648 101.58 95.952C101.58 94.256 101.38 93.072 100.98 92.4C100.58 91.712 99.8679 91.368 98.8439 91.368C97.9159 91.368 96.9639 91.544 95.9879 91.896L95.5079 92.064V100.512C96.5479 100.592 97.2839 100.632 97.7159 100.632ZM106.365 102V90H108.165V102H106.365ZM106.365 87.288V85.2H108.165V87.288H106.365ZM119.775 100.512L120.471 100.44L120.519 101.856C118.695 102.112 117.135 102.24 115.839 102.24C114.111 102.24 112.887 101.744 112.167 100.752C111.447 99.744 111.087 98.184 111.087 96.072C111.087 91.864 112.759 89.76 116.103 89.76C117.719 89.76 118.927 90.216 119.727 91.128C120.527 92.024 120.927 93.44 120.927 95.376L120.831 96.744H112.911C112.911 98.072 113.151 99.056 113.631 99.696C114.111 100.336 114.943 100.656 116.127 100.656C117.327 100.656 118.543 100.608 119.775 100.512ZM119.127 95.304C119.127 93.832 118.887 92.792 118.407 92.184C117.943 91.576 117.175 91.272 116.103 91.272C115.047 91.272 114.247 91.592 113.703 92.232C113.175 92.872 112.903 93.896 112.887 95.304H119.127ZM125.532 102H123.732V90H125.508V90.84C126.804 90.12 128.044 89.76 129.228 89.76C130.828 89.76 131.9 90.192 132.444 91.056C133.004 91.92 133.284 93.456 133.284 95.664V102H131.508V95.712C131.508 94.048 131.34 92.912 131.004 92.304C130.684 91.68 129.988 91.368 128.916 91.368C128.404 91.368 127.86 91.448 127.284 91.608C126.724 91.752 126.292 91.896 125.988 92.04L125.532 92.256V102ZM142.768 91.56H138.952V97.296C138.952 98.672 139.048 99.576 139.24 100.008C139.448 100.44 139.928 100.656 140.68 100.656L142.816 100.512L142.936 102C141.864 102.176 141.048 102.264 140.488 102.264C139.24 102.264 138.376 101.96 137.896 101.352C137.416 100.744 137.176 99.584 137.176 97.872V91.56H135.472V90H137.176V86.328H138.952V90H142.768V91.56ZM153.126 100.512L153.822 100.44L153.87 101.856C152.046 102.112 150.486 102.24 149.19 102.24C147.462 102.24 146.238 101.744 145.518 100.752C144.798 99.744 144.438 98.184 144.438 96.072C144.438 91.864 146.11 89.76 149.454 89.76C151.07 89.76 152.278 90.216 153.078 91.128C153.878 92.024 154.278 93.44 154.278 95.376L154.182 96.744H146.262C146.262 98.072 146.502 99.056 146.982 99.696C147.462 100.336 148.294 100.656 149.478 100.656C150.678 100.656 151.894 100.608 153.126 100.512ZM152.478 95.304C152.478 93.832 152.238 92.792 151.758 92.184C151.294 91.576 150.526 91.272 149.454 91.272C148.398 91.272 147.598 91.592 147.054 92.232C146.526 92.872 146.254 93.896 146.238 95.304H152.478ZM11.1968 129V117H12.9728V118.632C14.3648 117.672 15.8288 117.04 17.3648 116.736V118.56C16.6928 118.688 15.9888 118.888 15.2528 119.16C14.5328 119.432 13.9808 119.672 13.5968 119.88L12.9967 120.192V129H11.1968ZM27.4193 127.512L28.1153 127.44L28.1633 128.856C26.3393 129.112 24.7793 129.24 23.4833 129.24C21.7553 129.24 20.5313 128.744 19.8113 127.752C19.0913 126.744 18.7313 125.184 18.7313 123.072C18.7313 118.864 20.4033 116.76 23.7473 116.76C25.3633 116.76 26.5713 117.216 27.3713 118.128C28.1713 119.024 28.5713 120.44 28.5713 122.376L28.4753 123.744H20.5553C20.5553 125.072 20.7953 126.056 21.2753 126.696C21.7553 127.336 22.5873 127.656 23.7713 127.656C24.9713 127.656 26.1873 127.608 27.4193 127.512ZM26.7713 122.304C26.7713 120.832 26.5313 119.792 26.0513 119.184C25.5873 118.576 24.8193 118.272 23.7473 118.272C22.6913 118.272 21.8913 118.592 21.3473 119.232C20.8193 119.872 20.5473 120.896 20.5312 122.304H26.7713ZM36.0084 134.64C34.0884 134.64 32.7444 134.376 31.9764 133.848C31.2244 133.336 30.8484 132.392 30.8484 131.016C30.8484 130.36 30.9924 129.824 31.2804 129.408C31.5684 129.008 32.0564 128.552 32.7444 128.04C32.2964 127.736 32.0724 127.184 32.0724 126.384C32.0724 126.112 32.2724 125.608 32.6724 124.872L32.8884 124.488C31.6244 123.912 30.9924 122.704 30.9924 120.864C30.9924 118.128 32.4884 116.76 35.4804 116.76C36.2484 116.76 36.9604 116.84 37.6164 117L37.9764 117.072L41.5284 116.976V118.512L39.2484 118.464C39.7764 118.992 40.0404 119.792 40.0404 120.864C40.0404 122.368 39.6644 123.424 38.9124 124.032C38.1764 124.624 37.0084 124.92 35.4084 124.92C34.9764 124.92 34.5844 124.888 34.2324 124.824C33.9444 125.528 33.8004 125.984 33.8004 126.192C33.8004 126.688 33.9524 127 34.2564 127.128C34.5604 127.24 35.4804 127.296 37.0164 127.296C38.5524 127.296 39.6564 127.536 40.3284 128.016C41.0004 128.496 41.3364 129.432 41.3364 130.824C41.3364 133.368 39.5604 134.64 36.0084 134.64ZM32.6244 130.872C32.6244 131.72 32.8564 132.304 33.3204 132.624C33.8004 132.96 34.6724 133.128 35.9364 133.128C37.2164 133.128 38.1284 132.952 38.6724 132.6C39.2324 132.248 39.5124 131.656 39.5124 130.824C39.5124 130.008 39.3124 129.48 38.9124 129.24C38.5124 129 37.7284 128.88 36.5604 128.88L33.9684 128.76C33.4404 129.144 33.0804 129.48 32.8884 129.768C32.7124 130.056 32.6244 130.424 32.6244 130.872ZM32.7924 120.864C32.7924 121.808 33.0004 122.48 33.4164 122.88C33.8484 123.28 34.5524 123.48 35.5284 123.48C36.5044 123.48 37.2004 123.28 37.6164 122.88C38.0324 122.48 38.2404 121.808 38.2404 120.864C38.2404 119.904 38.0324 119.224 37.6164 118.824C37.2004 118.424 36.5044 118.224 35.5284 118.224C34.5524 118.224 33.8484 118.432 33.4164 118.848C33.0004 119.248 32.7924 119.92 32.7924 120.864ZM51.1926 117H52.9926V129H51.1926V128.16C49.9926 128.88 48.8086 129.24 47.6406 129.24C46.0086 129.24 44.9206 128.816 44.3766 127.968C43.8486 127.12 43.5846 125.552 43.5846 123.264V117H45.3846V123.24C45.3846 124.984 45.5366 126.152 45.8406 126.744C46.1446 127.336 46.8326 127.632 47.9046 127.632C48.4326 127.632 48.9686 127.56 49.5126 127.416C50.0566 127.256 50.4726 127.104 50.7606 126.96L51.1926 126.744V117ZM56.5986 129V111.768H58.3986V129H56.5986ZM70.4813 120.624V126.768C70.5293 127.36 70.9933 127.712 71.8733 127.824L71.8013 129.24C70.5373 129.24 69.5853 128.92 68.9453 128.28C67.5053 128.92 66.0653 129.24 64.6253 129.24C63.5213 129.24 62.6813 128.928 62.1053 128.304C61.5293 127.68 61.2413 126.784 61.2413 125.616C61.2413 124.448 61.5373 123.592 62.1293 123.048C62.7213 122.488 63.6493 122.144 64.9133 122.016L68.6813 121.656V120.624C68.6813 119.808 68.5053 119.224 68.1533 118.872C67.8013 118.52 67.3213 118.344 66.7133 118.344C65.4333 118.344 64.1053 118.424 62.7293 118.584L61.9853 118.656L61.9133 117.288C63.6733 116.936 65.2333 116.76 66.5933 116.76C67.9533 116.76 68.9373 117.072 69.5453 117.696C70.1693 118.32 70.4813 119.296 70.4813 120.624ZM63.0893 125.52C63.0893 126.992 63.6973 127.728 64.9133 127.728C66.0013 127.728 67.0733 127.544 68.1293 127.176L68.6813 126.984V123.024L65.1293 123.36C64.4093 123.424 63.8893 123.632 63.5693 123.984C63.2493 124.336 63.0893 124.848 63.0893 125.52ZM80.2487 118.56H76.4327V124.296C76.4327 125.672 76.5287 126.576 76.7207 127.008C76.9287 127.44 77.4087 127.656 78.1607 127.656L80.2967 127.512L80.4167 129C79.3447 129.176 78.5287 129.264 77.9687 129.264C76.7207 129.264 75.8567 128.96 75.3767 128.352C74.8967 127.744 74.6567 126.584 74.6567 124.872V118.56H72.9527V117H74.6567V113.328H76.4327V117H80.2487V118.56ZM87.0547 116.76C88.9268 116.76 90.2468 117.248 91.0148 118.224C91.7988 119.2 92.1908 120.784 92.1908 122.976C92.1908 125.168 91.8228 126.76 91.0868 127.752C90.3508 128.744 89.0068 129.24 87.0547 129.24C85.1028 129.24 83.7588 128.744 83.0228 127.752C82.2868 126.76 81.9188 125.168 81.9188 122.976C81.9188 120.784 82.3108 119.2 83.0948 118.224C83.8788 117.248 85.1988 116.76 87.0547 116.76ZM87.0547 127.68C88.4148 127.68 89.3028 127.336 89.7188 126.648C90.1348 125.944 90.3428 124.712 90.3428 122.952C90.3428 121.192 90.1108 119.984 89.6468 119.328C89.1828 118.656 88.3188 118.32 87.0547 118.32C85.8068 118.32 84.9428 118.656 84.4628 119.328C83.9988 119.984 83.7668 121.192 83.7668 122.952C83.7668 124.696 83.9748 125.92 84.3908 126.624C84.8228 127.328 85.7108 127.68 87.0547 127.68ZM84.4148 113.592L89.5988 111.24L90.2228 112.776L84.9188 114.816L84.4148 113.592ZM95.1264 129V117H96.9024V118.632C98.2944 117.672 99.7584 117.04 101.294 116.736V118.56C100.622 118.688 99.9184 118.888 99.1824 119.16C98.4624 119.432 97.9104 119.672 97.5264 119.88L96.9264 120.192V129H95.1264ZM103.423 129V117H105.223V129H103.423ZM103.423 114.288V112.2H105.223V114.288H103.423ZM108.145 122.976C108.145 120.784 108.537 119.2 109.321 118.224C110.105 117.248 111.425 116.76 113.281 116.76C115.153 116.76 116.473 117.248 117.241 118.224C118.025 119.2 118.417 120.784 118.417 122.976C118.417 125.168 118.049 126.76 117.313 127.752C116.577 128.744 115.233 129.24 113.281 129.24C111.329 129.24 109.985 128.744 109.249 127.752C108.513 126.76 108.145 125.168 108.145 122.976ZM109.993 122.952C109.993 124.696 110.201 125.92 110.617 126.624C111.049 127.328 111.937 127.68 113.281 127.68C114.641 127.68 115.529 127.336 115.945 126.648C116.361 125.944 116.569 124.712 116.569 122.952C116.569 121.192 116.337 119.984 115.873 119.328C115.409 118.656 114.545 118.32 113.281 118.32C112.033 118.32 111.169 118.656 110.689 119.328C110.225 119.984 109.993 121.192 109.993 122.952ZM126.626 129V117H128.426V129H126.626ZM126.626 114.288V112.2H128.426V114.288H126.626ZM133.676 129H131.876V117H133.652V117.84C134.948 117.12 136.188 116.76 137.372 116.76C138.972 116.76 140.044 117.192 140.588 118.056C141.148 118.92 141.428 120.456 141.428 122.664V129H139.652V122.712C139.652 121.048 139.484 119.912 139.148 119.304C138.828 118.68 138.132 118.368 137.06 118.368C136.548 118.368 136.004 118.448 135.428 118.608C134.868 118.752 134.436 118.896 134.132 119.04L133.676 119.256V129ZM148.535 118.368C146.791 118.368 145.919 118.976 145.919 120.192C145.919 120.752 146.119 121.152 146.519 121.392C146.919 121.616 147.831 121.856 149.255 122.112C150.679 122.352 151.687 122.696 152.279 123.144C152.871 123.592 153.167 124.432 153.167 125.664C153.167 126.896 152.767 127.8 151.967 128.376C151.183 128.952 150.031 129.24 148.511 129.24C147.519 129.24 146.351 129.128 145.007 128.904L144.287 128.784L144.383 127.224C146.207 127.496 147.583 127.632 148.511 127.632C149.439 127.632 150.143 127.488 150.623 127.2C151.119 126.896 151.367 126.4 151.367 125.712C151.367 125.008 151.159 124.536 150.743 124.296C150.327 124.04 149.415 123.8 148.007 123.576C146.599 123.352 145.599 123.024 145.007 122.592C144.415 122.16 144.119 121.36 144.119 120.192C144.119 119.024 144.527 118.16 145.343 117.6C146.175 117.04 147.207 116.76 148.439 116.76C149.415 116.76 150.639 116.872 152.111 117.096L152.783 117.216L152.735 118.752C150.959 118.496 149.559 118.368 148.535 118.368ZM162.139 118.56H158.323V124.296C158.323 125.672 158.419 126.576 158.611 127.008C158.819 127.44 159.299 127.656 160.051 127.656L162.187 127.512L162.307 129C161.235 129.176 160.419 129.264 159.859 129.264C158.611 129.264 157.747 128.96 157.267 128.352C156.787 127.744 156.547 126.584 156.547 124.872V118.56H154.843V117H156.547V113.328H158.323V117H162.139V118.56ZM172.809 120.624V126.768C172.857 127.36 173.321 127.712 174.201 127.824L174.129 129.24C172.865 129.24 171.913 128.92 171.273 128.28C169.833 128.92 168.393 129.24 166.953 129.24C165.849 129.24 165.009 128.928 164.433 128.304C163.857 127.68 163.569 126.784 163.569 125.616C163.569 124.448 163.865 123.592 164.457 123.048C165.049 122.488 165.977 122.144 167.241 122.016L171.009 121.656V120.624C171.009 119.808 170.833 119.224 170.481 118.872C170.129 118.52 169.649 118.344 169.041 118.344C167.761 118.344 166.433 118.424 165.057 118.584L164.313 118.656L164.241 117.288C166.001 116.936 167.561 116.76 168.921 116.76C170.281 116.76 171.265 117.072 171.873 117.696C172.497 118.32 172.809 119.296 172.809 120.624ZM165.417 125.52C165.417 126.992 166.025 127.728 167.241 127.728C168.329 127.728 169.401 127.544 170.457 127.176L171.009 126.984V123.024L167.457 123.36C166.737 123.424 166.217 123.632 165.897 123.984C165.577 124.336 165.417 124.848 165.417 125.52ZM165.441 113.592L170.625 111.24L171.249 112.776L165.945 114.816L165.441 113.592ZM175.116 117H177.036L179.844 127.44H180.732L183.636 117H185.484L182.1 129H178.5L175.116 117ZM195.747 127.512L196.443 127.44L196.491 128.856C194.667 129.112 193.107 129.24 191.811 129.24C190.083 129.24 188.859 128.744 188.139 127.752C187.419 126.744 187.059 125.184 187.059 123.072C187.059 118.864 188.731 116.76 192.075 116.76C193.691 116.76 194.899 117.216 195.699 118.128C196.499 119.024 196.899 120.44 196.899 122.376L196.803 123.744H188.883C188.883 125.072 189.123 126.056 189.603 126.696C190.083 127.336 190.915 127.656 192.099 127.656C193.299 127.656 194.515 127.608 195.747 127.512ZM195.099 122.304C195.099 120.832 194.859 119.792 194.379 119.184C193.915 118.576 193.147 118.272 192.075 118.272C191.019 118.272 190.219 118.592 189.675 119.232C189.147 119.872 188.875 120.896 188.859 122.304H195.099ZM199.849 129V111.768H201.649V129H199.849Z" fill="#02172B"/>
</svg>
