<svg width="67" height="67" viewBox="0 0 67 67" fill="none" xmlns="http://www.w3.org/2000/svg">
<rect width="67" height="67" rx="26.3215" fill="#02172B"/>
<path d="M36.6699 18.0391V22.5511C42.009 23.263 46.1337 27.8483 46.1337 33.3862C46.1337 38.9242 42.009 43.4991 36.6699 44.2109V48.723C44.5005 47.9797 50.6143 41.3948 50.6143 33.3758C50.6143 25.3672 44.4901 18.7823 36.6699 18.0391Z" fill="white"/>
<path d="M33.7349 13.5991V9.76758H30.3744V11.7148H27.0244V13.5991H30.3744H33.7349Z" fill="white"/>
<path d="M35.1666 15H25.5039V28.2116H35.1666V15ZM30.33 22.1502C29.1575 22.1502 28.2048 21.1975 28.2048 20.025C28.2048 18.8525 29.1575 17.8998 30.33 17.8998C31.5025 17.8998 32.4552 18.8525 32.4552 20.025C32.4552 21.1975 31.5025 22.1502 30.33 22.1502Z" fill="#80DB42"/>
<path d="M31.61 33.7527V31.2716H33.9759V29.7432H26.7734V31.2716H29.1498V33.7527H31.61Z" fill="white"/>
<path d="M35.2094 48.7954V42.6398H24.3114V40.0645H20.1763V48.7954H24.3114H35.2094Z" fill="white"/>
<path d="M18.7147 48.7969H16.3906V51.6863H23.1011C23.5094 51.6863 23.8339 52.0108 23.8339 52.4191C23.8339 52.8273 23.5094 53.1519 23.1011 53.1519H16.3906V57.2242H45.5461V50.2625L18.7147 50.252V48.7969ZM39.5056 51.1209C40.5944 51.1209 41.4738 52.0003 41.4738 53.0891C41.4738 54.1778 40.5944 55.0572 39.5056 55.0572C38.4169 55.0572 37.527 54.1778 37.527 53.0891C37.527 52.0003 38.4169 51.1209 39.5056 51.1209ZM24.7238 52.283C24.7342 52.2306 24.7447 52.1887 24.7656 52.1469C24.7866 52.105 24.8075 52.0631 24.8284 52.0212C24.8598 51.9794 24.8808 51.948 24.9227 51.9061C25.0902 51.7386 25.3519 51.6548 25.5822 51.7072C25.6241 51.7177 25.6764 51.7281 25.7183 51.7491C25.7602 51.77 25.802 51.7909 25.8439 51.8119C25.8858 51.8433 25.9172 51.8747 25.9591 51.9061C25.9905 51.9375 26.0219 51.9794 26.0533 52.0212C26.0847 52.0631 26.1056 52.105 26.1161 52.1469C26.137 52.1887 26.1475 52.2411 26.158 52.283C26.1684 52.3248 26.1684 52.3772 26.1684 52.4295C26.1684 52.4819 26.1684 52.5238 26.158 52.5761C26.1475 52.6284 26.137 52.6703 26.1161 52.7122C26.0952 52.7541 26.0742 52.7959 26.0533 52.8378C26.0323 52.8797 25.9905 52.9111 25.9591 52.953C25.9277 52.9844 25.8858 53.0158 25.8439 53.0472C25.802 53.0786 25.7602 53.0995 25.7183 53.11C25.6764 53.1309 25.6241 53.1414 25.5822 53.1519C25.5298 53.1623 25.488 53.1623 25.4356 53.1623C25.3938 53.1623 25.3414 53.1623 25.2891 53.1519C25.2472 53.1414 25.1948 53.1309 25.153 53.11C25.1111 53.0891 25.0692 53.0681 25.0273 53.0472C24.9855 53.0158 24.9541 52.9948 24.9122 52.953C24.8808 52.9216 24.8494 52.8797 24.818 52.8378C24.7866 52.7959 24.7656 52.7541 24.7552 52.7122C24.7342 52.6703 24.7238 52.618 24.7133 52.5761C24.7028 52.5342 24.7028 52.4819 24.7028 52.4295C24.7133 52.3772 24.7133 52.3248 24.7238 52.283Z" fill="#D5F3C0"/>
<path d="M24.0799 16.7715H21.8501V26.5807H24.0799V16.7715Z" fill="white"/>
</svg>
