<svg width="309" height="196" viewBox="0 0 309 196" fill="none" xmlns="http://www.w3.org/2000/svg">
<g filter="url(#filter0_d_1_58)">
<rect width="293" height="180" rx="16" fill="white"/>
<rect x="113.5" y="26" width="67" height="67" rx="26.3215" fill="#02172B"/>
<path d="M150.17 44.0391V48.5511C155.509 49.263 159.634 53.8483 159.634 59.3862C159.634 64.9242 155.509 69.4991 150.17 70.2109V74.723C158.001 73.9797 164.114 67.3948 164.114 59.3758C164.114 51.3672 157.99 44.7823 150.17 44.0391Z" fill="white"/>
<path d="M147.235 39.5991V35.7676H143.874V37.7148H140.524V39.5991H143.874H147.235Z" fill="white"/>
<path d="M148.667 41H139.004V54.2116H148.667V41ZM143.83 48.1502C142.658 48.1502 141.705 47.1975 141.705 46.025C141.705 44.8525 142.658 43.8998 143.83 43.8998C145.003 43.8998 145.955 44.8525 145.955 46.025C145.955 47.1975 145.003 48.1502 143.83 48.1502Z" fill="#80DB42"/>
<path d="M145.11 59.7527V57.2716H147.476V55.7432H140.273V57.2716H142.65V59.7527H145.11Z" fill="white"/>
<path d="M148.709 74.7954V68.6398H137.811V66.0645H133.676V74.7954H137.811H148.709Z" fill="white"/>
<path d="M132.215 74.7969H129.891V77.6863H136.601C137.009 77.6863 137.334 78.0108 137.334 78.4191C137.334 78.8273 137.009 79.1519 136.601 79.1519H129.891V83.2242H159.046V76.2625L132.215 76.252V74.7969ZM153.006 77.1209C154.094 77.1209 154.974 78.0003 154.974 79.0891C154.974 80.1778 154.094 81.0572 153.006 81.0572C151.917 81.0572 151.027 80.1778 151.027 79.0891C151.027 78.0003 151.917 77.1209 153.006 77.1209ZM138.224 78.283C138.234 78.2306 138.245 78.1887 138.266 78.1469C138.287 78.105 138.308 78.0631 138.328 78.0212C138.36 77.9794 138.381 77.948 138.423 77.9061C138.59 77.7386 138.852 77.6548 139.082 77.7072C139.124 77.7177 139.176 77.7281 139.218 77.7491C139.26 77.77 139.302 77.7909 139.344 77.8119C139.386 77.8433 139.417 77.8747 139.459 77.9061C139.49 77.9375 139.522 77.9794 139.553 78.0212C139.585 78.0631 139.606 78.105 139.616 78.1469C139.637 78.1887 139.648 78.2411 139.658 78.283C139.668 78.3248 139.668 78.3772 139.668 78.4295C139.668 78.4819 139.668 78.5238 139.658 78.5761C139.648 78.6284 139.637 78.6703 139.616 78.7122C139.595 78.7541 139.574 78.7959 139.553 78.8378C139.532 78.8797 139.49 78.9111 139.459 78.953C139.428 78.9844 139.386 79.0158 139.344 79.0472C139.302 79.0786 139.26 79.0995 139.218 79.11C139.176 79.1309 139.124 79.1414 139.082 79.1519C139.03 79.1623 138.988 79.1623 138.936 79.1623C138.894 79.1623 138.841 79.1623 138.789 79.1519C138.747 79.1414 138.695 79.1309 138.653 79.11C138.611 79.0891 138.569 79.0681 138.527 79.0472C138.485 79.0158 138.454 78.9948 138.412 78.953C138.381 78.9216 138.349 78.8797 138.318 78.8378C138.287 78.7959 138.266 78.7541 138.255 78.7122C138.234 78.6703 138.224 78.618 138.213 78.5761C138.203 78.5342 138.203 78.4819 138.203 78.4295C138.213 78.3772 138.213 78.3248 138.224 78.283Z" fill="#D5F3C0"/>
<path d="M137.58 42.7715H135.35V52.5807H137.58V42.7715Z" fill="white"/>
<path d="M78.5986 106.392H84.6226C86.2706 106.392 87.5026 106.736 88.3186 107.424C89.1506 108.096 89.5666 109.16 89.5666 110.616C89.5666 111.656 89.3826 112.472 89.0146 113.064C88.6626 113.64 88.1346 114.096 87.4306 114.432C89.1906 115.04 90.0706 116.344 90.0706 118.344C90.0706 120.008 89.6306 121.2 88.7506 121.92C87.8706 122.64 86.5986 123 84.9346 123H78.5986V106.392ZM84.7426 115.368H80.4466V121.368H84.8626C85.9506 121.368 86.7746 121.144 87.3346 120.696C87.9106 120.232 88.1986 119.424 88.1986 118.272C88.1986 117.664 88.0786 117.152 87.8386 116.736C87.6146 116.32 87.3106 116.024 86.9266 115.848C86.2226 115.528 85.4946 115.368 84.7426 115.368ZM84.5506 108.024H80.4466V113.76H84.7186C85.7426 113.76 86.4866 113.52 86.9506 113.04C87.4306 112.544 87.6706 111.808 87.6706 110.832C87.6706 109.84 87.4146 109.128 86.9026 108.696C86.4066 108.248 85.6226 108.024 84.5506 108.024ZM101.548 114.624V120.768C101.596 121.36 102.06 121.712 102.94 121.824L102.868 123.24C101.604 123.24 100.652 122.92 100.012 122.28C98.5717 122.92 97.1317 123.24 95.6917 123.24C94.5877 123.24 93.7477 122.928 93.1717 122.304C92.5957 121.68 92.3077 120.784 92.3077 119.616C92.3077 118.448 92.6037 117.592 93.1957 117.048C93.7877 116.488 94.7157 116.144 95.9797 116.016L99.7477 115.656V114.624C99.7477 113.808 99.5717 113.224 99.2197 112.872C98.8677 112.52 98.3877 112.344 97.7797 112.344C96.4997 112.344 95.1717 112.424 93.7957 112.584L93.0517 112.656L92.9797 111.288C94.7397 110.936 96.2997 110.76 97.6597 110.76C99.0197 110.76 100.004 111.072 100.612 111.696C101.236 112.32 101.548 113.296 101.548 114.624ZM94.1557 119.52C94.1557 120.992 94.7637 121.728 95.9797 121.728C97.0677 121.728 98.1397 121.544 99.1957 121.176L99.7477 120.984V117.024L96.1957 117.36C95.4757 117.424 94.9557 117.632 94.6357 117.984C94.3157 118.336 94.1557 118.848 94.1557 119.52ZM108.867 112.368C107.123 112.368 106.251 112.976 106.251 114.192C106.251 114.752 106.451 115.152 106.851 115.392C107.251 115.616 108.163 115.856 109.587 116.112C111.011 116.352 112.019 116.696 112.611 117.144C113.203 117.592 113.499 118.432 113.499 119.664C113.499 120.896 113.099 121.8 112.299 122.376C111.515 122.952 110.363 123.24 108.843 123.24C107.851 123.24 106.683 123.128 105.339 122.904L104.619 122.784L104.715 121.224C106.539 121.496 107.915 121.632 108.843 121.632C109.771 121.632 110.475 121.488 110.955 121.2C111.451 120.896 111.699 120.4 111.699 119.712C111.699 119.008 111.491 118.536 111.075 118.296C110.659 118.04 109.747 117.8 108.339 117.576C106.931 117.352 105.931 117.024 105.339 116.592C104.747 116.16 104.451 115.36 104.451 114.192C104.451 113.024 104.859 112.16 105.675 111.6C106.507 111.04 107.539 110.76 108.771 110.76C109.747 110.76 110.971 110.872 112.443 111.096L113.115 111.216L113.067 112.752C111.291 112.496 109.891 112.368 108.867 112.368ZM124.415 121.512L125.111 121.44L125.159 122.856C123.335 123.112 121.775 123.24 120.479 123.24C118.751 123.24 117.527 122.744 116.807 121.752C116.087 120.744 115.727 119.184 115.727 117.072C115.727 112.864 117.399 110.76 120.743 110.76C122.359 110.76 123.567 111.216 124.367 112.128C125.167 113.024 125.567 114.44 125.567 116.376L125.471 117.744H117.551C117.551 119.072 117.791 120.056 118.271 120.696C118.751 121.336 119.583 121.656 120.767 121.656C121.967 121.656 123.183 121.608 124.415 121.512ZM123.767 116.304C123.767 114.832 123.527 113.792 123.047 113.184C122.583 112.576 121.815 112.272 120.743 112.272C119.687 112.272 118.887 112.592 118.343 113.232C117.815 113.872 117.543 114.896 117.527 116.304H123.767ZM138.278 128.64C136.358 128.64 135.014 128.376 134.246 127.848C133.494 127.336 133.118 126.392 133.118 125.016C133.118 124.36 133.262 123.824 133.55 123.408C133.838 123.008 134.326 122.552 135.014 122.04C134.566 121.736 134.342 121.184 134.342 120.384C134.342 120.112 134.542 119.608 134.942 118.872L135.158 118.488C133.894 117.912 133.262 116.704 133.262 114.864C133.262 112.128 134.758 110.76 137.75 110.76C138.518 110.76 139.23 110.84 139.886 111L140.246 111.072L143.798 110.976V112.512L141.518 112.464C142.046 112.992 142.31 113.792 142.31 114.864C142.31 116.368 141.934 117.424 141.182 118.032C140.446 118.624 139.278 118.92 137.678 118.92C137.246 118.92 136.854 118.888 136.502 118.824C136.214 119.528 136.07 119.984 136.07 120.192C136.07 120.688 136.222 121 136.526 121.128C136.83 121.24 137.75 121.296 139.286 121.296C140.822 121.296 141.926 121.536 142.598 122.016C143.27 122.496 143.606 123.432 143.606 124.824C143.606 127.368 141.83 128.64 138.278 128.64ZM134.894 124.872C134.894 125.72 135.126 126.304 135.59 126.624C136.07 126.96 136.942 127.128 138.206 127.128C139.486 127.128 140.398 126.952 140.942 126.6C141.502 126.248 141.782 125.656 141.782 124.824C141.782 124.008 141.582 123.48 141.182 123.24C140.782 123 139.998 122.88 138.83 122.88L136.238 122.76C135.71 123.144 135.35 123.48 135.158 123.768C134.982 124.056 134.894 124.424 134.894 124.872ZM135.062 114.864C135.062 115.808 135.27 116.48 135.686 116.88C136.118 117.28 136.822 117.48 137.798 117.48C138.774 117.48 139.47 117.28 139.886 116.88C140.302 116.48 140.51 115.808 140.51 114.864C140.51 113.904 140.302 113.224 139.886 112.824C139.47 112.424 138.774 112.224 137.798 112.224C136.822 112.224 136.118 112.432 135.686 112.848C135.27 113.248 135.062 113.92 135.062 114.864ZM154.134 121.512L154.83 121.44L154.878 122.856C153.054 123.112 151.494 123.24 150.198 123.24C148.47 123.24 147.246 122.744 146.526 121.752C145.806 120.744 145.446 119.184 145.446 117.072C145.446 112.864 147.118 110.76 150.462 110.76C152.078 110.76 153.286 111.216 154.086 112.128C154.886 113.024 155.286 114.44 155.286 116.376L155.19 117.744H147.27C147.27 119.072 147.51 120.056 147.99 120.696C148.47 121.336 149.302 121.656 150.486 121.656C151.686 121.656 152.902 121.608 154.134 121.512ZM153.486 116.304C153.486 114.832 153.246 113.792 152.766 113.184C152.302 112.576 151.534 112.272 150.462 112.272C149.406 112.272 148.606 112.592 148.062 113.232C147.534 113.872 147.262 114.896 147.246 116.304H153.486ZM159.891 123H158.091V111H159.867V111.84C161.163 111.12 162.403 110.76 163.587 110.76C165.187 110.76 166.259 111.192 166.803 112.056C167.363 112.92 167.643 114.456 167.643 116.664V123H165.867V116.712C165.867 115.048 165.699 113.912 165.363 113.304C165.043 112.68 164.347 112.368 163.275 112.368C162.763 112.368 162.219 112.448 161.643 112.608C161.083 112.752 160.651 112.896 160.347 113.04L159.891 113.256V123ZM179.142 121.512L179.838 121.44L179.886 122.856C178.062 123.112 176.502 123.24 175.206 123.24C173.478 123.24 172.254 122.744 171.534 121.752C170.814 120.744 170.454 119.184 170.454 117.072C170.454 112.864 172.126 110.76 175.47 110.76C177.086 110.76 178.294 111.216 179.094 112.128C179.894 113.024 180.294 114.44 180.294 116.376L180.198 117.744H172.278C172.278 119.072 172.518 120.056 172.998 120.696C173.478 121.336 174.31 121.656 175.494 121.656C176.694 121.656 177.91 121.608 179.142 121.512ZM178.494 116.304C178.494 114.832 178.254 113.792 177.774 113.184C177.31 112.576 176.542 112.272 175.47 112.272C174.414 112.272 173.614 112.592 173.07 113.232C172.542 113.872 172.27 114.896 172.254 116.304H178.494ZM172.734 107.592L177.918 105.24L178.542 106.776L173.238 108.816L172.734 107.592ZM189.245 112.56H185.429V118.296C185.429 119.672 185.525 120.576 185.717 121.008C185.925 121.44 186.405 121.656 187.157 121.656L189.293 121.512L189.413 123C188.341 123.176 187.525 123.264 186.965 123.264C185.717 123.264 184.853 122.96 184.373 122.352C183.893 121.744 183.653 120.584 183.653 118.872V112.56H181.949V111H183.653V107.328H185.429V111H189.245V112.56ZM191.443 123V111H193.243V123H191.443ZM191.443 108.288V106.2H193.243V108.288H191.443ZM201.181 110.76C201.709 110.76 202.605 110.856 203.869 111.048L204.445 111.12L204.373 112.584C203.093 112.44 202.149 112.368 201.541 112.368C200.181 112.368 199.253 112.696 198.757 113.352C198.277 113.992 198.037 115.192 198.037 116.952C198.037 118.696 198.261 119.912 198.709 120.6C199.173 121.288 200.125 121.632 201.565 121.632L204.397 121.416L204.469 122.904C202.981 123.128 201.869 123.24 201.133 123.24C199.261 123.24 197.965 122.76 197.245 121.8C196.541 120.84 196.189 119.224 196.189 116.952C196.189 114.664 196.573 113.064 197.341 112.152C198.109 111.224 199.389 110.76 201.181 110.76ZM215.618 114.624V120.768C215.666 121.36 216.13 121.712 217.01 121.824L216.938 123.24C215.674 123.24 214.722 122.92 214.082 122.28C212.642 122.92 211.202 123.24 209.762 123.24C208.658 123.24 207.818 122.928 207.242 122.304C206.666 121.68 206.378 120.784 206.378 119.616C206.378 118.448 206.674 117.592 207.266 117.048C207.858 116.488 208.786 116.144 210.05 116.016L213.818 115.656V114.624C213.818 113.808 213.642 113.224 213.29 112.872C212.938 112.52 212.458 112.344 211.85 112.344C210.57 112.344 209.242 112.424 207.866 112.584L207.122 112.656L207.05 111.288C208.81 110.936 210.37 110.76 211.73 110.76C213.09 110.76 214.074 111.072 214.682 111.696C215.306 112.32 215.618 113.296 215.618 114.624ZM208.226 119.52C208.226 120.992 208.834 121.728 210.05 121.728C211.138 121.728 212.21 121.544 213.266 121.176L213.818 120.984V117.024L210.266 117.36C209.546 117.424 209.026 117.632 208.706 117.984C208.386 118.336 208.226 118.848 208.226 119.52ZM90.1694 150V138H91.9694V150H90.1694ZM90.1694 135.288V133.2H91.9694V135.288H90.1694ZM97.2194 150H95.4194V138H97.1954V138.84C98.4914 138.12 99.7314 137.76 100.915 137.76C102.515 137.76 103.587 138.192 104.131 139.056C104.691 139.92 104.971 141.456 104.971 143.664V150H103.195V143.712C103.195 142.048 103.027 140.912 102.691 140.304C102.371 139.68 101.675 139.368 100.603 139.368C100.091 139.368 99.5474 139.448 98.9714 139.608C98.4114 139.752 97.9794 139.896 97.6754 140.04L97.2194 140.256V150ZM116.782 141.624V147.768C116.83 148.36 117.294 148.712 118.174 148.824L118.102 150.24C116.838 150.24 115.886 149.92 115.246 149.28C113.806 149.92 112.366 150.24 110.926 150.24C109.822 150.24 108.982 149.928 108.406 149.304C107.83 148.68 107.542 147.784 107.542 146.616C107.542 145.448 107.838 144.592 108.43 144.048C109.022 143.488 109.95 143.144 111.214 143.016L114.982 142.656V141.624C114.982 140.808 114.806 140.224 114.454 139.872C114.102 139.52 113.622 139.344 113.014 139.344C111.734 139.344 110.406 139.424 109.03 139.584L108.286 139.656L108.214 138.288C109.974 137.936 111.534 137.76 112.894 137.76C114.254 137.76 115.238 138.072 115.846 138.696C116.47 139.32 116.782 140.296 116.782 141.624ZM109.39 146.52C109.39 147.992 109.998 148.728 111.214 148.728C112.302 148.728 113.374 148.544 114.43 148.176L114.982 147.984V144.024L111.43 144.36C110.71 144.424 110.19 144.632 109.87 144.984C109.55 145.336 109.39 145.848 109.39 146.52ZM129.549 132.768V150H127.773V149.184C126.541 149.888 125.325 150.24 124.125 150.24C123.485 150.24 122.925 150.16 122.445 150C121.965 149.84 121.517 149.552 121.101 149.136C120.237 148.272 119.805 146.68 119.805 144.36C119.805 142.024 120.189 140.344 120.957 139.32C121.741 138.28 123.029 137.76 124.821 137.76C125.749 137.76 126.733 137.864 127.773 138.072V132.768H129.549ZM122.493 147.84C122.749 148.144 123.021 148.352 123.309 148.464C123.597 148.576 123.965 148.632 124.413 148.632C124.877 148.632 125.389 148.56 125.949 148.416C126.525 148.256 126.973 148.104 127.293 147.96L127.773 147.744V139.608C126.749 139.416 125.797 139.32 124.917 139.32C123.701 139.32 122.853 139.712 122.373 140.496C121.893 141.264 121.653 142.464 121.653 144.096C121.653 145.952 121.933 147.2 122.493 147.84ZM141.197 148.512L141.893 148.44L141.941 149.856C140.117 150.112 138.557 150.24 137.261 150.24C135.533 150.24 134.309 149.744 133.589 148.752C132.869 147.744 132.509 146.184 132.509 144.072C132.509 139.864 134.181 137.76 137.525 137.76C139.141 137.76 140.349 138.216 141.149 139.128C141.949 140.024 142.349 141.44 142.349 143.376L142.253 144.744H134.333C134.333 146.072 134.573 147.056 135.053 147.696C135.533 148.336 136.365 148.656 137.549 148.656C138.749 148.656 139.965 148.608 141.197 148.512ZM140.549 143.304C140.549 141.832 140.309 140.792 139.829 140.184C139.365 139.576 138.597 139.272 137.525 139.272C136.469 139.272 135.669 139.592 135.125 140.232C134.597 140.872 134.325 141.896 134.309 143.304H140.549ZM149.138 150.24C147.522 150.24 146.362 149.768 145.658 148.824C144.97 147.88 144.626 146.28 144.626 144.024C144.626 141.768 145.042 140.16 145.874 139.2C146.706 138.24 148.178 137.76 150.29 137.76L154.298 138V155.328H152.522V149.448C151.402 149.976 150.274 150.24 149.138 150.24ZM150.314 139.32C148.81 139.32 147.786 139.696 147.242 140.448C146.714 141.2 146.45 142.4 146.45 144.048C146.45 145.68 146.666 146.856 147.098 147.576C147.546 148.28 148.29 148.632 149.33 148.632C150.258 148.632 151.178 148.456 152.09 148.104L152.522 147.936V139.464C151.53 139.368 150.794 139.32 150.314 139.32ZM165.275 138H167.075V150H165.275V149.16C164.075 149.88 162.891 150.24 161.723 150.24C160.091 150.24 159.003 149.816 158.459 148.968C157.931 148.12 157.667 146.552 157.667 144.264V138H159.467V144.24C159.467 145.984 159.619 147.152 159.923 147.744C160.227 148.336 160.915 148.632 161.987 148.632C162.515 148.632 163.051 148.56 163.595 148.416C164.139 148.256 164.555 148.104 164.843 147.96L165.275 147.744V138ZM179.009 141.624V147.768C179.057 148.36 179.521 148.712 180.401 148.824L180.329 150.24C179.065 150.24 178.113 149.92 177.473 149.28C176.033 149.92 174.593 150.24 173.153 150.24C172.049 150.24 171.209 149.928 170.633 149.304C170.057 148.68 169.769 147.784 169.769 146.616C169.769 145.448 170.065 144.592 170.657 144.048C171.249 143.488 172.177 143.144 173.441 143.016L177.209 142.656V141.624C177.209 140.808 177.033 140.224 176.681 139.872C176.329 139.52 175.849 139.344 175.241 139.344C173.961 139.344 172.633 139.424 171.257 139.584L170.513 139.656L170.441 138.288C172.201 137.936 173.761 137.76 175.121 137.76C176.481 137.76 177.465 138.072 178.073 138.696C178.697 139.32 179.009 140.296 179.009 141.624ZM171.617 146.52C171.617 147.992 172.225 148.728 173.441 148.728C174.529 148.728 175.601 148.544 176.657 148.176L177.209 147.984V144.024L173.657 144.36C172.937 144.424 172.417 144.632 172.097 144.984C171.777 145.336 171.617 145.848 171.617 146.52ZM191.776 132.768V150H190V149.184C188.768 149.888 187.552 150.24 186.352 150.24C185.712 150.24 185.152 150.16 184.672 150C184.192 149.84 183.744 149.552 183.328 149.136C182.464 148.272 182.032 146.68 182.032 144.36C182.032 142.024 182.416 140.344 183.184 139.32C183.968 138.28 185.256 137.76 187.048 137.76C187.976 137.76 188.96 137.864 190 138.072V132.768H191.776ZM184.72 147.84C184.976 148.144 185.248 148.352 185.536 148.464C185.824 148.576 186.192 148.632 186.64 148.632C187.104 148.632 187.616 148.56 188.176 148.416C188.752 148.256 189.2 148.104 189.52 147.96L190 147.744V139.608C188.976 139.416 188.024 139.32 187.144 139.32C185.928 139.32 185.08 139.712 184.6 140.496C184.12 141.264 183.88 142.464 183.88 144.096C183.88 145.952 184.16 147.2 184.72 147.84ZM203.735 141.624V147.768C203.783 148.36 204.247 148.712 205.127 148.824L205.055 150.24C203.791 150.24 202.839 149.92 202.199 149.28C200.759 149.92 199.319 150.24 197.879 150.24C196.775 150.24 195.935 149.928 195.359 149.304C194.783 148.68 194.495 147.784 194.495 146.616C194.495 145.448 194.791 144.592 195.383 144.048C195.975 143.488 196.903 143.144 198.167 143.016L201.935 142.656V141.624C201.935 140.808 201.759 140.224 201.407 139.872C201.055 139.52 200.575 139.344 199.967 139.344C198.687 139.344 197.359 139.424 195.983 139.584L195.239 139.656L195.167 138.288C196.927 137.936 198.487 137.76 199.847 137.76C201.207 137.76 202.191 138.072 202.799 138.696C203.423 139.32 203.735 140.296 203.735 141.624ZM196.343 146.52C196.343 147.992 196.951 148.728 198.167 148.728C199.255 148.728 200.327 148.544 201.383 148.176L201.935 147.984V144.024L198.383 144.36C197.663 144.424 197.143 144.632 196.823 144.984C196.503 145.336 196.343 145.848 196.343 146.52Z" fill="#02172B"/>
</g>
<defs>
<filter id="filter0_d_1_58" x="0" y="0" width="309" height="196" filterUnits="userSpaceOnUse" color-interpolation-filters="sRGB">
<feFlood flood-opacity="0" result="BackgroundImageFix"/>
<feColorMatrix in="SourceAlpha" type="matrix" values="0 0 0 0 0 0 0 0 0 0 0 0 0 0 0 0 0 0 127 0" result="hardAlpha"/>
<feOffset dx="8" dy="8"/>
<feGaussianBlur stdDeviation="4"/>
<feComposite in2="hardAlpha" operator="out"/>
<feColorMatrix type="matrix" values="0 0 0 0 0 0 0 0 0 0 0 0 0 0 0 0 0 0 0.25 0"/>
<feBlend mode="normal" in2="BackgroundImageFix" result="effect1_dropShadow_1_58"/>
<feBlend mode="normal" in="SourceGraphic" in2="effect1_dropShadow_1_58" result="shape"/>
</filter>
</defs>
</svg>
