<svg width="197" height="207" viewBox="0 0 197 207" fill="none" xmlns="http://www.w3.org/2000/svg">
<path d="M55.5349 78.715C55.3282 78.9217 40.0679 95.7652 32.8825 102.829C30.9337 100.88 24.917 95.0101 16.4406 87.1183C5.84516 77.2536 3.81356 69.2157 2.35212 65.9274C0.890674 62.6392 -1.82898 52.7744 1.82463 39.6214C5.47825 26.4684 15.5055 16.969 15.8709 16.6036C16.1632 16.3113 25.5766 6.73889 32.8825 0.162383C32.7607 0.162383 33.6132 -0.202978 33.9786 0.162383L34.005 0.188819C34.7746 0.958049 44.9036 11.0829 53.7067 20.988C61.1752 29.3913 62.9406 33.5731 64.6676 43.0303C65.7869 49.1598 65.3159 52.2459 65.1941 57.5241C63.7327 70.3117 55.9003 78.3497 55.5349 78.715Z" fill="#80DB42" stroke="#80DB42" stroke-width="1.17611"/>
<path d="M120.569 78.715C120.362 78.9217 105.102 95.7652 97.9167 102.829C95.9679 100.88 89.9512 95.0101 81.4748 87.1183C70.8793 77.2536 68.8477 69.2157 67.3863 65.9274C65.9249 62.6392 63.2052 52.7744 66.8588 39.6214C70.5124 26.4684 80.5397 16.969 80.905 16.6036C81.1973 16.3113 90.6108 6.73889 97.9167 0.162383C97.7949 0.162383 98.6474 -0.202978 99.0128 0.162383L99.0392 0.188819C99.8088 0.958049 109.938 11.0829 118.741 20.988C126.209 29.3913 127.975 33.5731 129.702 43.0303C130.821 49.1598 130.35 52.2459 130.228 57.5241C128.767 70.3117 120.934 78.3497 120.569 78.715Z" stroke="#80DB42" stroke-width="1.17611"/>
<path d="M185.603 78.715C185.397 78.9217 170.136 95.7652 162.951 102.829C161.002 100.88 154.985 95.0101 146.509 87.1183C135.914 77.2536 133.882 69.2157 132.42 65.9274C130.959 62.6392 128.239 52.7744 131.893 39.6214C135.547 26.4684 145.574 16.969 145.939 16.6036C146.232 16.3113 155.645 6.73889 162.951 0.162383C162.829 0.162383 163.682 -0.202978 164.047 0.162383L164.073 0.188819C164.843 0.958049 174.972 11.0829 183.775 20.988C191.244 29.3913 193.009 33.5731 194.736 43.0303C195.855 49.1598 195.384 52.2459 195.263 57.5241C193.801 70.3117 185.969 78.3497 185.603 78.715Z" fill="#80DB42" stroke="#80DB42" stroke-width="1.17611"/>
<path d="M55.5349 181.747C55.3282 181.953 40.0679 198.797 32.8825 205.861C30.9337 203.912 24.917 198.042 16.4406 190.15C5.84516 180.285 3.81356 172.247 2.35212 168.959C0.890674 165.671 -1.82898 155.806 1.82463 142.653C5.47825 129.5 15.5055 120.001 15.8709 119.635C16.1632 119.343 25.5766 109.771 32.8825 103.194C32.7607 103.194 33.6132 102.829 33.9786 103.194L34.005 103.221C34.7746 103.99 44.9036 114.115 53.7067 124.02C61.1752 132.423 62.9406 136.605 64.6676 146.062C65.7869 152.192 65.3159 155.278 65.1941 160.556C63.7327 173.343 55.9003 181.381 55.5349 181.747Z" stroke="#80DB42" stroke-width="1.17611"/>
<path d="M120.569 181.747C120.362 181.953 105.102 198.797 97.9167 205.861C95.9679 203.912 89.9512 198.042 81.4748 190.15C70.8793 180.285 68.8477 172.247 67.3863 168.959C65.9249 165.671 63.2052 155.806 66.8588 142.653C70.5124 129.5 80.5397 120.001 80.905 119.635C81.1973 119.343 90.6108 109.771 97.9167 103.194C97.7949 103.194 98.6474 102.829 99.0128 103.194L99.0392 103.221C99.8088 103.99 109.938 114.115 118.741 124.02C126.209 132.423 127.975 136.605 129.702 146.062C130.821 152.192 130.35 155.278 130.228 160.556C128.767 173.343 120.934 181.381 120.569 181.747Z" fill="#80DB42" stroke="#80DB42" stroke-width="1.17611"/>
</svg>
