<svg width="828" height="1036" viewBox="0 0 828 1036" fill="none" xmlns="http://www.w3.org/2000/svg">
<g opacity="0.06">
<path d="M238.314 396.136C237.444 397.176 173.191 481.941 142.937 517.489C134.732 507.683 109.399 478.141 73.7091 438.425C29.0972 388.781 20.5432 348.33 14.3899 331.782C8.23648 315.233 -3.21453 265.589 12.1689 199.396C27.5523 133.203 69.7718 85.397 71.3102 83.5583C72.5408 82.0873 112.176 33.9136 142.937 0.817196C142.424 0.817196 146.014 -1.02149 147.552 0.817196L147.664 0.950734C150.907 4.82574 193.553 55.777 230.617 105.623C262.063 147.912 269.496 168.957 276.767 216.551C281.48 247.398 279.497 262.929 278.984 289.492C272.831 353.846 239.853 394.297 238.314 396.136Z" fill="#80DB42" stroke="#80DB42" stroke-width="8.97222"/>
<path d="M512.14 396.136C511.269 397.176 447.016 481.941 416.762 517.489C408.557 507.683 383.224 478.141 347.534 438.425C302.922 388.781 294.368 348.33 288.215 331.782C282.062 315.233 270.611 265.589 285.994 199.396C301.378 133.203 343.597 85.397 345.135 83.5583C346.366 82.0873 386.001 33.9136 416.762 0.817196C416.25 0.817196 419.839 -1.02149 421.377 0.817196L421.489 0.950734C424.733 4.82574 467.378 55.777 504.442 105.623C535.888 147.912 543.321 168.957 550.592 216.551C555.305 247.398 553.322 262.929 552.81 289.492C546.656 353.846 513.678 394.297 512.14 396.136Z" stroke="#80DB42" stroke-width="8.97222"/>
<path d="M785.965 396.136C785.095 397.176 720.842 481.941 690.588 517.489C682.382 507.683 657.049 478.141 621.36 438.425C576.748 388.781 568.194 348.33 562.04 331.782C555.887 315.233 544.436 265.589 559.819 199.396C575.203 133.203 617.422 85.397 618.961 83.5583C620.191 82.0873 659.826 33.9136 690.588 0.817196C690.075 0.817196 693.664 -1.02149 695.203 0.817196L695.314 0.950734C698.558 4.82574 741.204 55.777 778.267 105.623C809.713 147.912 817.146 168.957 824.418 216.551C829.13 247.398 827.147 262.929 826.635 289.492C820.481 353.846 787.503 394.297 785.965 396.136Z" fill="#80DB42" stroke="#80DB42" stroke-width="8.97222"/>
<path d="M238.314 914.646C237.444 915.687 173.191 1000.45 142.937 1036C134.732 1026.19 109.399 996.652 73.7091 956.936C29.0972 907.292 20.5432 866.841 14.3899 850.292C8.23648 833.744 -3.21453 784.1 12.1689 717.907C27.5523 651.714 69.7718 603.908 71.3102 602.069C72.5408 600.598 112.176 552.424 142.937 519.328C142.424 519.328 146.014 517.489 147.552 519.328L147.664 519.462C150.907 523.337 193.553 574.288 230.617 624.133C262.063 666.423 269.496 687.468 276.767 735.062C281.48 765.909 279.497 781.44 278.984 808.003C272.831 872.357 239.853 912.808 238.314 914.646Z" stroke="#80DB42" stroke-width="8.97222"/>
<path d="M512.14 914.646C511.269 915.687 447.016 1000.45 416.762 1036C408.557 1026.19 383.224 996.652 347.534 956.936C302.922 907.292 294.368 866.841 288.215 850.292C282.062 833.744 270.611 784.1 285.994 717.907C301.378 651.714 343.597 603.908 345.135 602.069C346.366 600.598 386.001 552.424 416.762 519.328C416.25 519.328 419.839 517.489 421.377 519.328L421.489 519.462C424.733 523.337 467.378 574.288 504.442 624.133C535.888 666.423 543.321 687.468 550.592 735.062C555.305 765.909 553.322 781.44 552.81 808.003C546.656 872.357 513.678 912.808 512.14 914.646Z" fill="#80DB42" stroke="#80DB42" stroke-width="8.97222"/>
</g>
</svg>
