<svg width="1511" height="398" viewBox="0 -10 1511 418" fill="none" xmlns="http://www.w3.org/2000/svg">
<g opacity="0.05">
<path d="M1240.67 152.183C1240.27 152.583 1210.77 185.147 1196.88 198.804C1193.11 195.036 1181.48 183.687 1165.09 168.43C1144.6 149.358 1140.68 133.818 1137.85 127.46C1135.03 121.103 1129.77 102.031 1136.83 76.6019C1143.89 51.1726 1163.28 32.8069 1163.99 32.1006C1164.55 31.5355 1182.75 13.0286 1196.88 0.313942C1196.64 0.313942 1198.29 -0.392428 1199 0.313942L1199.05 0.365024C1200.53 1.85198 1220.12 21.4269 1237.14 40.577C1251.58 56.8235 1254.99 64.9083 1258.33 83.1923C1260.49 95.0429 1259.58 101.009 1259.35 111.214C1256.52 135.937 1241.38 151.477 1240.67 152.183Z" fill="white"/>
<path d="M1366.41 152.183C1366.01 152.583 1336.5 185.147 1322.61 198.804C1318.84 195.036 1307.21 183.687 1290.82 168.43C1270.34 149.358 1266.41 133.818 1263.58 127.46C1260.76 121.103 1255.5 102.031 1262.56 76.6019C1269.63 51.1726 1289.01 32.8069 1289.72 32.1006C1290.29 31.5355 1308.49 13.0286 1322.61 0.313942C1322.37 0.313942 1324.02 -0.392428 1324.73 0.313942L1324.78 0.365024C1326.27 1.85198 1345.85 21.4269 1362.87 40.577C1377.31 56.8235 1380.72 64.9083 1384.06 83.1923C1386.23 95.0429 1385.32 101.009 1385.08 111.214C1382.25 135.937 1367.11 151.477 1366.41 152.183Z" stroke="white" stroke-width="1.41274"/>
<path d="M1492.14 152.183C1491.74 152.583 1462.24 185.147 1448.34 198.804C1444.58 195.036 1432.94 183.687 1416.56 168.43C1396.07 149.358 1392.14 133.818 1389.32 127.46C1386.49 121.103 1381.23 102.031 1388.3 76.6019C1395.36 51.1726 1414.75 32.8069 1415.45 32.1006C1416.02 31.5355 1434.22 13.0286 1448.34 0.313942C1448.11 0.313942 1449.76 -0.392428 1450.46 0.313942L1450.51 0.365024C1452 1.85198 1471.59 21.4269 1488.6 40.577C1503.04 56.8235 1506.46 64.9083 1509.8 83.1923C1511.96 95.0429 1511.05 101.009 1510.81 111.214C1507.99 135.937 1492.85 151.477 1492.14 152.183Z" fill="white"/>
<path d="M1240.67 351.38C1240.27 351.779 1210.77 384.344 1196.88 398C1193.11 394.233 1181.48 382.884 1165.09 367.626C1144.6 348.554 1140.68 333.014 1137.85 326.657C1135.03 320.299 1129.77 301.227 1136.83 275.798C1143.89 250.369 1163.28 232.003 1163.99 231.297C1164.55 230.732 1182.75 212.225 1196.88 199.51C1196.64 199.51 1198.29 198.804 1199 199.51L1199.05 199.561C1200.53 201.048 1220.12 220.623 1237.14 239.773C1251.58 256.02 1254.99 264.105 1258.33 282.389C1260.49 294.239 1259.58 300.206 1259.35 310.41C1256.52 335.133 1241.38 350.673 1240.67 351.38Z" stroke="white" stroke-width="1.41274"/>
<path d="M1366.41 351.38C1366.01 351.779 1336.5 384.344 1322.61 398C1318.84 394.233 1307.21 382.884 1290.82 367.626C1270.34 348.554 1266.41 333.014 1263.58 326.657C1260.76 320.299 1255.5 301.227 1262.56 275.798C1269.63 250.369 1289.01 232.003 1289.72 231.297C1290.29 230.732 1308.49 212.225 1322.61 199.51C1322.37 199.51 1324.02 198.804 1324.73 199.51L1324.78 199.561C1326.27 201.048 1345.85 220.623 1362.87 239.773C1377.31 256.02 1380.72 264.105 1384.06 282.389C1386.23 294.239 1385.32 300.206 1385.08 310.41C1382.25 335.133 1367.11 350.673 1366.41 351.38Z" fill="white"/>
<path d="M863.47 245.817C863.07 245.417 833.567 212.853 819.675 199.196C815.907 202.964 804.275 214.313 787.887 229.57C767.402 248.642 763.475 264.182 760.649 270.54C757.824 276.897 752.566 295.969 759.629 321.398C766.693 346.827 786.079 365.193 786.785 365.899C787.351 366.465 805.55 384.971 819.675 397.686C819.439 397.686 821.088 398.392 821.794 397.686L821.845 397.635C823.333 396.148 842.916 376.573 859.935 357.423C874.374 341.176 877.788 333.092 881.126 314.808C883.29 302.957 882.38 296.991 882.144 286.786C879.319 262.063 864.176 246.523 863.47 245.817Z" fill="white"/>
<path d="M989.204 245.817C988.804 245.417 959.301 212.853 945.409 199.196C941.641 202.964 930.009 214.313 913.621 229.57C893.136 248.642 889.208 264.182 886.383 270.54C883.557 276.897 878.299 295.969 885.363 321.398C892.427 346.827 911.813 365.193 912.519 365.899C913.084 366.465 931.284 384.971 945.409 397.686C945.173 397.686 946.821 398.392 947.528 397.686L947.579 397.635C949.067 396.148 968.65 376.573 985.669 357.423C1000.11 341.176 1003.52 333.092 1006.86 314.808C1009.02 302.957 1008.11 296.991 1007.88 286.786C1005.05 262.063 989.91 246.523 989.204 245.817Z" stroke="white" stroke-width="1.41274"/>
<path d="M1114.94 245.817C1114.54 245.417 1085.03 212.853 1071.14 199.196C1067.37 202.964 1055.74 214.313 1039.35 229.57C1018.87 248.642 1014.94 264.182 1012.12 270.54C1009.29 276.897 1004.03 295.969 1011.1 321.398C1018.16 346.827 1037.55 365.193 1038.25 365.899C1038.82 366.465 1057.02 384.971 1071.14 397.686C1070.91 397.686 1072.56 398.392 1073.26 397.686L1073.31 397.635C1074.8 396.148 1094.38 376.573 1111.4 357.423C1125.84 341.176 1129.26 333.092 1132.59 314.808C1134.76 302.957 1133.85 296.991 1133.61 286.786C1130.79 262.063 1115.64 246.523 1114.94 245.817Z" fill="white"/>
<path d="M863.47 46.6204C863.07 46.2208 833.567 13.6565 819.675 -1.52588e-05C815.907 3.76729 804.275 15.1163 787.887 30.3739C767.402 49.4459 763.475 64.9859 760.649 71.3432C757.824 77.7006 752.566 96.7725 759.629 122.202C766.693 147.631 786.079 165.997 786.785 166.703C787.351 167.268 805.55 185.775 819.675 198.49C819.439 198.49 821.088 199.196 821.794 198.49L821.845 198.439C823.333 196.952 842.916 177.377 859.935 158.227C874.374 141.98 877.788 133.895 881.126 115.611C883.29 103.761 882.38 97.7944 882.144 87.5897C879.319 62.8668 864.176 47.3267 863.47 46.6204Z" stroke="white" stroke-width="1.41274"/>
<path d="M989.204 46.6204C988.804 46.2208 959.301 13.6565 945.409 -1.52588e-05C941.641 3.76729 930.009 15.1163 913.621 30.3739C893.136 49.4459 889.208 64.9859 886.383 71.3432C883.557 77.7006 878.299 96.7725 885.363 122.202C892.427 147.631 911.813 165.997 912.519 166.703C913.084 167.268 931.284 185.775 945.409 198.49C945.173 198.49 946.821 199.196 947.528 198.49L947.579 198.439C949.067 196.952 968.65 177.377 985.669 158.227C1000.11 141.98 1003.52 133.895 1006.86 115.611C1009.02 103.761 1008.11 97.7944 1007.88 87.5897C1005.05 62.8668 989.91 47.3267 989.204 46.6204Z" fill="white"/>
<path d="M486.27 152.183C485.87 152.583 456.367 185.147 442.475 198.804C438.707 195.036 427.075 183.687 410.687 168.43C390.203 149.358 386.275 133.818 383.449 127.46C380.624 121.103 375.366 102.031 382.43 76.6019C389.493 51.1726 408.879 32.8069 409.586 32.1006C410.151 31.5355 428.35 13.0286 442.475 0.313942C442.24 0.313942 443.888 -0.392428 444.594 0.313942L444.645 0.365024C446.133 1.85198 465.716 21.4269 482.736 40.577C497.175 56.8235 500.588 64.9083 503.927 83.1923C506.091 95.0429 505.18 101.009 504.945 111.214C502.119 135.937 486.976 151.477 486.27 152.183Z" fill="white"/>
<path d="M612.004 152.183C611.604 152.583 582.101 185.147 568.209 198.804C564.441 195.036 552.809 183.687 536.421 168.43C515.936 149.358 512.009 133.818 509.183 127.46C506.358 121.103 501.1 102.031 508.163 76.6019C515.227 51.1726 534.613 32.8069 535.32 32.1006C535.885 31.5355 554.084 13.0286 568.209 0.313942C567.974 0.313942 569.622 -0.392428 570.328 0.313942L570.379 0.365024C571.867 1.85198 591.45 21.4269 608.469 40.577C622.909 56.8235 626.322 64.9083 629.661 83.1923C631.825 95.0429 630.914 101.009 630.679 111.214C627.853 135.937 612.71 151.477 612.004 152.183Z" stroke="white" stroke-width="1.41274"/>
<path d="M737.738 152.183C737.338 152.583 707.835 185.147 693.943 198.804C690.175 195.036 678.543 183.687 662.155 168.43C641.67 149.358 637.743 133.818 634.917 127.46C632.092 121.103 626.834 102.031 633.897 76.6019C640.961 51.1726 660.347 32.8069 661.054 32.1006C661.619 31.5355 679.818 13.0286 693.943 0.313942C693.707 0.313942 695.356 -0.392428 696.062 0.313942L696.113 0.365024C697.601 1.85198 717.184 21.4269 734.203 40.577C748.642 56.8235 752.056 64.9083 755.394 83.1923C757.558 95.0429 756.648 101.009 756.412 111.214C753.587 135.937 738.444 151.477 737.738 152.183Z" fill="white"/>
<path d="M486.27 351.38C485.87 351.779 456.367 384.344 442.475 398C438.707 394.233 427.075 382.884 410.687 367.626C390.203 348.554 386.275 333.014 383.449 326.657C380.624 320.299 375.366 301.227 382.43 275.798C389.493 250.369 408.879 232.003 409.586 231.297C410.151 230.732 428.35 212.225 442.475 199.51C442.24 199.51 443.888 198.804 444.594 199.51L444.645 199.561C446.133 201.048 465.716 220.623 482.736 239.773C497.175 256.02 500.588 264.105 503.927 282.389C506.091 294.239 505.18 300.206 504.945 310.41C502.119 335.133 486.976 350.673 486.27 351.38Z" stroke="white" stroke-width="1.41274"/>
<path d="M612.004 351.38C611.604 351.779 582.101 384.344 568.209 398C564.441 394.233 552.809 382.884 536.421 367.626C515.936 348.554 512.009 333.014 509.183 326.657C506.358 320.299 501.1 301.227 508.163 275.798C515.227 250.369 534.613 232.003 535.32 231.297C535.885 230.732 554.084 212.225 568.209 199.51C567.974 199.51 569.622 198.804 570.328 199.51L570.379 199.561C571.867 201.048 591.45 220.623 608.469 239.773C622.909 256.02 626.322 264.105 629.661 282.389C631.825 294.239 630.914 300.206 630.679 310.41C627.853 335.133 612.71 350.673 612.004 351.38Z" fill="white"/>
<path d="M108.075 245.817C107.675 245.417 78.1717 212.853 64.2798 199.196C60.5121 202.964 48.8798 214.313 32.492 229.57C12.0073 248.642 8.07948 264.182 5.254 270.54C2.42852 276.897 -2.8295 295.969 4.23419 321.398C11.2979 346.827 30.6841 365.193 31.3904 365.899C31.9555 366.465 50.155 384.971 64.2798 397.686C64.0444 397.686 65.6926 398.392 66.3989 397.686L66.45 397.635C67.9376 396.148 87.5207 376.573 104.54 357.423C118.979 341.176 122.393 333.092 125.731 314.808C127.895 302.957 126.985 296.991 126.749 286.786C123.924 262.063 108.781 246.523 108.075 245.817Z" fill="white"/>
<path d="M233.809 245.817C233.409 245.417 203.906 212.853 190.014 199.196C186.246 202.964 174.614 214.313 158.226 229.57C137.741 248.642 133.813 264.182 130.988 270.54C128.162 276.897 122.904 295.969 129.968 321.398C137.032 346.827 156.418 365.193 157.124 365.899C157.689 366.465 175.889 384.971 190.014 397.686C189.778 397.686 191.426 398.392 192.133 397.686L192.184 397.635C193.671 396.148 213.255 376.573 230.274 357.423C244.713 341.176 248.126 333.092 251.465 314.808C253.629 302.957 252.719 296.991 252.483 286.786C249.658 262.063 234.515 246.523 233.809 245.817Z" stroke="white" stroke-width="1.41274"/>
<path d="M359.543 245.817C359.143 245.417 329.64 212.853 315.748 199.196C311.98 202.964 300.348 214.313 283.96 229.57C263.475 248.642 259.547 264.182 256.722 270.54C253.896 276.897 248.638 295.969 255.702 321.398C262.766 346.827 282.152 365.193 282.858 365.899C283.423 366.465 301.623 384.971 315.748 397.686C315.512 397.686 317.16 398.392 317.867 397.686L317.918 397.635C319.405 396.148 338.988 376.573 356.008 357.423C370.447 341.176 373.86 333.092 377.199 314.808C379.363 302.957 378.453 296.991 378.217 286.786C375.392 262.063 360.249 246.523 359.543 245.817Z" fill="white"/>
<path d="M108.075 46.6204C107.675 46.2208 78.1717 13.6565 64.2798 -1.52588e-05C60.5121 3.76729 48.8798 15.1163 32.492 30.3739C12.0073 49.4459 8.07948 64.9859 5.254 71.3432C2.42852 77.7006 -2.8295 96.7725 4.23419 122.202C11.2979 147.631 30.6841 165.997 31.3904 166.703C31.9555 167.268 50.155 185.775 64.2798 198.49C64.0444 198.49 65.6926 199.196 66.3989 198.49L66.45 198.439C67.9376 196.952 87.5207 177.377 104.54 158.227C118.979 141.98 122.393 133.895 125.731 115.611C127.895 103.761 126.985 97.7944 126.749 87.5897C123.924 62.8668 108.781 47.3267 108.075 46.6204Z" stroke="white" stroke-width="1.41274"/>
<path d="M233.809 46.6204C233.409 46.2208 203.906 13.6565 190.014 -1.52588e-05C186.246 3.76729 174.614 15.1163 158.226 30.3739C137.741 49.4459 133.813 64.9859 130.988 71.3432C128.162 77.7006 122.904 96.7725 129.968 122.202C137.032 147.631 156.418 165.997 157.124 166.703C157.689 167.268 175.889 185.775 190.014 198.49C189.778 198.49 191.426 199.196 192.133 198.49L192.184 198.439C193.671 196.952 213.255 177.377 230.274 158.227C244.713 141.98 248.126 133.895 251.465 115.611C253.629 103.761 252.719 97.7944 252.483 87.5897C249.658 62.8668 234.515 47.3267 233.809 46.6204Z" fill="white"/>
</g>
</svg>
