<svg width="1512" height="560" viewBox="0 -10 1512 580" fill="none" xmlns="http://www.w3.org/2000/svg">
<path d="M1151.42 215.33C1150.89 215.891 1111.57 261.546 1093.05 280.693C1088.03 275.411 1072.52 259.499 1050.68 238.108C1023.38 211.369 1018.14 189.582 1014.38 180.669C1010.61 171.756 1003.6 145.017 1013.02 109.364C1022.43 73.7122 1048.27 47.9634 1049.21 46.9731C1049.97 46.1808 1074.22 20.234 1093.05 2.40792C1092.74 2.40792 1094.93 1.41759 1095.88 2.40792L1095.94 2.47967C1097.93 4.56541 1124.03 32.0091 1146.71 58.8572C1165.96 81.6349 1170.51 92.9699 1174.96 118.604C1177.84 135.219 1176.63 143.584 1176.31 157.891C1172.55 192.553 1152.36 214.34 1151.42 215.33Z" fill="#80DB42" fill-opacity="0.11" stroke="#80DB42" stroke-opacity="0.11" stroke-width="2.72331"/>
<path d="M1319.01 215.33C1318.47 215.891 1279.15 261.546 1260.63 280.693C1255.61 275.411 1240.11 259.499 1218.27 238.108C1190.96 211.369 1185.73 189.582 1181.96 180.669C1178.2 171.756 1171.19 145.017 1180.6 109.364C1190.02 73.7122 1215.86 47.9634 1216.8 46.9731C1217.55 46.1808 1241.81 20.234 1260.63 2.40792C1260.32 2.40792 1262.52 1.41759 1263.46 2.40792L1263.53 2.47967C1265.51 4.56541 1291.61 32.0091 1314.29 58.8572C1333.54 81.6349 1338.09 92.9699 1342.54 118.604C1345.42 135.219 1344.21 143.584 1343.9 157.891C1340.13 192.553 1319.95 214.34 1319.01 215.33Z" stroke="#80DB42" stroke-opacity="0.11" stroke-width="2.72331"/>
<path d="M1486.59 215.33C1486.06 215.891 1446.73 261.546 1428.22 280.693C1423.19 275.411 1407.69 259.499 1385.85 238.108C1358.55 211.369 1353.31 189.582 1349.54 180.669C1345.78 171.756 1338.77 145.017 1348.19 109.364C1357.6 73.7122 1383.44 47.9634 1384.38 46.9731C1385.13 46.1808 1409.39 20.234 1428.22 2.40792C1427.9 2.40792 1430.1 1.41759 1431.04 2.40792L1431.11 2.47967C1433.09 4.56541 1459.19 32.0091 1481.88 58.8572C1501.12 81.6349 1505.67 92.9699 1510.12 118.604C1513.01 135.219 1511.79 143.584 1511.48 157.891C1507.71 192.553 1487.53 214.34 1486.59 215.33Z" fill="#80DB42" fill-opacity="0.11" stroke="#80DB42" stroke-opacity="0.11" stroke-width="2.72331"/>
<path d="M1151.42 494.606C1150.89 495.166 1111.57 540.822 1093.05 559.968C1088.03 554.686 1072.52 538.775 1050.68 517.383C1023.38 490.644 1018.14 468.857 1014.38 459.944C1010.61 451.031 1003.6 424.292 1013.02 388.64C1022.43 352.988 1048.27 327.239 1049.21 326.248C1049.97 325.456 1074.22 299.509 1093.05 281.683C1092.74 281.683 1094.93 280.693 1095.88 281.683L1095.94 281.755C1097.93 283.841 1124.03 311.284 1146.71 338.133C1165.96 360.91 1170.51 372.245 1174.96 397.88C1177.84 414.494 1176.63 422.859 1176.31 437.166C1172.55 471.828 1152.36 493.615 1151.42 494.606Z" stroke="#80DB42" stroke-opacity="0.11" stroke-width="2.72331"/>
<path d="M1319.01 494.606C1318.47 495.166 1279.15 540.822 1260.63 559.968C1255.61 554.686 1240.11 538.775 1218.27 517.383C1190.96 490.644 1185.73 468.857 1181.96 459.944C1178.2 451.031 1171.19 424.292 1180.6 388.64C1190.02 352.988 1215.86 327.239 1216.8 326.248C1217.55 325.456 1241.81 299.509 1260.63 281.683C1260.32 281.683 1262.52 280.693 1263.46 281.683L1263.53 281.755C1265.51 283.841 1291.61 311.284 1314.29 338.133C1333.54 360.91 1338.09 372.245 1342.54 397.88C1345.42 414.494 1344.21 422.859 1343.9 437.166C1340.13 471.828 1319.95 493.615 1319.01 494.606Z" fill="#80DB42" fill-opacity="0.11" stroke="#80DB42" stroke-opacity="0.11" stroke-width="2.72331"/>
<path d="M143.104 215.33C142.572 215.891 103.249 261.546 84.7329 280.693C79.7112 275.411 64.2071 259.499 42.3649 238.108C15.062 211.369 9.82694 189.582 6.06103 180.669C2.29512 171.756 -4.71298 145.017 4.70179 109.364C14.1166 73.7122 39.9552 47.9634 40.8967 46.9731C41.6498 46.1808 65.9069 20.234 84.7329 2.40792C84.4191 2.40792 86.6159 1.41759 87.5573 2.40792L87.6256 2.47967C89.6092 4.56541 115.71 32.0091 138.394 58.8572C157.639 81.6349 162.188 92.9699 166.638 118.604C169.522 135.219 168.309 143.584 167.995 157.891C164.229 192.553 144.046 214.34 143.104 215.33Z" fill="#80DB42" fill-opacity="0.11" stroke="#80DB42" stroke-opacity="0.11" stroke-width="2.72331"/>
<path d="M310.687 215.33C310.155 215.891 270.832 261.546 252.316 280.693C247.294 275.411 231.79 259.499 209.948 238.108C182.645 211.369 177.41 189.582 173.644 180.669C169.878 171.756 162.87 145.017 172.285 109.364C181.7 73.7122 207.538 47.9634 208.48 46.9731C209.233 46.1808 233.49 20.234 252.316 2.40792C252.002 2.40792 254.199 1.41759 255.14 2.40792L255.209 2.47967C257.192 4.56541 283.293 32.0091 305.977 58.8572C325.222 81.6349 329.771 92.9699 334.221 118.604C337.105 135.219 335.892 143.584 335.578 157.891C331.812 192.553 311.629 214.34 310.687 215.33Z" stroke="#80DB42" stroke-opacity="0.11" stroke-width="2.72331"/>
<path d="M478.27 215.33C477.737 215.891 438.414 261.546 419.898 280.693C414.877 275.411 399.373 259.499 377.53 238.108C350.228 211.369 344.992 189.582 341.227 180.669C337.461 171.756 330.453 145.017 339.867 109.364C349.282 73.7122 375.121 47.9634 376.062 46.9731C376.815 46.1808 401.072 20.234 419.898 2.40792C419.585 2.40792 421.781 1.41759 422.723 2.40792L422.791 2.47967C424.775 4.56541 450.875 32.0091 473.559 58.8572C492.804 81.6349 497.353 92.9699 501.803 118.604C504.688 135.219 503.474 143.584 503.16 157.891C499.394 192.553 479.211 214.34 478.27 215.33Z" fill="#80DB42" fill-opacity="0.11" stroke="#80DB42" stroke-opacity="0.11" stroke-width="2.72331"/>
<path d="M143.104 494.606C142.572 495.166 103.249 540.822 84.7329 559.968C79.7112 554.686 64.2071 538.775 42.3649 517.383C15.062 490.644 9.82694 468.857 6.06103 459.944C2.29512 451.031 -4.71298 424.292 4.70179 388.64C14.1166 352.988 39.9552 327.239 40.8967 326.248C41.6498 325.456 65.9069 299.509 84.7329 281.683C84.4191 281.683 86.6159 280.693 87.5573 281.683L87.6256 281.755C89.6092 283.841 115.71 311.284 138.394 338.133C157.639 360.91 162.188 372.245 166.638 397.88C169.522 414.494 168.309 422.859 167.995 437.166C164.229 471.828 144.046 493.615 143.104 494.606Z" stroke="#80DB42" stroke-opacity="0.11" stroke-width="2.72331"/>
<path d="M310.687 494.606C310.155 495.166 270.832 540.822 252.316 559.968C247.294 554.686 231.79 538.775 209.948 517.383C182.645 490.644 177.41 468.857 173.644 459.944C169.878 451.031 162.87 424.292 172.285 388.64C181.7 352.988 207.538 327.239 208.48 326.248C209.233 325.456 233.49 299.509 252.316 281.683C252.002 281.683 254.199 280.693 255.14 281.683L255.209 281.755C257.192 283.841 283.293 311.284 305.977 338.133C325.222 360.91 329.771 372.245 334.221 397.88C337.105 414.494 335.892 422.859 335.578 437.166C331.812 471.828 311.629 493.615 310.687 494.606Z" fill="#80DB42" fill-opacity="0.11" stroke="#80DB42" stroke-opacity="0.11" stroke-width="2.72331"/>
<path d="M646.787 346.605C646.254 346.045 606.931 300.389 588.415 281.243C583.393 286.525 567.889 302.436 546.047 323.827C518.744 350.567 513.509 372.354 509.743 381.267C505.977 390.18 498.969 416.919 508.384 452.571C517.799 488.223 543.637 513.972 544.579 514.962C545.332 515.755 569.589 541.702 588.415 559.528C588.101 559.528 590.298 560.518 591.239 559.528L591.308 559.456C593.291 557.37 619.392 529.926 642.076 503.078C661.321 480.301 665.87 468.966 670.32 443.331C673.204 426.717 671.991 418.352 671.677 404.045C667.911 369.383 647.728 347.596 646.787 346.605Z" fill="#80DB42" fill-opacity="0.11" stroke="#80DB42" stroke-opacity="0.11" stroke-width="2.72331"/>
<path d="M814.37 346.605C813.837 346.045 774.514 300.389 755.998 281.243C750.976 286.525 735.472 302.436 713.63 323.827C686.327 350.567 681.092 372.354 677.326 381.267C673.56 390.18 666.552 416.919 675.967 452.571C685.382 488.223 711.22 513.972 712.162 514.962C712.915 515.755 737.172 541.702 755.998 559.528C755.684 559.528 757.881 560.518 758.822 559.528L758.891 559.456C760.874 557.37 786.975 529.926 809.659 503.078C828.904 480.301 833.453 468.966 837.903 443.331C840.787 426.717 839.574 418.352 839.26 404.045C835.494 369.383 815.311 347.596 814.37 346.605Z" stroke="#80DB42" stroke-opacity="0.11" stroke-width="2.72331"/>
<path d="M981.952 346.605C981.42 346.045 942.096 300.389 923.581 281.243C918.559 286.525 903.055 302.436 881.213 323.827C853.91 350.567 848.675 372.354 844.909 381.267C841.143 390.18 834.135 416.919 843.549 452.571C852.964 488.223 878.803 513.972 879.744 514.962C880.498 515.755 904.755 541.702 923.581 559.528C923.267 559.528 925.464 560.518 926.405 559.528L926.473 559.456C928.457 557.37 954.557 529.926 977.241 503.078C996.486 480.301 1001.04 468.966 1005.49 443.331C1008.37 426.717 1007.16 418.352 1006.84 404.045C1003.08 369.383 982.894 347.596 981.952 346.605Z" fill="#80DB42" fill-opacity="0.11" stroke="#80DB42" stroke-opacity="0.11" stroke-width="2.72331"/>
<path d="M646.787 67.3298C646.254 66.7696 606.931 21.114 588.415 1.96753C583.393 7.24933 567.889 23.1608 546.047 44.552C518.744 71.2912 513.509 93.0785 509.743 101.992C505.977 110.905 498.969 137.644 508.384 173.296C517.799 208.948 543.637 234.697 544.579 235.687C545.332 236.479 569.589 262.426 588.415 280.252C588.101 280.252 590.298 281.243 591.239 280.252L591.308 280.18C593.291 278.095 619.392 250.651 642.076 223.803C661.321 201.025 665.87 189.69 670.32 164.056C673.204 147.441 671.991 139.076 671.677 124.769C667.911 90.1075 647.728 68.3201 646.787 67.3298Z" stroke="#80DB42" stroke-opacity="0.11" stroke-width="2.72331"/>
<path d="M814.37 67.3298C813.837 66.7696 774.514 21.114 755.998 1.96753C750.976 7.24933 735.472 23.1608 713.63 44.552C686.327 71.2912 681.092 93.0785 677.326 101.992C673.56 110.905 666.552 137.644 675.967 173.296C685.382 208.948 711.22 234.697 712.162 235.687C712.915 236.479 737.172 262.426 755.998 280.252C755.684 280.252 757.881 281.243 758.822 280.252L758.891 280.18C760.874 278.095 786.975 250.651 809.659 223.803C828.904 201.025 833.453 189.69 837.903 164.056C840.787 147.441 839.574 139.076 839.26 124.769C835.494 90.1075 815.311 68.3201 814.37 67.3298Z" fill="#80DB42" fill-opacity="0.11" stroke="#80DB42" stroke-opacity="0.11" stroke-width="2.72331"/>
</svg>
