<svg preserveAspectRatio="none" width="100%" height="100%" overflow="visible" style="display: block;" viewBox="0 0 126.434 198.804" fill="none" xmlns="http://www.w3.org/2000/svg">
<path id="Vector 14" d="M107.368 152.183C106.969 152.583 77.4652 185.147 63.5733 198.804C59.8056 195.036 48.1732 183.687 31.7854 168.43C11.3007 149.358 7.37294 133.818 4.54746 127.46C1.72198 121.103 -3.53605 102.031 3.52765 76.6019C10.5913 51.1726 29.9775 32.8069 30.6839 32.1006C31.249 31.5355 49.4485 13.0286 63.5733 0.313942C63.3378 0.313942 64.986 -0.392428 65.6924 0.313942L65.7435 0.365024C67.2311 1.85198 86.8141 21.4269 103.834 40.577C118.273 56.8235 121.686 64.9083 125.025 83.1923C127.189 95.0429 126.278 101.009 126.043 111.214C123.217 135.937 108.075 151.477 107.368 152.183Z" fill="var(--fill-0, white)"/>
</svg>
