<svg preserveAspectRatio="none" width="100%" height="100%" overflow="visible" style="display: block;" viewBox="0 0 127.847 200.505" fill="none" xmlns="http://www.w3.org/2000/svg">
<path id="Vector 15" d="M108.075 152.89C107.675 153.289 78.1716 185.854 64.2797 199.51C60.512 195.743 48.8796 184.394 32.4918 169.136C12.0071 150.064 8.07935 134.524 5.25387 128.167C2.42839 121.81 -2.82964 102.738 4.23406 77.3082C11.2978 51.8789 30.6839 33.5133 31.3903 32.8069C31.9554 32.2418 50.1549 13.735 64.2797 1.02031C64.0442 1.02031 65.6924 0.313937 66.3988 1.02031L66.4499 1.07139C67.9375 2.55834 87.5205 22.1333 104.54 41.2834C118.979 57.5299 122.392 65.6147 125.731 83.8987C127.895 95.7493 126.985 101.716 126.749 111.92C123.924 136.643 108.781 152.183 108.075 152.89Z" stroke="var(--stroke-0, white)" stroke-width="1.41274"/>
</svg>
