<svg preserveAspectRatio="none" width="100%" height="100%" overflow="visible" style="display: block;" viewBox="0 0 181.966 286.049" fill="none" xmlns="http://www.w3.org/2000/svg">
<path id="Vector 14" d="M153.562 217.802C152.995 218.37 111.178 264.68 91.4879 284.101C86.1476 278.744 69.6602 262.604 46.4325 240.906C17.3979 213.784 11.8308 191.684 7.82603 182.643C3.82126 173.603 -3.63135 146.48 6.38057 110.317C16.3925 74.1535 43.87 48.0356 44.8712 47.031C45.6722 46.2274 71.4677 19.9086 91.4879 1.82694C91.1541 1.82694 93.4902 0.822403 94.4914 1.82694L94.5642 1.89993C96.6754 4.01728 124.43 31.8534 148.552 59.0855C169.018 82.1898 173.856 93.6873 178.588 119.689C181.655 136.542 180.365 145.027 180.031 159.539C176.026 194.698 154.563 216.797 153.562 217.802Z" fill="var(--fill-0, #80DB42)" fill-opacity="0.11" stroke="var(--stroke-0, #80DB42)" stroke-opacity="0.11" stroke-width="2.76098"/>
</svg>
