<svg width="285" height="223" viewBox="0 0 285 223" fill="none" xmlns="http://www.w3.org/2000/svg">
<path d="M11.112 22H1.896V5.56H4.56V19.624H11.112V22ZM21.8546 13.696V19.168C21.8706 19.52 21.9586 19.784 22.1186 19.96C22.2946 20.12 22.5586 20.224 22.9106 20.272L22.8386 22.264C21.4626 22.264 20.3986 21.968 19.6466 21.376C18.3666 21.968 17.0786 22.264 15.7826 22.264C13.3986 22.264 12.2066 20.992 12.2066 18.448C12.2066 17.232 12.5266 16.352 13.1666 15.808C13.8226 15.264 14.8226 14.936 16.1666 14.824L19.2626 14.56V13.696C19.2626 13.056 19.1186 12.608 18.8306 12.352C18.5586 12.096 18.1506 11.968 17.6066 11.968C16.5826 11.968 15.3026 12.032 13.7666 12.16L12.9986 12.208L12.9026 10.36C14.6466 9.944 16.2466 9.736 17.7026 9.736C19.1746 9.736 20.2306 10.056 20.8706 10.696C21.5266 11.32 21.8546 12.32 21.8546 13.696ZM16.4786 16.672C15.3746 16.768 14.8226 17.368 14.8226 18.472C14.8226 19.576 15.3106 20.128 16.2866 20.128C17.0866 20.128 17.9346 20 18.8306 19.744L19.2626 19.6V16.408L16.4786 16.672ZM32.4107 10H35.0027V22H32.4107V21.256C31.2427 21.928 30.1627 22.264 29.1707 22.264C27.5227 22.264 26.4187 21.824 25.8587 20.944C25.2987 20.048 25.0187 18.488 25.0187 16.264V10H27.6347V16.288C27.6347 17.728 27.7547 18.696 27.9947 19.192C28.2347 19.688 28.7947 19.936 29.6747 19.936C30.5387 19.936 31.3307 19.776 32.0507 19.456L32.4107 19.312V10ZM47.9619 5.008V22H45.3699V21.376C44.2019 21.968 43.1299 22.264 42.1539 22.264C40.5859 22.264 39.4339 21.792 38.6979 20.848C37.9779 19.904 37.6179 18.32 37.6179 16.096C37.6179 13.872 38.0179 12.256 38.8179 11.248C39.6339 10.24 40.8979 9.736 42.6099 9.736C43.1859 9.736 44.0979 9.84 45.3459 10.048V5.008H47.9619ZM44.9379 19.504L45.3459 19.336V12.232C44.3859 12.072 43.4979 11.992 42.6819 11.992C41.0659 11.992 40.2579 13.336 40.2579 16.024C40.2579 17.496 40.4419 18.52 40.8099 19.096C41.1939 19.656 41.7939 19.936 42.6099 19.936C43.4259 19.936 44.2019 19.792 44.9379 19.504ZM51.7789 11.296C52.6109 10.256 53.9869 9.736 55.9069 9.736C57.8269 9.736 59.1949 10.256 60.0109 11.296C60.8429 12.336 61.2589 13.896 61.2589 15.976C61.2589 18.056 60.8589 19.624 60.0589 20.68C59.2589 21.736 57.8749 22.264 55.9069 22.264C53.9389 22.264 52.5549 21.736 51.7549 20.68C50.9549 19.624 50.5549 18.056 50.5549 15.976C50.5549 13.896 50.9629 12.336 51.7789 11.296ZM53.7469 19.096C54.1149 19.736 54.8349 20.056 55.9069 20.056C56.9789 20.056 57.6989 19.736 58.0669 19.096C58.4349 18.456 58.6189 17.408 58.6189 15.952C58.6189 14.496 58.4189 13.464 58.0189 12.856C57.6349 12.248 56.9309 11.944 55.9069 11.944C54.8829 11.944 54.1709 12.248 53.7709 12.856C53.3869 13.464 53.1949 14.496 53.1949 15.952C53.1949 17.408 53.3789 18.456 53.7469 19.096ZM72.1854 12.472C70.2974 12.216 68.9294 12.088 68.0814 12.088C67.2334 12.088 66.6414 12.192 66.3054 12.4C65.9854 12.592 65.8254 12.904 65.8254 13.336C65.8254 13.768 66.0014 14.072 66.3534 14.248C66.7214 14.424 67.5694 14.632 68.8974 14.872C70.2414 15.096 71.1934 15.456 71.7534 15.952C72.3134 16.448 72.5934 17.328 72.5934 18.592C72.5934 19.856 72.1854 20.784 71.3694 21.376C70.5694 21.968 69.3934 22.264 67.8414 22.264C66.8654 22.264 65.6334 22.128 64.1454 21.856L63.4014 21.736L63.4974 19.552C65.4174 19.808 66.8014 19.936 67.6494 19.936C68.4974 19.936 69.0974 19.832 69.4494 19.624C69.8174 19.416 70.0014 19.072 70.0014 18.592C70.0014 18.112 69.8254 17.784 69.4734 17.608C69.1374 17.416 68.3134 17.216 67.0014 17.008C65.7054 16.784 64.7534 16.44 64.1454 15.976C63.5374 15.512 63.2334 14.664 63.2334 13.432C63.2334 12.2 63.6494 11.28 64.4814 10.672C65.3294 10.064 66.4094 9.76 67.7214 9.76C68.7454 9.76 70.0014 9.888 71.4894 10.144L72.2334 10.288L72.1854 12.472ZM88.9249 19.84L89.5969 19.768L89.6449 21.712C87.8209 22.08 86.2049 22.264 84.7969 22.264C83.0209 22.264 81.7409 21.776 80.9569 20.8C80.1889 19.824 79.8049 18.264 79.8049 16.12C79.8049 11.864 81.5409 9.736 85.0129 9.736C88.3729 9.736 90.0529 11.568 90.0529 15.232L89.8849 17.104H82.4449C82.4609 18.096 82.6769 18.824 83.0929 19.288C83.5089 19.752 84.2849 19.984 85.4209 19.984C86.5569 19.984 87.7249 19.936 88.9249 19.84ZM87.4849 15.088C87.4849 13.904 87.2929 13.08 86.9089 12.616C86.5409 12.136 85.9089 11.896 85.0129 11.896C84.1169 11.896 83.4609 12.144 83.0449 12.64C82.6449 13.136 82.4369 13.952 82.4209 15.088H87.4849ZM104.178 16.888H100.818V22H98.1538V5.56H104.178C107.906 5.56 109.77 7.4 109.77 11.08C109.77 12.968 109.298 14.408 108.354 15.4C107.426 16.392 106.034 16.888 104.178 16.888ZM100.818 14.584H104.154C106.074 14.584 107.034 13.416 107.034 11.08C107.034 9.96 106.802 9.144 106.338 8.632C105.874 8.12 105.146 7.864 104.154 7.864H100.818V14.584ZM120.566 19.84L121.238 19.768L121.286 21.712C119.462 22.08 117.846 22.264 116.438 22.264C114.662 22.264 113.382 21.776 112.598 20.8C111.83 19.824 111.446 18.264 111.446 16.12C111.446 11.864 113.182 9.736 116.654 9.736C120.014 9.736 121.694 11.568 121.694 15.232L121.526 17.104H114.086C114.102 18.096 114.318 18.824 114.734 19.288C115.15 19.752 115.926 19.984 117.062 19.984C118.198 19.984 119.366 19.936 120.566 19.84ZM119.126 15.088C119.126 13.904 118.934 13.08 118.55 12.616C118.182 12.136 117.55 11.896 116.654 11.896C115.758 11.896 115.102 12.144 114.686 12.64C114.286 13.136 114.078 13.952 114.062 15.088H119.126ZM124.209 22V10H126.801V11.44C128.161 10.56 129.521 9.992 130.881 9.736V12.352C129.505 12.624 128.329 12.976 127.353 13.408L126.825 13.624V22H124.209ZM132.113 6.472L137.777 4.048L138.593 6.304L132.737 8.176L132.113 6.472ZM132.881 10H135.497V22H132.881V10ZM143.158 9.736C144.006 9.736 145.006 9.848 146.158 10.072L146.758 10.192L146.662 12.256C145.398 12.128 144.462 12.064 143.854 12.064C142.638 12.064 141.822 12.336 141.406 12.88C140.99 13.424 140.782 14.448 140.782 15.952C140.782 17.456 140.982 18.496 141.382 19.072C141.782 19.648 142.614 19.936 143.878 19.936L146.686 19.744L146.758 21.832C145.142 22.12 143.926 22.264 143.11 22.264C141.286 22.264 139.998 21.776 139.246 20.8C138.51 19.808 138.142 18.192 138.142 15.952C138.142 13.712 138.534 12.12 139.318 11.176C140.102 10.216 141.382 9.736 143.158 9.736ZM149.287 22V10H151.903V22H149.287ZM149.287 7.96V5.2H151.903V7.96H149.287ZM163.956 13.696V19.168C163.972 19.52 164.06 19.784 164.22 19.96C164.396 20.12 164.66 20.224 165.012 20.272L164.94 22.264C163.564 22.264 162.5 21.968 161.748 21.376C160.468 21.968 159.18 22.264 157.884 22.264C155.5 22.264 154.308 20.992 154.308 18.448C154.308 17.232 154.628 16.352 155.268 15.808C155.924 15.264 156.924 14.936 158.268 14.824L161.364 14.56V13.696C161.364 13.056 161.22 12.608 160.932 12.352C160.66 12.096 160.252 11.968 159.708 11.968C158.684 11.968 157.404 12.032 155.868 12.16L155.1 12.208L155.004 10.36C156.748 9.944 158.348 9.736 159.804 9.736C161.276 9.736 162.332 10.056 162.972 10.696C163.628 11.32 163.956 12.32 163.956 13.696ZM158.58 16.672C157.476 16.768 156.924 17.368 156.924 18.472C156.924 19.576 157.412 20.128 158.388 20.128C159.188 20.128 160.036 20 160.932 19.744L161.364 19.6V16.408L158.58 16.672ZM175.568 12.472C173.68 12.216 172.312 12.088 171.464 12.088C170.616 12.088 170.024 12.192 169.688 12.4C169.368 12.592 169.208 12.904 169.208 13.336C169.208 13.768 169.384 14.072 169.736 14.248C170.104 14.424 170.952 14.632 172.28 14.872C173.624 15.096 174.576 15.456 175.136 15.952C175.696 16.448 175.976 17.328 175.976 18.592C175.976 19.856 175.568 20.784 174.752 21.376C173.952 21.968 172.776 22.264 171.224 22.264C170.248 22.264 169.016 22.128 167.528 21.856L166.784 21.736L166.88 19.552C168.8 19.808 170.184 19.936 171.032 19.936C171.88 19.936 172.48 19.832 172.832 19.624C173.2 19.416 173.384 19.072 173.384 18.592C173.384 18.112 173.208 17.784 172.856 17.608C172.52 17.416 171.696 17.216 170.384 17.008C169.088 16.784 168.136 16.44 167.528 15.976C166.92 15.512 166.616 14.664 166.616 13.432C166.616 12.2 167.032 11.28 167.864 10.672C168.712 10.064 169.792 9.76 171.104 9.76C172.128 9.76 173.384 9.888 174.872 10.144L175.616 10.288L175.568 12.472ZM182.492 7.936V5.56H194.492V7.936H189.86V22H187.172V7.936H182.492ZM203.042 19.84L203.714 19.768L203.762 21.712C201.938 22.08 200.322 22.264 198.914 22.264C197.138 22.264 195.858 21.776 195.074 20.8C194.306 19.824 193.922 18.264 193.922 16.12C193.922 11.864 195.658 9.736 199.13 9.736C202.49 9.736 204.17 11.568 204.17 15.232L204.002 17.104H196.562C196.578 18.096 196.794 18.824 197.21 19.288C197.626 19.752 198.402 19.984 199.538 19.984C200.674 19.984 201.842 19.936 203.042 19.84ZM201.602 15.088C201.602 13.904 201.41 13.08 201.026 12.616C200.658 12.136 200.026 11.896 199.13 11.896C198.234 11.896 197.578 12.144 197.162 12.64C196.762 13.136 196.554 13.952 196.538 15.088H201.602ZM195.842 6.472L201.506 4.048L202.322 6.304L196.466 8.176L195.842 6.472ZM211.174 9.736C212.022 9.736 213.022 9.848 214.174 10.072L214.774 10.192L214.678 12.256C213.414 12.128 212.478 12.064 211.87 12.064C210.654 12.064 209.838 12.336 209.422 12.88C209.006 13.424 208.798 14.448 208.798 15.952C208.798 17.456 208.998 18.496 209.398 19.072C209.798 19.648 210.63 19.936 211.894 19.936L214.702 19.744L214.774 21.832C213.158 22.12 211.942 22.264 211.126 22.264C209.302 22.264 208.014 21.776 207.262 20.8C206.526 19.808 206.158 18.192 206.158 15.952C206.158 13.712 206.55 12.12 207.334 11.176C208.118 10.216 209.398 9.736 211.174 9.736ZM219.919 22H217.303V10H219.895V10.744C221.063 10.072 222.167 9.736 223.207 9.736C224.807 9.736 225.895 10.192 226.471 11.104C227.063 12 227.359 13.488 227.359 15.568V22H224.767V15.64C224.767 14.344 224.623 13.424 224.335 12.88C224.063 12.336 223.495 12.064 222.631 12.064C221.815 12.064 221.031 12.224 220.279 12.544L219.919 12.688V22ZM230.404 22V10H233.02V22H230.404ZM230.404 7.96V5.2H233.02V7.96H230.404ZM240.681 9.736C241.529 9.736 242.529 9.848 243.681 10.072L244.281 10.192L244.185 12.256C242.921 12.128 241.985 12.064 241.377 12.064C240.161 12.064 239.345 12.336 238.929 12.88C238.513 13.424 238.305 14.448 238.305 15.952C238.305 17.456 238.505 18.496 238.905 19.072C239.305 19.648 240.137 19.936 241.401 19.936L244.209 19.744L244.281 21.832C242.665 22.12 241.449 22.264 240.633 22.264C238.809 22.264 237.521 21.776 236.769 20.8C236.033 19.808 235.665 18.192 235.665 15.952C235.665 13.712 236.057 12.12 236.841 11.176C237.625 10.216 238.905 9.736 240.681 9.736ZM255.691 13.696V19.168C255.707 19.52 255.795 19.784 255.955 19.96C256.131 20.12 256.395 20.224 256.747 20.272L256.675 22.264C255.299 22.264 254.235 21.968 253.483 21.376C252.203 21.968 250.915 22.264 249.619 22.264C247.235 22.264 246.043 20.992 246.043 18.448C246.043 17.232 246.363 16.352 247.003 15.808C247.659 15.264 248.659 14.936 250.003 14.824L253.099 14.56V13.696C253.099 13.056 252.955 12.608 252.667 12.352C252.395 12.096 251.987 11.968 251.443 11.968C250.419 11.968 249.139 12.032 247.603 12.16L246.835 12.208L246.739 10.36C248.483 9.944 250.083 9.736 251.539 9.736C253.011 9.736 254.067 10.056 254.707 10.696C255.363 11.32 255.691 12.32 255.691 13.696ZM250.315 16.672C249.211 16.768 248.659 17.368 248.659 18.472C248.659 19.576 249.147 20.128 250.123 20.128C250.923 20.128 251.771 20 252.667 19.744L253.099 19.6V16.408L250.315 16.672ZM267.303 12.472C265.415 12.216 264.047 12.088 263.199 12.088C262.351 12.088 261.759 12.192 261.423 12.4C261.103 12.592 260.943 12.904 260.943 13.336C260.943 13.768 261.119 14.072 261.471 14.248C261.839 14.424 262.687 14.632 264.015 14.872C265.359 15.096 266.311 15.456 266.871 15.952C267.431 16.448 267.711 17.328 267.711 18.592C267.711 19.856 267.303 20.784 266.487 21.376C265.687 21.968 264.511 22.264 262.959 22.264C261.983 22.264 260.751 22.128 259.263 21.856L258.519 21.736L258.615 19.552C260.535 19.808 261.919 19.936 262.767 19.936C263.615 19.936 264.215 19.832 264.567 19.624C264.935 19.416 265.119 19.072 265.119 18.592C265.119 18.112 264.943 17.784 264.591 17.608C264.255 17.416 263.431 17.216 262.119 17.008C260.823 16.784 259.871 16.44 259.263 15.976C258.655 15.512 258.351 14.664 258.351 13.432C258.351 12.2 258.767 11.28 259.599 10.672C260.447 10.064 261.527 9.76 262.839 9.76C263.863 9.76 265.119 9.888 266.607 10.144L267.351 10.288L267.303 12.472Z" fill="#02172B"/>
<path d="M9.32 56H1.7V42.16H3.24V54.62H9.32V56ZM18.0703 49.02V54.14C18.1103 54.6333 18.497 54.9267 19.2303 55.02L19.1703 56.2C18.117 56.2 17.3236 55.9333 16.7903 55.4C15.5903 55.9333 14.3903 56.2 13.1903 56.2C12.2703 56.2 11.5703 55.94 11.0903 55.42C10.6103 54.9 10.3703 54.1533 10.3703 53.18C10.3703 52.2067 10.617 51.4933 11.1103 51.04C11.6036 50.5733 12.377 50.2867 13.4303 50.18L16.5703 49.88V49.02C16.5703 48.34 16.4236 47.8533 16.1303 47.56C15.837 47.2667 15.437 47.12 14.9303 47.12C13.8636 47.12 12.757 47.1867 11.6103 47.32L10.9903 47.38L10.9303 46.24C12.397 45.9467 13.697 45.8 14.8303 45.8C15.9636 45.8 16.7836 46.06 17.2903 46.58C17.8103 47.1 18.0703 47.9133 18.0703 49.02ZM11.9103 53.1C11.9103 54.3267 12.417 54.94 13.4303 54.94C14.337 54.94 15.2303 54.7867 16.1103 54.48L16.5703 54.32V51.02L13.6103 51.3C13.0103 51.3533 12.577 51.5267 12.3103 51.82C12.0436 52.1133 11.9103 52.54 11.9103 53.1ZM27.2698 46H28.7698V56H27.2698V55.3C26.2698 55.9 25.2832 56.2 24.3098 56.2C22.9498 56.2 22.0432 55.8467 21.5898 55.14C21.1498 54.4333 20.9298 53.1267 20.9298 51.22V46H22.4298V51.2C22.4298 52.6533 22.5565 53.6267 22.8098 54.12C23.0632 54.6133 23.6365 54.86 24.5298 54.86C24.9698 54.86 25.4165 54.8 25.8698 54.68C26.3232 54.5467 26.6698 54.42 26.9098 54.3L27.2698 54.12V46ZM39.3348 41.64V56H37.8548V55.32C36.8282 55.9067 35.8148 56.2 34.8148 56.2C34.2815 56.2 33.8148 56.1333 33.4148 56C33.0148 55.8667 32.6415 55.6267 32.2948 55.28C31.5748 54.56 31.2148 53.2333 31.2148 51.3C31.2148 49.3533 31.5348 47.9533 32.1748 47.1C32.8282 46.2333 33.9015 45.8 35.3948 45.8C36.1682 45.8 36.9882 45.8867 37.8548 46.06V41.64H39.3348ZM33.4548 54.2C33.6682 54.4533 33.8948 54.6267 34.1348 54.72C34.3748 54.8133 34.6815 54.86 35.0548 54.86C35.4415 54.86 35.8682 54.8 36.3348 54.68C36.8148 54.5467 37.1882 54.42 37.4548 54.3L37.8548 54.12V47.34C37.0015 47.18 36.2082 47.1 35.4748 47.1C34.4615 47.1 33.7548 47.4267 33.3548 48.08C32.9548 48.72 32.7548 49.72 32.7548 51.08C32.7548 52.6267 32.9882 53.6667 33.4548 54.2ZM41.8008 50.98C41.8008 49.1533 42.1274 47.8333 42.7808 47.02C43.4341 46.2067 44.5341 45.8 46.0808 45.8C47.6408 45.8 48.7408 46.2067 49.3808 47.02C50.0341 47.8333 50.3608 49.1533 50.3608 50.98C50.3608 52.8067 50.0541 54.1333 49.4408 54.96C48.8274 55.7867 47.7074 56.2 46.0808 56.2C44.4541 56.2 43.3341 55.7867 42.7208 54.96C42.1074 54.1333 41.8008 52.8067 41.8008 50.98ZM43.3408 50.96C43.3408 52.4133 43.5141 53.4333 43.8608 54.02C44.2208 54.6067 44.9608 54.9 46.0808 54.9C47.2141 54.9 47.9541 54.6133 48.3008 54.04C48.6474 53.4533 48.8208 52.4267 48.8208 50.96C48.8208 49.4933 48.6274 48.4867 48.2408 47.94C47.8541 47.38 47.1341 47.1 46.0808 47.1C45.0408 47.1 44.3208 47.38 43.9208 47.94C43.5341 48.4867 43.3408 49.4933 43.3408 50.96ZM55.9472 47.14C54.4939 47.14 53.7672 47.6467 53.7672 48.66C53.7672 49.1267 53.9339 49.46 54.2672 49.66C54.6005 49.8467 55.3605 50.0467 56.5472 50.26C57.7339 50.46 58.5739 50.7467 59.0672 51.12C59.5605 51.4933 59.8072 52.1933 59.8072 53.22C59.8072 54.2467 59.4739 55 58.8072 55.48C58.1539 55.96 57.1939 56.2 55.9272 56.2C55.1005 56.2 54.1272 56.1067 53.0072 55.92L52.4072 55.82L52.4872 54.52C54.0072 54.7467 55.1539 54.86 55.9272 54.86C56.7005 54.86 57.2872 54.74 57.6872 54.5C58.1005 54.2467 58.3072 53.8333 58.3072 53.26C58.3072 52.6733 58.1339 52.28 57.7872 52.08C57.4405 51.8667 56.6805 51.6667 55.5072 51.48C54.3339 51.2933 53.5005 51.02 53.0072 50.66C52.5139 50.3 52.2672 49.6333 52.2672 48.66C52.2672 47.6867 52.6072 46.9667 53.2872 46.5C53.9805 46.0333 54.8405 45.8 55.8672 45.8C56.6805 45.8 57.7005 45.8933 58.9272 46.08L59.4872 46.18L59.4472 47.46C57.9672 47.2467 56.8005 47.14 55.9472 47.14ZM73.5586 49.02V54.14C73.5986 54.6333 73.9853 54.9267 74.7186 55.02L74.6586 56.2C73.6053 56.2 72.8119 55.9333 72.2786 55.4C71.0786 55.9333 69.8786 56.2 68.6786 56.2C67.7586 56.2 67.0586 55.94 66.5786 55.42C66.0986 54.9 65.8586 54.1533 65.8586 53.18C65.8586 52.2067 66.1053 51.4933 66.5986 51.04C67.0919 50.5733 67.8653 50.2867 68.9186 50.18L72.0586 49.88V49.02C72.0586 48.34 71.9119 47.8533 71.6186 47.56C71.3253 47.2667 70.9253 47.12 70.4186 47.12C69.3519 47.12 68.2453 47.1867 67.0986 47.32L66.4786 47.38L66.4186 46.24C67.8853 45.9467 69.1853 45.8 70.3186 45.8C71.4519 45.8 72.2719 46.06 72.7786 46.58C73.2986 47.1 73.5586 47.9133 73.5586 49.02ZM67.3986 53.1C67.3986 54.3267 67.9053 54.94 68.9186 54.94C69.8253 54.94 70.7186 54.7867 71.5986 54.48L72.0586 54.32V51.02L69.0986 51.3C68.4986 51.3533 68.0653 51.5267 67.7986 51.82C67.5319 52.1133 67.3986 52.54 67.3986 53.1ZM80.3781 60.7C78.7781 60.7 77.6581 60.48 77.0181 60.04C76.3915 59.6133 76.0781 58.8267 76.0781 57.68C76.0781 57.1333 76.1981 56.6867 76.4381 56.34C76.6781 56.0067 77.0848 55.6267 77.6581 55.2C77.2848 54.9467 77.0981 54.4867 77.0981 53.82C77.0981 53.5933 77.2648 53.1733 77.5981 52.56L77.7781 52.24C76.7248 51.76 76.1981 50.7533 76.1981 49.22C76.1981 46.94 77.4448 45.8 79.9381 45.8C80.5781 45.8 81.1715 45.8667 81.7181 46L82.0181 46.06L84.9781 45.98V47.26L83.0781 47.22C83.5181 47.66 83.7381 48.3267 83.7381 49.22C83.7381 50.4733 83.4248 51.3533 82.7981 51.86C82.1848 52.3533 81.2115 52.6 79.8781 52.6C79.5181 52.6 79.1915 52.5733 78.8981 52.52C78.6581 53.1067 78.5381 53.4867 78.5381 53.66C78.5381 54.0733 78.6648 54.3333 78.9181 54.44C79.1715 54.5333 79.9381 54.58 81.2181 54.58C82.4981 54.58 83.4181 54.78 83.9781 55.18C84.5381 55.58 84.8181 56.36 84.8181 57.52C84.8181 59.64 83.3381 60.7 80.3781 60.7ZM77.5581 57.56C77.5581 58.2667 77.7515 58.7533 78.1381 59.02C78.5381 59.3 79.2648 59.44 80.3181 59.44C81.3848 59.44 82.1448 59.2933 82.5981 59C83.0648 58.7067 83.2981 58.2133 83.2981 57.52C83.2981 56.84 83.1315 56.4 82.7981 56.2C82.4648 56 81.8115 55.9 80.8381 55.9L78.6781 55.8C78.2381 56.12 77.9381 56.4 77.7781 56.64C77.6315 56.88 77.5581 57.1867 77.5581 57.56ZM77.6981 49.22C77.6981 50.0067 77.8715 50.5667 78.2181 50.9C78.5781 51.2333 79.1648 51.4 79.9781 51.4C80.7915 51.4 81.3715 51.2333 81.7181 50.9C82.0648 50.5667 82.2381 50.0067 82.2381 49.22C82.2381 48.42 82.0648 47.8533 81.7181 47.52C81.3715 47.1867 80.7915 47.02 79.9781 47.02C79.1648 47.02 78.5781 47.1933 78.2181 47.54C77.8715 47.8733 77.6981 48.4333 77.6981 49.22ZM86.7916 56V46H88.2716V47.36C89.4316 46.56 90.6516 46.0333 91.9316 45.78V47.3C91.3716 47.4067 90.7849 47.5733 90.1716 47.8C89.5716 48.0267 89.1116 48.2267 88.7916 48.4L88.2916 48.66V56H86.7916ZM93.0703 50.98C93.0703 49.1533 93.397 47.8333 94.0503 47.02C94.7036 46.2067 95.8036 45.8 97.3503 45.8C98.9103 45.8 100.01 46.2067 100.65 47.02C101.304 47.8333 101.63 49.1533 101.63 50.98C101.63 52.8067 101.324 54.1333 100.71 54.96C100.097 55.7867 98.977 56.2 97.3503 56.2C95.7236 56.2 94.6036 55.7867 93.9903 54.96C93.377 54.1333 93.0703 52.8067 93.0703 50.98ZM94.6103 50.96C94.6103 52.4133 94.7836 53.4333 95.1303 54.02C95.4903 54.6067 96.2303 54.9 97.3503 54.9C98.4836 54.9 99.2236 54.6133 99.5703 54.04C99.917 53.4533 100.09 52.4267 100.09 50.96C100.09 49.4933 99.897 48.4867 99.5103 47.94C99.1236 47.38 98.4036 47.1 97.3503 47.1C96.3103 47.1 95.5903 47.38 95.1903 47.94C94.8036 48.4867 94.6103 49.4933 94.6103 50.96ZM105.577 56H104.077V46H105.557V46.7C106.637 46.1 107.67 45.8 108.657 45.8C109.99 45.8 110.883 46.16 111.337 46.88C111.803 47.6 112.037 48.88 112.037 50.72V56H110.557V50.76C110.557 49.3733 110.417 48.4267 110.137 47.92C109.87 47.4 109.29 47.14 108.397 47.14C107.97 47.14 107.517 47.2067 107.037 47.34C106.57 47.46 106.21 47.58 105.957 47.7L105.577 47.88V56ZM118.659 45.8C120.219 45.8 121.319 46.2067 121.959 47.02C122.612 47.8333 122.939 49.1533 122.939 50.98C122.939 52.8067 122.632 54.1333 122.019 54.96C121.406 55.7867 120.286 56.2 118.659 56.2C117.032 56.2 115.912 55.7867 115.299 54.96C114.686 54.1333 114.379 52.8067 114.379 50.98C114.379 49.1533 114.706 47.8333 115.359 47.02C116.012 46.2067 117.112 45.8 118.659 45.8ZM118.659 54.9C119.792 54.9 120.532 54.6133 120.879 54.04C121.226 53.4533 121.399 52.4267 121.399 50.96C121.399 49.4933 121.206 48.4867 120.819 47.94C120.432 47.38 119.712 47.1 118.659 47.1C117.619 47.1 116.899 47.38 116.499 47.94C116.112 48.4867 115.919 49.4933 115.919 50.96C115.919 52.4133 116.092 53.4333 116.439 54.02C116.799 54.6067 117.539 54.9 118.659 54.9ZM115.639 44.16L118.099 41.36H119.119L121.599 44.16H120.099L118.639 42.42L117.139 44.16H115.639ZM126.885 56H125.385V46H126.865V46.7C127.865 46.1 128.839 45.8 129.785 45.8C131.025 45.8 131.892 46.14 132.385 46.82C132.825 46.5533 133.392 46.32 134.085 46.12C134.792 45.9067 135.412 45.8 135.945 45.8C137.279 45.8 138.172 46.16 138.625 46.88C139.092 47.5867 139.325 48.8667 139.325 50.72V56H137.825V50.76C137.825 49.3733 137.692 48.4267 137.425 47.92C137.159 47.4 136.592 47.14 135.725 47.14C135.285 47.14 134.832 47.2067 134.365 47.34C133.899 47.46 133.539 47.58 133.285 47.7L132.905 47.88C133.079 48.32 133.165 49.2933 133.165 50.8V56H131.665V50.84C131.665 49.4 131.532 48.4267 131.265 47.92C131.012 47.4 130.445 47.14 129.565 47.14C129.139 47.14 128.699 47.2067 128.245 47.34C127.805 47.46 127.465 47.58 127.225 47.7L126.885 47.88V56ZM142.104 56V46H143.604V56H142.104ZM142.104 43.74V42H143.604V43.74H142.104ZM150.219 45.8C150.659 45.8 151.406 45.88 152.459 46.04L152.939 46.1L152.879 47.32C151.812 47.2 151.026 47.14 150.519 47.14C149.386 47.14 148.612 47.4133 148.199 47.96C147.799 48.4933 147.599 49.4933 147.599 50.96C147.599 52.4133 147.786 53.4267 148.159 54C148.546 54.5733 149.339 54.86 150.539 54.86L152.899 54.68L152.959 55.92C151.719 56.1067 150.792 56.2 150.179 56.2C148.619 56.2 147.539 55.8 146.939 55C146.352 54.2 146.059 52.8533 146.059 50.96C146.059 49.0533 146.379 47.72 147.019 46.96C147.659 46.1867 148.726 45.8 150.219 45.8ZM154.633 50.98C154.633 49.1533 154.959 47.8333 155.613 47.02C156.266 46.2067 157.366 45.8 158.913 45.8C160.473 45.8 161.573 46.2067 162.213 47.02C162.866 47.8333 163.193 49.1533 163.193 50.98C163.193 52.8067 162.886 54.1333 162.273 54.96C161.659 55.7867 160.539 56.2 158.913 56.2C157.286 56.2 156.166 55.7867 155.553 54.96C154.939 54.1333 154.633 52.8067 154.633 50.98ZM156.173 50.96C156.173 52.4133 156.346 53.4333 156.693 54.02C157.053 54.6067 157.793 54.9 158.913 54.9C160.046 54.9 160.786 54.6133 161.133 54.04C161.479 53.4533 161.653 52.4267 161.653 50.96C161.653 49.4933 161.459 48.4867 161.073 47.94C160.686 47.38 159.966 47.1 158.913 47.1C157.873 47.1 157.153 47.38 156.753 47.94C156.366 48.4867 156.173 49.4933 156.173 50.96ZM168.779 47.14C167.326 47.14 166.599 47.6467 166.599 48.66C166.599 49.1267 166.766 49.46 167.099 49.66C167.433 49.8467 168.193 50.0467 169.379 50.26C170.566 50.46 171.406 50.7467 171.899 51.12C172.393 51.4933 172.639 52.1933 172.639 53.22C172.639 54.2467 172.306 55 171.639 55.48C170.986 55.96 170.026 56.2 168.759 56.2C167.933 56.2 166.959 56.1067 165.839 55.92L165.239 55.82L165.319 54.52C166.839 54.7467 167.986 54.86 168.759 54.86C169.533 54.86 170.119 54.74 170.519 54.5C170.933 54.2467 171.139 53.8333 171.139 53.26C171.139 52.6733 170.966 52.28 170.619 52.08C170.273 51.8667 169.513 51.6667 168.339 51.48C167.166 51.2933 166.333 51.02 165.839 50.66C165.346 50.3 165.099 49.6333 165.099 48.66C165.099 47.6867 165.439 46.9667 166.119 46.5C166.813 46.0333 167.673 45.8 168.699 45.8C169.513 45.8 170.533 45.8933 171.759 46.08L172.319 46.18L172.279 47.46C170.799 47.2467 169.633 47.14 168.779 47.14ZM174.176 58.46L175.096 53.86H176.756L175.416 58.46H174.176ZM183.784 60.44V46H185.264V46.72C186.277 46.1067 187.277 45.8 188.264 45.8C189.53 45.8 190.45 46.2067 191.024 47.02C191.597 47.82 191.884 49.1467 191.884 51C191.884 52.8533 191.544 54.1867 190.864 55C190.197 55.8 189.084 56.2 187.524 56.2C186.71 56.2 185.964 56.1267 185.284 55.98V60.44H183.784ZM188.044 47.14C187.644 47.14 187.21 47.2067 186.744 47.34C186.29 47.4733 185.93 47.6067 185.664 47.74L185.284 47.94V54.68C186.23 54.8267 186.95 54.9 187.444 54.9C188.524 54.9 189.277 54.5933 189.704 53.98C190.144 53.3667 190.364 52.3667 190.364 50.98C190.364 49.5933 190.164 48.6067 189.764 48.02C189.377 47.4333 188.804 47.14 188.044 47.14ZM201.131 54.76L201.711 54.7L201.751 55.88C200.231 56.0933 198.931 56.2 197.851 56.2C196.411 56.2 195.391 55.7867 194.791 54.96C194.191 54.12 193.891 52.82 193.891 51.06C193.891 47.5533 195.284 45.8 198.071 45.8C199.417 45.8 200.424 46.18 201.091 46.94C201.757 47.6867 202.091 48.8667 202.091 50.48L202.011 51.62H195.411C195.411 52.7267 195.611 53.5467 196.011 54.08C196.411 54.6133 197.104 54.88 198.091 54.88C199.091 54.88 200.104 54.84 201.131 54.76ZM200.591 50.42C200.591 49.1933 200.391 48.3267 199.991 47.82C199.604 47.3133 198.964 47.06 198.071 47.06C197.191 47.06 196.524 47.3267 196.071 47.86C195.631 48.3933 195.404 49.2467 195.391 50.42H200.591ZM204.428 56V46H205.908V47.36C207.068 46.56 208.288 46.0333 209.568 45.78V47.3C209.008 47.4067 208.422 47.5733 207.808 47.8C207.208 48.0267 206.748 48.2267 206.428 48.4L205.928 48.66V56H204.428ZM210.662 43.16L214.982 41.2L215.502 42.48L211.082 44.18L210.662 43.16ZM211.342 46H212.842V56H211.342V46ZM219.457 45.8C219.897 45.8 220.644 45.88 221.697 46.04L222.177 46.1L222.117 47.32C221.051 47.2 220.264 47.14 219.757 47.14C218.624 47.14 217.851 47.4133 217.437 47.96C217.037 48.4933 216.837 49.4933 216.837 50.96C216.837 52.4133 217.024 53.4267 217.397 54C217.784 54.5733 218.577 54.86 219.777 54.86L222.137 54.68L222.197 55.92C220.957 56.1067 220.031 56.2 219.417 56.2C217.857 56.2 216.777 55.8 216.177 55C215.591 54.2 215.297 52.8533 215.297 50.96C215.297 49.0533 215.617 47.72 216.257 46.96C216.897 46.1867 217.964 45.8 219.457 45.8ZM224.428 56V46H225.928V56H224.428ZM224.428 43.74V42H225.928V43.74H224.428ZM235.863 49.02V54.14C235.903 54.6333 236.29 54.9267 237.023 55.02L236.963 56.2C235.91 56.2 235.117 55.9333 234.583 55.4C233.383 55.9333 232.183 56.2 230.983 56.2C230.063 56.2 229.363 55.94 228.883 55.42C228.403 54.9 228.163 54.1533 228.163 53.18C228.163 52.2067 228.41 51.4933 228.903 51.04C229.397 50.5733 230.17 50.2867 231.223 50.18L234.363 49.88V49.02C234.363 48.34 234.217 47.8533 233.923 47.56C233.63 47.2667 233.23 47.12 232.723 47.12C231.657 47.12 230.55 47.1867 229.403 47.32L228.783 47.38L228.723 46.24C230.19 45.9467 231.49 45.8 232.623 45.8C233.757 45.8 234.577 46.06 235.083 46.58C235.603 47.1 235.863 47.9133 235.863 49.02ZM229.703 53.1C229.703 54.3267 230.21 54.94 231.223 54.94C232.13 54.94 233.023 54.7867 233.903 54.48L234.363 54.32V51.02L231.403 51.3C230.803 51.3533 230.37 51.5267 230.103 51.82C229.837 52.1133 229.703 52.54 229.703 53.1ZM241.963 47.14C240.509 47.14 239.783 47.6467 239.783 48.66C239.783 49.1267 239.949 49.46 240.283 49.66C240.616 49.8467 241.376 50.0467 242.563 50.26C243.749 50.46 244.589 50.7467 245.083 51.12C245.576 51.4933 245.823 52.1933 245.823 53.22C245.823 54.2467 245.489 55 244.823 55.48C244.169 55.96 243.209 56.2 241.943 56.2C241.116 56.2 240.143 56.1067 239.023 55.92L238.423 55.82L238.503 54.52C240.023 54.7467 241.169 54.86 241.943 54.86C242.716 54.86 243.303 54.74 243.703 54.5C244.116 54.2467 244.323 53.8333 244.323 53.26C244.323 52.6733 244.149 52.28 243.803 52.08C243.456 51.8667 242.696 51.6667 241.523 51.48C240.349 51.2933 239.516 51.02 239.023 50.66C238.529 50.3 238.283 49.6333 238.283 48.66C238.283 47.6867 238.623 46.9667 239.303 46.5C239.996 46.0333 240.856 45.8 241.883 45.8C242.696 45.8 243.716 45.8933 244.943 46.08L245.503 46.18L245.463 47.46C243.983 47.2467 242.816 47.14 241.963 47.14ZM8.24 78.76L8.82 78.7L8.86 79.88C7.34 80.0933 6.04 80.2 4.96 80.2C3.52 80.2 2.5 79.7867 1.9 78.96C1.3 78.12 1 76.82 1 75.06C1 71.5533 2.39333 69.8 5.18 69.8C6.52667 69.8 7.53333 70.18 8.2 70.94C8.86667 71.6867 9.2 72.8667 9.2 74.48L9.12 75.62H2.52C2.52 76.7267 2.72 77.5467 3.12 78.08C3.52 78.6133 4.21333 78.88 5.2 78.88C6.2 78.88 7.21333 78.84 8.24 78.76ZM7.7 74.42C7.7 73.1933 7.5 72.3267 7.1 71.82C6.71333 71.3133 6.07333 71.06 5.18 71.06C4.3 71.06 3.63333 71.3267 3.18 71.86C2.74 72.3933 2.51333 73.2467 2.5 74.42H7.7ZM13.0377 80H11.5377V70H13.0177V70.7C14.0177 70.1 14.991 69.8 15.9377 69.8C17.1777 69.8 18.0443 70.14 18.5377 70.82C18.9777 70.5533 19.5443 70.32 20.2377 70.12C20.9443 69.9067 21.5643 69.8 22.0977 69.8C23.431 69.8 24.3243 70.16 24.7777 70.88C25.2443 71.5867 25.4777 72.8667 25.4777 74.72V80H23.9777V74.76C23.9777 73.3733 23.8443 72.4267 23.5777 71.92C23.311 71.4 22.7443 71.14 21.8777 71.14C21.4377 71.14 20.9843 71.2067 20.5177 71.34C20.051 71.46 19.691 71.58 19.4377 71.7L19.0577 71.88C19.231 72.32 19.3177 73.2933 19.3177 74.8V80H17.8177V74.84C17.8177 73.4 17.6843 72.4267 17.4177 71.92C17.1643 71.4 16.5977 71.14 15.7177 71.14C15.291 71.14 14.851 71.2067 14.3977 71.34C13.9577 71.46 13.6177 71.58 13.3777 71.7L13.0377 71.88V80ZM36.3909 69.8C36.8309 69.8 37.5776 69.88 38.6309 70.04L39.1109 70.1L39.0509 71.32C37.9843 71.2 37.1976 71.14 36.6909 71.14C35.5576 71.14 34.7843 71.4133 34.3709 71.96C33.9709 72.4933 33.7709 73.4933 33.7709 74.96C33.7709 76.4133 33.9576 77.4267 34.3309 78C34.7176 78.5733 35.5109 78.86 36.7109 78.86L39.0709 78.68L39.1309 79.92C37.8909 80.1067 36.9643 80.2 36.3509 80.2C34.7909 80.2 33.7109 79.8 33.1109 79C32.5243 78.2 32.2309 76.8533 32.2309 74.96C32.2309 73.0533 32.5509 71.72 33.1909 70.96C33.8309 70.1867 34.8976 69.8 36.3909 69.8ZM47.6019 70H49.1019V80H47.6019V79.3C46.6019 79.9 45.6152 80.2 44.6419 80.2C43.2819 80.2 42.3752 79.8467 41.9219 79.14C41.4819 78.4333 41.2619 77.1267 41.2619 75.22V70H42.7619V75.2C42.7619 76.6533 42.8885 77.6267 43.1419 78.12C43.3952 78.6133 43.9685 78.86 44.8619 78.86C45.3019 78.86 45.7485 78.8 46.2019 78.68C46.6552 78.5467 47.0019 78.42 47.2419 78.3L47.6019 78.12V70ZM52.1069 80V65.64H53.6069V80H52.1069ZM61.7958 71.3H58.6158V76.08C58.6158 77.2267 58.6958 77.98 58.8558 78.34C59.0291 78.7 59.4291 78.88 60.0558 78.88L61.8358 78.76L61.9358 80C61.0424 80.1467 60.3624 80.22 59.8958 80.22C58.8558 80.22 58.1358 79.9667 57.7358 79.46C57.3358 78.9533 57.1358 77.9867 57.1358 76.56V71.3H55.7158V70H57.1358V66.94H58.6158V70H61.7958V71.3ZM63.6275 80V70H65.1275V80H63.6275ZM63.6275 67.74V66H65.1275V67.74H63.6275ZM67.0625 70H68.6625L71.0025 78.7H71.7425L74.1625 70H75.7025L72.8825 80H69.8825L67.0625 70ZM77.0156 74.98C77.0156 73.1533 77.3423 71.8333 77.9956 71.02C78.649 70.2067 79.749 69.8 81.2956 69.8C82.8556 69.8 83.9556 70.2067 84.5956 71.02C85.249 71.8333 85.5756 73.1533 85.5756 74.98C85.5756 76.8067 85.269 78.1333 84.6556 78.96C84.0423 79.7867 82.9223 80.2 81.2956 80.2C79.669 80.2 78.549 79.7867 77.9356 78.96C77.3223 78.1333 77.0156 76.8067 77.0156 74.98ZM78.5556 74.96C78.5556 76.4133 78.729 77.4333 79.0756 78.02C79.4356 78.6067 80.1756 78.9 81.2956 78.9C82.429 78.9 83.169 78.6133 83.5156 78.04C83.8623 77.4533 84.0356 76.4267 84.0356 74.96C84.0356 73.4933 83.8423 72.4867 83.4556 71.94C83.069 71.38 82.349 71.1 81.2956 71.1C80.2556 71.1 79.5356 71.38 79.1356 71.94C78.749 72.4867 78.5556 73.4933 78.5556 74.96ZM99.2166 78.76L99.7966 78.7L99.8366 79.88C98.3166 80.0933 97.0166 80.2 95.9366 80.2C94.4966 80.2 93.4766 79.7867 92.8766 78.96C92.2766 78.12 91.9766 76.82 91.9766 75.06C91.9766 71.5533 93.3699 69.8 96.1566 69.8C97.5032 69.8 98.5099 70.18 99.1766 70.94C99.8432 71.6867 100.177 72.8667 100.177 74.48L100.097 75.62H93.4966C93.4966 76.7267 93.6966 77.5467 94.0966 78.08C94.4966 78.6133 95.1899 78.88 96.1766 78.88C97.1766 78.88 98.1899 78.84 99.2166 78.76ZM98.6766 74.42C98.6766 73.1933 98.4766 72.3267 98.0766 71.82C97.6899 71.3133 97.0499 71.06 96.1566 71.06C95.2766 71.06 94.6099 71.3267 94.1566 71.86C93.7166 72.3933 93.4899 73.2467 93.4766 74.42H98.6766ZM108.409 80H106.909V70H108.389V70.7C109.389 70.1 110.362 69.8 111.309 69.8C112.549 69.8 113.415 70.14 113.909 70.82C114.349 70.5533 114.915 70.32 115.609 70.12C116.315 69.9067 116.935 69.8 117.469 69.8C118.802 69.8 119.695 70.16 120.149 70.88C120.615 71.5867 120.849 72.8667 120.849 74.72V80H119.349V74.76C119.349 73.3733 119.215 72.4267 118.949 71.92C118.682 71.4 118.115 71.14 117.249 71.14C116.809 71.14 116.355 71.2067 115.889 71.34C115.422 71.46 115.062 71.58 114.809 71.7L114.429 71.88C114.602 72.32 114.689 73.2933 114.689 74.8V80H113.189V74.84C113.189 73.4 113.055 72.4267 112.789 71.92C112.535 71.4 111.969 71.14 111.089 71.14C110.662 71.14 110.222 71.2067 109.769 71.34C109.329 71.46 108.989 71.58 108.749 71.7L108.409 71.88V80ZM130.688 73.02V78.14C130.728 78.6333 131.114 78.9267 131.848 79.02L131.788 80.2C130.734 80.2 129.941 79.9333 129.408 79.4C128.208 79.9333 127.008 80.2 125.808 80.2C124.888 80.2 124.188 79.94 123.708 79.42C123.228 78.9 122.988 78.1533 122.988 77.18C122.988 76.2067 123.234 75.4933 123.728 75.04C124.221 74.5733 124.994 74.2867 126.048 74.18L129.188 73.88V73.02C129.188 72.34 129.041 71.8533 128.748 71.56C128.454 71.2667 128.054 71.12 127.548 71.12C126.481 71.12 125.374 71.1867 124.228 71.32L123.608 71.38L123.548 70.24C125.014 69.9467 126.314 69.8 127.448 69.8C128.581 69.8 129.401 70.06 129.908 70.58C130.428 71.1 130.688 71.9133 130.688 73.02ZM124.528 77.1C124.528 78.3267 125.034 78.94 126.048 78.94C126.954 78.94 127.848 78.7867 128.728 78.48L129.188 78.32V75.02L126.228 75.3C125.628 75.3533 125.194 75.5267 124.928 75.82C124.661 76.1133 124.528 76.54 124.528 77.1ZM138.827 71.3H135.647V76.08C135.647 77.2267 135.727 77.98 135.887 78.34C136.06 78.7 136.46 78.88 137.087 78.88L138.867 78.76L138.967 80C138.074 80.1467 137.394 80.22 136.927 80.22C135.887 80.22 135.167 79.9667 134.767 79.46C134.367 78.9533 134.167 77.9867 134.167 76.56V71.3H132.747V70H134.167V66.94H135.647V70H138.827V71.3ZM147.459 78.76L148.039 78.7L148.079 79.88C146.559 80.0933 145.259 80.2 144.179 80.2C142.739 80.2 141.719 79.7867 141.119 78.96C140.519 78.12 140.219 76.82 140.219 75.06C140.219 71.5533 141.612 69.8 144.399 69.8C145.745 69.8 146.752 70.18 147.419 70.94C148.085 71.6867 148.419 72.8667 148.419 74.48L148.339 75.62H141.739C141.739 76.7267 141.939 77.5467 142.339 78.08C142.739 78.6133 143.432 78.88 144.419 78.88C145.419 78.88 146.432 78.84 147.459 78.76ZM146.919 74.42C146.919 73.1933 146.719 72.3267 146.319 71.82C145.932 71.3133 145.292 71.06 144.399 71.06C143.519 71.06 142.852 71.3267 142.399 71.86C141.959 72.3933 141.732 73.2467 141.719 74.42H146.919ZM150.756 80V70H152.236V71.36C153.396 70.56 154.616 70.0333 155.896 69.78V71.3C155.336 71.4067 154.75 71.5733 154.136 71.8C153.536 72.0267 153.076 72.2267 152.756 72.4L152.256 72.66V80H150.756ZM157.67 80V70H159.17V80H157.67ZM157.67 67.74V66H159.17V67.74H157.67ZM169.105 73.02V78.14C169.145 78.6333 169.532 78.9267 170.265 79.02L170.205 80.2C169.152 80.2 168.359 79.9333 167.825 79.4C166.625 79.9333 165.425 80.2 164.225 80.2C163.305 80.2 162.605 79.94 162.125 79.42C161.645 78.9 161.405 78.1533 161.405 77.18C161.405 76.2067 161.652 75.4933 162.145 75.04C162.639 74.5733 163.412 74.2867 164.465 74.18L167.605 73.88V73.02C167.605 72.34 167.459 71.8533 167.165 71.56C166.872 71.2667 166.472 71.12 165.965 71.12C164.899 71.12 163.792 71.1867 162.645 71.32L162.025 71.38L161.965 70.24C163.432 69.9467 164.732 69.8 165.865 69.8C166.999 69.8 167.819 70.06 168.325 70.58C168.845 71.1 169.105 71.9133 169.105 73.02ZM162.945 77.1C162.945 78.3267 163.452 78.94 164.465 78.94C165.372 78.94 166.265 78.7867 167.145 78.48L167.605 78.32V75.02L164.645 75.3C164.045 75.3533 163.612 75.5267 163.345 75.82C163.079 76.1133 162.945 76.54 162.945 77.1ZM172.185 80V65.64H173.685V80H172.185ZM180.148 70H181.748L184.088 78.7H184.828L187.248 70H188.788L185.968 80H182.968L180.148 70ZM197.342 78.76L197.922 78.7L197.962 79.88C196.442 80.0933 195.142 80.2 194.062 80.2C192.622 80.2 191.602 79.7867 191.002 78.96C190.402 78.12 190.102 76.82 190.102 75.06C190.102 71.5533 191.495 69.8 194.282 69.8C195.628 69.8 196.635 70.18 197.302 70.94C197.968 71.6867 198.302 72.8667 198.302 74.48L198.222 75.62H191.622C191.622 76.7267 191.822 77.5467 192.222 78.08C192.622 78.6133 193.315 78.88 194.302 78.88C195.302 78.88 196.315 78.84 197.342 78.76ZM196.802 74.42C196.802 73.1933 196.602 72.3267 196.202 71.82C195.815 71.3133 195.175 71.06 194.282 71.06C193.402 71.06 192.735 71.3267 192.282 71.86C191.842 72.3933 191.615 73.2467 191.602 74.42H196.802ZM204.499 84.7C202.899 84.7 201.779 84.48 201.139 84.04C200.513 83.6133 200.199 82.8267 200.199 81.68C200.199 81.1333 200.319 80.6867 200.559 80.34C200.799 80.0067 201.206 79.6267 201.779 79.2C201.406 78.9467 201.219 78.4867 201.219 77.82C201.219 77.5933 201.386 77.1733 201.719 76.56L201.899 76.24C200.846 75.76 200.319 74.7533 200.319 73.22C200.319 70.94 201.566 69.8 204.059 69.8C204.699 69.8 205.293 69.8667 205.839 70L206.139 70.06L209.099 69.98V71.26L207.199 71.22C207.639 71.66 207.859 72.3267 207.859 73.22C207.859 74.4733 207.546 75.3533 206.919 75.86C206.306 76.3533 205.333 76.6 203.999 76.6C203.639 76.6 203.313 76.5733 203.019 76.52C202.779 77.1067 202.659 77.4867 202.659 77.66C202.659 78.0733 202.786 78.3333 203.039 78.44C203.293 78.5333 204.059 78.58 205.339 78.58C206.619 78.58 207.539 78.78 208.099 79.18C208.659 79.58 208.939 80.36 208.939 81.52C208.939 83.64 207.459 84.7 204.499 84.7ZM201.679 81.56C201.679 82.2667 201.873 82.7533 202.259 83.02C202.659 83.3 203.386 83.44 204.439 83.44C205.506 83.44 206.266 83.2933 206.719 83C207.186 82.7067 207.419 82.2133 207.419 81.52C207.419 80.84 207.253 80.4 206.919 80.2C206.586 80 205.933 79.9 204.959 79.9L202.799 79.8C202.359 80.12 202.059 80.4 201.899 80.64C201.753 80.88 201.679 81.1867 201.679 81.56ZM201.819 73.22C201.819 74.0067 201.993 74.5667 202.339 74.9C202.699 75.2333 203.286 75.4 204.099 75.4C204.913 75.4 205.493 75.2333 205.839 74.9C206.186 74.5667 206.359 74.0067 206.359 73.22C206.359 72.42 206.186 71.8533 205.839 71.52C205.493 71.1867 204.913 71.02 204.099 71.02C203.286 71.02 202.699 71.1933 202.339 71.54C201.993 71.8733 201.819 72.4333 201.819 73.22ZM217.713 78.76L218.293 78.7L218.333 79.88C216.813 80.0933 215.513 80.2 214.433 80.2C212.993 80.2 211.973 79.7867 211.373 78.96C210.773 78.12 210.473 76.82 210.473 75.06C210.473 71.5533 211.866 69.8 214.653 69.8C215.999 69.8 217.006 70.18 217.673 70.94C218.339 71.6867 218.673 72.8667 218.673 74.48L218.593 75.62H211.993C211.993 76.7267 212.193 77.5467 212.593 78.08C212.993 78.6133 213.686 78.88 214.673 78.88C215.673 78.88 216.686 78.84 217.713 78.76ZM217.173 74.42C217.173 73.1933 216.973 72.3267 216.573 71.82C216.186 71.3133 215.546 71.06 214.653 71.06C213.773 71.06 213.106 71.3267 212.653 71.86C212.213 72.3933 211.986 73.2467 211.973 74.42H217.173ZM226.132 71.3H222.952V76.08C222.952 77.2267 223.032 77.98 223.192 78.34C223.365 78.7 223.765 78.88 224.392 78.88L226.172 78.76L226.272 80C225.378 80.1467 224.698 80.22 224.232 80.22C223.192 80.22 222.472 79.9667 222.072 79.46C221.672 78.9533 221.472 77.9867 221.472 76.56V71.3H220.052V70H221.472V66.94H222.952V70H226.132V71.3ZM235.023 73.02V78.14C235.063 78.6333 235.45 78.9267 236.183 79.02L236.123 80.2C235.07 80.2 234.277 79.9333 233.743 79.4C232.543 79.9333 231.343 80.2 230.143 80.2C229.223 80.2 228.523 79.94 228.043 79.42C227.563 78.9 227.323 78.1533 227.323 77.18C227.323 76.2067 227.57 75.4933 228.063 75.04C228.557 74.5733 229.33 74.2867 230.383 74.18L233.523 73.88V73.02C233.523 72.34 233.377 71.8533 233.083 71.56C232.79 71.2667 232.39 71.12 231.883 71.12C230.817 71.12 229.71 71.1867 228.563 71.32L227.943 71.38L227.883 70.24C229.35 69.9467 230.65 69.8 231.783 69.8C232.917 69.8 233.737 70.06 234.243 70.58C234.763 71.1 235.023 71.9133 235.023 73.02ZM228.863 77.1C228.863 78.3267 229.37 78.94 230.383 78.94C231.29 78.94 232.183 78.7867 233.063 78.48L233.523 78.32V75.02L230.563 75.3C229.963 75.3533 229.53 75.5267 229.263 75.82C228.997 76.1133 228.863 76.54 228.863 77.1ZM238.103 80V65.64H239.603V80H238.103ZM241.852 82.46L242.772 77.86H244.432L243.092 82.46H241.852ZM1.44 108.44V94H2.92V94.72C3.93333 94.1067 4.93333 93.8 5.92 93.8C7.18667 93.8 8.10667 94.2067 8.68 95.02C9.25333 95.82 9.54 97.1467 9.54 99C9.54 100.853 9.2 102.187 8.52 103C7.85333 103.8 6.74 104.2 5.18 104.2C4.36667 104.2 3.62 104.127 2.94 103.98V108.44H1.44ZM5.7 95.14C5.3 95.14 4.86667 95.2067 4.4 95.34C3.94667 95.4733 3.58667 95.6067 3.32 95.74L2.94 95.94V102.68C3.88667 102.827 4.60667 102.9 5.1 102.9C6.18 102.9 6.93333 102.593 7.36 101.98C7.8 101.367 8.02 100.367 8.02 98.98C8.02 97.5933 7.82 96.6067 7.42 96.02C7.03333 95.4333 6.46 95.14 5.7 95.14ZM19.0469 97.02V102.14C19.0869 102.633 19.4735 102.927 20.2069 103.02L20.1469 104.2C19.0935 104.2 18.3002 103.933 17.7669 103.4C16.5669 103.933 15.3669 104.2 14.1669 104.2C13.2469 104.2 12.5469 103.94 12.0669 103.42C11.5869 102.9 11.3469 102.153 11.3469 101.18C11.3469 100.207 11.5935 99.4933 12.0869 99.04C12.5802 98.5733 13.3535 98.2867 14.4069 98.18L17.5469 97.88V97.02C17.5469 96.34 17.4002 95.8533 17.1069 95.56C16.8135 95.2667 16.4135 95.12 15.9069 95.12C14.8402 95.12 13.7335 95.1867 12.5869 95.32L11.9669 95.38L11.9069 94.24C13.3735 93.9467 14.6735 93.8 15.8069 93.8C16.9402 93.8 17.7602 94.06 18.2669 94.58C18.7869 95.1 19.0469 95.9133 19.0469 97.02ZM12.8869 101.1C12.8869 102.327 13.3935 102.94 14.4069 102.94C15.3135 102.94 16.2069 102.787 17.0869 102.48L17.5469 102.32V99.02L14.5869 99.3C13.9869 99.3533 13.5535 99.5267 13.2869 99.82C13.0202 100.113 12.8869 100.54 12.8869 101.1ZM22.0064 104V94H23.4864V95.36C24.6464 94.56 25.8664 94.0333 27.1464 93.78V95.3C26.5864 95.4067 25.9997 95.5733 25.3864 95.8C24.7864 96.0267 24.3264 96.2267 24.0064 96.4L23.5064 96.66V104H22.0064ZM35.5252 102.76L36.1052 102.7L36.1452 103.88C34.6252 104.093 33.3252 104.2 32.2452 104.2C30.8052 104.2 29.7852 103.787 29.1852 102.96C28.5852 102.12 28.2852 100.82 28.2852 99.06C28.2852 95.5533 29.6785 93.8 32.4652 93.8C33.8118 93.8 34.8185 94.18 35.4852 94.94C36.1518 95.6867 36.4852 96.8667 36.4852 98.48L36.4052 99.62H29.8052C29.8052 100.727 30.0052 101.547 30.4052 102.08C30.8052 102.613 31.4985 102.88 32.4852 102.88C33.4852 102.88 34.4985 102.84 35.5252 102.76ZM34.9852 98.42C34.9852 97.1933 34.7852 96.3267 34.3852 95.82C33.9985 95.3133 33.3585 95.06 32.4652 95.06C31.5852 95.06 30.9185 95.3267 30.4652 95.86C30.0252 96.3933 29.7985 97.2467 29.7852 98.42H34.9852ZM42.5628 93.8C43.0028 93.8 43.7495 93.88 44.8028 94.04L45.2828 94.1L45.2228 95.32C44.1561 95.2 43.3695 95.14 42.8628 95.14C41.7295 95.14 40.9561 95.4133 40.5428 95.96C40.1428 96.4933 39.9428 97.4933 39.9428 98.96C39.9428 100.413 40.1295 101.427 40.5028 102C40.8895 102.573 41.6828 102.86 42.8828 102.86L45.2428 102.68L45.3028 103.92C44.0628 104.107 43.1361 104.2 42.5228 104.2C40.9628 104.2 39.8828 103.8 39.2828 103C38.6961 102.2 38.4028 100.853 38.4028 98.96C38.4028 97.0533 38.7228 95.72 39.3628 94.96C40.0028 94.1867 41.0695 93.8 42.5628 93.8ZM54.2166 102.76L54.7966 102.7L54.8366 103.88C53.3166 104.093 52.0166 104.2 50.9366 104.2C49.4966 104.2 48.4766 103.787 47.8766 102.96C47.2766 102.12 46.9766 100.82 46.9766 99.06C46.9766 95.5533 48.3699 93.8 51.1566 93.8C52.5032 93.8 53.5099 94.18 54.1766 94.94C54.8432 95.6867 55.1766 96.8667 55.1766 98.48L55.0966 99.62H48.4966C48.4966 100.727 48.6966 101.547 49.0966 102.08C49.4966 102.613 50.1899 102.88 51.1766 102.88C52.1766 102.88 53.1899 102.84 54.2166 102.76ZM53.6766 98.42C53.6766 97.1933 53.4766 96.3267 53.0766 95.82C52.6899 95.3133 52.0499 95.06 51.1566 95.06C50.2766 95.06 49.6099 95.3267 49.1566 95.86C48.7166 96.3933 48.4899 97.2467 48.4766 98.42H53.6766ZM57.5142 104V94H58.9942V95.36C60.1542 94.56 61.3742 94.0333 62.6542 93.78V95.3C62.0942 95.4067 61.5076 95.5733 60.8942 95.8C60.2942 96.0267 59.8342 96.2267 59.5142 96.4L59.0142 96.66V104H57.5142ZM71.033 102.76L71.613 102.7L71.653 103.88C70.133 104.093 68.833 104.2 67.753 104.2C66.313 104.2 65.293 103.787 64.693 102.96C64.093 102.12 63.793 100.82 63.793 99.06C63.793 95.5533 65.1863 93.8 67.973 93.8C69.3196 93.8 70.3263 94.18 70.993 94.94C71.6596 95.6867 71.993 96.8667 71.993 98.48L71.913 99.62H65.313C65.313 100.727 65.513 101.547 65.913 102.08C66.313 102.613 67.0063 102.88 67.993 102.88C68.993 102.88 70.0063 102.84 71.033 102.76ZM70.493 98.42C70.493 97.1933 70.293 96.3267 69.893 95.82C69.5063 95.3133 68.8663 95.06 67.973 95.06C67.093 95.06 66.4263 95.3267 65.973 95.86C65.533 96.3933 65.3063 97.2467 65.293 98.42H70.493ZM77.4706 95.14C76.0173 95.14 75.2906 95.6467 75.2906 96.66C75.2906 97.1267 75.4573 97.46 75.7906 97.66C76.124 97.8467 76.884 98.0467 78.0706 98.26C79.2573 98.46 80.0973 98.7467 80.5906 99.12C81.084 99.4933 81.3306 100.193 81.3306 101.22C81.3306 102.247 80.9973 103 80.3306 103.48C79.6773 103.96 78.7173 104.2 77.4506 104.2C76.624 104.2 75.6506 104.107 74.5306 103.92L73.9306 103.82L74.0106 102.52C75.5306 102.747 76.6773 102.86 77.4506 102.86C78.224 102.86 78.8106 102.74 79.2106 102.5C79.624 102.247 79.8306 101.833 79.8306 101.26C79.8306 100.673 79.6573 100.28 79.3106 100.08C78.964 99.8667 78.204 99.6667 77.0306 99.48C75.8573 99.2933 75.024 99.02 74.5306 98.66C74.0373 98.3 73.7906 97.6333 73.7906 96.66C73.7906 95.6867 74.1306 94.9667 74.8106 94.5C75.504 94.0333 76.364 93.8 77.3906 93.8C78.204 93.8 79.224 93.8933 80.4506 94.08L81.0106 94.18L80.9706 95.46C79.4906 95.2467 78.324 95.14 77.4706 95.14ZM93.202 95.3H90.022V100.08C90.022 101.227 90.102 101.98 90.262 102.34C90.4354 102.7 90.8354 102.88 91.462 102.88L93.242 102.76L93.342 104C92.4487 104.147 91.7687 104.22 91.302 104.22C90.262 104.22 89.542 103.967 89.142 103.46C88.742 102.953 88.542 101.987 88.542 100.56V95.3H87.122V94H88.542V90.94H90.022V94H93.202V95.3ZM101.834 102.76L102.414 102.7L102.454 103.88C100.934 104.093 99.6338 104.2 98.5538 104.2C97.1138 104.2 96.0938 103.787 95.4938 102.96C94.8938 102.12 94.5938 100.82 94.5938 99.06C94.5938 95.5533 95.9871 93.8 98.7738 93.8C100.12 93.8 101.127 94.18 101.794 94.94C102.46 95.6867 102.794 96.8667 102.794 98.48L102.714 99.62H96.1138C96.1138 100.727 96.3138 101.547 96.7138 102.08C97.1138 102.613 97.8071 102.88 98.7938 102.88C99.7938 102.88 100.807 102.84 101.834 102.76ZM101.294 98.42C101.294 97.1933 101.094 96.3267 100.694 95.82C100.307 95.3133 99.6671 95.06 98.7738 95.06C97.8938 95.06 97.2271 95.3267 96.7738 95.86C96.3338 96.3933 96.1071 97.2467 96.0938 98.42H101.294ZM96.4938 91.16L100.814 89.2L101.334 90.48L96.9138 92.18L96.4938 91.16ZM108.871 93.8C109.311 93.8 110.058 93.88 111.111 94.04L111.591 94.1L111.531 95.32C110.465 95.2 109.678 95.14 109.171 95.14C108.038 95.14 107.265 95.4133 106.851 95.96C106.451 96.4933 106.251 97.4933 106.251 98.96C106.251 100.413 106.438 101.427 106.811 102C107.198 102.573 107.991 102.86 109.191 102.86L111.551 102.68L111.611 103.92C110.371 104.107 109.445 104.2 108.831 104.2C107.271 104.2 106.191 103.8 105.591 103C105.005 102.2 104.711 100.853 104.711 98.96C104.711 97.0533 105.031 95.72 105.671 94.96C106.311 94.1867 107.378 93.8 108.871 93.8ZM115.342 104H113.842V94H115.322V94.7C116.402 94.1 117.436 93.8 118.422 93.8C119.756 93.8 120.649 94.16 121.102 94.88C121.569 95.6 121.802 96.88 121.802 98.72V104H120.322V98.76C120.322 97.3733 120.182 96.4267 119.902 95.92C119.636 95.4 119.056 95.14 118.162 95.14C117.736 95.14 117.282 95.2067 116.802 95.34C116.336 95.46 115.976 95.58 115.722 95.7L115.342 95.88V104ZM124.585 104V94H126.085V104H124.585ZM124.585 91.74V90H126.085V91.74H124.585ZM132.7 93.8C133.14 93.8 133.886 93.88 134.94 94.04L135.42 94.1L135.36 95.32C134.293 95.2 133.506 95.14 133 95.14C131.866 95.14 131.093 95.4133 130.68 95.96C130.28 96.4933 130.08 97.4933 130.08 98.96C130.08 100.413 130.266 101.427 130.64 102C131.026 102.573 131.82 102.86 133.02 102.86L135.38 102.68L135.44 103.92C134.2 104.107 133.273 104.2 132.66 104.2C131.1 104.2 130.02 103.8 129.42 103C128.833 102.2 128.54 100.853 128.54 98.96C128.54 97.0533 128.86 95.72 129.5 94.96C130.14 94.1867 131.206 93.8 132.7 93.8ZM137.113 98.98C137.113 97.1533 137.44 95.8333 138.093 95.02C138.747 94.2067 139.847 93.8 141.393 93.8C142.953 93.8 144.053 94.2067 144.693 95.02C145.347 95.8333 145.673 97.1533 145.673 98.98C145.673 100.807 145.367 102.133 144.753 102.96C144.14 103.787 143.02 104.2 141.393 104.2C139.767 104.2 138.647 103.787 138.033 102.96C137.42 102.133 137.113 100.807 137.113 98.98ZM138.653 98.96C138.653 100.413 138.827 101.433 139.173 102.02C139.533 102.607 140.273 102.9 141.393 102.9C142.527 102.9 143.267 102.613 143.613 102.04C143.96 101.453 144.133 100.427 144.133 98.96C144.133 97.4933 143.94 96.4867 143.553 95.94C143.167 95.38 142.447 95.1 141.393 95.1C140.353 95.1 139.633 95.38 139.233 95.94C138.847 96.4867 138.653 97.4933 138.653 98.96ZM151.26 95.14C149.806 95.14 149.08 95.6467 149.08 96.66C149.08 97.1267 149.246 97.46 149.58 97.66C149.913 97.8467 150.673 98.0467 151.86 98.26C153.046 98.46 153.886 98.7467 154.38 99.12C154.873 99.4933 155.12 100.193 155.12 101.22C155.12 102.247 154.786 103 154.12 103.48C153.466 103.96 152.506 104.2 151.24 104.2C150.413 104.2 149.44 104.107 148.32 103.92L147.72 103.82L147.8 102.52C149.32 102.747 150.466 102.86 151.24 102.86C152.013 102.86 152.6 102.74 153 102.5C153.413 102.247 153.62 101.833 153.62 101.26C153.62 100.673 153.446 100.28 153.1 100.08C152.753 99.8667 151.993 99.6667 150.82 99.48C149.646 99.2933 148.813 99.02 148.32 98.66C147.826 98.3 147.58 97.6333 147.58 96.66C147.58 95.6867 147.92 94.9667 148.6 94.5C149.293 94.0333 150.153 93.8 151.18 93.8C151.993 93.8 153.013 93.8933 154.24 94.08L154.8 94.18L154.76 95.46C153.28 95.2467 152.113 95.14 151.26 95.14ZM168.611 102.76L169.191 102.7L169.231 103.88C167.711 104.093 166.411 104.2 165.331 104.2C163.891 104.2 162.871 103.787 162.271 102.96C161.671 102.12 161.371 100.82 161.371 99.06C161.371 95.5533 162.764 93.8 165.551 93.8C166.898 93.8 167.904 94.18 168.571 94.94C169.238 95.6867 169.571 96.8667 169.571 98.48L169.491 99.62H162.891C162.891 100.727 163.091 101.547 163.491 102.08C163.891 102.613 164.584 102.88 165.571 102.88C166.571 102.88 167.584 102.84 168.611 102.76ZM168.071 98.42C168.071 97.1933 167.871 96.3267 167.471 95.82C167.084 95.3133 166.444 95.06 165.551 95.06C164.671 95.06 164.004 95.3267 163.551 95.86C163.111 96.3933 162.884 97.2467 162.871 98.42H168.071ZM183.363 97.02V102.14C183.403 102.633 183.79 102.927 184.523 103.02L184.463 104.2C183.41 104.2 182.617 103.933 182.083 103.4C180.883 103.933 179.683 104.2 178.483 104.2C177.563 104.2 176.863 103.94 176.383 103.42C175.903 102.9 175.663 102.153 175.663 101.18C175.663 100.207 175.91 99.4933 176.403 99.04C176.897 98.5733 177.67 98.2867 178.723 98.18L181.863 97.88V97.02C181.863 96.34 181.717 95.8533 181.423 95.56C181.13 95.2667 180.73 95.12 180.223 95.12C179.157 95.12 178.05 95.1867 176.903 95.32L176.283 95.38L176.223 94.24C177.69 93.9467 178.99 93.8 180.123 93.8C181.257 93.8 182.077 94.06 182.583 94.58C183.103 95.1 183.363 95.9133 183.363 97.02ZM177.203 101.1C177.203 102.327 177.71 102.94 178.723 102.94C179.63 102.94 180.523 102.787 181.403 102.48L181.863 102.32V99.02L178.903 99.3C178.303 99.3533 177.87 99.5267 177.603 99.82C177.337 100.113 177.203 100.54 177.203 101.1ZM189.463 95.14C188.009 95.14 187.283 95.6467 187.283 96.66C187.283 97.1267 187.449 97.46 187.783 97.66C188.116 97.8467 188.876 98.0467 190.063 98.26C191.249 98.46 192.089 98.7467 192.583 99.12C193.076 99.4933 193.323 100.193 193.323 101.22C193.323 102.247 192.989 103 192.323 103.48C191.669 103.96 190.709 104.2 189.443 104.2C188.616 104.2 187.643 104.107 186.523 103.92L185.923 103.82L186.003 102.52C187.523 102.747 188.669 102.86 189.443 102.86C190.216 102.86 190.803 102.74 191.203 102.5C191.616 102.247 191.823 101.833 191.823 101.26C191.823 100.673 191.649 100.28 191.303 100.08C190.956 99.8667 190.196 99.6667 189.023 99.48C187.849 99.2933 187.016 99.02 186.523 98.66C186.029 98.3 185.783 97.6333 185.783 96.66C185.783 95.6867 186.123 94.9667 186.803 94.5C187.496 94.0333 188.356 93.8 189.383 93.8C190.196 93.8 191.216 93.8933 192.443 94.08L193.003 94.18L192.963 95.46C191.483 95.2467 190.316 95.14 189.463 95.14ZM198.76 95.14C197.306 95.14 196.58 95.6467 196.58 96.66C196.58 97.1267 196.746 97.46 197.08 97.66C197.413 97.8467 198.173 98.0467 199.36 98.26C200.546 98.46 201.386 98.7467 201.88 99.12C202.373 99.4933 202.62 100.193 202.62 101.22C202.62 102.247 202.286 103 201.62 103.48C200.966 103.96 200.006 104.2 198.74 104.2C197.913 104.2 196.94 104.107 195.82 103.92L195.22 103.82L195.3 102.52C196.82 102.747 197.966 102.86 198.74 102.86C199.513 102.86 200.1 102.74 200.5 102.5C200.913 102.247 201.12 101.833 201.12 101.26C201.12 100.673 200.946 100.28 200.6 100.08C200.253 99.8667 199.493 99.6667 198.32 99.48C197.146 99.2933 196.313 99.02 195.82 98.66C195.326 98.3 195.08 97.6333 195.08 96.66C195.08 95.6867 195.42 94.9667 196.1 94.5C196.793 94.0333 197.653 93.8 198.68 93.8C199.493 93.8 200.513 93.8933 201.74 94.08L202.3 94.18L202.26 95.46C200.78 95.2467 199.613 95.14 198.76 95.14ZM204.917 104V94H206.417V104H204.917ZM204.917 91.74V90H206.417V91.74H204.917ZM212.432 95.14C210.978 95.14 210.252 95.6467 210.252 96.66C210.252 97.1267 210.418 97.46 210.752 97.66C211.085 97.8467 211.845 98.0467 213.032 98.26C214.218 98.46 215.058 98.7467 215.552 99.12C216.045 99.4933 216.292 100.193 216.292 101.22C216.292 102.247 215.958 103 215.292 103.48C214.638 103.96 213.678 104.2 212.412 104.2C211.585 104.2 210.612 104.107 209.492 103.92L208.892 103.82L208.972 102.52C210.492 102.747 211.638 102.86 212.412 102.86C213.185 102.86 213.772 102.74 214.172 102.5C214.585 102.247 214.792 101.833 214.792 101.26C214.792 100.673 214.618 100.28 214.272 100.08C213.925 99.8667 213.165 99.6667 211.992 99.48C210.818 99.2933 209.985 99.02 209.492 98.66C208.998 98.3 208.752 97.6333 208.752 96.66C208.752 95.6867 209.092 94.9667 209.772 94.5C210.465 94.0333 211.325 93.8 212.352 93.8C213.165 93.8 214.185 93.8933 215.412 94.08L215.972 94.18L215.932 95.46C214.452 95.2467 213.285 95.14 212.432 95.14ZM223.768 95.3H220.588V100.08C220.588 101.227 220.668 101.98 220.828 102.34C221.002 102.7 221.402 102.88 222.028 102.88L223.808 102.76L223.908 104C223.015 104.147 222.335 104.22 221.868 104.22C220.828 104.22 220.108 103.967 219.708 103.46C219.308 102.953 219.108 101.987 219.108 100.56V95.3H217.688V94H219.108V90.94H220.588V94H223.768V95.3ZM232.4 102.76L232.98 102.7L233.02 103.88C231.5 104.093 230.2 104.2 229.12 104.2C227.68 104.2 226.66 103.787 226.06 102.96C225.46 102.12 225.16 100.82 225.16 99.06C225.16 95.5533 226.553 93.8 229.34 93.8C230.687 93.8 231.693 94.18 232.36 94.94C233.027 95.6867 233.36 96.8667 233.36 98.48L233.28 99.62H226.68C226.68 100.727 226.88 101.547 227.28 102.08C227.68 102.613 228.373 102.88 229.36 102.88C230.36 102.88 231.373 102.84 232.4 102.76ZM231.86 98.42C231.86 97.1933 231.66 96.3267 231.26 95.82C230.873 95.3133 230.233 95.06 229.34 95.06C228.46 95.06 227.793 95.3267 227.34 95.86C226.9 96.3933 226.673 97.2467 226.66 98.42H231.86ZM226.4 92.16L228.86 89.36H229.88L232.36 92.16H230.86L229.4 90.42L227.9 92.16H226.4ZM237.198 104H235.698V94H237.178V94.7C238.258 94.1 239.291 93.8 240.278 93.8C241.611 93.8 242.504 94.16 242.958 94.88C243.424 95.6 243.658 96.88 243.658 98.72V104H242.178V98.76C242.178 97.3733 242.038 96.4267 241.758 95.92C241.491 95.4 240.911 95.14 240.018 95.14C239.591 95.14 239.138 95.2067 238.658 95.34C238.191 95.46 237.831 95.58 237.578 95.7L237.198 95.88V104ZM250.18 93.8C250.62 93.8 251.367 93.88 252.42 94.04L252.9 94.1L252.84 95.32C251.773 95.2 250.987 95.14 250.48 95.14C249.347 95.14 248.573 95.4133 248.16 95.96C247.76 96.4933 247.56 97.4933 247.56 98.96C247.56 100.413 247.747 101.427 248.12 102C248.507 102.573 249.3 102.86 250.5 102.86L252.86 102.68L252.92 103.92C251.68 104.107 250.753 104.2 250.14 104.2C248.58 104.2 247.5 103.8 246.9 103C246.313 102.2 246.02 100.853 246.02 98.96C246.02 97.0533 246.34 95.72 246.98 94.96C247.62 94.1867 248.687 93.8 250.18 93.8ZM255.151 104V94H256.651V104H255.151ZM255.151 91.74V90H256.651V91.74H255.151ZM266.586 97.02V102.14C266.626 102.633 267.013 102.927 267.746 103.02L267.686 104.2C266.633 104.2 265.839 103.933 265.306 103.4C264.106 103.933 262.906 104.2 261.706 104.2C260.786 104.2 260.086 103.94 259.606 103.42C259.126 102.9 258.886 102.153 258.886 101.18C258.886 100.207 259.133 99.4933 259.626 99.04C260.119 98.5733 260.893 98.2867 261.946 98.18L265.086 97.88V97.02C265.086 96.34 264.939 95.8533 264.646 95.56C264.353 95.2667 263.953 95.12 263.446 95.12C262.379 95.12 261.273 95.1867 260.126 95.32L259.506 95.38L259.446 94.24C260.913 93.9467 262.213 93.8 263.346 93.8C264.479 93.8 265.299 94.06 265.806 94.58C266.326 95.1 266.586 95.9133 266.586 97.02ZM260.426 101.1C260.426 102.327 260.933 102.94 261.946 102.94C262.853 102.94 263.746 102.787 264.626 102.48L265.086 102.32V99.02L262.126 99.3C261.526 99.3533 261.093 99.5267 260.826 99.82C260.559 100.113 260.426 100.54 260.426 101.1ZM8.24 126.76L8.82 126.7L8.86 127.88C7.34 128.093 6.04 128.2 4.96 128.2C3.52 128.2 2.5 127.787 1.9 126.96C1.3 126.12 1 124.82 1 123.06C1 119.553 2.39333 117.8 5.18 117.8C6.52667 117.8 7.53333 118.18 8.2 118.94C8.86667 119.687 9.2 120.867 9.2 122.48L9.12 123.62H2.52C2.52 124.727 2.72 125.547 3.12 126.08C3.52 126.613 4.21333 126.88 5.2 126.88C6.2 126.88 7.21333 126.84 8.24 126.76ZM7.7 122.42C7.7 121.193 7.5 120.327 7.1 119.82C6.71333 119.313 6.07333 119.06 5.18 119.06C4.3 119.06 3.63333 119.327 3.18 119.86C2.74 120.393 2.51333 121.247 2.5 122.42H7.7ZM14.6777 119.14C13.2243 119.14 12.4977 119.647 12.4977 120.66C12.4977 121.127 12.6643 121.46 12.9977 121.66C13.331 121.847 14.091 122.047 15.2777 122.26C16.4643 122.46 17.3043 122.747 17.7977 123.12C18.291 123.493 18.5377 124.193 18.5377 125.22C18.5377 126.247 18.2043 127 17.5377 127.48C16.8843 127.96 15.9243 128.2 14.6577 128.2C13.831 128.2 12.8577 128.107 11.7377 127.92L11.1377 127.82L11.2177 126.52C12.7377 126.747 13.8843 126.86 14.6577 126.86C15.431 126.86 16.0177 126.74 16.4177 126.5C16.831 126.247 17.0377 125.833 17.0377 125.26C17.0377 124.673 16.8643 124.28 16.5177 124.08C16.171 123.867 15.411 123.667 14.2377 123.48C13.0643 123.293 12.231 123.02 11.7377 122.66C11.2443 122.3 10.9977 121.633 10.9977 120.66C10.9977 119.687 11.3377 118.967 12.0177 118.5C12.711 118.033 13.571 117.8 14.5977 117.8C15.411 117.8 16.431 117.893 17.6577 118.08L18.2177 118.18L18.1777 119.46C16.6977 119.247 15.531 119.14 14.6777 119.14ZM20.8345 132.44V118H22.3145V118.72C23.3279 118.107 24.3279 117.8 25.3145 117.8C26.5812 117.8 27.5012 118.207 28.0745 119.02C28.6479 119.82 28.9345 121.147 28.9345 123C28.9345 124.853 28.5945 126.187 27.9145 127C27.2479 127.8 26.1345 128.2 24.5745 128.2C23.7612 128.2 23.0145 128.127 22.3345 127.98V132.44H20.8345ZM25.0945 119.14C24.6945 119.14 24.2612 119.207 23.7945 119.34C23.3412 119.473 22.9812 119.607 22.7145 119.74L22.3345 119.94V126.68C23.2812 126.827 24.0012 126.9 24.4945 126.9C25.5745 126.9 26.3279 126.593 26.7545 125.98C27.1945 125.367 27.4145 124.367 27.4145 122.98C27.4145 121.593 27.2145 120.607 26.8145 120.02C26.4279 119.433 25.8545 119.14 25.0945 119.14ZM38.1814 126.76L38.7614 126.7L38.8014 127.88C37.2814 128.093 35.9814 128.2 34.9014 128.2C33.4614 128.2 32.4414 127.787 31.8414 126.96C31.2414 126.12 30.9414 124.82 30.9414 123.06C30.9414 119.553 32.3347 117.8 35.1214 117.8C36.4681 117.8 37.4747 118.18 38.1414 118.94C38.8081 119.687 39.1414 120.867 39.1414 122.48L39.0614 123.62H32.4614C32.4614 124.727 32.6614 125.547 33.0614 126.08C33.4614 126.613 34.1547 126.88 35.1414 126.88C36.1414 126.88 37.1547 126.84 38.1814 126.76ZM37.6414 122.42C37.6414 121.193 37.4414 120.327 37.0414 119.82C36.6547 119.313 36.0147 119.06 35.1214 119.06C34.2414 119.06 33.5747 119.327 33.1214 119.86C32.6814 120.393 32.4547 121.247 32.4414 122.42H37.6414ZM45.2191 117.8C45.6591 117.8 46.4057 117.88 47.4591 118.04L47.9391 118.1L47.8791 119.32C46.8124 119.2 46.0257 119.14 45.5191 119.14C44.3857 119.14 43.6124 119.413 43.1991 119.96C42.7991 120.493 42.5991 121.493 42.5991 122.96C42.5991 124.413 42.7857 125.427 43.1591 126C43.5457 126.573 44.3391 126.86 45.5391 126.86L47.8991 126.68L47.9591 127.92C46.7191 128.107 45.7924 128.2 45.1791 128.2C43.6191 128.2 42.5391 127.8 41.9391 127C41.3524 126.2 41.0591 124.853 41.0591 122.96C41.0591 121.053 41.3791 119.72 42.0191 118.96C42.6591 118.187 43.7257 117.8 45.2191 117.8ZM50.19 128V118H51.69V128H50.19ZM50.19 115.74V114H51.69V115.74H50.19ZM61.625 121.02V126.14C61.665 126.633 62.0517 126.927 62.785 127.02L62.725 128.2C61.6717 128.2 60.8783 127.933 60.345 127.4C59.145 127.933 57.945 128.2 56.745 128.2C55.825 128.2 55.125 127.94 54.645 127.42C54.165 126.9 53.925 126.153 53.925 125.18C53.925 124.207 54.1717 123.493 54.665 123.04C55.1583 122.573 55.9317 122.287 56.985 122.18L60.125 121.88V121.02C60.125 120.34 59.9783 119.853 59.685 119.56C59.3917 119.267 58.9917 119.12 58.485 119.12C57.4183 119.12 56.3117 119.187 55.165 119.32L54.545 119.38L54.485 118.24C55.9517 117.947 57.2517 117.8 58.385 117.8C59.5183 117.8 60.3383 118.06 60.845 118.58C61.365 119.1 61.625 119.913 61.625 121.02ZM55.465 125.1C55.465 126.327 55.9717 126.94 56.985 126.94C57.8917 126.94 58.785 126.787 59.665 126.48L60.125 126.32V123.02L57.165 123.3C56.565 123.353 56.1317 123.527 55.865 123.82C55.5983 124.113 55.465 124.54 55.465 125.1ZM64.7045 128V113.64H66.2045V128H64.7045ZM69.2134 128V118H70.7134V128H69.2134ZM69.2134 115.74V114H70.7134V115.74H69.2134ZM72.9884 119.34V118H80.4084V119.34L74.8084 126.66H80.4084V128H72.9884V126.66L78.5884 119.34H72.9884ZM89.75 121.02V126.14C89.79 126.633 90.1767 126.927 90.91 127.02L90.85 128.2C89.7967 128.2 89.0033 127.933 88.47 127.4C87.27 127.933 86.07 128.2 84.87 128.2C83.95 128.2 83.25 127.94 82.77 127.42C82.29 126.9 82.05 126.153 82.05 125.18C82.05 124.207 82.2967 123.493 82.79 123.04C83.2833 122.573 84.0567 122.287 85.11 122.18L88.25 121.88V121.02C88.25 120.34 88.1033 119.853 87.81 119.56C87.5167 119.267 87.1167 119.12 86.61 119.12C85.5433 119.12 84.4367 119.187 83.29 119.32L82.67 119.38L82.61 118.24C84.0767 117.947 85.3767 117.8 86.51 117.8C87.6433 117.8 88.4633 118.06 88.97 118.58C89.49 119.1 89.75 119.913 89.75 121.02ZM83.59 125.1C83.59 126.327 84.0967 126.94 85.11 126.94C86.0167 126.94 86.91 126.787 87.79 126.48L88.25 126.32V123.02L85.29 123.3C84.69 123.353 84.2567 123.527 83.99 123.82C83.7233 124.113 83.59 124.54 83.59 125.1ZM100.39 113.64V128H98.9095V127.32C97.8829 127.907 96.8695 128.2 95.8695 128.2C95.3362 128.2 94.8695 128.133 94.4695 128C94.0695 127.867 93.6962 127.627 93.3495 127.28C92.6295 126.56 92.2695 125.233 92.2695 123.3C92.2695 121.353 92.5895 119.953 93.2295 119.1C93.8829 118.233 94.9562 117.8 96.4495 117.8C97.2229 117.8 98.0429 117.887 98.9095 118.06V113.64H100.39ZM94.5095 126.2C94.7229 126.453 94.9495 126.627 95.1895 126.72C95.4295 126.813 95.7362 126.86 96.1095 126.86C96.4962 126.86 96.9229 126.8 97.3895 126.68C97.8695 126.547 98.2429 126.42 98.5095 126.3L98.9095 126.12V119.34C98.0562 119.18 97.2629 119.1 96.5295 119.1C95.5162 119.1 94.8095 119.427 94.4095 120.08C94.0095 120.72 93.8095 121.72 93.8095 123.08C93.8095 124.627 94.0429 125.667 94.5095 126.2ZM110.355 121.02V126.14C110.395 126.633 110.782 126.927 111.515 127.02L111.455 128.2C110.402 128.2 109.609 127.933 109.075 127.4C107.875 127.933 106.675 128.2 105.475 128.2C104.555 128.2 103.855 127.94 103.375 127.42C102.895 126.9 102.655 126.153 102.655 125.18C102.655 124.207 102.902 123.493 103.395 123.04C103.889 122.573 104.662 122.287 105.715 122.18L108.855 121.88V121.02C108.855 120.34 108.709 119.853 108.415 119.56C108.122 119.267 107.722 119.12 107.215 119.12C106.149 119.12 105.042 119.187 103.895 119.32L103.275 119.38L103.215 118.24C104.682 117.947 105.982 117.8 107.115 117.8C108.249 117.8 109.069 118.06 109.575 118.58C110.095 119.1 110.355 119.913 110.355 121.02ZM104.195 125.1C104.195 126.327 104.702 126.94 105.715 126.94C106.622 126.94 107.515 126.787 108.395 126.48L108.855 126.32V123.02L105.895 123.3C105.295 123.353 104.862 123.527 104.595 123.82C104.329 124.113 104.195 124.54 104.195 125.1ZM124.51 126.76L125.09 126.7L125.13 127.88C123.61 128.093 122.31 128.2 121.23 128.2C119.79 128.2 118.77 127.787 118.17 126.96C117.57 126.12 117.27 124.82 117.27 123.06C117.27 119.553 118.663 117.8 121.45 117.8C122.796 117.8 123.803 118.18 124.47 118.94C125.136 119.687 125.47 120.867 125.47 122.48L125.39 123.62H118.79C118.79 124.727 118.99 125.547 119.39 126.08C119.79 126.613 120.483 126.88 121.47 126.88C122.47 126.88 123.483 126.84 124.51 126.76ZM123.97 122.42C123.97 121.193 123.77 120.327 123.37 119.82C122.983 119.313 122.343 119.06 121.45 119.06C120.57 119.06 119.903 119.327 119.45 119.86C119.01 120.393 118.783 121.247 118.77 122.42H123.97ZM129.307 128H127.807V118H129.287V118.7C130.287 118.1 131.261 117.8 132.207 117.8C133.447 117.8 134.314 118.14 134.807 118.82C135.247 118.553 135.814 118.32 136.507 118.12C137.214 117.907 137.834 117.8 138.367 117.8C139.701 117.8 140.594 118.16 141.047 118.88C141.514 119.587 141.747 120.867 141.747 122.72V128H140.247V122.76C140.247 121.373 140.114 120.427 139.847 119.92C139.581 119.4 139.014 119.14 138.147 119.14C137.707 119.14 137.254 119.207 136.787 119.34C136.321 119.46 135.961 119.58 135.707 119.7L135.327 119.88C135.501 120.32 135.587 121.293 135.587 122.8V128H134.087V122.84C134.087 121.4 133.954 120.427 133.687 119.92C133.434 119.4 132.867 119.14 131.987 119.14C131.561 119.14 131.121 119.207 130.667 119.34C130.227 119.46 129.887 119.58 129.647 119.7L129.307 119.88V128ZM156.6 113.64V128H155.12V127.32C154.094 127.907 153.08 128.2 152.08 128.2C151.547 128.2 151.08 128.133 150.68 128C150.28 127.867 149.907 127.627 149.56 127.28C148.84 126.56 148.48 125.233 148.48 123.3C148.48 121.353 148.8 119.953 149.44 119.1C150.094 118.233 151.167 117.8 152.66 117.8C153.434 117.8 154.254 117.887 155.12 118.06V113.64H156.6ZM150.72 126.2C150.934 126.453 151.16 126.627 151.4 126.72C151.64 126.813 151.947 126.86 152.32 126.86C152.707 126.86 153.134 126.8 153.6 126.68C154.08 126.547 154.454 126.42 154.72 126.3L155.12 126.12V119.34C154.267 119.18 153.474 119.1 152.74 119.1C151.727 119.1 151.02 119.427 150.62 120.08C150.22 120.72 150.02 121.72 150.02 123.08C150.02 124.627 150.254 125.667 150.72 126.2ZM166.306 126.76L166.886 126.7L166.926 127.88C165.406 128.093 164.106 128.2 163.026 128.2C161.586 128.2 160.566 127.787 159.966 126.96C159.366 126.12 159.066 124.82 159.066 123.06C159.066 119.553 160.46 117.8 163.246 117.8C164.593 117.8 165.6 118.18 166.266 118.94C166.933 119.687 167.266 120.867 167.266 122.48L167.186 123.62H160.586C160.586 124.727 160.786 125.547 161.186 126.08C161.586 126.613 162.28 126.88 163.266 126.88C164.266 126.88 165.28 126.84 166.306 126.76ZM165.766 122.42C165.766 121.193 165.566 120.327 165.166 119.82C164.78 119.313 164.14 119.06 163.246 119.06C162.366 119.06 161.7 119.327 161.246 119.86C160.806 120.393 160.58 121.247 160.566 122.42H165.766ZM171.104 128H169.604V118H171.084V118.7C172.084 118.1 173.057 117.8 174.004 117.8C175.244 117.8 176.111 118.14 176.604 118.82C177.044 118.553 177.611 118.32 178.304 118.12C179.011 117.907 179.631 117.8 180.164 117.8C181.497 117.8 182.391 118.16 182.844 118.88C183.311 119.587 183.544 120.867 183.544 122.72V128H182.044V122.76C182.044 121.373 181.911 120.427 181.644 119.92C181.377 119.4 180.811 119.14 179.944 119.14C179.504 119.14 179.051 119.207 178.584 119.34C178.117 119.46 177.757 119.58 177.504 119.7L177.124 119.88C177.297 120.32 177.384 121.293 177.384 122.8V128H175.884V122.84C175.884 121.4 175.751 120.427 175.484 119.92C175.231 119.4 174.664 119.14 173.784 119.14C173.357 119.14 172.917 119.207 172.464 119.34C172.024 119.46 171.684 119.58 171.444 119.7L171.104 119.88V128ZM193.383 121.02V126.14C193.423 126.633 193.809 126.927 194.543 127.02L194.483 128.2C193.429 128.2 192.636 127.933 192.103 127.4C190.903 127.933 189.703 128.2 188.503 128.2C187.583 128.2 186.883 127.94 186.403 127.42C185.923 126.9 185.683 126.153 185.683 125.18C185.683 124.207 185.929 123.493 186.423 123.04C186.916 122.573 187.689 122.287 188.743 122.18L191.883 121.88V121.02C191.883 120.34 191.736 119.853 191.443 119.56C191.149 119.267 190.749 119.12 190.243 119.12C189.176 119.12 188.069 119.187 186.923 119.32L186.303 119.38L186.243 118.24C187.709 117.947 189.009 117.8 190.143 117.8C191.276 117.8 192.096 118.06 192.603 118.58C193.123 119.1 193.383 119.913 193.383 121.02ZM187.223 125.1C187.223 126.327 187.729 126.94 188.743 126.94C189.649 126.94 190.543 126.787 191.423 126.48L191.883 126.32V123.02L188.923 123.3C188.323 123.353 187.889 123.527 187.623 123.82C187.356 124.113 187.223 124.54 187.223 125.1ZM197.842 128H196.342V118H197.822V118.7C198.902 118.1 199.936 117.8 200.922 117.8C202.256 117.8 203.149 118.16 203.602 118.88C204.069 119.6 204.302 120.88 204.302 122.72V128H202.822V122.76C202.822 121.373 202.682 120.427 202.402 119.92C202.136 119.4 201.556 119.14 200.662 119.14C200.236 119.14 199.782 119.207 199.302 119.34C198.836 119.46 198.476 119.58 198.222 119.7L197.842 119.88V128ZM214.765 113.64V128H213.285V127.32C212.258 127.907 211.245 128.2 210.245 128.2C209.711 128.2 209.245 128.133 208.845 128C208.445 127.867 208.071 127.627 207.725 127.28C207.005 126.56 206.645 125.233 206.645 123.3C206.645 121.353 206.965 119.953 207.605 119.1C208.258 118.233 209.331 117.8 210.825 117.8C211.598 117.8 212.418 117.887 213.285 118.06V113.64H214.765ZM208.885 126.2C209.098 126.453 209.325 126.627 209.565 126.72C209.805 126.813 210.111 126.86 210.485 126.86C210.871 126.86 211.298 126.8 211.765 126.68C212.245 126.547 212.618 126.42 212.885 126.3L213.285 126.12V119.34C212.431 119.18 211.638 119.1 210.905 119.1C209.891 119.1 209.185 119.427 208.785 120.08C208.385 120.72 208.185 121.72 208.185 123.08C208.185 124.627 208.418 125.667 208.885 126.2ZM224.73 121.02V126.14C224.77 126.633 225.157 126.927 225.89 127.02L225.83 128.2C224.777 128.2 223.984 127.933 223.45 127.4C222.25 127.933 221.05 128.2 219.85 128.2C218.93 128.2 218.23 127.94 217.75 127.42C217.27 126.9 217.03 126.153 217.03 125.18C217.03 124.207 217.277 123.493 217.77 123.04C218.264 122.573 219.037 122.287 220.09 122.18L223.23 121.88V121.02C223.23 120.34 223.084 119.853 222.79 119.56C222.497 119.267 222.097 119.12 221.59 119.12C220.524 119.12 219.417 119.187 218.27 119.32L217.65 119.38L217.59 118.24C219.057 117.947 220.357 117.8 221.49 117.8C222.624 117.8 223.444 118.06 223.95 118.58C224.47 119.1 224.73 119.913 224.73 121.02ZM218.57 125.1C218.57 126.327 219.077 126.94 220.09 126.94C220.997 126.94 221.89 126.787 222.77 126.48L223.23 126.32V123.02L220.27 123.3C219.67 123.353 219.237 123.527 218.97 123.82C218.704 124.113 218.57 124.54 218.57 125.1ZM230.83 119.14C229.377 119.14 228.65 119.647 228.65 120.66C228.65 121.127 228.817 121.46 229.15 121.66C229.483 121.847 230.243 122.047 231.43 122.26C232.617 122.46 233.457 122.747 233.95 123.12C234.443 123.493 234.69 124.193 234.69 125.22C234.69 126.247 234.357 127 233.69 127.48C233.037 127.96 232.077 128.2 230.81 128.2C229.983 128.2 229.01 128.107 227.89 127.92L227.29 127.82L227.37 126.52C228.89 126.747 230.037 126.86 230.81 126.86C231.583 126.86 232.17 126.74 232.57 126.5C232.983 126.247 233.19 125.833 233.19 125.26C233.19 124.673 233.017 124.28 232.67 124.08C232.323 123.867 231.563 123.667 230.39 123.48C229.217 123.293 228.383 123.02 227.89 122.66C227.397 122.3 227.15 121.633 227.15 120.66C227.15 119.687 227.49 118.967 228.17 118.5C228.863 118.033 229.723 117.8 230.75 117.8C231.563 117.8 232.583 117.893 233.81 118.08L234.37 118.18L234.33 119.46C232.85 119.247 231.683 119.14 230.83 119.14ZM1.44 156.44V142H2.92V142.72C3.93333 142.107 4.93333 141.8 5.92 141.8C7.18667 141.8 8.10667 142.207 8.68 143.02C9.25333 143.82 9.54 145.147 9.54 147C9.54 148.853 9.2 150.187 8.52 151C7.85333 151.8 6.74 152.2 5.18 152.2C4.36667 152.2 3.62 152.127 2.94 151.98V156.44H1.44ZM5.7 143.14C5.3 143.14 4.86667 143.207 4.4 143.34C3.94667 143.473 3.58667 143.607 3.32 143.74L2.94 143.94V150.68C3.88667 150.827 4.60667 150.9 5.1 150.9C6.18 150.9 6.93333 150.593 7.36 149.98C7.8 149.367 8.02 148.367 8.02 146.98C8.02 145.593 7.82 144.607 7.42 144.02C7.03333 143.433 6.46 143.14 5.7 143.14ZM11.9869 152V142H13.4669V143.36C14.6269 142.56 15.8469 142.033 17.1269 141.78V143.3C16.5669 143.407 15.9802 143.573 15.3669 143.8C14.7669 144.027 14.3069 144.227 13.9869 144.4L13.4869 144.66V152H11.9869ZM18.2656 146.98C18.2656 145.153 18.5923 143.833 19.2456 143.02C19.899 142.207 20.999 141.8 22.5456 141.8C24.1056 141.8 25.2056 142.207 25.8456 143.02C26.499 143.833 26.8256 145.153 26.8256 146.98C26.8256 148.807 26.519 150.133 25.9056 150.96C25.2923 151.787 24.1723 152.2 22.5456 152.2C20.919 152.2 19.799 151.787 19.1856 150.96C18.5723 150.133 18.2656 148.807 18.2656 146.98ZM19.8056 146.96C19.8056 148.413 19.979 149.433 20.3256 150.02C20.6856 150.607 21.4256 150.9 22.5456 150.9C23.679 150.9 24.419 150.613 24.7656 150.04C25.1123 149.453 25.2856 148.427 25.2856 146.96C25.2856 145.493 25.0923 144.487 24.7056 143.94C24.319 143.38 23.599 143.1 22.5456 143.1C21.5056 143.1 20.7856 143.38 20.3856 143.94C19.999 144.487 19.8056 145.493 19.8056 146.96ZM36.952 137.64V152H35.472V151.32C34.4454 151.907 33.432 152.2 32.432 152.2C31.8987 152.2 31.432 152.133 31.032 152C30.632 151.867 30.2587 151.627 29.912 151.28C29.192 150.56 28.832 149.233 28.832 147.3C28.832 145.353 29.152 143.953 29.792 143.1C30.4454 142.233 31.5187 141.8 33.012 141.8C33.7854 141.8 34.6054 141.887 35.472 142.06V137.64H36.952ZM31.072 150.2C31.2854 150.453 31.512 150.627 31.752 150.72C31.992 150.813 32.2987 150.86 32.672 150.86C33.0587 150.86 33.4854 150.8 33.952 150.68C34.432 150.547 34.8054 150.42 35.072 150.3L35.472 150.12V143.34C34.6187 143.18 33.8254 143.1 33.092 143.1C32.0787 143.1 31.372 143.427 30.972 144.08C30.572 144.72 30.372 145.72 30.372 147.08C30.372 148.627 30.6054 149.667 31.072 150.2ZM46.098 142H47.598V152H46.098V151.3C45.098 151.9 44.1113 152.2 43.138 152.2C41.778 152.2 40.8713 151.847 40.418 151.14C39.978 150.433 39.758 149.127 39.758 147.22V142H41.258V147.2C41.258 148.653 41.3846 149.627 41.638 150.12C41.8913 150.613 42.4646 150.86 43.358 150.86C43.798 150.86 44.2446 150.8 44.698 150.68C45.1513 150.547 45.498 150.42 45.738 150.3L46.098 150.12V142ZM55.663 143.3H52.483V148.08C52.483 149.227 52.563 149.98 52.723 150.34C52.8963 150.7 53.2963 150.88 53.923 150.88L55.703 150.76L55.803 152C54.9096 152.147 54.2296 152.22 53.763 152.22C52.723 152.22 52.003 151.967 51.603 151.46C51.203 150.953 51.003 149.987 51.003 148.56V143.3H49.583V142H51.003V138.94H52.483V142H55.663V143.3ZM57.4947 152V142H58.9947V152H57.4947ZM57.4947 139.74V138H58.9947V139.74H57.4947ZM60.9297 142H62.5297L64.8697 150.7H65.6097L68.0297 142H69.5697L66.7497 152H63.7497L60.9297 142ZM78.4023 145.02V150.14C78.4423 150.633 78.829 150.927 79.5623 151.02L79.5023 152.2C78.449 152.2 77.6557 151.933 77.1223 151.4C75.9223 151.933 74.7223 152.2 73.5223 152.2C72.6023 152.2 71.9023 151.94 71.4223 151.42C70.9423 150.9 70.7023 150.153 70.7023 149.18C70.7023 148.207 70.949 147.493 71.4423 147.04C71.9357 146.573 72.709 146.287 73.7623 146.18L76.9023 145.88V145.02C76.9023 144.34 76.7557 143.853 76.4623 143.56C76.169 143.267 75.769 143.12 75.2623 143.12C74.1957 143.12 73.089 143.187 71.9423 143.32L71.3223 143.38L71.2623 142.24C72.729 141.947 74.029 141.8 75.1623 141.8C76.2957 141.8 77.1157 142.06 77.6223 142.58C78.1423 143.1 78.4023 143.913 78.4023 145.02ZM72.2423 149.1C72.2423 150.327 72.749 150.94 73.7623 150.94C74.669 150.94 75.5623 150.787 76.4423 150.48L76.9023 150.32V147.02L73.9423 147.3C73.3423 147.353 72.909 147.527 72.6423 147.82C72.3757 148.113 72.2423 148.54 72.2423 149.1ZM84.5019 143.14C83.0485 143.14 82.3219 143.647 82.3219 144.66C82.3219 145.127 82.4885 145.46 82.8219 145.66C83.1552 145.847 83.9152 146.047 85.1019 146.26C86.2885 146.46 87.1285 146.747 87.6219 147.12C88.1152 147.493 88.3619 148.193 88.3619 149.22C88.3619 150.247 88.0285 151 87.3619 151.48C86.7085 151.96 85.7485 152.2 84.4819 152.2C83.6552 152.2 82.6819 152.107 81.5619 151.92L80.9619 151.82L81.0419 150.52C82.5619 150.747 83.7085 150.86 84.4819 150.86C85.2552 150.86 85.8419 150.74 86.2419 150.5C86.6552 150.247 86.8619 149.833 86.8619 149.26C86.8619 148.673 86.6885 148.28 86.3419 148.08C85.9952 147.867 85.2352 147.667 84.0619 147.48C82.8885 147.293 82.0552 147.02 81.5619 146.66C81.0685 146.3 80.8219 145.633 80.8219 144.66C80.8219 143.687 81.1619 142.967 81.8419 142.5C82.5352 142.033 83.3952 141.8 84.4219 141.8C85.2352 141.8 86.2552 141.893 87.4819 142.08L88.0419 142.18L88.0019 143.46C86.5219 143.247 85.3552 143.14 84.5019 143.14ZM101.853 150.76L102.433 150.7L102.473 151.88C100.953 152.093 99.6533 152.2 98.5733 152.2C97.1333 152.2 96.1133 151.787 95.5133 150.96C94.9133 150.12 94.6133 148.82 94.6133 147.06C94.6133 143.553 96.0066 141.8 98.7933 141.8C100.14 141.8 101.147 142.18 101.813 142.94C102.48 143.687 102.813 144.867 102.813 146.48L102.733 147.62H96.1333C96.1333 148.727 96.3333 149.547 96.7333 150.08C97.1333 150.613 97.8266 150.88 98.8133 150.88C99.8133 150.88 100.827 150.84 101.853 150.76ZM101.313 146.42C101.313 145.193 101.113 144.327 100.713 143.82C100.327 143.313 99.6866 143.06 98.7933 143.06C97.9133 143.06 97.2466 143.327 96.7933 143.86C96.3533 144.393 96.1266 145.247 96.1133 146.42H101.313ZM109.545 152V142H111.025V143.36C112.185 142.56 113.405 142.033 114.685 141.78V143.3C114.125 143.407 113.539 143.573 112.925 143.8C112.325 144.027 111.865 144.227 111.545 144.4L111.045 144.66V152H109.545ZM123.064 150.76L123.644 150.7L123.684 151.88C122.164 152.093 120.864 152.2 119.784 152.2C118.344 152.2 117.324 151.787 116.724 150.96C116.124 150.12 115.824 148.82 115.824 147.06C115.824 143.553 117.218 141.8 120.004 141.8C121.351 141.8 122.358 142.18 123.024 142.94C123.691 143.687 124.024 144.867 124.024 146.48L123.944 147.62H117.344C117.344 148.727 117.544 149.547 117.944 150.08C118.344 150.613 119.038 150.88 120.024 150.88C121.024 150.88 122.038 150.84 123.064 150.76ZM122.524 146.42C122.524 145.193 122.324 144.327 121.924 143.82C121.538 143.313 120.898 143.06 120.004 143.06C119.124 143.06 118.458 143.327 118.004 143.86C117.564 144.393 117.338 145.247 117.324 146.42H122.524ZM130.222 156.7C128.622 156.7 127.502 156.48 126.862 156.04C126.235 155.613 125.922 154.827 125.922 153.68C125.922 153.133 126.042 152.687 126.282 152.34C126.522 152.007 126.929 151.627 127.502 151.2C127.129 150.947 126.942 150.487 126.942 149.82C126.942 149.593 127.109 149.173 127.442 148.56L127.622 148.24C126.569 147.76 126.042 146.753 126.042 145.22C126.042 142.94 127.289 141.8 129.782 141.8C130.422 141.8 131.015 141.867 131.562 142L131.862 142.06L134.822 141.98V143.26L132.922 143.22C133.362 143.66 133.582 144.327 133.582 145.22C133.582 146.473 133.269 147.353 132.642 147.86C132.029 148.353 131.055 148.6 129.722 148.6C129.362 148.6 129.035 148.573 128.742 148.52C128.502 149.107 128.382 149.487 128.382 149.66C128.382 150.073 128.509 150.333 128.762 150.44C129.015 150.533 129.782 150.58 131.062 150.58C132.342 150.58 133.262 150.78 133.822 151.18C134.382 151.58 134.662 152.36 134.662 153.52C134.662 155.64 133.182 156.7 130.222 156.7ZM127.402 153.56C127.402 154.267 127.595 154.753 127.982 155.02C128.382 155.3 129.109 155.44 130.162 155.44C131.229 155.44 131.989 155.293 132.442 155C132.909 154.707 133.142 154.213 133.142 153.52C133.142 152.84 132.975 152.4 132.642 152.2C132.309 152 131.655 151.9 130.682 151.9L128.522 151.8C128.082 152.12 127.782 152.4 127.622 152.64C127.475 152.88 127.402 153.187 127.402 153.56ZM127.542 145.22C127.542 146.007 127.715 146.567 128.062 146.9C128.422 147.233 129.009 147.4 129.822 147.4C130.635 147.4 131.215 147.233 131.562 146.9C131.909 146.567 132.082 146.007 132.082 145.22C132.082 144.42 131.909 143.853 131.562 143.52C131.215 143.187 130.635 143.02 129.822 143.02C129.009 143.02 128.422 143.193 128.062 143.54C127.715 143.873 127.542 144.433 127.542 145.22ZM142.875 142H144.375V152H142.875V151.3C141.875 151.9 140.889 152.2 139.915 152.2C138.555 152.2 137.649 151.847 137.195 151.14C136.755 150.433 136.535 149.127 136.535 147.22V142H138.035V147.2C138.035 148.653 138.162 149.627 138.415 150.12C138.669 150.613 139.242 150.86 140.135 150.86C140.575 150.86 141.022 150.8 141.475 150.68C141.929 150.547 142.275 150.42 142.515 150.3L142.875 150.12V142ZM147.38 152V137.64H148.88V152H147.38ZM158.949 145.02V150.14C158.989 150.633 159.376 150.927 160.109 151.02L160.049 152.2C158.996 152.2 158.203 151.933 157.669 151.4C156.469 151.933 155.269 152.2 154.069 152.2C153.149 152.2 152.449 151.94 151.969 151.42C151.489 150.9 151.249 150.153 151.249 149.18C151.249 148.207 151.496 147.493 151.989 147.04C152.483 146.573 153.256 146.287 154.309 146.18L157.449 145.88V145.02C157.449 144.34 157.303 143.853 157.009 143.56C156.716 143.267 156.316 143.12 155.809 143.12C154.743 143.12 153.636 143.187 152.489 143.32L151.869 143.38L151.809 142.24C153.276 141.947 154.576 141.8 155.709 141.8C156.843 141.8 157.663 142.06 158.169 142.58C158.689 143.1 158.949 143.913 158.949 145.02ZM152.789 149.1C152.789 150.327 153.296 150.94 154.309 150.94C155.216 150.94 156.109 150.787 156.989 150.48L157.449 150.32V147.02L154.489 147.3C153.889 147.353 153.456 147.527 153.189 147.82C152.923 148.113 152.789 148.54 152.789 149.1ZM167.089 143.3H163.909V148.08C163.909 149.227 163.989 149.98 164.149 150.34C164.322 150.7 164.722 150.88 165.349 150.88L167.129 150.76L167.229 152C166.335 152.147 165.655 152.22 165.189 152.22C164.149 152.22 163.429 151.967 163.029 151.46C162.629 150.953 162.429 149.987 162.429 148.56V143.3H161.009V142H162.429V138.94H163.909V142H167.089V143.3ZM172.76 141.8C174.32 141.8 175.42 142.207 176.06 143.02C176.714 143.833 177.04 145.153 177.04 146.98C177.04 148.807 176.734 150.133 176.12 150.96C175.507 151.787 174.387 152.2 172.76 152.2C171.134 152.2 170.014 151.787 169.4 150.96C168.787 150.133 168.48 148.807 168.48 146.98C168.48 145.153 168.807 143.833 169.46 143.02C170.114 142.207 171.214 141.8 172.76 141.8ZM172.76 150.9C173.894 150.9 174.634 150.613 174.98 150.04C175.327 149.453 175.5 148.427 175.5 146.96C175.5 145.493 175.307 144.487 174.92 143.94C174.534 143.38 173.814 143.1 172.76 143.1C171.72 143.1 171 143.38 170.6 143.94C170.214 144.487 170.02 145.493 170.02 146.96C170.02 148.413 170.194 149.433 170.54 150.02C170.9 150.607 171.64 150.9 172.76 150.9ZM170.56 139.16L174.88 137.2L175.4 138.48L170.98 140.18L170.56 139.16ZM179.487 152V142H180.967V143.36C182.127 142.56 183.347 142.033 184.627 141.78V143.3C184.067 143.407 183.48 143.573 182.867 143.8C182.267 144.027 181.807 144.227 181.487 144.4L180.987 144.66V152H179.487ZM186.401 152V142H187.901V152H186.401ZM186.401 139.74V138H187.901V139.74H186.401ZM197.836 145.02V150.14C197.876 150.633 198.263 150.927 198.996 151.02L198.936 152.2C197.883 152.2 197.089 151.933 196.556 151.4C195.356 151.933 194.156 152.2 192.956 152.2C192.036 152.2 191.336 151.94 190.856 151.42C190.376 150.9 190.136 150.153 190.136 149.18C190.136 148.207 190.383 147.493 190.876 147.04C191.369 146.573 192.143 146.287 193.196 146.18L196.336 145.88V145.02C196.336 144.34 196.189 143.853 195.896 143.56C195.603 143.267 195.203 143.12 194.696 143.12C193.629 143.12 192.523 143.187 191.376 143.32L190.756 143.38L190.696 142.24C192.163 141.947 193.463 141.8 194.596 141.8C195.729 141.8 196.549 142.06 197.056 142.58C197.576 143.1 197.836 143.913 197.836 145.02ZM191.676 149.1C191.676 150.327 192.183 150.94 193.196 150.94C194.103 150.94 194.996 150.787 195.876 150.48L196.336 150.32V147.02L193.376 147.3C192.776 147.353 192.343 147.527 192.076 147.82C191.809 148.113 191.676 148.54 191.676 149.1ZM203.935 143.14C202.482 143.14 201.755 143.647 201.755 144.66C201.755 145.127 201.922 145.46 202.255 145.66C202.589 145.847 203.349 146.047 204.535 146.26C205.722 146.46 206.562 146.747 207.055 147.12C207.549 147.493 207.795 148.193 207.795 149.22C207.795 150.247 207.462 151 206.795 151.48C206.142 151.96 205.182 152.2 203.915 152.2C203.089 152.2 202.115 152.107 200.995 151.92L200.395 151.82L200.475 150.52C201.995 150.747 203.142 150.86 203.915 150.86C204.689 150.86 205.275 150.74 205.675 150.5C206.089 150.247 206.295 149.833 206.295 149.26C206.295 148.673 206.122 148.28 205.775 148.08C205.429 147.867 204.669 147.667 203.495 147.48C202.322 147.293 201.489 147.02 200.995 146.66C200.502 146.3 200.255 145.633 200.255 144.66C200.255 143.687 200.595 142.967 201.275 142.5C201.969 142.033 202.829 141.8 203.855 141.8C204.669 141.8 205.689 141.893 206.915 142.08L207.475 142.18L207.435 143.46C205.955 143.247 204.789 143.14 203.935 143.14ZM209.992 152V149.72H211.632V152H209.992Z" fill="#02172B"/>
<rect y="175.5" width="285" height="47" rx="16" fill="#80DB42"/>
<path d="M103.565 195.689C103.47 195.845 103.372 195.96 103.27 196.035C103.175 196.103 103.049 196.137 102.893 196.137C102.744 196.137 102.581 196.086 102.404 195.984C102.234 195.875 102.034 195.76 101.803 195.638C101.573 195.516 101.308 195.404 101.009 195.302C100.71 195.193 100.361 195.139 99.9602 195.139C99.2541 195.139 98.7246 195.298 98.3716 195.617C98.0185 195.93 97.842 196.34 97.842 196.85C97.842 197.176 97.9371 197.447 98.1272 197.664C98.324 197.875 98.5786 198.058 98.8909 198.214C99.21 198.37 99.5698 198.51 99.9703 198.632C100.371 198.754 100.782 198.89 101.203 199.039C101.623 199.182 102.034 199.351 102.435 199.548C102.835 199.745 103.192 199.993 103.504 200.292C103.823 200.59 104.078 200.957 104.268 201.391C104.465 201.819 104.563 202.342 104.563 202.96C104.563 203.632 104.444 204.263 104.207 204.854C103.976 205.438 103.64 205.95 103.198 206.391C102.757 206.826 102.211 207.169 101.559 207.42C100.914 207.671 100.181 207.797 99.3593 207.797C98.8909 207.797 98.4225 207.749 97.954 207.654C97.4924 207.559 97.0443 207.427 96.6098 207.257C96.1821 207.087 95.7782 206.884 95.398 206.646C95.0178 206.408 94.6852 206.144 94.4001 205.852L95.2962 204.406C95.3709 204.297 95.4693 204.209 95.5915 204.141C95.7137 204.066 95.8427 204.029 95.9785 204.029C96.1618 204.029 96.3553 204.097 96.5589 204.233C96.7626 204.368 96.9968 204.518 97.2616 204.681C97.5263 204.844 97.8318 204.993 98.1781 205.129C98.5311 205.264 98.952 205.332 99.4408 205.332C100.154 205.332 100.704 205.169 101.091 204.844C101.484 204.518 101.681 204.032 101.681 203.387C101.681 203.014 101.583 202.712 101.386 202.481C101.196 202.25 100.945 202.057 100.632 201.901C100.32 201.744 99.9635 201.612 99.563 201.503C99.1625 201.388 98.7517 201.262 98.3308 201.127C97.9099 200.991 97.4992 200.828 97.0986 200.638C96.6981 200.448 96.3417 200.197 96.0294 199.884C95.7171 199.572 95.4625 199.185 95.2656 198.723C95.0755 198.262 94.9805 197.688 94.9805 197.002C94.9805 196.452 95.0891 195.92 95.3064 195.404C95.5236 194.888 95.8427 194.429 96.2636 194.029C96.6845 193.628 97.2005 193.306 97.8115 193.061C98.4293 192.817 99.1353 192.695 99.9296 192.695C100.819 192.695 101.64 192.834 102.394 193.112C103.154 193.384 103.796 193.764 104.319 194.253L103.565 195.689ZM111.741 203.245C111.055 203.279 110.485 203.34 110.03 203.428C109.575 203.51 109.212 203.618 108.941 203.754C108.676 203.89 108.486 204.046 108.37 204.222C108.262 204.392 108.208 204.579 108.208 204.782C108.208 205.19 108.32 205.478 108.544 205.648C108.774 205.818 109.093 205.903 109.501 205.903C109.969 205.903 110.373 205.821 110.713 205.658C111.059 205.489 111.402 205.227 111.741 204.874V203.245ZM106.018 198.591C106.636 198.034 107.318 197.62 108.065 197.349C108.812 197.07 109.62 196.931 110.489 196.931C111.113 196.931 111.67 197.033 112.159 197.237C112.654 197.44 113.072 197.725 113.411 198.092C113.757 198.452 114.022 198.883 114.206 199.385C114.389 199.888 114.48 200.438 114.48 201.035V207.634H113.197C112.933 207.634 112.729 207.596 112.586 207.522C112.451 207.447 112.339 207.291 112.25 207.053L112.026 206.381C111.762 206.612 111.504 206.816 111.252 206.992C111.008 207.169 110.753 207.318 110.489 207.44C110.224 207.556 109.939 207.644 109.633 207.705C109.334 207.766 108.998 207.797 108.625 207.797C108.163 207.797 107.742 207.736 107.362 207.613C106.982 207.491 106.653 207.311 106.375 207.074C106.103 206.829 105.893 206.527 105.743 206.167C105.594 205.808 105.519 205.393 105.519 204.925C105.519 204.538 105.618 204.151 105.814 203.764C106.011 203.377 106.347 203.028 106.823 202.715C107.305 202.396 107.943 202.135 108.737 201.931C109.538 201.721 110.54 201.602 111.741 201.575V201.035C111.741 200.376 111.602 199.894 111.324 199.589C111.045 199.277 110.645 199.121 110.122 199.121C109.735 199.121 109.413 199.168 109.155 199.263C108.897 199.351 108.669 199.45 108.472 199.558C108.282 199.66 108.102 199.759 107.933 199.854C107.763 199.942 107.566 199.986 107.342 199.986C107.145 199.986 106.979 199.939 106.843 199.844C106.714 199.742 106.605 199.623 106.517 199.487L106.018 198.591ZM119.566 197.135V207.634H116.756V197.135H119.566ZM119.902 194.151C119.902 194.389 119.855 194.609 119.76 194.813C119.665 195.017 119.536 195.197 119.373 195.353C119.217 195.509 119.03 195.631 118.813 195.719C118.602 195.808 118.375 195.852 118.131 195.852C117.9 195.852 117.679 195.808 117.469 195.719C117.265 195.631 117.085 195.509 116.929 195.353C116.773 195.197 116.647 195.017 116.552 194.813C116.464 194.609 116.42 194.389 116.42 194.151C116.42 193.913 116.464 193.693 116.552 193.489C116.647 193.279 116.773 193.095 116.929 192.939C117.085 192.783 117.265 192.661 117.469 192.573C117.679 192.484 117.9 192.44 118.131 192.44C118.375 192.44 118.602 192.484 118.813 192.573C119.03 192.661 119.217 192.783 119.373 192.939C119.536 193.095 119.665 193.279 119.76 193.489C119.855 193.693 119.902 193.913 119.902 194.151ZM124.776 204.864C125.04 205.169 125.325 205.383 125.631 205.505C125.943 205.628 126.266 205.689 126.598 205.689C126.945 205.689 127.257 205.628 127.535 205.505C127.82 205.376 128.065 205.176 128.268 204.905C128.472 204.626 128.628 204.267 128.737 203.825C128.845 203.384 128.9 202.851 128.9 202.226C128.9 201.67 128.856 201.198 128.767 200.811C128.679 200.417 128.547 200.095 128.37 199.844C128.2 199.592 127.99 199.409 127.739 199.294C127.488 199.178 127.196 199.121 126.863 199.121C126.422 199.121 126.038 199.219 125.712 199.416C125.393 199.606 125.081 199.888 124.776 200.261V204.864ZM124.776 198.347C125.19 197.932 125.648 197.6 126.15 197.349C126.653 197.097 127.216 196.972 127.841 196.972C128.445 196.972 128.988 197.094 129.47 197.338C129.959 197.576 130.373 197.919 130.712 198.367C131.059 198.815 131.323 199.358 131.507 199.996C131.697 200.628 131.792 201.337 131.792 202.125C131.792 202.973 131.683 203.747 131.466 204.446C131.255 205.139 130.953 205.733 130.56 206.228C130.166 206.724 129.694 207.108 129.144 207.379C128.601 207.651 127.993 207.787 127.321 207.787C126.995 207.787 126.704 207.753 126.446 207.685C126.188 207.624 125.95 207.535 125.733 207.42C125.515 207.305 125.315 207.169 125.132 207.013C124.949 206.85 124.776 206.67 124.613 206.473L124.501 207.104C124.453 207.301 124.375 207.44 124.266 207.522C124.158 207.596 124.012 207.634 123.828 207.634H121.965V192.45H124.776V198.347ZM139.089 203.245C138.403 203.279 137.833 203.34 137.378 203.428C136.923 203.51 136.56 203.618 136.289 203.754C136.024 203.89 135.834 204.046 135.718 204.222C135.61 204.392 135.555 204.579 135.555 204.782C135.555 205.19 135.667 205.478 135.891 205.648C136.122 205.818 136.441 205.903 136.849 205.903C137.317 205.903 137.721 205.821 138.06 205.658C138.407 205.489 138.75 205.227 139.089 204.874V203.245ZM133.366 198.591C133.984 198.034 134.666 197.62 135.413 197.349C136.16 197.07 136.967 196.931 137.836 196.931C138.461 196.931 139.018 197.033 139.506 197.237C140.002 197.44 140.42 197.725 140.759 198.092C141.105 198.452 141.37 198.883 141.553 199.385C141.737 199.888 141.828 200.438 141.828 201.035V207.634H140.545C140.28 207.634 140.077 207.596 139.934 207.522C139.798 207.447 139.686 207.291 139.598 207.053L139.374 206.381C139.109 206.612 138.851 206.816 138.6 206.992C138.356 207.169 138.101 207.318 137.836 207.44C137.572 207.556 137.287 207.644 136.981 207.705C136.682 207.766 136.346 207.797 135.973 207.797C135.511 207.797 135.09 207.736 134.71 207.613C134.33 207.491 134.001 207.311 133.722 207.074C133.451 206.829 133.24 206.527 133.091 206.167C132.942 205.808 132.867 205.393 132.867 204.925C132.867 204.538 132.965 204.151 133.162 203.764C133.359 203.377 133.695 203.028 134.17 202.715C134.652 202.396 135.291 202.135 136.085 201.931C136.886 201.721 137.887 201.602 139.089 201.575V201.035C139.089 200.376 138.95 199.894 138.671 199.589C138.393 199.277 137.993 199.121 137.47 199.121C137.083 199.121 136.76 199.168 136.502 199.263C136.244 199.351 136.017 199.45 135.82 199.558C135.63 199.66 135.45 199.759 135.28 199.854C135.111 199.942 134.914 199.986 134.69 199.986C134.493 199.986 134.327 199.939 134.191 199.844C134.062 199.742 133.953 199.623 133.865 199.487L133.366 198.591ZM148.855 207.634V197.135H150.586C150.939 197.135 151.174 197.298 151.289 197.624L151.452 198.306C151.635 198.116 151.822 197.939 152.012 197.776C152.209 197.613 152.419 197.474 152.643 197.359C152.868 197.237 153.109 197.142 153.366 197.074C153.631 197.006 153.916 196.972 154.222 196.972C154.867 196.972 155.4 197.145 155.821 197.491C156.242 197.831 156.561 198.285 156.778 198.856C156.948 198.523 157.155 198.238 157.399 198C157.65 197.756 157.922 197.559 158.214 197.41C158.512 197.26 158.825 197.152 159.151 197.084C159.483 197.009 159.816 196.972 160.149 196.972C160.739 196.972 161.262 197.06 161.717 197.237C162.172 197.413 162.552 197.674 162.857 198.021C163.17 198.36 163.407 198.778 163.57 199.273C163.733 199.769 163.815 200.332 163.815 200.964V207.634H161.004V200.964C161.004 199.735 160.478 199.121 159.426 199.121C159.188 199.121 158.967 199.161 158.764 199.243C158.567 199.317 158.39 199.433 158.234 199.589C158.085 199.745 157.966 199.939 157.878 200.169C157.796 200.4 157.756 200.665 157.756 200.964V207.634H154.945V200.964C154.945 200.298 154.813 199.827 154.548 199.548C154.29 199.263 153.906 199.121 153.397 199.121C153.071 199.121 152.762 199.199 152.47 199.355C152.185 199.504 151.917 199.715 151.666 199.986V207.634H148.855ZM171.528 203.245C170.843 203.279 170.273 203.34 169.818 203.428C169.363 203.51 169 203.618 168.728 203.754C168.463 203.89 168.273 204.046 168.158 204.222C168.049 204.392 167.995 204.579 167.995 204.782C167.995 205.19 168.107 205.478 168.331 205.648C168.562 205.818 168.881 205.903 169.288 205.903C169.757 205.903 170.161 205.821 170.5 205.658C170.846 205.489 171.189 205.227 171.528 204.874V203.245ZM165.805 198.591C166.423 198.034 167.106 197.62 167.852 197.349C168.599 197.07 169.407 196.931 170.276 196.931C170.9 196.931 171.457 197.033 171.946 197.237C172.442 197.44 172.859 197.725 173.199 198.092C173.545 198.452 173.81 198.883 173.993 199.385C174.176 199.888 174.268 200.438 174.268 201.035V207.634H172.985C172.72 207.634 172.516 207.596 172.374 207.522C172.238 207.447 172.126 207.291 172.038 207.053L171.814 206.381C171.549 206.612 171.291 206.816 171.04 206.992C170.795 207.169 170.541 207.318 170.276 207.44C170.011 207.556 169.726 207.644 169.421 207.705C169.122 207.766 168.786 207.797 168.412 207.797C167.951 207.797 167.53 207.736 167.15 207.613C166.769 207.491 166.44 207.311 166.162 207.074C165.89 206.829 165.68 206.527 165.53 206.167C165.381 205.808 165.306 205.393 165.306 204.925C165.306 204.538 165.405 204.151 165.602 203.764C165.799 203.377 166.135 203.028 166.61 202.715C167.092 202.396 167.73 202.135 168.524 201.931C169.325 201.721 170.327 201.602 171.528 201.575V201.035C171.528 200.376 171.389 199.894 171.111 199.589C170.833 199.277 170.432 199.121 169.909 199.121C169.522 199.121 169.2 199.168 168.942 199.263C168.684 199.351 168.456 199.45 168.26 199.558C168.07 199.66 167.89 199.759 167.72 199.854C167.55 199.942 167.353 199.986 167.129 199.986C166.932 199.986 166.766 199.939 166.63 199.844C166.501 199.742 166.393 199.623 166.304 199.487L165.805 198.591ZM179.354 197.135V207.634H176.543V197.135H179.354ZM179.69 194.151C179.69 194.389 179.642 194.609 179.547 194.813C179.452 195.017 179.323 195.197 179.16 195.353C179.004 195.509 178.817 195.631 178.6 195.719C178.39 195.808 178.162 195.852 177.918 195.852C177.687 195.852 177.466 195.808 177.256 195.719C177.052 195.631 176.872 195.509 176.716 195.353C176.56 195.197 176.434 195.017 176.339 194.813C176.251 194.609 176.207 194.389 176.207 194.151C176.207 193.913 176.251 193.693 176.339 193.489C176.434 193.279 176.56 193.095 176.716 192.939C176.872 192.783 177.052 192.661 177.256 192.573C177.466 192.484 177.687 192.44 177.918 192.44C178.162 192.44 178.39 192.484 178.6 192.573C178.817 192.661 179.004 192.783 179.16 192.939C179.323 193.095 179.452 193.279 179.547 193.489C179.642 193.693 179.69 193.913 179.69 194.151ZM188.28 199.294C188.205 199.409 188.127 199.494 188.046 199.548C187.971 199.596 187.866 199.62 187.73 199.62C187.594 199.62 187.455 199.586 187.312 199.518C187.17 199.45 187.01 199.378 186.834 199.304C186.657 199.222 186.454 199.148 186.223 199.08C185.999 199.012 185.737 198.978 185.439 198.978C184.984 198.978 184.631 199.073 184.38 199.263C184.128 199.446 184.003 199.691 184.003 199.996C184.003 200.207 184.074 200.383 184.217 200.526C184.359 200.668 184.546 200.794 184.777 200.903C185.014 201.004 185.282 201.103 185.581 201.198C185.88 201.286 186.185 201.385 186.498 201.493C186.817 201.602 187.126 201.727 187.424 201.87C187.723 202.013 187.988 202.192 188.219 202.41C188.456 202.62 188.646 202.878 188.789 203.184C188.931 203.482 189.003 203.846 189.003 204.273C189.003 204.782 188.908 205.254 188.718 205.689C188.534 206.116 188.263 206.486 187.903 206.799C187.543 207.111 187.095 207.355 186.559 207.532C186.022 207.708 185.405 207.797 184.705 207.797C184.346 207.797 183.989 207.763 183.636 207.695C183.283 207.634 182.947 207.546 182.628 207.43C182.309 207.308 182.01 207.169 181.732 207.013C181.453 206.856 181.212 206.687 181.009 206.503L181.661 205.455C181.735 205.332 181.827 205.237 181.936 205.169C182.051 205.102 182.197 205.068 182.373 205.068C182.543 205.068 182.699 205.112 182.842 205.2C182.984 205.281 183.144 205.373 183.32 205.475C183.497 205.57 183.704 205.662 183.942 205.75C184.186 205.831 184.488 205.872 184.848 205.872C185.119 205.872 185.354 205.842 185.551 205.78C185.747 205.719 185.907 205.638 186.029 205.536C186.151 205.427 186.24 205.309 186.294 205.18C186.355 205.044 186.386 204.905 186.386 204.762C186.386 204.531 186.311 204.345 186.162 204.202C186.019 204.053 185.829 203.924 185.591 203.815C185.361 203.706 185.092 203.608 184.787 203.52C184.481 203.431 184.169 203.333 183.85 203.224C183.538 203.116 183.229 202.987 182.923 202.837C182.625 202.688 182.356 202.501 182.119 202.277C181.888 202.047 181.698 201.765 181.549 201.432C181.406 201.099 181.335 200.696 181.335 200.22C181.335 199.786 181.42 199.375 181.589 198.988C181.759 198.594 182.014 198.248 182.353 197.949C182.692 197.651 183.113 197.413 183.616 197.237C184.125 197.06 184.712 196.972 185.377 196.972C186.124 196.972 186.803 197.094 187.414 197.338C188.025 197.583 188.528 197.902 188.921 198.296L188.28 199.294Z" fill="#02172B"/>
</svg>
