<svg width="1512" height="568" viewBox="0 0 1512 568" fill="none" xmlns="http://www.w3.org/2000/svg">
<path d="M1128.48 216.422C1127.91 216.99 1086.09 263.3 1066.4 282.721C1061.06 277.363 1044.58 261.224 1021.35 239.526C992.314 212.403 986.747 190.304 982.742 181.263C978.738 172.222 971.285 145.1 981.297 108.936C991.309 72.773 1018.79 46.6551 1019.79 45.6506C1020.59 44.8469 1046.38 18.5281 1066.4 0.44646C1066.07 0.44646 1068.41 -0.558075 1069.41 0.44646L1069.48 0.519455C1071.59 2.6368 1099.35 30.4729 1123.47 57.705C1143.93 80.8093 1148.77 92.3068 1153.5 118.309C1156.57 135.162 1155.28 143.646 1154.95 158.159C1150.94 193.317 1129.48 215.417 1128.48 216.422Z" fill="#80DB42" fill-opacity="0.11" stroke="#80DB42" stroke-opacity="0.11" stroke-width="2.76098"/>
<path d="M1306.69 216.422C1306.12 216.99 1264.31 263.3 1244.62 282.721C1239.28 277.363 1222.79 261.224 1199.56 239.526C1170.53 212.403 1164.96 190.304 1160.95 181.263C1156.95 172.222 1149.5 145.1 1159.51 108.936C1169.52 72.773 1197 46.6551 1198 45.6506C1198.8 44.8469 1224.6 18.5281 1244.62 0.44646C1244.28 0.44646 1246.62 -0.558075 1247.62 0.44646L1247.69 0.519455C1249.8 2.6368 1277.56 30.4729 1301.68 57.705C1322.15 80.8093 1326.98 92.3068 1331.72 118.309C1334.78 135.162 1333.49 143.646 1333.16 158.159C1329.15 193.317 1307.69 215.417 1306.69 216.422Z" stroke="#80DB42" stroke-opacity="0.11" stroke-width="2.76098"/>
<path d="M1484.9 216.422C1484.34 216.99 1442.52 263.3 1422.83 282.721C1417.49 277.363 1401 261.224 1377.77 239.526C1348.74 212.403 1343.17 190.304 1339.17 181.263C1335.16 172.222 1327.71 145.1 1337.72 108.936C1347.73 72.773 1375.21 46.6551 1376.21 45.6506C1377.01 44.8469 1402.81 18.5281 1422.83 0.44646C1422.49 0.44646 1424.83 -0.558075 1425.83 0.44646L1425.9 0.519455C1428.02 2.6368 1455.77 30.4729 1479.89 57.705C1500.36 80.8093 1505.2 92.3068 1509.93 118.309C1513 135.162 1511.71 143.646 1511.37 158.159C1507.37 193.317 1485.9 215.417 1484.9 216.422Z" fill="#80DB42" fill-opacity="0.11" stroke="#80DB42" stroke-opacity="0.11" stroke-width="2.76098"/>
<path d="M1128.48 499.701C1127.91 500.269 1086.09 546.579 1066.4 566C1061.06 560.643 1044.58 544.503 1021.35 522.805C992.314 495.683 986.747 473.583 982.742 464.542C978.738 455.501 971.285 428.379 981.297 392.216C991.309 356.052 1018.79 329.934 1019.79 328.93C1020.59 328.126 1046.38 301.807 1066.4 283.726C1066.07 283.726 1068.41 282.721 1069.41 283.726L1069.48 283.799C1071.59 285.916 1099.35 313.752 1123.47 340.984C1143.93 364.089 1148.77 375.586 1153.5 401.588C1156.57 418.441 1155.28 426.926 1154.95 441.438C1150.94 476.597 1129.48 498.696 1128.48 499.701Z" stroke="#80DB42" stroke-opacity="0.11" stroke-width="2.76098"/>
<path d="M1306.69 499.701C1306.12 500.269 1264.31 546.579 1244.62 566C1239.28 560.643 1222.79 544.503 1199.56 522.805C1170.53 495.683 1164.96 473.583 1160.95 464.542C1156.95 455.501 1149.5 428.379 1159.51 392.216C1169.52 356.052 1197 329.934 1198 328.93C1198.8 328.126 1224.6 301.807 1244.62 283.726C1244.28 283.726 1246.62 282.721 1247.62 283.726L1247.69 283.799C1249.8 285.916 1277.56 313.752 1301.68 340.984C1322.15 364.089 1326.98 375.586 1331.72 401.588C1334.78 418.441 1333.49 426.926 1333.16 441.438C1329.15 476.597 1307.69 498.696 1306.69 499.701Z" fill="#80DB42" fill-opacity="0.11" stroke="#80DB42" stroke-opacity="0.11" stroke-width="2.76098"/>
<path d="M56.1812 216.422C55.6149 216.99 13.7974 263.3 -5.8927 282.721C-11.233 277.363 -27.7204 261.224 -50.9481 239.526C-79.9826 212.403 -85.5498 190.304 -89.5545 181.263C-93.5593 172.222 -101.012 145.1 -91 108.936C-80.9881 72.773 -53.5106 46.6551 -52.5094 45.6506C-51.7084 44.8469 -25.9128 18.5281 -5.8927 0.44646C-6.22643 0.44646 -3.89032 -0.558075 -2.88912 0.44646L-2.81635 0.519455C-0.705185 2.6368 27.0497 30.4729 51.1716 57.705C71.6371 80.8093 76.4749 92.3068 81.2073 118.309C84.2746 135.162 82.984 143.646 82.6502 158.159C78.6455 193.317 57.1824 215.417 56.1812 216.422Z" fill="#80DB42" fill-opacity="0.11" stroke="#80DB42" stroke-opacity="0.11" stroke-width="2.76098"/>
<path d="M234.394 216.422C233.827 216.99 192.01 263.3 172.32 282.721C166.979 277.363 150.492 261.224 127.264 239.526C98.2298 212.403 92.6626 190.304 88.6579 181.263C84.6531 172.222 77.2005 145.1 87.2124 108.936C97.2243 72.773 124.702 46.6551 125.703 45.6506C126.504 44.8469 152.3 18.5281 172.32 0.44646C171.986 0.44646 174.322 -0.558075 175.323 0.44646L175.396 0.519455C177.507 2.6368 205.262 30.4729 229.384 57.705C249.85 80.8093 254.687 92.3068 259.42 118.309C262.487 135.162 261.196 143.646 260.863 158.159C256.858 193.317 235.395 215.417 234.394 216.422Z" stroke="#80DB42" stroke-opacity="0.11" stroke-width="2.76098"/>
<path d="M412.606 216.422C412.039 216.99 370.222 263.3 350.532 282.721C345.191 277.363 328.704 261.224 305.476 239.526C276.442 212.403 270.875 190.304 266.87 181.263C262.865 172.222 255.412 145.1 265.424 108.936C275.436 72.773 302.914 46.6551 303.915 45.6506C304.716 44.8469 330.511 18.5281 350.532 0.44646C350.198 0.44646 352.534 -0.558075 353.535 0.44646L353.608 0.519455C355.719 2.6368 383.474 30.4729 407.596 57.705C428.061 80.8093 432.899 92.3068 437.632 118.309C440.699 135.162 439.408 143.646 439.075 158.159C435.07 193.317 413.607 215.417 412.606 216.422Z" fill="#80DB42" fill-opacity="0.11" stroke="#80DB42" stroke-opacity="0.11" stroke-width="2.76098"/>
<path d="M56.1812 499.701C55.6149 500.269 13.7974 546.579 -5.8927 566C-11.233 560.643 -27.7204 544.503 -50.9481 522.805C-79.9826 495.683 -85.5498 473.583 -89.5545 464.542C-93.5593 455.501 -101.012 428.379 -91 392.216C-80.9881 356.052 -53.5106 329.934 -52.5094 328.93C-51.7084 328.126 -25.9128 301.807 -5.8927 283.726C-6.22643 283.726 -3.89032 282.721 -2.88912 283.726L-2.81635 283.799C-0.705185 285.916 27.0497 313.752 51.1716 340.984C71.6371 364.089 76.4749 375.586 81.2073 401.588C84.2746 418.441 82.984 426.926 82.6502 441.438C78.6455 476.597 57.1824 498.696 56.1812 499.701Z" stroke="#80DB42" stroke-opacity="0.11" stroke-width="2.76098"/>
<path d="M234.394 499.701C233.827 500.269 192.01 546.579 172.32 566C166.979 560.643 150.492 544.503 127.264 522.805C98.2298 495.683 92.6626 473.583 88.6579 464.542C84.6531 455.501 77.2005 428.379 87.2124 392.216C97.2243 356.052 124.702 329.934 125.703 328.93C126.504 328.126 152.3 301.807 172.32 283.726C171.986 283.726 174.322 282.721 175.323 283.726L175.396 283.799C177.507 285.916 205.262 313.752 229.384 340.984C249.85 364.089 254.687 375.586 259.42 401.588C262.487 418.441 261.196 426.926 260.863 441.438C256.858 476.597 235.395 498.696 234.394 499.701Z" fill="#80DB42" fill-opacity="0.11" stroke="#80DB42" stroke-opacity="0.11" stroke-width="2.76098"/>
<path d="M591.47 349.578C590.904 349.01 549.086 302.7 529.396 283.279C524.056 288.637 507.569 304.776 484.341 326.474C455.306 353.597 449.739 375.696 445.735 384.737C441.73 393.778 434.277 420.9 444.289 457.064C454.301 493.227 481.779 519.345 482.78 520.349C483.581 521.153 509.376 547.472 529.396 565.554C529.063 565.554 531.399 566.558 532.4 565.554L532.473 565.481C534.584 563.363 562.339 535.527 586.461 508.295C606.926 485.191 611.764 473.693 616.496 447.691C619.564 430.838 618.273 422.354 617.939 407.841C613.935 372.683 592.471 350.583 591.47 349.578Z" fill="#80DB42" fill-opacity="0.11" stroke="#80DB42" stroke-opacity="0.11" stroke-width="2.76098"/>
<path d="M769.683 349.578C769.116 349.01 727.299 302.7 707.609 283.279C702.269 288.637 685.781 304.776 662.553 326.474C633.519 353.597 627.952 375.696 623.947 384.737C619.942 393.778 612.49 420.9 622.501 457.064C632.513 493.227 659.991 519.345 660.992 520.349C661.793 521.153 687.589 547.472 707.609 565.554C707.275 565.554 709.611 566.558 710.612 565.554L710.685 565.481C712.796 563.363 740.551 535.527 764.673 508.295C785.139 485.191 789.976 473.693 794.709 447.691C797.776 430.838 796.485 422.354 796.152 407.841C792.147 372.683 770.684 350.583 769.683 349.578Z" stroke="#80DB42" stroke-opacity="0.11" stroke-width="2.76098"/>
<path d="M947.895 349.578C947.328 349.01 905.511 302.7 885.821 283.279C880.48 288.637 863.993 304.776 840.765 326.474C811.731 353.597 806.164 375.696 802.159 384.737C798.154 393.778 790.701 420.9 800.713 457.064C810.725 493.227 838.203 519.345 839.204 520.349C840.005 521.153 865.801 547.472 885.821 565.554C885.487 565.554 887.823 566.558 888.824 565.554L888.897 565.481C891.008 563.363 918.763 535.527 942.885 508.295C963.35 485.191 968.188 473.693 972.921 447.691C975.988 430.838 974.697 422.354 974.364 407.841C970.359 372.683 948.896 350.583 947.895 349.578Z" fill="#80DB42" fill-opacity="0.11" stroke="#80DB42" stroke-opacity="0.11" stroke-width="2.76098"/>
<path d="M591.47 66.2992C590.904 65.7309 549.086 19.4208 529.396 -0.000183105C524.056 5.35736 507.569 21.4969 484.341 43.1949C455.306 70.3173 449.739 92.417 445.735 101.458C441.73 110.499 434.277 137.621 444.289 173.784C454.301 209.948 481.779 236.066 482.78 237.07C483.581 237.874 509.376 264.193 529.396 282.274C529.063 282.274 531.399 283.279 532.4 282.274L532.473 282.201C534.584 280.084 562.339 252.248 586.461 225.016C606.926 201.911 611.764 190.414 616.496 164.412C619.564 147.559 618.273 139.074 617.939 124.562C613.935 89.4034 592.471 67.3037 591.47 66.2992Z" stroke="#80DB42" stroke-opacity="0.11" stroke-width="2.76098"/>
<path d="M769.683 66.2992C769.116 65.7309 727.299 19.4208 707.609 -0.000183105C702.269 5.35736 685.781 21.4969 662.553 43.1949C633.519 70.3173 627.952 92.417 623.947 101.458C619.942 110.499 612.49 137.621 622.501 173.784C632.513 209.948 659.991 236.066 660.992 237.07C661.793 237.874 687.589 264.193 707.609 282.274C707.275 282.274 709.611 283.279 710.612 282.274L710.685 282.201C712.796 280.084 740.551 252.248 764.673 225.016C785.139 201.911 789.976 190.414 794.709 164.412C797.776 147.559 796.485 139.074 796.152 124.562C792.147 89.4034 770.684 67.3037 769.683 66.2992Z" fill="#80DB42" fill-opacity="0.11" stroke="#80DB42" stroke-opacity="0.11" stroke-width="2.76098"/>
</svg>
