<svg width="299" height="116" viewBox="0 0 299 116" fill="none" xmlns="http://www.w3.org/2000/svg">
<rect x="116" width="67" height="67" rx="26.3215" fill="white"/>
<path d="M166.024 15H131.583C129.939 15 128.605 16.3929 128.605 18.1209V23.4621H169.001V18.1209C169.001 16.3929 167.668 15 166.024 15ZM133.908 20.8543C133.046 20.8543 132.354 20.1317 132.354 19.231C132.354 18.3304 133.046 17.6077 133.908 17.6077C134.77 17.6077 135.462 18.3304 135.462 19.231C135.462 20.1317 134.76 20.8543 133.908 20.8543ZM140.143 20.8543C139.281 20.8543 138.589 20.1317 138.589 19.231C138.589 18.3304 139.281 17.6077 140.143 17.6077C141.005 17.6077 141.696 18.3304 141.696 19.231C141.696 20.1317 140.995 20.8543 140.143 20.8543Z" fill="#02172B"/>
<path d="M128.606 26.645H131.843V28.1112C131.843 28.8548 132.415 29.4517 133.126 29.4517C133.838 29.4517 134.409 28.8548 134.409 28.1112V26.645H139.973L146.077 35.4527L141.145 40.7205L140.153 39.7047V47.1404H128.606V48.8789C128.606 50.5964 129.939 51.9998 131.583 51.9998H166.014C167.658 51.9998 168.991 50.6069 168.991 48.8789V24.917H128.596V26.645H128.606ZM148.352 27.996H162.586C162.977 27.996 163.288 28.3207 163.288 28.7291C163.288 29.1376 162.977 29.4622 162.586 29.4622H148.352C147.962 29.4622 147.651 29.1376 147.651 28.7291C147.651 28.3207 147.972 27.996 148.352 27.996ZM148.352 32.0804H162.586C162.977 32.0804 163.288 32.4051 163.288 32.8135C163.288 33.222 162.977 33.5466 162.586 33.5466H148.352C147.962 33.5466 147.651 33.222 147.651 32.8135C147.651 32.4051 147.972 32.0804 148.352 32.0804ZM148.352 36.1544H162.586C162.977 36.1544 163.288 36.479 163.288 36.8875C163.288 37.2959 162.977 37.6206 162.586 37.6206H148.352C147.962 37.6206 147.651 37.2959 147.651 36.8875C147.651 36.479 147.972 36.1544 148.352 36.1544ZM148.352 40.2388H162.586C162.977 40.2388 163.288 40.5634 163.288 40.9719C163.288 41.3803 162.977 41.705 162.586 41.705H148.352C147.962 41.705 147.651 41.3803 147.651 40.9719C147.651 40.5634 147.972 40.2388 148.352 40.2388ZM148.352 44.3232H162.586C162.977 44.3232 163.288 44.6479 163.288 45.0563C163.288 45.4647 162.977 45.7894 162.586 45.7894H148.352C147.962 45.7894 147.651 45.4647 147.651 45.0563C147.651 44.6479 147.972 44.3232 148.352 44.3232Z" fill="#80DB42"/>
<path d="M138.75 45.6643V36.2073L141.125 38.637L144.243 35.3067L139.251 28.1118H135.803C135.803 29.6618 134.6 30.9185 133.116 30.9185C131.633 30.9185 130.43 29.6618 130.43 28.1118H126.992L122 35.3067L125.117 38.637L127.493 36.2073V45.6643H138.75ZM131.693 35.4533H134.57C134.961 35.4533 135.271 35.778 135.271 36.1864C135.271 36.5948 134.961 36.9195 134.57 36.9195H131.693C131.302 36.9195 130.991 36.5948 130.991 36.1864C130.991 35.778 131.302 35.4533 131.693 35.4533Z" fill="#02172B"/>
<text fill="white" style="white-space: pre" xml:space="preserve" font-family="Titillium Web" font-size="32" font-weight="bold" letter-spacing="0em"><tspan x="11.2188" y="109.42">Para quem atuamos</tspan></text>
</svg>
