<svg width="299" height="117" viewBox="0 0 299 117" fill="none" xmlns="http://www.w3.org/2000/svg">
<rect x="116" width="67" height="67" rx="26.3215" fill="white"/>
<path d="M136.797 29.0862V41.3593L140.532 44.6089H150.001V31.9866C150.001 30.3842 148.355 29.0862 146.323 29.0862H136.797V29.0862Z" fill="#02172B"/>
<path d="M151.59 31.9873V40.241C151.942 40.053 152.362 39.9455 152.828 39.9455V26.8041C151.647 26.8041 150.682 26.07 150.625 25.1479H146.753C146.697 26.07 145.732 26.8041 144.551 26.8041V27.8335H146.333C149.229 27.8335 151.59 29.6955 151.59 31.9873Z" fill="#80DB42"/>
<path d="M156.005 43.2306V22.1309H141.348V27.8422H142.949V25.5595H144.538C144.867 25.5595 145.14 25.3536 145.151 25.1029L145.219 23.9033H152.122L152.19 25.1029C152.202 25.3625 152.474 25.5595 152.804 25.5595H154.393V41.2075H152.804C152.679 41.2075 152.565 41.2344 152.463 41.2881L151.566 41.7625V44.6271H154.234C155.222 44.6092 156.005 43.9916 156.005 43.2306Z" fill="#02172B"/>
<path d="M175.228 28.5138H160.377L157.596 25.7745V42.8727L160.377 40.8675H169.812C166.293 46.7131 158.742 50.7683 150 50.7683C137.92 50.7683 128.099 43.0249 128.099 33.5C128.099 23.9751 137.92 16.2317 150 16.2317C154.473 16.2317 158.64 17.2969 162.114 19.1231L159.651 21.0747L166.997 22.6234L171.595 23.5902L170.766 21.1642L168.382 14.1638L165.055 16.7867C160.82 14.4055 155.62 13 150 13C135.638 13 124 22.1758 124 33.5C124 44.8242 135.638 54 150 54C161.07 54 170.516 48.5483 174.274 40.8585C175.387 38.5758 176 36.0961 176 33.5C176 31.7812 175.728 30.1072 175.228 28.5138Z" fill="#80DB42"/>
<text fill="white" style="white-space: pre" xml:space="preserve" font-family="Titillium Web" font-size="32" font-weight="bold" letter-spacing="0em"><tspan x="18.7656" y="109.42">Modelo de atua&#xe7;&#xe3;o</tspan></text>
</svg>
