<svg width="433" height="185" viewBox="0 0 433 185" fill="none" xmlns="http://www.w3.org/2000/svg">
<g filter="url(#filter0_d_284_1784)">
<rect width="417" height="169" rx="20.898" fill="#02172B"/>
<rect x="175" y="28" width="67" height="67" rx="26.3215" fill="white"/>
<path d="M225.024 43H190.583C188.939 43 187.605 44.3929 187.605 46.1209V51.4621H228.001V46.1209C228.001 44.3929 226.668 43 225.024 43ZM192.908 48.8543C192.046 48.8543 191.354 48.1317 191.354 47.231C191.354 46.3304 192.046 45.6077 192.908 45.6077C193.77 45.6077 194.462 46.3304 194.462 47.231C194.462 48.1317 193.76 48.8543 192.908 48.8543ZM199.143 48.8543C198.281 48.8543 197.589 48.1317 197.589 47.231C197.589 46.3304 198.281 45.6077 199.143 45.6077C200.005 45.6077 200.696 46.3304 200.696 47.231C200.696 48.1317 199.995 48.8543 199.143 48.8543Z" fill="#02172B"/>
<path d="M187.606 54.645H190.843V56.1112C190.843 56.8548 191.415 57.4517 192.126 57.4517C192.838 57.4517 193.409 56.8548 193.409 56.1112V54.645H198.973L205.077 63.4527L200.145 68.7205L199.153 67.7047V75.1404H187.606V76.8789C187.606 78.5964 188.939 79.9998 190.583 79.9998H225.014C226.658 79.9998 227.991 78.6069 227.991 76.8789V52.917H187.596V54.645H187.606ZM207.352 55.996H221.586C221.977 55.996 222.288 56.3207 222.288 56.7291C222.288 57.1376 221.977 57.4622 221.586 57.4622H207.352C206.962 57.4622 206.651 57.1376 206.651 56.7291C206.651 56.3207 206.972 55.996 207.352 55.996ZM207.352 60.0804H221.586C221.977 60.0804 222.288 60.4051 222.288 60.8135C222.288 61.222 221.977 61.5466 221.586 61.5466H207.352C206.962 61.5466 206.651 61.222 206.651 60.8135C206.651 60.4051 206.972 60.0804 207.352 60.0804ZM207.352 64.1544H221.586C221.977 64.1544 222.288 64.479 222.288 64.8875C222.288 65.2959 221.977 65.6206 221.586 65.6206H207.352C206.962 65.6206 206.651 65.2959 206.651 64.8875C206.651 64.479 206.972 64.1544 207.352 64.1544ZM207.352 68.2388H221.586C221.977 68.2388 222.288 68.5634 222.288 68.9719C222.288 69.3803 221.977 69.705 221.586 69.705H207.352C206.962 69.705 206.651 69.3803 206.651 68.9719C206.651 68.5634 206.972 68.2388 207.352 68.2388ZM207.352 72.3232H221.586C221.977 72.3232 222.288 72.6479 222.288 73.0563C222.288 73.4647 221.977 73.7894 221.586 73.7894H207.352C206.962 73.7894 206.651 73.4647 206.651 73.0563C206.651 72.6479 206.972 72.3232 207.352 72.3232Z" fill="#80DB42"/>
<path d="M197.75 73.6643V64.2073L200.125 66.637L203.243 63.3067L198.251 56.1118H194.803C194.803 57.6618 193.6 58.9185 192.116 58.9185C190.633 58.9185 189.43 57.6618 189.43 56.1118H185.992L181 63.3067L184.117 66.637L186.493 64.2073V73.6643H197.75ZM190.693 63.4533H193.57C193.961 63.4533 194.271 63.778 194.271 64.1864C194.271 64.5948 193.961 64.9195 193.57 64.9195H190.693C190.302 64.9195 189.991 64.5948 189.991 64.1864C189.991 63.778 190.302 63.4533 190.693 63.4533Z" fill="#02172B"/>
<text fill="white" style="white-space: pre" xml:space="preserve" font-family="Titillium Web" font-size="32" font-weight="bold" letter-spacing="0em"><tspan x="70.2188" y="137.42">Para quem atuamos</tspan></text>
</g>
<defs>
<filter id="filter0_d_284_1784" x="0" y="0" width="433" height="185" filterUnits="userSpaceOnUse" color-interpolation-filters="sRGB">
<feFlood flood-opacity="0" result="BackgroundImageFix"/>
<feColorMatrix in="SourceAlpha" type="matrix" values="0 0 0 0 0 0 0 0 0 0 0 0 0 0 0 0 0 0 127 0" result="hardAlpha"/>
<feOffset dx="8" dy="8"/>
<feGaussianBlur stdDeviation="4"/>
<feComposite in2="hardAlpha" operator="out"/>
<feColorMatrix type="matrix" values="0 0 0 0 0 0 0 0 0 0 0 0 0 0 0 0 0 0 0.25 0"/>
<feBlend mode="normal" in2="BackgroundImageFix" result="effect1_dropShadow_284_1784"/>
<feBlend mode="normal" in="SourceGraphic" in2="effect1_dropShadow_284_1784" result="shape"/>
</filter>
</defs>
</svg>
