<svg width="49" height="43" viewBox="0 0 49 43" fill="none" xmlns="http://www.w3.org/2000/svg">
<path d="M42.2919 27.178C40.8942 27.178 39.5979 27.5499 38.5609 28.1759C38.6398 27.8493 38.6849 27.5137 38.6849 27.178C38.6849 24.4111 35.9008 22.1704 32.4629 22.1704C31.8542 22.1704 31.268 22.243 30.7157 22.37C28.1345 22.9778 26.2521 24.901 26.2521 27.1689V27.9037H22.4084C22.1153 27.9037 21.8786 28.0942 21.8786 28.3301V29.6092H0.665038C0.293068 29.6092 0 29.8451 0 30.1444V37.1115C0 37.4109 0.293068 37.6468 0.665038 37.6468H3.359C3.73097 37.6468 4.02404 37.4109 4.02404 37.1115V35.2609C4.02404 34.9615 4.31711 34.7257 4.68908 34.7257H6.4813C6.85327 34.7257 7.14634 34.9615 7.14634 35.2609V38.5993C7.14634 38.8986 7.43941 39.1345 7.81138 39.1345H10.5053C10.8773 39.1345 11.1704 38.8986 11.1704 38.5993V35.2609C11.1704 34.9615 11.4634 34.7257 11.8354 34.7257H21.8786V35.7961C21.8786 36.1499 22.228 36.4311 22.6676 36.4311H26.2521V37.175C26.2521 39.9419 29.0362 42.1826 32.4741 42.1826C35.912 42.1826 38.6962 39.9419 38.6962 37.175C38.6962 36.8303 38.6511 36.4946 38.5722 36.1771C39.6092 36.8031 40.9055 37.175 42.3032 37.175C45.7411 37.175 48.5252 34.9343 48.5252 32.1674C48.5252 29.4006 45.7298 27.178 42.2919 27.178ZM32.6432 39.6425C31.223 39.6425 30.062 38.7172 30.062 37.5651C30.062 36.4221 31.2117 35.4877 32.6432 35.4877C34.0635 35.4877 35.2245 36.413 35.2245 37.5651C35.2245 38.7081 34.0747 39.6425 32.6432 39.6425ZM32.6432 28.8018C31.8767 28.8018 31.1891 28.5297 30.7157 28.1033C30.3099 27.7404 30.0732 27.2596 30.0732 26.7244C30.0732 26.1983 30.3212 25.7175 30.7157 25.3546C31.1891 24.9282 31.8767 24.6561 32.6432 24.6561C34.0635 24.6561 35.2245 25.5814 35.2245 26.7335C35.2245 27.8765 34.0747 28.8018 32.6432 28.8018ZM42.2919 34.2539C40.8716 34.2539 39.7107 33.3286 39.7107 32.1765C39.7107 31.0335 40.8604 30.0991 42.2919 30.0991C43.7121 30.0991 44.8619 31.0244 44.8619 32.1765C44.8731 33.3286 43.7121 34.2539 42.2919 34.2539Z" fill="white"/>
<path d="M15.4468 27.6959V26.8069V25.2919C13.6321 24.9835 12.2231 23.7588 12.0315 22.2438C12.0202 22.1259 12.0089 21.9989 12.0089 21.8719C12.0089 19.9396 13.959 18.3793 16.3486 18.3793C18.7495 18.3793 20.6882 19.9396 20.6882 21.8719C20.6882 21.9989 20.677 22.1168 20.6657 22.2438C20.4628 23.7588 19.0651 24.9835 17.2503 25.2919V26.8069V27.6959V28.1677H20.0683V26.4622H24.4981C24.8588 23.913 27.1019 21.7086 30.2129 20.9829C30.382 20.9466 30.5511 20.9103 30.7202 20.874V15.6306C30.7202 14.2244 29.3112 13.0905 27.5641 13.0905H26.7187V4.21835C26.7187 1.88692 24.3629 0 21.4773 0H11.2312C8.33432 0 5.98978 1.89599 5.98978 4.21835V13.0905H5.14439C3.39726 13.0905 1.98828 14.2244 1.98828 15.6306V28.1767H15.4581V27.6959H15.4468ZM7.782 4.21835C7.782 2.6943 9.32624 1.45147 11.2199 1.45147H21.466C23.3597 1.45147 24.9039 2.6943 24.9039 4.21835V13.0905H7.77073V4.21835H7.782Z" fill="#80DB42"/>
</svg>
