<svg width="45" height="44" viewBox="41 72 45 44" fill="none" xmlns="http://www.w3.org/2000/svg">
  <path d="M73.4167 90.1307V73.7491C73.4167 73.0041 72.8126 72.3899 72.0575 72.3899H48.8495C48.0943 72.3899 47.4902 72.994 47.4902 73.7491V90.1307L60.4585 99.6958L73.4167 90.1307ZM64.9793 78.0484H67.6374C68.0804 78.0484 68.4429 78.4109 68.4429 78.8539C68.4429 79.2969 68.0804 79.6594 67.6374 79.6594H64.9793C64.5363 79.6594 64.1738 79.2969 64.1738 78.8539C64.1738 78.4109 64.5363 78.0484 64.9793 78.0484ZM64.9793 83.6566H67.6374C68.0804 83.6566 68.4429 84.0191 68.4429 84.4621C68.4429 84.9051 68.0804 85.2676 67.6374 85.2676H64.9793C64.5363 85.2676 64.1738 84.9051 64.1738 84.4621C64.1738 84.0191 64.5363 83.6566 64.9793 83.6566ZM64.9793 89.2547H67.6374C68.0804 89.2547 68.4429 89.6172 68.4429 90.0602C68.4429 90.5032 68.0804 90.8657 67.6374 90.8657H64.9793C64.5363 90.8657 64.1738 90.5032 64.1738 90.0602C64.1738 89.6172 64.5363 89.2547 64.9793 89.2547ZM53.2595 78.0484H60.3981C60.8411 78.0484 61.2036 78.4109 61.2036 78.8539C61.2036 79.2969 60.8411 79.6594 60.3981 79.6594H53.2595C52.8165 79.6594 52.454 79.2969 52.454 78.8539C52.454 78.4109 52.8165 78.0484 53.2595 78.0484ZM53.2595 83.6566H60.3981C60.8411 83.6566 61.2036 84.0191 61.2036 84.4621C61.2036 84.9051 60.8411 85.2676 60.3981 85.2676H53.2595C52.8165 85.2676 52.454 84.9051 52.454 84.4621C52.454 84.0191 52.8165 83.6566 53.2595 83.6566ZM53.2595 90.8657C52.8165 90.8657 52.454 90.5032 52.454 90.0602C52.454 89.6172 52.8165 89.2547 53.2595 89.2547H60.3981C60.8411 89.2547 61.2036 89.6172 61.2036 90.0602C61.2036 90.5032 60.8411 90.8657 60.3981 90.8657H53.2595Z" fill="#80DB42"/>
  <path d="M76.7397 95.5777H78.9145V88.0867L73.4171 92.1444L60.4488 101.709L47.4906 92.1343L41.9932 88.0767V109.422H71.2121V105.838C71.2121 104.831 71.7155 103.945 72.4807 103.411V99.8367C72.4807 97.4908 74.3938 95.5777 76.7397 95.5777Z" fill="white"/>
  <path d="M83.7375 104.519V99.8367C83.7375 98.3768 82.5495 97.1887 81.0895 97.1887H76.7399C75.28 97.1887 74.0919 98.3768 74.0919 99.8367V104.519C73.3871 104.549 72.8232 105.133 72.8232 105.858V113.661C72.8232 114.396 73.4173 115 74.1624 115H83.6671C84.4121 115 85.0062 114.396 85.0062 113.661V105.858C85.0062 105.133 84.4423 104.519 83.7375 104.519ZM80.7472 109.281C80.7472 109.301 80.7472 109.311 80.7472 109.331C80.6767 109.976 80.274 110.519 79.7202 110.791V112.201C79.7202 112.644 79.3577 113.006 78.9147 113.006C78.4717 113.006 78.1092 112.644 78.1092 112.201V110.791C77.5756 110.53 77.193 110.026 77.0923 109.422C77.0923 109.392 77.0822 109.362 77.0822 109.331C77.0822 109.311 77.0822 109.301 77.0822 109.281C77.0722 109.231 77.0722 109.19 77.0722 109.14C77.0722 108.123 77.8978 107.298 78.9147 107.298C79.9316 107.298 80.7573 108.123 80.7573 109.14C80.7573 109.19 80.7573 109.241 80.7472 109.281ZM82.1266 104.509H75.7129V99.8367C75.7129 99.2628 76.1761 98.7997 76.75 98.7997H81.0996C81.6735 98.7997 82.1366 99.2628 82.1366 99.8367V104.509H82.1266Z" fill="#80DB42"/>
</svg>
