<svg width="46" height="39" viewBox="0 0 46 39" fill="none" xmlns="http://www.w3.org/2000/svg">
<path d="M28.0714 25.4976L27.7177 25.019L22.6515 18.1323V4.23399H23.3277C23.9103 4.23399 24.4408 3.99472 24.8257 3.60982C25.2106 3.22491 25.4499 2.69436 25.4499 2.11179C25.4499 0.946666 24.5032 0 23.3381 0H12.2278C11.6452 0 11.1147 0.239267 10.7402 0.624176C10.3552 1.00908 10.116 1.53963 10.116 2.1222C10.116 3.28732 11.0626 4.23399 12.2278 4.23399H12.904V18.1323L7.83774 25.019L0.482867 35.0163C-0.71347 36.6391 0.451658 38.9382 2.45942 38.9382H33.096C33.4601 38.9382 33.8034 38.8653 34.1051 38.7301C35.4575 38.1267 36.0609 36.3478 35.083 35.0163L28.0714 25.4976ZM18.4903 6.87633C18.4903 6.47062 18.8128 6.14813 19.2185 6.14813C19.6243 6.14813 19.9467 6.47062 19.9467 6.87633V17.0088C19.9467 17.4145 19.6243 17.737 19.2185 17.737C18.8128 17.737 18.4903 17.4145 18.4903 17.0088V6.87633ZM18.7088 19.6823C18.8752 19.5159 19.1249 19.4327 19.3642 19.4847C19.4162 19.4951 19.4578 19.5055 19.4994 19.5263C19.541 19.5471 19.5826 19.5679 19.6243 19.5887C19.6659 19.6199 19.6971 19.6407 19.7387 19.6823C19.8739 19.8176 19.9467 20.0048 19.9467 20.2025C19.9467 20.3897 19.8635 20.577 19.7387 20.7122C19.6034 20.8475 19.4162 20.9307 19.2185 20.9307C19.0313 20.9307 18.844 20.8579 18.6984 20.7122C18.5632 20.577 18.4903 20.3897 18.4903 20.2025C18.4903 20.0048 18.5736 19.8176 18.7088 19.6823ZM5.87158 34.7458L13.0288 25.019H22.5059L27.0519 31.1984L29.6631 34.7458H5.87158Z" fill="white"/>
<path d="M19.2189 29.1594H18.501V28.4416C18.501 28.0359 18.1786 27.7134 17.7728 27.7134C17.3671 27.7134 17.0446 28.0359 17.0446 28.4416V29.1594H16.3268C15.9211 29.1594 15.5986 29.4819 15.5986 29.8876C15.5986 30.2933 15.9211 30.6158 16.3268 30.6158H17.0446V31.3336C17.0446 31.7393 17.3671 32.0618 17.7728 32.0618C18.1786 32.0618 18.501 31.7393 18.501 31.3336V30.6158H19.2189C19.6246 30.6158 19.9471 30.2933 19.9471 29.8876C19.9471 29.4819 19.6246 29.1594 19.2189 29.1594Z" fill="#80DB42"/>
<path d="M39.9623 21.638V11.0999H40.5033C40.9714 11.0999 41.3979 10.9126 41.6996 10.6005C42.0013 10.2884 42.1989 9.87231 42.1989 9.40417C42.1989 8.46791 41.4395 7.7085 40.5033 7.7085H31.6088C31.1406 7.7085 30.7141 7.89575 30.4124 8.20784C30.1107 8.50952 29.9131 8.93604 29.9131 9.40417C29.9131 10.3404 30.6725 11.0999 31.6088 11.0999H32.1497V21.638C31.2343 22.0749 30.402 22.6679 29.6738 23.3753C29.4033 23.6354 29.1537 23.9163 28.9248 24.2075L36.2485 34.1527C36.9559 35.1098 37.1847 36.3165 36.883 37.4609C36.7374 38.0122 36.4877 38.5012 36.1444 38.9277C41.1274 38.8757 45.143 34.8289 45.143 29.8355C45.143 26.2257 43.0312 23.1048 39.9623 21.638ZM40.9506 30.5741C40.5449 30.5741 40.2224 30.2516 40.2224 29.8459C40.2224 28.2439 39.2861 26.7667 37.8401 26.0697C37.476 25.8928 37.32 25.4663 37.4968 25.1022C37.6737 24.7381 38.1002 24.582 38.4643 24.7589C40.4096 25.6848 41.6684 27.6821 41.6684 29.8459C41.6788 30.2516 41.3563 30.5741 40.9506 30.5741Z" fill="#80DB42"/>
</svg>
