<svg width="40" height="41" viewBox="0 0 40 41" fill="none" xmlns="http://www.w3.org/2000/svg">
<path d="M16.0458 29.1191C16.5543 28.9876 17.0717 28.9262 17.589 28.9262C17.8608 28.9262 18.1238 28.9438 18.3956 28.9788L11.0391 0L0 2.80582L1.13986 7.28636L7.69846 5.6204L13.9151 30.1099C14.5464 29.654 15.2742 29.312 16.0458 29.1191Z" fill="#80DB42"/>
<path d="M39.2291 32.1354L38.0716 27.5759L22.6396 31.4865C23.1131 32.1354 23.4639 32.8719 23.6568 33.6523C23.8584 34.4326 23.9023 35.2481 23.7883 36.046L39.2291 32.1354Z" fill="#80DB42"/>
<path d="M25.9802 20.1489L21.6838 21.2361L20.5966 16.9397L16.8613 17.8867L19.7548 29.3029C20.4738 29.5659 21.1314 29.9605 21.7101 30.4603L33.1175 27.5668L29.8119 14.5986L24.8842 15.8525L25.9802 20.1489Z" fill="#80DB42"/>
<path d="M19.1062 16.0541L20.4302 15.7121L25.6911 14.3793L29.514 13.4148L26.2172 0.411621L21.2894 1.66547L22.3767 5.96188L18.0803 7.0579L16.9843 2.75273L13.249 3.70846L16.5459 16.7029L19.1062 16.0541Z" fill="white"/>
<path d="M21.3331 31.8193C20.6404 31.0565 19.7285 30.5129 18.7202 30.2761C17.9573 30.1007 17.1507 30.1007 16.344 30.3024C15.5373 30.5041 14.8183 30.8987 14.2396 31.416C12.8718 32.626 12.2142 34.5462 12.6964 36.4401C13.3803 39.1407 16.1248 40.7804 18.8254 40.0877C20.7018 39.6142 22.0696 38.1412 22.4905 36.3788C22.6746 35.6072 22.6834 34.783 22.4729 33.9587C22.2713 33.1345 21.8679 32.4068 21.3331 31.8193ZM19.9389 35.2827C19.9389 35.3003 19.9389 35.3178 19.9389 35.3354C19.9302 35.4143 19.9214 35.4932 19.9126 35.5633C19.9126 35.5809 19.9039 35.6072 19.9039 35.6247C19.8951 35.6948 19.8776 35.765 19.86 35.8264C19.8513 35.8702 19.8337 35.9141 19.8162 35.9667C19.8074 35.993 19.7986 36.0193 19.7899 36.0456C19.7811 36.0543 19.7811 36.0719 19.7723 36.0806C19.7548 36.1245 19.7285 36.1771 19.711 36.2209C19.7022 36.2297 19.7022 36.2472 19.6934 36.256C19.6759 36.2911 19.6584 36.3262 19.632 36.3612C19.6233 36.3788 19.6057 36.4051 19.597 36.4226C19.5794 36.4489 19.5619 36.484 19.5444 36.5103C19.5356 36.5278 19.5268 36.5366 19.5181 36.5541C19.4918 36.598 19.4567 36.633 19.4304 36.6769C19.4216 36.6857 19.4128 36.6944 19.4041 36.7032C19.3602 36.7558 19.3164 36.8084 19.2638 36.8522C19.255 36.861 19.255 36.861 19.2462 36.8698C19.2287 36.8873 19.2024 36.9136 19.1849 36.9312C19.1498 36.9662 19.1147 36.9925 19.0797 37.0276C19.0621 37.0451 19.0358 37.0627 19.0183 37.0715C19.0007 37.089 18.9744 37.0978 18.9569 37.1153C18.9394 37.1328 18.9131 37.1416 18.8955 37.1591C18.8692 37.1767 18.8517 37.1854 18.8254 37.203C18.8078 37.2117 18.7815 37.2293 18.764 37.2381C18.7465 37.2468 18.7289 37.2556 18.7114 37.2644C18.6325 37.3082 18.5536 37.3433 18.4659 37.3783C18.4396 37.3871 18.4045 37.4046 18.3782 37.4134C18.3519 37.4222 18.3256 37.4309 18.2993 37.4397C18.2642 37.4485 18.2204 37.466 18.1853 37.4748C17.9398 37.5362 17.6855 37.5625 17.44 37.5449C17.4137 37.5449 17.3874 37.5449 17.3611 37.5362C17.3172 37.5362 17.2822 37.5274 17.2383 37.5186C17.2208 37.5186 17.2033 37.5099 17.1857 37.5099C17.098 37.4923 17.0104 37.4748 16.9314 37.4485C16.9051 37.4397 16.8876 37.4309 16.8613 37.4309C16.8438 37.4222 16.8262 37.4222 16.8087 37.4134C16.7824 37.4046 16.7649 37.3959 16.7385 37.3871C16.7122 37.3783 16.6947 37.3696 16.6684 37.3608C16.6421 37.3433 16.607 37.3345 16.5807 37.317C16.5632 37.3082 16.5369 37.2994 16.5193 37.2907C16.493 37.2819 16.4755 37.2644 16.4492 37.2556C16.3966 37.2293 16.344 37.1942 16.3001 37.1591C16.2651 37.1328 16.23 37.1153 16.1949 37.0802C16.1686 37.0627 16.1423 37.0452 16.116 37.0188C16.0722 36.9838 16.0371 36.9575 16.002 36.9224C15.9757 36.9049 15.9582 36.8786 15.9406 36.861C15.9056 36.8259 15.8705 36.7909 15.8354 36.747C15.8004 36.7032 15.7653 36.6593 15.7302 36.6155C15.7039 36.5717 15.6688 36.5366 15.6425 36.4928C15.6162 36.4489 15.5811 36.3963 15.5548 36.3525C15.5461 36.3262 15.5285 36.3086 15.5198 36.2823C15.5022 36.2472 15.4847 36.2122 15.4672 36.1771C15.4409 36.1157 15.4146 36.0543 15.3882 35.9842C15.3619 35.9141 15.3444 35.8527 15.3269 35.7825C15.3006 35.6685 15.283 35.5633 15.2655 35.4493C15.2655 35.423 15.2655 35.3967 15.2567 35.3704C15.1778 34.2569 15.9056 33.2135 17.0191 32.9241C17.2471 32.8627 17.4751 32.8452 17.6943 32.854C17.7118 32.854 17.7206 32.854 17.7381 32.854C17.7644 32.854 17.7995 32.854 17.8258 32.8627H17.8346C17.9047 32.8715 17.9836 32.8803 18.0538 32.8978C18.0888 32.9066 18.1239 32.9153 18.1678 32.9241C18.2028 32.9329 18.2379 32.9416 18.273 32.9504C18.3081 32.9592 18.3344 32.9679 18.3694 32.9767C18.3957 32.9855 18.422 32.9942 18.4571 33.0118C18.4746 33.0206 18.4922 33.0206 18.5097 33.0293C18.536 33.0381 18.5623 33.0556 18.5974 33.0644C18.6325 33.0819 18.6675 33.0995 18.7026 33.117C18.764 33.1433 18.8166 33.1784 18.8692 33.2135C18.8955 33.231 18.9218 33.2485 18.9481 33.2661C18.9744 33.2836 19.0007 33.3011 19.0183 33.3187C19.0533 33.345 19.0797 33.3625 19.106 33.3888C19.1323 33.4064 19.1498 33.4239 19.1673 33.4414C19.1936 33.459 19.2112 33.4765 19.2287 33.5028C19.2375 33.5028 19.2375 33.5116 19.2375 33.5116C19.255 33.5291 19.2813 33.5554 19.2989 33.5729C19.3865 33.6606 19.4567 33.7571 19.5268 33.8535C19.5356 33.8711 19.5531 33.8886 19.5619 33.9061C19.5882 33.9412 19.6057 33.9763 19.632 34.0114C19.6408 34.0289 19.6496 34.0464 19.6584 34.064C19.6847 34.1166 19.711 34.1692 19.7373 34.2218L19.9389 35.0285C19.9389 35.1161 19.9389 35.2038 19.9389 35.2827Z" fill="white"/>
</svg>
