<svg width="49" height="45" viewBox="0 0 49 45" fill="none" xmlns="http://www.w3.org/2000/svg">
<path d="M42.2553 16.2789C42.2553 16.2688 42.2553 16.2587 42.2553 16.2487V16.2386C42.2553 15.9567 42.1143 15.705 41.8727 15.5539L24.7561 4.89133C24.7561 4.89133 24.7461 4.89133 24.7461 4.88126C24.7159 4.86112 24.6957 4.85106 24.6655 4.84099C24.6655 4.84099 24.6554 4.84099 24.6554 4.83092C24.6252 4.82085 24.595 4.81078 24.5548 4.80071C24.5447 4.80071 24.5447 4.80071 24.5346 4.80071C24.5044 4.79064 24.4843 4.79064 24.4541 4.78058C24.444 4.78058 24.4339 4.78058 24.4339 4.78058C24.4037 4.78058 24.3635 4.77051 24.3332 4.77051C24.303 4.77051 24.2628 4.77051 24.2326 4.78058C24.2225 4.78058 24.2124 4.78058 24.2124 4.78058C24.1822 4.78058 24.1621 4.79064 24.1319 4.80071C24.1218 4.80071 24.1218 4.80071 24.1117 4.80071C24.0815 4.81078 24.0513 4.82085 24.0111 4.83092C24.0111 4.83092 24.001 4.83092 24.001 4.84099C23.9708 4.85106 23.9506 4.87119 23.9204 4.88126C23.9204 4.88126 23.9104 4.88126 23.9104 4.89133L6.79384 15.5539C6.56226 15.705 6.41123 15.9567 6.41123 16.2386V16.2487C6.41123 16.2587 6.41123 16.2688 6.41123 16.2789C6.4213 16.5104 6.41123 16.8628 6.40116 17.3059C6.36089 19.8733 6.2602 25.2298 8.42494 30.7071C11.1233 37.5436 16.3892 42.2456 24.0916 44.6822C24.1319 44.6923 24.1621 44.7024 24.2024 44.7124C24.2124 44.7124 24.2225 44.7124 24.2225 44.7124C24.2628 44.7124 24.293 44.7225 24.3332 44.7225C24.3735 44.7225 24.4037 44.7225 24.444 44.7124C24.4541 44.7124 24.4641 44.7124 24.4641 44.7124C24.5044 44.7024 24.5346 44.7024 24.5749 44.6822C32.2673 42.2456 37.5331 37.5436 40.2315 30.7071C42.3962 25.2298 42.3056 19.8733 42.2553 17.3059C42.2553 16.8628 42.2553 16.5104 42.2553 16.2789ZM23.5278 42.7994C13.3283 39.1647 9.79426 31.7139 8.59611 25.552H23.5278V42.7994ZM40.3422 23.941H25.1387V7.02586L40.6443 16.6816C40.6443 16.8729 40.6544 17.0843 40.6544 17.326C40.6846 18.8161 40.7248 21.1923 40.3422 23.941Z" fill="#80DB42"/>
<path d="M48.2961 15.2216L39.2646 9.42215V3.1293C39.2646 2.59567 38.8317 2.15266 38.288 2.15266H35.207C34.6734 2.15266 34.2304 2.5856 34.2304 3.1293V6.20021L24.7659 0.128877C24.5142 -0.0322194 24.2021 -0.0422879 23.9403 0.0986718C23.9101 0.118809 23.8698 0.138946 23.8396 0.159083L0.369837 15.2317C-0.00269911 15.4733 -0.113453 15.9667 0.128192 16.3493C0.27922 16.591 0.541002 16.7218 0.802785 16.7218C0.953813 16.7218 1.10484 16.6816 1.23573 16.591L24.333 1.75998L47.4202 16.5809C47.7927 16.8225 48.2961 16.7118 48.5378 16.3392C48.7794 15.9667 48.6687 15.4633 48.2961 15.2216Z" fill="white"/>
</svg>
