<svg width="103" height="109" viewBox="0 0 103 109" fill="none" xmlns="http://www.w3.org/2000/svg">
<path d="M29.4799 41.296C29.3721 41.4044 21.4087 50.241 17.6592 53.9467C16.6422 52.9245 13.5025 49.8448 9.07925 45.7046C3.55019 40.5293 2.49004 36.3124 1.72741 34.5873C0.964782 32.8622 -0.45442 27.6869 1.45215 20.7864C3.35873 13.886 8.59128 8.90239 8.78193 8.71071C8.93446 8.55737 13.8467 3.5354 17.6592 0.0851903C17.5956 0.0851903 18.0405 -0.106488 18.2311 0.0851903L18.2449 0.0990761C18.6466 0.502762 23.9322 5.81444 28.5259 11.0108C32.4232 15.4194 33.3444 17.6133 34.2456 22.5748C34.8297 25.7905 34.584 27.4096 34.5204 30.1787C33.7578 36.8874 29.6706 41.1043 29.4799 41.296Z" fill="white"/>
<path d="M63.4164 41.296C63.3086 41.4044 55.3453 50.241 51.5957 53.9467C50.5787 52.9245 47.439 49.8448 43.0158 45.7046C37.4867 40.5293 36.4266 36.3124 35.6639 34.5873C34.9013 32.8622 33.4821 27.6869 35.3887 20.7864C37.2952 13.886 42.5278 8.90239 42.7185 8.71071C42.871 8.55737 47.7832 3.5354 51.5957 0.0851903C51.5321 0.0851903 51.977 -0.106488 52.1677 0.0851903L52.1815 0.0990761C52.5832 0.502762 57.8687 5.81444 62.4624 11.0108C66.3597 15.4194 67.281 17.6133 68.1822 22.5748C68.7663 25.7905 68.5205 27.4096 68.4569 30.1787C67.6943 36.8874 63.6071 41.1043 63.4164 41.296Z" stroke="white"/>
<path d="M97.3539 41.296C97.2461 41.4044 89.2828 50.241 85.5332 53.9467C84.5162 52.9245 81.3765 49.8448 76.9533 45.7046C71.4242 40.5293 70.3641 36.3124 69.6014 34.5873C68.8388 32.8622 67.4196 27.6869 69.3262 20.7864C71.2327 13.886 76.4653 8.90239 76.656 8.71071C76.8085 8.55737 81.7207 3.5354 85.5332 0.0851903C85.4696 0.0851903 85.9145 -0.106488 86.1052 0.0851903L86.119 0.0990761C86.5207 0.502762 91.8062 5.81444 96.3999 11.0108C100.297 15.4194 101.218 17.6133 102.12 22.5748C102.704 25.7905 102.458 27.4096 102.394 30.1787C101.632 36.8874 97.5446 41.1043 97.3539 41.296Z" fill="white"/>
<path d="M29.4799 95.3492C29.3721 95.4577 21.4087 104.294 17.6592 108C16.6422 106.978 13.5025 103.898 9.07925 99.7578C3.55019 94.5825 2.49004 90.3656 1.72741 88.6405C0.964782 86.9154 -0.45442 81.7401 1.45215 74.8397C3.35873 67.9393 8.59128 62.9556 8.78193 62.764C8.93446 62.6106 13.8467 57.5887 17.6592 54.1384C17.5956 54.1384 18.0405 53.9468 18.2311 54.1384L18.2449 54.1523C18.6466 54.556 23.9322 59.8677 28.5259 65.0641C32.4232 69.4727 33.3444 71.6666 34.2456 76.6281C34.8297 79.8438 34.584 81.4628 34.5204 84.2319C33.7578 90.9407 29.6706 95.1576 29.4799 95.3492Z" stroke="white"/>
<path d="M63.4164 95.3492C63.3086 95.4577 55.3453 104.294 51.5957 108C50.5787 106.978 47.439 103.898 43.0158 99.7578C37.4867 94.5825 36.4266 90.3656 35.6639 88.6405C34.9013 86.9154 33.4821 81.7401 35.3887 74.8397C37.2952 67.9393 42.5278 62.9556 42.7185 62.764C42.871 62.6106 47.7832 57.5887 51.5957 54.1384C51.5321 54.1384 51.977 53.9468 52.1677 54.1384L52.1815 54.1523C52.5832 54.556 57.8687 59.8677 62.4624 65.0641C66.3597 69.4727 67.281 71.6666 68.1822 76.6281C68.7663 79.8438 68.5205 81.4628 68.4569 84.2319C67.6943 90.9407 63.6071 95.1576 63.4164 95.3492Z" fill="white"/>
</svg>
