<svg preserveAspectRatio="none" width="100%" height="100%" overflow="visible" style="display: block;" viewBox="0 0 40.725 22.9289" fill="none" xmlns="http://www.w3.org/2000/svg">
<g id="Group">
<path id="Vector" d="M19.0236 4.14744L13.6662 12.03L14.5693 22.7009H22.3467V3.45476H19.4883L19.0236 4.14744Z" fill="var(--fill-0, #80DB42)"/>
<path id="Vector_2" d="M31.3342 3.45476V22.7009H39.1028L40.7249 3.45476H31.3342Z" fill="var(--fill-0, #80DB42)"/>
<path id="Vector_3" d="M18.4712 2.77086L14.3852 0.000116348L9.79944 6.75162C9.55393 5.83973 9.0103 4.90153 8.33515 4.22638C7.44956 3.33202 6.37985 2.93746 5.32766 3.09528C4.58237 3.20927 3.93352 3.65645 3.59156 4.28776C2.88134 5.62052 3.81954 6.94452 4.17903 7.4443C4.46838 7.85641 4.78404 8.24221 5.10846 8.61047C4.64374 8.45264 4.17026 8.30358 3.67924 8.18083C3.08301 8.03177 1.5135 7.64597 0.531467 8.80337C0.0667532 9.35577 -0.10861 10.1186 0.0667533 10.8551C0.303494 11.8898 1.07509 12.7315 2.23249 13.2313C2.92518 13.5294 3.74062 13.6873 4.52099 13.6873C4.72266 13.6873 4.92433 13.6785 5.11723 13.6522L0.706831 20.1582L4.7928 22.9289L13.4996 10.0923L17.9977 3.46355L18.4712 2.77086ZM4.67882 4.85769C4.83664 4.56834 5.14353 4.3579 5.51179 4.30529C5.59948 4.28776 5.69593 4.28776 5.78361 4.28776C7.19529 4.28776 8.36145 5.95371 8.6508 7.20756C8.72972 7.56706 8.76479 7.93532 8.75602 8.30358L8.74725 8.32112L7.8529 9.63635C6.96731 8.82968 6.00281 7.86517 5.18737 6.72531C4.58237 5.88357 4.43331 5.3224 4.67882 4.85769ZM5.11723 12.4071C3.76693 12.6088 1.61872 12.0739 1.26799 10.5658C1.18031 10.2063 1.25923 9.83802 1.47843 9.58374C1.68887 9.33823 1.97822 9.21548 2.40786 9.21548C2.67967 9.21548 3.00409 9.26808 3.39866 9.36453C4.75773 9.69773 6.04665 10.2589 7.0813 10.7674L6.35354 11.8284L6.16941 12.0914C5.82745 12.2493 5.47672 12.3545 5.11723 12.4071Z" fill="var(--fill-0, #80DB42)"/>
<path id="Vector_4" d="M30.1066 3.45476H23.5743V22.6921H30.1066V3.45476Z" fill="var(--fill-0, white)"/>
</g>
</svg>
