<svg width="67" height="67" viewBox="0 0 67 67" fill="none" xmlns="http://www.w3.org/2000/svg">
  <g transform="translate(0, -341)">
    <rect y="341" width="67" height="67" rx="26.3215" fill="#02172B"/>
    <path d="M29.6921 360.813H27.2786L26.7585 357.511H24.7715V350.628C24.7715 350.278 24.449 350 24.0433 350C23.6376 350 23.3151 350.278 23.3151 350.628V357.511H21.3282L20.808 360.813H18.3945V366.108H21.9731C22.3789 366.108 22.7013 366.386 22.7013 366.736C22.7013 367.086 22.3789 367.364 21.9731 367.364H18.3945V369.994H21.9731C22.3789 369.994 22.7013 370.272 22.7013 370.622C22.7013 370.972 22.3789 371.25 21.9731 371.25H18.3945V373.879H21.9731C22.3789 373.879 22.7013 374.157 22.7013 374.507C22.7013 374.857 22.3789 375.136 21.9731 375.136H18.3945V377.935H29.6921V360.813ZM24.886 374.938C24.7507 375.055 24.5635 375.118 24.3658 375.118C24.1786 375.118 23.9913 375.055 23.8561 374.938C23.7208 374.821 23.6376 374.66 23.6376 374.489C23.6376 374.328 23.7104 374.166 23.8561 374.05C23.9913 33.933 24.1786 33.861 24.3658 33.861C24.5531 33.861 24.7403 33.933 24.886 34.05C25.0212 34.166 25.094 34.328 25.094 34.489C25.094 34.66 25.0212 34.821 24.886 34.938ZM24.886 371.061C24.7507 371.178 24.5635 371.241 24.3658 371.241C24.1786 371.241 23.9913 371.178 23.8561 371.061C23.7208 30.945 23.6376 30.783 23.6376 30.613C23.6376 30.577 23.6376 30.532 23.648 30.487C23.6584 30.442 23.6688 30.406 23.6896 30.37C23.7104 30.335 23.7312 30.299 23.752 30.263C23.7832 30.227 23.8041 30.2 23.8457 30.164C23.8769 30.137 23.9185 30.11 23.9601 30.083C24.0017 30.056 24.0433 30.038 24.0849 30.029C24.1265 30.012 24.1786 30.003 24.2202 29.994C24.3138 29.976 24.4074 29.976 24.501 29.994C24.5427 30.003 24.5947 30.012 24.6363 30.029C24.6779 30.047 24.7195 30.065 24.7611 30.083C24.8027 30.11 24.8339 30.128 24.8756 30.164C24.9068 30.191 24.938 30.227 24.9692 30.263C25.0004 30.299 25.0212 30.335 25.0316 30.37C25.0524 30.406 25.0628 30.451 25.0732 30.487C25.0836 30.532 25.0836 30.568 25.0836 30.613C25.094 30.783 25.0212 30.945 24.886 371.061ZM24.886 367.176C24.7507 367.292 24.5635 367.355 24.3658 367.355C24.3138 367.355 24.2722 367.355 24.2202 367.346C24.1682 367.337 24.1265 367.328 24.0849 367.31C24.0433 367.292 24.0017 367.275 23.9601 367.248C23.9185 367.221 23.8873 367.203 23.8457 367.167C23.8145 367.14 23.7832 367.104 23.752 27.068C23.7208 27.032 23.7 26.996 23.6896 26.96C23.6688 26.925 23.6584 26.88 23.648 26.844C23.6376 26.799 23.6376 26.763 23.6376 26.718C23.6376 26.557 23.7104 26.395 23.8561 26.278C23.8873 26.252 23.9289 26.225 23.9705 26.198C24.0121 26.171 24.0537 26.153 24.0953 26.144C24.1369 26.126 24.189 26.117 24.2306 26.108C24.4698 26.063 24.7195 26.135 24.886 26.278C25.0212 26.395 25.094 26.557 25.094 26.718C25.094 26.898 25.0212 27.059 24.886 367.176Z" fill="white"/>
    <path d="M19.7222 384.935H22.3229H25.7559H28.3566V382.054H31.6959V379.183H16.3828V382.054H19.7222V384.935Z" fill="#80DB42"/>
    <path d="M31.3651 392.697H25.7579V386.191H22.325V392.697H16.7282C16.3225 392.697 16 392.976 16 393.326C16 393.676 16.3225 393.954 16.7282 393.954H31.3651C31.7708 393.954 32.0933 393.676 32.0933 393.326C32.0933 392.985 31.7604 392.697 31.3651 392.697Z" fill="white"/>
    <path d="M50.6193 380.27H54.1979C54.2083 380.27 54.2291 380.27 54.2395 380.27V378.17H42.3281V388.804H54.2395V381.517C54.2291 381.517 54.2083 381.517 54.1979 381.517H50.6193C50.2135 381.517 49.8911 380.889 49.8911 380.889C49.8911 380.539 50.2239 380.27 50.6193 380.27ZM48.9444 381.024C48.934 381.068 48.9236 381.104 48.9028 381.14C48.882 381.176 48.8612 381.212 48.8404 381.248C48.8091 381.284 48.7883 381.311 48.7467 381.347C48.7155 381.374 48.6739 40.4 48.6323 381.427C48.5907 381.454 48.5491 381.472 48.5075 381.481C48.4659 381.499 48.4138 381.508 48.3722 381.517C48.3306 381.526 48.2786 381.526 48.2266 381.526C48.185 381.526 48.133 381.517 48.0809 381.517C48.0393 381.508 47.9873 381.499 47.9457 381.481C47.9041 381.463 47.8625 381.445 47.8209 381.427C47.7793 381.4 47.7481 381.383 47.7064 381.347C47.6752 381.32 47.644 381.284 47.6128 381.248C47.5816 381.212 47.5608 381.176 47.5504 381.14C47.5296 381.104 47.5192 381.059 47.5088 381.024C47.4984 380.988 47.4984 380.943 47.4984 380.898C47.4984 380.853 47.5088 380.817 47.5088 380.772C47.5088 380.727 47.5296 380.692 47.5504 380.656C47.5712 380.62 47.592 380.584 47.6128 380.548C47.644 380.512 47.6648 380.485 47.7064 380.449C47.8729 380.306 48.1226 380.234 48.3618 380.279C48.4138 380.288 48.4555 380.297 48.4971 380.315C48.5387 380.333 48.5803 380.351 48.6219 380.368C48.6635 380.395 48.6947 380.413 48.7363 380.449C48.8716 380.566 48.9444 380.727 48.9444 380.898C48.9548 380.943 48.9548 39.979 48.9444 381.024Z" fill="#80DB42"/>
    <path d="M40.8734 376.921H54.0851C53.4506 374.57 51.0163 372.811 48.0931 372.811H47.7706V370.559H42.205V372.811H41.8825C38.4807 372.811 35.7344 375.189 35.7344 378.115V391.557C35.7344 392.526 36.6498 393.316 37.7733 393.316H52.2126C53.3361 393.316 54.2516 392.526 54.2516 391.557V390.059H40.8734V376.921Z" fill="white"/>
    <path d="M45.9376 365.211H44.0234V369.312H45.9376V365.211Z" fill="#80DB42"/>
    <path d="M40.2803 369.312H42.5793V365.211H40.2803C39.7914 365.211 39.4065 365.552 39.4065 365.965V368.549C39.396 368.971 39.7914 369.312 40.2803 369.312Z" fill="#80DB42"/>
    <path d="M50.5674 368.549V365.965C50.5674 365.543 50.1721 365.211 49.6936 365.211H47.3945V369.312H49.6936C50.1721 369.312 50.5674 368.549 50.5674 368.549Z" fill="#80DB42"/>
  </g>
</svg>
