<svg width="67" height="67" viewBox="0 0 67 67" fill="none" xmlns="http://www.w3.org/2000/svg">
<rect width="67" height="67" rx="26.3215" fill="#02172B"/>
<path d="M47.6251 27.0967L37.0782 16.5592C36.8157 16.2967 36.3844 16.2967 36.1126 16.5592L33.5907 19.0811C33.3282 19.3436 33.3282 19.7748 33.5907 20.0373L35.4469 21.8936L32.1563 25.1842L34.5938 27.6217C34.8469 27.8748 34.8469 28.2967 34.5938 28.5498C34.4626 28.6811 34.2938 28.7373 34.1251 28.7373C33.9563 28.7373 33.7876 28.6717 33.6563 28.5498L31.2188 26.1123L29.0344 28.2967L31.4719 30.7342C31.7251 30.9873 31.7251 31.4092 31.4719 31.6623C31.3407 31.7936 31.1719 31.8592 31.0032 31.8592C30.8344 31.8592 30.6657 31.7936 30.5344 31.6623L28.0969 29.2248L25.9032 31.4186L28.3407 33.8561C28.5938 34.1092 28.5938 34.5311 28.3407 34.7842C28.2094 34.9154 28.0407 34.9811 27.8719 34.9811C27.7032 34.9811 27.5344 34.9154 27.4032 34.7842L24.9657 32.3467L22.5657 34.7467C22.1813 35.1404 22.0032 35.6936 22.0969 36.2279L22.2751 37.1842C22.3688 37.7279 22.2001 38.2811 21.8063 38.6748L19.3688 41.1592C18.3469 42.1811 18.3657 43.8592 19.4251 44.8623C20.4469 45.8279 22.0688 45.7623 23.0626 44.7686L25.4907 42.3404C25.8751 41.9467 26.4376 41.7779 26.9813 41.8717L27.9376 42.0404C28.4813 42.1436 29.0344 41.9654 29.4188 41.5811L42.2719 28.7279L44.1282 30.5842C44.3907 30.8467 44.8219 30.8467 45.0844 30.5842L47.6063 28.0623C47.8876 27.7998 47.8876 27.3686 47.6251 27.0967ZM29.7376 36.1717C29.7094 36.1998 29.6719 36.2279 29.6344 36.2561C29.5969 36.2842 29.5594 36.3029 29.5219 36.3123C29.4844 36.3311 29.4376 36.3404 29.4001 36.3498C29.3626 36.3592 29.3157 36.3592 29.2688 36.3592C29.1001 36.3592 28.9313 36.2936 28.8001 36.1717C28.7719 36.1436 28.7438 36.1061 28.7157 36.0686C28.6876 36.0311 28.6688 35.9936 28.6594 35.9561C28.6407 35.9186 28.6313 35.8717 28.6219 35.8342C28.6126 35.7873 28.6126 35.7498 28.6126 35.7029C28.6126 35.5342 28.6876 35.3561 28.8001 35.2342C28.9501 35.0842 29.1751 35.0092 29.3907 35.0561C29.4282 35.0654 29.4751 35.0748 29.5126 35.0936C29.5501 35.1123 29.5876 35.1311 29.6251 35.1498C29.6626 35.1779 29.7001 35.1967 29.7282 35.2342C29.8501 35.3561 29.9251 35.5248 29.9251 35.7029C29.9251 35.8811 29.8594 36.0498 29.7376 36.1717ZM33.0376 32.7217C33.0282 32.7592 33.0188 32.8061 33.0001 32.8436C32.9813 32.8811 32.9626 32.9186 32.9438 32.9561C32.9157 32.9936 32.8969 33.0217 32.8594 33.0592C32.7376 33.1811 32.5688 33.2467 32.4001 33.2467C32.2313 33.2467 32.0626 33.1717 31.9313 33.0592C31.9032 33.0311 31.8751 32.9936 31.8469 32.9561C31.8188 32.9186 31.8001 32.8811 31.7907 32.8436C31.7719 32.8061 31.7626 32.7592 31.7532 32.7217C31.7438 32.6748 31.7438 32.6373 31.7438 32.5904C31.7438 32.4217 31.8188 32.2436 31.9313 32.1217C32.0532 31.9998 32.2219 31.9342 32.4001 31.9342C32.5782 31.9342 32.7376 32.0092 32.8594 32.1217C32.9813 32.2436 33.0563 32.4123 33.0563 32.5904C33.0469 32.6279 33.0469 32.6748 33.0376 32.7217ZM36.1501 29.5998C36.1407 29.6373 36.1313 29.6842 36.1126 29.7217C36.0938 29.7592 36.0751 29.7967 36.0563 29.8342C36.0282 29.8717 36.0094 29.9092 35.9719 29.9373C35.9438 29.9654 35.9063 29.9936 35.8688 30.0217C35.8313 30.0498 35.7938 30.0686 35.7563 30.0779C35.7188 30.0967 35.6719 30.1061 35.6344 30.1154C35.5969 30.1248 35.5501 30.1248 35.5032 30.1248C35.4563 30.1248 35.4188 30.1248 35.3719 30.1154C35.3251 30.1061 35.2876 30.0967 35.2501 30.0779C35.2126 30.0592 35.1751 30.0404 35.1376 30.0217C35.1001 29.9936 35.0719 29.9654 35.0344 29.9373C35.0063 29.9092 34.9782 29.8717 34.9501 29.8342C34.9219 29.7967 34.9032 29.7592 34.8938 29.7217C34.8751 29.6842 34.8657 29.6373 34.8563 29.5998C34.8469 29.5529 34.8469 29.5154 34.8469 29.4686C34.8469 29.2904 34.9219 29.1217 35.0344 28.9998C35.0626 28.9717 35.1001 28.9436 35.1376 28.9154C35.1751 28.8873 35.2126 28.8686 35.2501 28.8592C35.2876 28.8404 35.3344 28.8311 35.3719 28.8217C35.4563 28.8029 35.5407 28.8029 35.6251 28.8217C35.6719 28.8311 35.7094 28.8404 35.7469 28.8592C35.7844 28.8779 35.8219 28.8967 35.8594 28.9154C35.8969 28.9436 35.9251 28.9623 35.9626 28.9998C35.9907 29.0279 36.0188 29.0654 36.0469 29.1029C36.0751 29.1404 36.0938 29.1779 36.1032 29.2154C36.1219 29.2529 36.1313 29.2998 36.1407 29.3373C36.1501 29.3748 36.1501 29.4217 36.1501 29.4686C36.1594 29.5154 36.1594 29.5529 36.1501 29.5998Z" fill="white"/>
<path d="M51.6562 12.5188C49.6312 10.4938 46.3499 10.4938 44.3249 12.5188C43.3312 13.5125 42.8249 14.8156 42.8062 16.1281L40.6499 18.2844L45.8999 23.525L48.0562 21.3687C49.3593 21.35 50.6624 20.8531 51.6655 19.85C53.6812 17.825 53.6812 14.5438 51.6562 12.5188ZM50.128 14.9844C49.9968 15.1156 49.828 15.1719 49.6593 15.1719C49.4905 15.1719 49.3218 15.1063 49.1999 14.9844C48.5343 14.3188 47.4562 14.3188 46.7905 14.9844C46.5374 15.2375 46.1155 15.2375 45.8624 14.9844C45.6093 14.7313 45.6093 14.3094 45.8624 14.0563C47.0343 12.8844 48.9562 12.8844 50.128 14.0563C50.3812 14.3094 50.3812 14.7219 50.128 14.9844Z" fill="#80DB42"/>
<path d="M15 51.8184C15 53.6277 16.05 54.6121 17.3438 54.6121C18.6375 54.6121 19.6875 53.6371 19.6875 51.8184C19.6875 50.009 17.3438 47.5996 17.3438 47.5996C17.3438 47.5996 15 50.009 15 51.8184Z" fill="white"/>
</svg>
