<svg width="67" height="67" viewBox="0 0 67 67" fill="none" xmlns="http://www.w3.org/2000/svg">
  <rect width="67" height="67" rx="26.3215" fill="#02172B"/>
  <path d="M51.8598 41.4916H49.9314C50.0828 41.398 50.2242 41.294 50.3554 41.1795C51.5064 40.2329 52.2435 38.7765 52.2435 37.1328C52.2435 35.8637 51.7992 34.6985 51.0622 33.7935C50.1434 32.67 48.7703 31.9521 47.2255 31.9521C44.449 31.9521 42.2076 34.272 42.2076 37.1224C42.2076 38.9533 43.1263 40.5554 44.5197 41.4812H42.5912C40.2993 41.4812 38.4517 43.3954 38.4517 45.7464V54.308H41.7936V48.9713C41.7936 48.5656 42.1066 48.2431 42.5004 48.2431C42.8941 48.2431 43.2071 48.5656 43.2071 48.9713V54.3184H51.254V48.9713C51.254 48.5656 51.567 48.2431 51.9608 48.2431C52.3545 48.2431 52.6675 48.5656 52.6675 48.9713V54.3184H55.9994V45.7568C55.9994 43.3954 54.1517 41.4916 51.8598 41.4916Z" fill="#80DB42"/>
  <path d="M41.4709 40.119C41.0165 39.2035 40.7742 38.1737 40.7742 37.1021C40.7742 33.4507 43.6618 30.4755 47.2057 30.4755C48.6798 30.4755 50.0933 30.9956 51.214 31.9215L52.1025 22.6213C52.1732 21.9035 51.6179 21.2793 50.9212 21.2793H44.7926C44.2272 21.2793 43.7426 21.685 43.6315 22.2572L42.9147 25.9086C42.8036 26.4808 42.319 26.8865 41.7536 26.8865H16.1892C15.4724 26.8865 14.9272 27.5315 15.0079 28.2597L17.4614 48.9199C17.5321 49.5337 18.0369 49.9914 18.6326 49.9914H36.9981V45.7262C37.0082 42.959 38.9265 40.6495 41.4709 40.119ZM34.7365 40.972H31.5056V44.301H26.417V40.972H23.1861V35.7394H26.417V32.4104H31.5056V35.7394H34.7365V40.972Z" fill="white"/>
  <path d="M42.236 21.9764C42.4783 20.7281 43.5485 19.823 44.7803 19.823H48.2434V12H18.9131V19.9686H25.8797C26.2734 19.9686 26.5864 20.2911 26.5864 20.6968C26.5864 21.1026 26.2734 21.4251 25.8797 21.4251H18.9131V25.4406H41.5595L42.236 21.9764ZM30.1606 20.8425C30.1505 20.8841 30.1404 20.9361 30.1202 20.9777C30.1 21.0193 30.0798 21.061 30.0596 21.1026C30.0293 21.1442 30.0091 21.1754 29.9688 21.217C29.9385 21.2482 29.8981 21.2794 29.8577 21.3106C29.8173 21.3418 29.7769 21.3626 29.7365 21.373C29.6961 21.3938 29.6457 21.4042 29.6053 21.4147C29.5649 21.4251 29.5144 21.4251 29.4639 21.4147C29.2822 21.4251 29.1005 21.3418 28.9692 21.2066C28.8379 21.0714 28.7572 20.8841 28.7572 20.6968C28.7572 20.5096 28.8379 20.3223 28.9692 20.1767C28.9995 20.1455 29.0399 20.1143 29.0803 20.0831C29.1206 20.0519 29.161 20.0311 29.2014 20.0207C29.2418 19.9999 29.2923 19.9894 29.3327 19.979C29.4235 19.9582 29.5144 19.9582 29.6053 19.979C29.6457 19.9894 29.6961 19.9999 29.7365 20.0207C29.7769 20.0415 29.8173 20.0623 29.8577 20.0831C29.8981 20.1143 29.9385 20.1351 29.9688 20.1767C30.1 20.3119 30.1707 20.4992 30.1707 20.6968C30.1707 20.7385 30.1707 20.7905 30.1606 20.8425Z" fill="white"/>
</svg>
