<svg width="53" height="58" viewBox="0 0 53 58" fill="none" xmlns="http://www.w3.org/2000/svg">
<rect width="53" height="58" rx="16" fill="#02172B"/>
<path d="M35.7673 11H12.6146L12.445 13.1302H19.1063C20.0006 13.1302 20.7254 14.0488 20.7254 15.1823C20.7254 16.3158 20.0006 17.2343 19.1063 17.2343H12.1211L11.6508 23.2635H19.1063C20.0006 23.2635 20.7254 24.182 20.7254 25.3155C20.7254 26.449 20.0006 27.3676 19.1063 27.3676H11.327L10.8567 33.3967H19.1063C20.0006 33.3967 20.7254 34.3153 20.7254 35.4488C20.7254 36.5823 20.0006 37.5008 19.1063 37.5008H10.5329L10.0703 43.3834H11.6277C11.6277 40.6376 13.3856 38.4096 15.552 38.4096C17.7185 38.4096 19.4764 40.6376 19.4764 43.3834H33.2231L34.7265 24.309L35.7673 11ZM19.1063 32.4391H14.8427C13.9484 32.4391 13.2237 31.5206 13.2237 30.387C13.2237 29.2535 13.9484 28.335 14.8427 28.335H19.1063C20.0006 28.335 20.7254 29.2535 20.7254 30.387C20.7254 31.5206 20.0006 32.4391 19.1063 32.4391ZM19.1063 22.3058H14.8427C13.9484 22.3058 13.2237 21.3873 13.2237 20.2538C13.2237 19.1203 13.9484 18.2017 14.8427 18.2017H19.1063C20.0006 18.2017 20.7254 19.1203 20.7254 20.2538C20.7254 21.3775 20.0006 22.3058 19.1063 22.3058Z" fill="white"/>
<path d="M40.0102 24.3076H35.8083L35.8006 24.4444L34.3203 43.3917H34.6904C34.6904 40.6459 36.4482 38.4179 38.6147 38.4179C40.7812 38.4179 42.539 40.6459 42.539 43.3917H43.9962V30.7862L40.0102 24.3076ZM41.5368 33.2292H36.2015L36.8106 27.4052H38.7998L41.529 31.8416V33.2292H41.5368Z" fill="white"/>
<path d="M38.6184 39.7754C37.0456 39.7754 35.7734 41.3877 35.7734 43.3811C35.7734 45.3746 37.0456 46.9869 38.6184 46.9869C40.1912 46.9869 41.4633 45.3746 41.4633 43.3811C41.4633 41.3975 40.1835 39.7754 38.6184 39.7754Z" fill="#80DB42"/>
<path d="M15.5559 46.9996C17.1271 46.9996 18.4008 45.3852 18.4008 43.3938C18.4008 41.4024 17.1271 39.7881 15.5559 39.7881C13.9847 39.7881 12.7109 41.4024 12.7109 43.3938C12.7109 45.3852 13.9847 46.9996 15.5559 46.9996Z" fill="#80DB42"/>
<path d="M8.53969 15.868H19.1022C19.4029 15.868 19.6419 15.5651 19.6419 15.184C19.6419 14.8029 19.4029 14.5 19.1022 14.5H8.53969C8.23901 14.5 8 14.8029 8 15.184C8 15.5651 8.23901 15.868 8.53969 15.868Z" fill="#80DB42"/>
<path d="M19.1001 19.5713H14.8366C14.5359 19.5713 14.2969 19.8742 14.2969 20.2553C14.2969 20.6364 14.5359 20.9393 14.8366 20.9393H19.1001C19.4008 20.9393 19.6398 20.6364 19.6398 20.2553C19.6398 19.8742 19.4008 19.5713 19.1001 19.5713Z" fill="#80DB42"/>
<path d="M8.53969 25.9979H19.1022C19.4029 25.9979 19.6419 25.695 19.6419 25.3139C19.6419 24.9328 19.4029 24.6299 19.1022 24.6299H8.53969C8.23901 24.6299 8 24.9328 8 25.3139C8 25.695 8.23901 25.9979 8.53969 25.9979Z" fill="#80DB42"/>
<path d="M19.1001 29.7021H14.8366C14.5359 29.7021 14.2969 30.0051 14.2969 30.3862C14.2969 30.7673 14.5359 31.0702 14.8366 31.0702H19.1001C19.4008 31.0702 19.6398 30.7673 19.6398 30.3862C19.6398 30.0051 19.4008 29.7021 19.1001 29.7021Z" fill="#80DB42"/>
<path d="M19.6419 35.4575C19.6419 35.0764 19.4029 34.7734 19.1022 34.7734H8.53969C8.23901 34.7734 8 35.0764 8 35.4575C8 35.8386 8.23901 36.1415 8.53969 36.1415H19.1022C19.4029 36.1415 19.6419 35.8288 19.6419 35.4575Z" fill="#80DB42"/>
</svg>
