<svg width="67" height="67" viewBox="0 0 67 67" fill="none" xmlns="http://www.w3.org/2000/svg">
  <rect width="67" height="67" rx="26.3215" fill="#02172B"/>
  <path d="M38.4735 16.5775V25.8038C38.4735 26.4014 38.0374 26.8812 37.4945 26.8812H30.5181C29.9751 26.8812 29.5391 26.4014 29.5391 25.8038V16.5775C29.5391 15.9799 29.9751 15.5 30.5181 15.5H37.4945C38.0374 15.5 38.4735 15.9799 38.4735 16.5775Z" fill="white"/>
  <path d="M50.3344 21.6211H39.7876V25.6865H42.486V29.9329H25.5222V25.6865H28.2206V21.6211H17.6737C16.1929 21.6211 15 22.943 15 24.5637V48.5576C15 50.1874 16.2011 51.5002 17.6737 51.5002H50.3262C51.8071 51.5002 53 50.1783 53 48.5576V24.5637C53.0082 22.934 51.8071 21.6211 50.3344 21.6211ZM32.4657 35.5556C32.4657 35.0395 32.8441 34.6231 33.313 34.6231H47.4386C47.9075 34.6231 48.286 35.0395 48.286 35.5556V37.8464C48.286 38.3625 47.9075 38.779 47.4386 38.779H33.313C32.8441 38.779 32.4657 38.3625 32.4657 37.8464V35.5556ZM28.5908 47.5345H19.8045V44.5737L22.396 41.9208C21.4992 41.0425 20.9151 39.5757 20.9151 38.0999C20.9151 35.7729 22.3877 34.6231 24.2059 34.6231C26.024 34.6231 27.4966 35.782 27.4966 38.0999C27.4966 39.5757 26.9043 41.0335 26.0158 41.9208L28.6073 44.5737V47.5345H28.5908ZM48.2942 47.5345H32.4657C32.1037 47.5345 31.8075 46.8101 31.8075 46.8101C31.8075 46.4117 32.1037 46.0858 32.4657 46.0858H48.2942C48.6562 46.0858 48.9523 46.4117 48.9523 46.8101C48.9523 47.2085 48.6562 47.5345 48.2942 47.5345ZM48.2942 43.5234H32.4657C32.1037 43.5234 31.8075 43.1975 31.8075 42.7991C31.8075 42.4007 32.1037 42.0747 32.4657 42.0747H48.2942C48.6562 42.0747 48.9523 42.4007 48.9523 42.7991C48.9523 43.1975 48.6562 43.5234 48.2942 43.5234Z" fill="#80DB42"/>
</svg>
