<svg width="67" height="67" viewBox="0 0 67 67" fill="none" xmlns="http://www.w3.org/2000/svg">
  <rect width="67" height="67" rx="26.3215" fill="#02172B"/>
  <path d="M43.3477 25.8027V43.9003C43.3477 43.9441 43.3477 43.9792 43.3477 44.023C43.4003 46.9428 45.303 49.4856 48.0912 50.3536L49.424 50.7658C51.7213 49.3979 53.282 46.9078 53.3346 44.0493C53.3346 43.9967 53.3346 43.9529 53.3346 43.9003V25.8027H43.3477Z" fill="#80DB42"/>
  <path d="M27.8629 23.7337V22.9183C27.8629 22.0853 27.1878 21.4102 26.3548 21.4102C25.5218 21.4102 24.8467 22.0853 24.8467 22.9183V23.7337C24.8467 24.5667 25.5218 25.2419 26.3548 25.2419C27.1878 25.2419 27.8629 24.5667 27.8629 23.7337ZM26.083 23.7337V22.9183C26.083 22.7692 26.2057 22.6377 26.3636 22.6377C26.5214 22.6377 26.6442 22.7605 26.6442 22.9183V23.7337C26.6442 23.8828 26.5214 24.0143 26.3636 24.0143C26.2057 24.0143 26.083 23.8828 26.083 23.7337Z" fill="#80DB42"/>
  <path d="M30.9405 21.9538C30.6512 21.7697 30.2741 21.8574 30.09 22.1379L25.9777 28.5738C25.7936 28.8631 25.8813 29.2402 26.1619 29.4243C26.2671 29.4857 26.3811 29.5207 26.4951 29.5207C26.6967 29.5207 26.8984 29.4243 27.0124 29.2402L31.1247 22.8043C31.3176 22.515 31.2299 22.1379 30.9405 21.9538Z" fill="#80DB42"/>
  <path d="M30.7562 26.145C29.9232 26.145 29.248 26.8202 29.248 27.6531V28.4686C29.248 29.3016 29.9232 29.9767 30.7562 29.9767C31.5892 29.9767 32.2643 29.3016 32.2643 28.4686V27.6531C32.2555 26.8202 31.5804 26.145 30.7562 26.145ZM31.028 28.4598C31.028 28.6089 30.9052 28.7404 30.7474 28.7404C30.5896 28.7404 30.4668 28.6176 30.4668 28.4598V27.6444C30.4668 27.4953 30.5896 27.3638 30.7474 27.3638C30.9052 27.3638 31.028 27.4866 31.028 27.6444V28.4598Z" fill="#80DB42"/>
  <path d="M42.12 44.049C42.12 43.9964 42.12 43.9525 42.12 43.8999V15H15V43.8999C15 48.3103 18.5774 51.879 22.979 51.879H45.3467C46.1709 51.879 46.9688 51.7562 47.7229 51.5195C44.5225 50.5287 42.1814 47.565 42.12 44.049ZM18.8843 19.6208H38.2357V31.7472H18.8843V19.6208ZM38.2357 45.3554H22.5932C22.2513 45.3554 21.9795 45.0836 21.9795 44.7417C21.9795 44.3997 22.2513 44.1279 22.5932 44.1279H38.2357C38.5776 44.1279 38.8495 44.3997 38.8495 44.7417C38.8495 45.0836 38.5776 45.3554 38.2357 45.3554ZM38.2357 41.024H22.5932C22.2513 41.024 21.9795 40.7521 21.9795 40.4102C21.9795 40.0682 22.2513 39.7964 22.5932 39.7964H38.2357C38.5776 39.7964 38.8495 40.0682 38.8495 40.4102C38.8495 40.7521 38.5776 41.024 38.2357 41.024ZM38.2357 36.7013H18.8843C18.5423 36.7013 18.2705 36.4294 18.2705 36.0875C18.2705 35.7455 18.5423 35.4737 18.8843 35.4737H38.2357C38.5776 35.4737 38.8495 35.7455 38.8495 36.0875C38.8495 36.4294 38.5776 36.7013 38.2357 36.7013Z" fill="white"/>
</svg>
