<svg width="67" height="67" viewBox="0 0 67 67" fill="none" xmlns="http://www.w3.org/2000/svg">
<rect width="67" height="67" rx="26.3215" fill="#02172B"/>
<path d="M25.228 30.6954C25.5801 30.5781 25.9616 30.5194 26.343 30.5194C26.9592 30.5194 27.5656 30.6759 28.0937 30.9595L29.4141 29.6391L31.8984 27.1549L33.9719 29.2283L37.3266 25.8736L36.8963 25.4041C38.8035 21.8146 38.5101 17.2764 35.8009 13.9119C33.0623 10.5083 28.6415 9.26612 24.6999 10.4202L31.0475 18.3034L24.7683 23.36L18.4403 15.4768C16.4744 19.0859 16.7482 23.673 19.4868 27.0668C21.0028 28.9545 23.0372 30.1771 25.228 30.6954Z" fill="#80DB42"/>
<path d="M41.9039 30.8818L38.7644 34.0214L40.8378 36.0949L37.2092 39.7235L37.043 39.8898L45.0924 51.2842C46.9996 53.9836 50.7847 54.5118 53.357 52.4383C55.9293 50.3648 56.2227 46.5602 53.9928 44.115L41.9039 30.8818Z" fill="#80DB42"/>
<path d="M35.1947 39.7909L28.2015 32.7978L27.9668 32.563C27.0767 31.673 25.6292 31.673 24.7392 32.563L13.6675 43.6347C12.7775 44.5247 12.7775 45.9722 13.6675 46.8623L21.1399 54.3347C22.0299 55.2247 23.4775 55.2247 24.3675 54.3347L35.4392 43.263C36.3292 42.373 36.3292 40.9255 35.4392 40.0354L35.1947 39.7909Z" fill="#80DB42"/>
<path d="M55.558 18.3133L50.8438 23.0275C50.3547 23.5165 49.5527 23.5165 49.0637 23.0275L48.4475 22.4113L40.9751 29.8642L36.8184 34.0111L38.8918 36.0846L36.2315 38.745L36.1533 38.8232L35.7523 38.4222L29.5709 32.2311L29.1699 31.8301L30.3827 30.6173L31.8987 29.1013L33.9722 31.1748L38.2561 26.8909L45.5916 19.5554L44.9754 18.9392C44.4864 18.4404 44.4864 17.6482 44.9754 17.1592L49.6896 12.4449C50.1787 11.9559 50.9807 11.9559 51.4697 12.4449L55.558 16.5332C56.047 17.0222 56.047 17.8145 55.558 18.3133Z" fill="white"/>
</svg>
