<svg width="48" height="42" viewBox="0 0 48 42" fill="none" xmlns="http://www.w3.org/2000/svg">
<path d="M31.4321 19.8066C31.5861 19.3114 31.6727 18.7809 31.6727 18.2327C31.6727 15.0672 28.881 12.5118 25.4442 12.5118C22.6331 12.5118 20.2553 14.2272 19.4756 16.5704C19.0712 16.5085 18.6476 16.4731 18.2241 16.4731C13.9401 16.4731 10.4648 19.6651 10.4648 23.5998C10.4648 27.5346 13.9401 30.7266 18.2241 30.7266H31.2203C34.503 30.7266 37.1697 28.2773 37.1697 25.2621C37.1697 22.3089 34.6185 19.9038 31.4321 19.8066Z" fill="#80DB42"/>
<path d="M11.5994 7.29407H17.2696V11.777C17.2696 12.1219 17.5681 12.396 17.9435 12.396C18.3189 12.396 18.6174 12.1219 18.6174 11.777V6.67512C18.6174 6.33028 18.3189 6.05618 17.9435 6.05618H11.5224C11.1855 5.1366 10.2324 4.4646 9.1157 4.4646C7.71981 4.4646 6.57422 5.50797 6.57422 6.79891C6.57422 8.08986 7.71018 9.13322 9.1157 9.13322C10.3287 9.13322 11.3491 8.33744 11.5994 7.29407ZM9.1157 7.89533C8.46108 7.89533 7.92197 7.40017 7.92197 6.79891C7.92197 6.19765 8.46108 5.70249 9.1157 5.70249C9.77032 5.70249 10.3094 6.19765 10.3094 6.79891C10.3094 7.40017 9.77032 7.89533 9.1157 7.89533Z" fill="#02172B"/>
<path d="M40.654 9.13322C42.0499 9.13322 43.1955 8.08986 43.1955 6.79891C43.1955 5.50797 42.0499 4.4646 40.654 4.4646C39.5373 4.4646 38.5843 5.1366 38.2473 6.05618H31.8262C31.4508 6.05618 31.1523 6.33028 31.1523 6.67512V11.777C31.1523 12.1219 31.4508 12.396 31.8262 12.396C32.2017 12.396 32.5001 12.1219 32.5001 11.777V7.29407H38.1703C38.4206 8.33744 39.4314 9.13322 40.654 9.13322ZM40.654 5.70249C41.3086 5.70249 41.8477 6.19765 41.8477 6.79891C41.8477 7.40017 41.3086 7.89533 40.654 7.89533C39.9994 7.89533 39.4603 7.40017 39.4603 6.79891C39.4603 6.19765 39.9898 5.70249 40.654 5.70249Z" fill="#02172B"/>
<path d="M23.9145 4.5802V10.1684C23.9145 10.5132 24.2129 10.7874 24.5884 10.7874C24.9638 10.7874 25.2622 10.5132 25.2622 10.1684V4.5802C26.3404 4.3061 27.1298 3.40421 27.1298 2.33431C27.1298 1.05221 25.9939 0 24.5884 0C23.1828 0 22.0469 1.04337 22.0469 2.33431C22.0469 3.40421 22.8459 4.3061 23.9145 4.5802ZM24.5884 1.23789C25.243 1.23789 25.7821 1.73305 25.7821 2.33431C25.7821 2.93557 25.243 3.43073 24.5884 3.43073C23.9337 3.43073 23.3946 2.93557 23.3946 2.33431C23.3946 1.73305 23.9337 1.23789 24.5884 1.23789Z" fill="#02172B"/>
<path d="M7.61527 20.9822H4.4673V17.3658C5.60327 17.1359 6.46968 16.1987 6.46968 15.0846C6.46968 13.8025 5.33372 12.7502 3.9282 12.7502C2.52268 12.7502 1.38672 13.7936 1.38672 15.0757C1.38672 16.1014 2.11836 16.9768 3.11955 17.2862V21.5923C3.11955 21.9372 3.41798 22.2113 3.79342 22.2113H7.61527C7.99072 22.2113 8.28915 21.9372 8.28915 21.5923C8.28915 21.2475 7.98109 20.9822 7.61527 20.9822ZM2.73447 15.0757C2.73447 14.4745 3.27358 13.9793 3.9282 13.9793C4.58282 13.9793 5.12193 14.4745 5.12193 15.0757C5.12193 15.677 4.58282 16.1721 3.9282 16.1721C3.27358 16.1721 2.73447 15.6858 2.73447 15.0757Z" fill="#02172B"/>
<path d="M7.61482 26.4909H4.98669C4.68826 25.5006 3.70633 24.7755 2.54148 24.7755C1.14559 24.7755 0 25.8189 0 27.1098C0 28.4008 1.13596 29.4441 2.54148 29.4441C3.70633 29.4441 4.68826 28.7191 4.98669 27.7288H7.60519C7.98064 27.7288 8.27907 27.4547 8.27907 27.1098C8.27907 26.765 7.98064 26.4909 7.61482 26.4909ZM2.54148 28.1974C1.88686 28.1974 1.34776 27.7022 1.34776 27.101C1.34776 26.4997 1.88686 26.0046 2.54148 26.0046C3.19611 26.0046 3.73521 26.4997 3.73521 27.101C3.73521 27.7022 3.19611 28.1974 2.54148 28.1974Z" fill="#02172B"/>
<path d="M44.8805 30.1959V25.8898C44.8805 25.545 44.5821 25.2709 44.2067 25.2709H40.3848C40.0094 25.2709 39.7109 25.545 39.7109 25.8898C39.7109 26.2347 40.0094 26.5088 40.3848 26.5088H43.5328V30.1252C42.3968 30.3551 41.5304 31.2923 41.5304 32.4064C41.5304 33.6885 42.6664 34.7408 44.0719 34.7408C45.4774 34.7408 46.6134 33.6974 46.6134 32.4064C46.6134 31.3808 45.8817 30.5054 44.8805 30.1959ZM44.0719 33.5029C43.4173 33.5029 42.8782 33.0077 42.8782 32.4064C42.8782 31.8052 43.4173 31.31 44.0719 31.31C44.7265 31.31 45.2656 31.8052 45.2656 32.4064C45.2656 33.0077 44.7265 33.5029 44.0719 33.5029Z" fill="#02172B"/>
<path d="M45.4602 18.0464C44.2954 18.0464 43.3135 18.7714 43.015 19.7618H40.3965C40.0211 19.7618 39.7227 20.0359 39.7227 20.3807C39.7227 20.7255 40.0211 20.9996 40.3965 20.9996H43.015C43.3135 21.99 44.2954 22.715 45.4602 22.715C46.8561 22.715 48.0017 21.6716 48.0017 20.3807C48.0017 19.0898 46.8561 18.0464 45.4602 18.0464ZM45.4602 21.4771C44.8056 21.4771 44.2665 20.982 44.2665 20.3807C44.2665 19.7794 44.8056 19.2843 45.4602 19.2843C46.1149 19.2843 46.654 19.7794 46.654 20.3807C46.654 20.982 46.1149 21.4771 45.4602 21.4771Z" fill="#02172B"/>
<path d="M30.3325 37.4198V33.4231C30.3325 33.0783 30.0341 32.8042 29.6587 32.8042C29.2832 32.8042 28.9848 33.0783 28.9848 33.4231V37.4198C27.9066 37.6939 27.1172 38.5958 27.1172 39.6657C27.1172 40.9478 28.2532 42 29.6587 42C31.0642 42 32.2002 40.9566 32.2002 39.6657C32.1905 38.5958 31.4011 37.6939 30.3325 37.4198ZM29.6587 40.7621C29.004 40.7621 28.4649 40.2669 28.4649 39.6657C28.4649 39.0644 29.004 38.5692 29.6587 38.5692C30.3133 38.5692 30.8524 39.0644 30.8524 39.6657C30.8524 40.2669 30.3133 40.7621 29.6587 40.7621Z" fill="#02172B"/>
<path d="M21.256 35.952C20.0912 35.952 19.1092 36.677 18.8108 37.6673H16.7892V33.4231C16.7892 33.0783 16.4907 32.8042 16.1153 32.8042C15.7398 32.8042 15.4414 33.0783 15.4414 33.4231V38.2863C15.4414 38.6311 15.7398 38.9052 16.1153 38.9052H18.8108C19.1092 39.8956 20.0912 40.6206 21.256 40.6206C22.6519 40.6206 23.7975 39.5772 23.7975 38.2863C23.7975 36.9954 22.6519 35.952 21.256 35.952ZM21.256 39.3827C20.6014 39.3827 20.0623 38.8876 20.0623 38.2863C20.0623 37.685 20.6014 37.1899 21.256 37.1899C21.9106 37.1899 22.4497 37.685 22.4497 38.2863C22.4497 38.8876 21.9106 39.3827 21.256 39.3827Z" fill="#02172B"/>
</svg>
