<svg width="53" height="58" viewBox="0 0 53 58" fill="none" xmlns="http://www.w3.org/2000/svg">
  <rect width="53" height="58" rx="16" fill="#02172B"/>
  <g transform="translate(-271, -202)">
    <path d="M311.224 219.424H305.961V222.17C305.961 224.064 303.708 225.601 300.954 225.601H291.034C288.269 225.601 286.027 224.056 286.027 222.17V219.424H280.765C279.231 219.424 278 220.276 278 221.318V249.105C278 250.156 279.243 251 280.765 251H311.235C312.769 251 314 250.148 314 249.105V221.318C313.988 220.276 312.745 219.424 311.224 219.424ZM308.168 248.341H305.973V245.181C305.973 244.871 305.613 244.624 305.16 244.624C304.707 244.624 304.347 244.871 304.347 245.181V248.341H283.797V240.764H290.953C291.231 240.764 291.487 240.668 291.638 240.501L294.345 237.556V244.911C294.345 245.157 294.577 245.372 294.925 245.444C295.007 245.46 295.088 245.468 295.158 245.468C295.425 245.468 295.681 245.38 295.832 245.221L300.815 240.111H308.157V248.341H308.168ZM308.168 239.005H300.385C300.118 239.005 299.863 239.1 299.712 239.251L295.971 243.08V235.63C295.971 235.383 295.727 235.16 295.379 235.096C295.03 235.025 294.658 235.128 294.461 235.335L290.5 239.649H283.797V232.342H308.157V239.005H308.168ZM308.168 230.138H283.797V227.606H308.157V230.138H308.168Z" fill="white"/>
    <path d="M291.022 223.501H300.943C302.011 223.501 302.883 222.904 302.883 222.172V219.426H299.816V217.627C299.816 216.178 298.096 215 295.982 215C293.868 215 292.149 216.178 292.149 217.627V219.426H289.07V222.172C289.07 222.904 289.942 223.501 291.022 223.501Z" fill="#80DB42"/>
  </g>
</svg>