<svg width="67" height="67" viewBox="0 0 67 67" fill="none" xmlns="http://www.w3.org/2000/svg">
<rect width="67" height="67" rx="26.3215" fill="#02172B"/>
<path d="M14.0093 52.6625C14.0093 53.6562 14.8155 54.4625 15.8093 54.4625H35.3562C36.3499 54.4625 37.1562 53.6562 37.1562 52.6625V30.9219H14.0093V52.6625ZM32.4593 50.2812H28.8968V46.7188H32.4593V50.2812ZM28.728 33.6594C28.9812 33.4062 29.403 33.4062 29.6562 33.6594L30.4437 34.4469L32.4499 32.4406C32.703 32.1875 33.1249 32.1875 33.378 32.4406C33.6312 32.6937 33.6312 33.1156 33.378 33.3687L30.9124 35.8344C30.7812 35.9656 30.6218 36.0313 30.453 36.0313C30.2843 36.0313 30.1155 35.9656 29.9937 35.8344L28.7468 34.5875C28.4749 34.3344 28.4749 33.9219 28.728 33.6594ZM28.728 40.7844C28.9812 40.5312 29.403 40.5312 29.6562 40.7844L30.4437 41.5719L32.4499 39.5656C32.703 39.3125 33.1249 39.3125 33.378 39.5656C33.6312 39.8187 33.6312 40.2406 33.378 40.4937L30.9124 42.9594C30.7812 43.0906 30.6218 43.1562 30.453 43.1562C30.2843 43.1562 30.1155 43.0906 29.9937 42.9594L28.7468 41.7125C28.4749 41.4594 28.4749 41.0469 28.728 40.7844ZM18.9499 33.5938H25.5874C25.953 33.5938 26.2437 33.8844 26.2437 34.25C26.2437 34.6156 25.953 34.9063 25.5874 34.9063H18.9499C18.5843 34.9063 18.2937 34.6156 18.2937 34.25C18.2937 33.8844 18.5843 33.5938 18.9499 33.5938ZM18.9499 40.7188H25.5874C25.953 40.7188 26.2437 41.0094 26.2437 41.375C26.2437 41.7406 25.953 42.0313 25.5874 42.0313H18.9499C18.5843 42.0313 18.2937 41.7406 18.2937 41.375C18.2937 41.0094 18.5843 40.7188 18.9499 40.7188ZM18.9499 47.8438H25.5874C25.953 47.8438 26.2437 48.1344 26.2437 48.5C26.2437 48.8656 25.953 49.1562 25.5874 49.1562H18.9499C18.5843 49.1562 18.2937 48.8656 18.2937 48.5C18.2937 48.1344 18.5843 47.8438 18.9499 47.8438Z" fill="#80DB42"/>
<path d="M43.5313 11C38.6095 11 34.4938 14.4312 33.4438 19.0344H33.6126V21.275H35.3563C35.572 21.275 35.7876 21.2938 35.9938 21.3406C35.9938 17.1875 39.3688 13.8125 43.5313 13.8125C47.6938 13.8125 51.0688 17.1875 51.0688 21.35C51.0688 25.5125 47.6938 28.8875 43.5313 28.8875C41.5813 28.8875 39.8001 28.1469 38.4688 26.9281V30.3781C39.9688 31.2219 41.6938 31.7 43.5313 31.7C49.2501 31.7 53.8813 27.0688 53.8813 21.35C53.872 15.6313 49.2407 11 43.5313 11Z" fill="#80DB42"/>
<path d="M36.125 22.7566C35.8906 22.6441 35.6281 22.5785 35.3563 22.5785H32.3V20.3379H28.7375V22.5785H22.4281V20.3379H18.8656V22.5785H15.8C14.8063 22.5785 14 23.3848 14 24.3785V29.6098H37.1375V24.3879C37.1469 23.666 36.7344 23.0473 36.125 22.7566Z" fill="white"/>
<path d="M43.8314 23.1125H42.0127C41.6471 23.1125 41.3564 23.4031 41.3564 23.7688C41.3564 24.1344 41.6471 24.425 42.0127 24.425H42.8752V24.8563C42.8752 25.2219 43.1658 25.5125 43.5314 25.5125C43.8971 25.5125 44.1877 25.2219 44.1877 24.8563V24.3875C45.0502 24.2188 45.6971 23.4594 45.6971 22.5594C45.6971 21.5281 44.8627 20.6938 43.8314 20.6938H43.2221C42.9127 20.6938 42.6689 20.4406 42.6689 20.1406C42.6689 19.8313 42.9221 19.5875 43.2221 19.5875H45.0408C45.4064 19.5875 45.6971 19.2969 45.6971 18.9313C45.6971 18.5656 45.4064 18.275 45.0408 18.275H44.1877V17.8438C44.1877 17.4781 43.8971 17.1875 43.5314 17.1875C43.1658 17.1875 42.8752 17.4781 42.8752 17.8438V18.3125C42.0127 18.4813 41.3564 19.2313 41.3564 20.1406C41.3564 21.1719 42.1908 22.0063 43.2221 22.0063H43.8314C44.1408 22.0063 44.3846 22.25 44.3846 22.5594C44.3846 22.8594 44.1408 23.1125 43.8314 23.1125Z" fill="white"/>
</svg>
