<svg width="67" height="67" viewBox="0 0 67 67" fill="none" xmlns="http://www.w3.org/2000/svg">
<rect width="67" height="67" rx="26.3215" fill="#02172B"/>
<path d="M45.0631 28.9859V10.5313C45.0631 9.69191 44.389 9 43.5464 9H17.6495C16.8069 9 16.1328 9.68056 16.1328 10.5313V28.9859L30.6036 39.7614L45.0631 28.9859ZM35.6481 15.3746H38.6142C39.1086 15.3746 39.513 15.7829 39.513 16.282C39.513 16.7811 39.1086 17.1894 38.6142 17.1894H35.6481C35.1538 17.1894 34.7493 16.7811 34.7493 16.282C34.7493 15.7829 35.1538 15.3746 35.6481 15.3746ZM35.6481 21.6925H38.6142C39.1086 21.6925 39.513 22.1008 39.513 22.5999C39.513 23.099 39.1086 23.5073 38.6142 23.5073H35.6481C35.1538 23.5073 34.7493 23.099 34.7493 22.5999C34.7493 22.1008 35.1538 21.6925 35.6481 21.6925ZM35.6481 27.999H38.6142C39.1086 27.999 39.513 28.4074 39.513 28.9065C39.513 29.4055 39.1086 29.8139 38.6142 29.8139H35.6481C35.1538 29.8139 34.7493 29.4055 34.7493 28.9065C34.7493 28.4074 35.1538 27.999 35.6481 27.999ZM22.5705 15.3746H30.5362C31.0305 15.3746 31.435 15.7829 31.435 16.282C31.435 16.7811 31.0305 17.1894 30.5362 17.1894H22.5705C22.0762 17.1894 21.6717 16.7811 21.6717 16.282C21.6717 15.7829 22.0762 15.3746 22.5705 15.3746ZM22.5705 21.6925H30.5362C31.0305 21.6925 31.435 22.1008 31.435 22.5999C31.435 23.099 31.0305 23.5073 30.5362 23.5073H22.5705C22.0762 23.5073 21.6717 23.099 21.6717 22.5999C21.6717 22.1008 22.0762 21.6925 22.5705 21.6925ZM22.5705 29.8139C22.0762 29.8139 21.6717 29.4055 21.6717 28.9065C21.6717 28.4074 22.0762 27.999 22.5705 27.999H30.5362C31.0305 27.999 31.435 28.4074 31.435 28.9065C31.435 29.4055 31.0305 29.8139 30.5362 29.8139H22.5705Z" fill="#80DB42"/>
<path d="M48.7723 35.1251H51.199V26.6861L45.0647 31.2573L30.5939 42.0328L16.1344 31.2459L10 26.6748V50.7213H42.6042V46.6833C42.6042 45.5491 43.166 44.5509 44.0198 43.9497V39.9231C44.0198 37.2802 46.1545 35.1251 48.7723 35.1251Z" fill="white"/>
<path d="M56.5851 45.1921V39.9177C56.5851 38.273 55.2593 36.9346 53.6303 36.9346H48.7767C47.1476 36.9346 45.8219 38.273 45.8219 39.9177V45.1921C45.0354 45.2261 44.4062 45.884 44.4062 46.7006V55.4912C44.4062 56.3193 45.0691 56.9998 45.9005 56.9998H56.5064C57.3378 56.9998 58.0007 56.3193 58.0007 55.4912V46.7006C58.0007 45.884 57.3715 45.2261 56.5851 45.1921ZM53.2483 50.5572C53.2483 50.5798 53.2483 50.5912 53.2483 50.6139C53.1696 51.3398 52.7202 51.9523 52.1023 52.2586V53.8465C52.1023 54.3456 51.6978 54.754 51.2035 54.754C50.7091 54.754 50.3047 54.3456 50.3047 53.8465V52.2586C49.7092 51.9637 49.2823 51.3965 49.1699 50.716C49.1699 50.6819 49.1587 50.6479 49.1587 50.6139C49.1587 50.5912 49.1587 50.5798 49.1587 50.5572C49.1475 50.5004 49.1475 50.4551 49.1475 50.3984C49.1475 49.2527 50.0687 48.3226 51.2035 48.3226C52.3382 48.3226 53.2595 49.2527 53.2595 50.3984C53.2595 50.4551 53.2595 50.5118 53.2483 50.5572ZM54.7875 45.1807H47.6307V39.9177C47.6307 39.2712 48.1475 38.7494 48.7879 38.7494H53.6415C54.2819 38.7494 54.7987 39.2712 54.7987 39.9177V45.1807H54.7875Z" fill="#80DB42"/>
</svg>
