<svg width="53" height="58" viewBox="0 0 53 58" fill="none" xmlns="http://www.w3.org/2000/svg">
  <rect width="53" height="58" rx="16" fill="#02172B"/>
  <g transform="translate(-271, -202)">
    <path d="M312.345 222.583C312.091 222.355 311.705 222.382 311.477 222.627C311.249 222.881 311.276 223.267 311.521 223.495C312.459 224.337 312.968 225.494 312.968 226.757C312.968 227.844 312.565 228.896 311.828 229.703C311.6 229.957 311.618 230.343 311.872 230.571C311.986 230.676 312.135 230.729 312.284 230.729C312.451 230.729 312.617 230.659 312.74 230.527C313.678 229.493 314.196 228.151 314.196 226.757C314.204 225.144 313.538 223.653 312.345 222.583Z" fill="white"/>
    <path d="M302.875 213.28C303.112 213.245 303.358 213.219 303.594 213.219C305.725 213.219 307.584 214.806 307.935 216.91C307.987 217.208 308.242 217.428 308.54 217.428C308.575 217.428 308.61 217.428 308.636 217.419C308.969 217.366 309.197 217.05 309.145 216.717C308.706 214.025 306.321 212 303.594 212C303.288 212 302.981 212.026 302.674 212.079C302.341 212.132 302.113 212.447 302.165 212.78C302.227 213.114 302.542 213.333 302.875 213.28Z" fill="white"/>
    <path d="M283.612 218.681C283.621 218.681 283.639 218.681 283.647 218.681C283.972 218.681 284.244 218.427 284.261 218.102C284.401 215.788 286.33 213.973 288.645 213.973C288.733 213.973 288.829 213.973 288.926 213.981C289.268 213.999 289.557 213.745 289.575 213.412C289.592 213.07 289.338 212.78 289.005 212.763C288.891 212.754 288.768 212.754 288.654 212.754C285.682 212.754 283.218 215.077 283.042 218.041C283.016 218.374 283.279 218.664 283.612 218.681Z" fill="white"/>
    <path d="M281.674 231.238C280.736 230.396 280.228 229.238 280.228 227.976C280.228 226.889 280.631 225.836 281.367 225.03C281.595 224.775 281.578 224.39 281.324 224.162C281.069 224.39 280.683 224.951 280.456 224.205C279.517 225.24 279 226.582 279 227.976C279 229.598 279.658 231.08 280.859 232.158C280.973 232.263 281.122 232.316 281.271 232.316C281.438 232.316 281.604 232.246 281.727 232.114C281.946 231.851 281.92 231.466 281.674 231.238Z" fill="white"/>
    <path d="M299.851 241.119C300.684 241.119 301.499 240.646 301.867 239.813C302.271 238.91 303.226 238.392 304.208 238.533C304.954 238.647 305.655 238.375 306.129 237.875C306.506 237.481 306.742 236.946 306.742 236.349C306.742 236.332 306.742 236.314 306.742 236.288C306.742 236.271 306.742 236.253 306.742 236.236C306.742 235.271 307.374 234.412 308.303 234.122C309.268 233.824 309.864 232.939 309.864 232.009C309.864 231.667 309.785 231.325 309.618 231.001C309.452 230.676 309.373 230.335 309.373 229.993C309.373 229.396 309.618 228.8 310.074 228.37C310.548 227.932 310.776 227.345 310.776 226.748C310.776 226.082 310.478 225.424 309.899 224.986C309.338 224.556 309.022 223.899 309.022 223.224C309.022 222.952 309.075 222.68 309.171 222.417C309.276 222.154 309.32 221.882 309.32 221.61C309.32 220.593 308.61 219.655 307.549 219.444C307.067 219.348 306.646 219.094 306.33 218.743C306.015 218.392 305.822 217.936 305.778 217.445C305.69 216.262 304.699 215.402 303.577 215.402C303.393 215.402 303.209 215.429 303.025 215.472C302.84 215.516 302.656 215.543 302.481 215.543C301.709 215.543 300.973 215.13 300.57 214.438C300.157 213.719 299.412 213.333 298.649 213.333C298.15 213.333 297.65 213.5 297.229 213.85C296.817 214.192 296.317 214.368 295.808 214.368C295.379 214.368 294.94 214.245 294.563 213.982C294.563 213.982 294.554 213.973 294.537 213.965C294.169 213.71 293.731 213.596 293.327 213.596C292.494 213.596 291.679 214.07 291.31 214.903C290.951 215.7 290.153 216.209 289.294 216.209C289.188 216.209 289.074 216.2 288.969 216.183C287.628 215.981 286.435 217.024 286.435 218.366C286.435 218.383 286.435 218.401 286.435 218.427C286.435 218.445 286.435 218.462 286.435 218.48C286.435 219.444 285.804 220.304 284.874 220.593C283.91 220.891 283.314 221.777 283.314 222.706C283.314 223.048 283.393 223.39 283.559 223.715C283.726 224.03 283.805 224.381 283.805 224.723C283.805 225.319 283.559 225.915 283.103 226.345C282.63 226.783 282.402 227.371 282.402 227.967C282.402 228.633 282.7 229.291 283.279 229.73C283.84 230.159 284.155 230.817 284.155 231.492C284.155 231.764 284.103 232.036 284.006 232.299C283.901 232.562 283.857 232.833 283.857 233.105C283.857 234.122 284.568 235.061 285.629 235.271C286.111 235.367 286.532 235.622 286.847 235.972C287.137 236.297 287.321 236.7 287.382 237.147C287.391 237.191 287.391 237.226 287.391 237.27C287.479 238.454 288.469 239.313 289.592 239.313C289.776 239.313 289.96 239.287 290.144 239.243C290.328 239.199 290.512 239.173 290.688 239.173C291.459 239.173 292.196 239.585 292.599 240.278C293.011 240.997 293.757 241.382 294.519 241.382C294.879 241.382 295.238 241.295 295.572 241.111C295.694 241.04 295.817 240.962 295.94 240.865C296.326 240.549 296.79 240.374 297.264 240.348C297.299 240.348 297.334 240.348 297.36 240.348C297.79 240.348 298.228 240.471 298.605 240.734C298.991 240.997 299.43 241.119 299.851 241.119ZM296.598 237.104C291.223 237.104 286.865 232.746 286.865 227.371C286.865 221.996 291.223 217.638 296.598 217.638C301.972 217.638 306.33 221.996 306.33 227.371C306.33 232.746 301.972 237.104 296.598 237.104Z" fill="white"/>
    <path d="M301.736 225.389L299.141 225.073C298.851 225.038 298.597 224.854 298.474 224.591L297.369 222.215C297.063 221.557 296.133 221.557 295.835 222.215L294.73 224.591C294.607 224.854 294.353 225.038 294.064 225.073L291.468 225.389C290.749 225.477 290.469 226.362 290.995 226.853L292.915 228.633C293.126 228.835 293.222 229.133 293.169 229.414L292.67 231.983C292.529 232.693 293.283 233.236 293.915 232.886L296.203 231.614C296.458 231.474 296.773 231.474 297.027 231.614L299.316 232.886C299.947 233.236 300.701 232.693 300.561 231.983L300.061 229.414C300.009 229.124 300.105 228.826 300.316 228.633L302.236 226.853C302.736 226.362 302.446 225.477 301.736 225.389Z" fill="#80DB42"/>
    <path d="M291.547 240.9C291.372 240.593 291.047 240.409 290.696 240.409C290.618 240.409 290.539 240.418 290.451 240.444C290.179 240.515 289.89 240.55 289.6 240.55C288.347 240.55 287.233 239.857 286.628 238.831L281.735 249.686L287.777 247.362L290.03 253.43L294.923 242.601C294.791 242.619 294.668 242.628 294.537 242.628C293.301 242.619 292.161 241.961 291.547 240.9Z" fill="#80DB42"/>
    <path d="M304.542 239.786C304.375 239.786 304.2 239.769 304.033 239.751C303.981 239.743 303.937 239.743 303.884 239.743C303.498 239.743 303.148 239.97 302.99 240.321C302.437 241.549 301.201 242.347 299.851 242.347C299.158 242.347 298.492 242.145 297.922 241.75C297.913 241.742 297.895 241.733 297.887 241.733L303.165 253.43L305.419 247.362L311.46 249.686L306.664 239.059C306.067 239.523 305.313 239.786 304.542 239.786Z" fill="#80DB42"/>
  </g>
</svg>