<svg width="48" height="42" viewBox="0 0 48 42" fill="none" xmlns="http://www.w3.org/2000/svg">
<path d="M45.2042 0H2.79515C1.26098 0 0.0117188 1.16411 0.0117188 2.59373V23.0372H47.9986V2.59373C47.9986 1.16411 46.7493 0 45.2042 0ZM9.91812 12.6725C9.72087 12.6725 9.52362 12.601 9.38116 12.4683C9.08528 12.1926 9.08528 11.733 9.38116 11.4573L16.3178 4.99343C16.6137 4.71772 17.1068 4.71772 17.4027 4.99343C17.6986 5.26914 17.6986 5.72866 17.4027 6.00437L10.466 12.4683C10.3126 12.601 10.1154 12.6725 9.91812 12.6725ZM16.1863 19.8512C15.9891 19.8512 15.7918 19.7797 15.6384 19.647C15.3425 19.3713 15.3425 18.9117 15.6384 18.636L30.9692 4.35011C31.2651 4.0744 31.7582 4.0744 32.0541 4.35011C32.35 4.62582 32.35 5.08534 32.0541 5.36105L16.7233 19.647C16.5808 19.7797 16.3836 19.8512 16.1863 19.8512ZM38.6291 12.4989L31.4514 19.1874C31.298 19.3304 31.1007 19.3917 30.9035 19.3917C30.7062 19.3917 30.509 19.3202 30.3665 19.1874C30.0706 18.9117 30.0706 18.4522 30.3665 18.1765L37.5443 11.488C37.8401 11.2122 38.3333 11.2122 38.6291 11.488C38.925 11.7739 38.925 12.2232 38.6291 12.4989Z" fill="#80DB42"/>
<path d="M29.0289 32.5952H18.98C18.3006 35.5361 16.098 42 9.79688 42H38.212C31.9109 41.9898 29.6973 35.5361 29.0289 32.5952Z" fill="#02172B"/>
<path d="M0 28.5619C0 29.2256 0.263002 29.8281 0.712297 30.2876C1.04105 30.6246 1.45747 30.8901 1.92868 31.033C2.20264 31.1147 2.48756 31.1556 2.78344 31.1556H45.2034C45.4993 31.1556 45.7952 31.1147 46.0582 31.033C46.5294 30.8901 46.9568 30.6348 47.2746 30.2876C47.7129 29.8281 47.9869 29.2256 47.9869 28.5619V24.467H0V28.5619ZM24.0537 26.4685C24.8537 26.4685 25.5002 27.071 25.5002 27.8164C25.5002 28.5619 24.8537 29.1643 24.0537 29.1643C23.2537 29.1643 22.6072 28.5619 22.6072 27.8164C22.6072 27.071 23.2537 26.4685 24.0537 26.4685Z" fill="#02172B"/>
</svg>
