<svg preserveAspectRatio="none" width="100%" height="100%" overflow="visible" style="display: block;" viewBox="0 0 33.3016 41.3333" fill="none" xmlns="http://www.w3.org/2000/svg">
<g id="Group">
<path id="Vector" d="M0 41.3332H24.2616V34.4765H0V41.3332ZM3.02502 37.2911H6.05005C6.39201 37.2911 6.66382 37.5629 6.66382 37.9049C6.66382 38.2468 6.39201 38.5187 6.05005 38.5187H3.02502C2.68306 38.5187 2.41125 38.2468 2.41125 37.9049C2.41125 37.5717 2.69183 37.2911 3.02502 37.2911Z" fill="var(--fill-0, #80DB42)"/>
<path id="Vector_2" d="M27.006 0.000178244C23.5338 0.000178244 20.7105 2.81476 20.7105 6.29573C20.7105 6.93581 20.8069 7.54958 20.9823 8.13705H25.1472C25.2612 8.02307 25.419 7.94415 25.5856 7.94415H27.2866C27.576 7.94415 27.8039 7.71618 27.8039 7.42683C27.8039 7.13748 27.5672 6.90951 27.2866 6.90951H26.7167C25.7522 6.90951 24.9718 6.12914 24.9718 5.16464C24.9718 4.31412 25.5856 3.6039 26.3923 3.45484V3.01643C26.3923 2.67447 26.6641 2.40266 27.006 2.40266C27.348 2.40266 27.6198 2.67447 27.6198 3.01643V3.41977H28.4265C28.7684 3.41977 29.0403 3.69158 29.0403 4.03354C29.0403 4.3755 28.7684 4.64732 28.4265 4.64732H26.7255C26.4361 4.64732 26.2081 4.87529 26.2081 5.16464C26.2081 5.45399 26.4361 5.68196 26.7255 5.68196H27.2954C28.2599 5.68196 29.0403 6.46233 29.0403 7.42683C29.0403 8.27734 28.4265 8.98757 27.6198 9.14539V9.5838C27.6198 9.92576 27.348 10.1976 27.006 10.1976C26.6641 10.1976 26.3923 9.92576 26.3923 9.5838V9.18046H25.5856C25.5505 9.18046 25.5154 9.18047 25.4891 9.1717V12.4159C25.9714 12.5387 26.4799 12.6001 27.006 12.6001C30.4782 12.6001 33.3016 9.78547 33.3016 6.3045C33.3016 2.82353 30.4782 0.000178244 27.006 0.000178244Z" fill="var(--fill-0, white)"/>
<path id="Vector_3" d="M0 20.386H2.91104V19.6144H7.67216V20.386H9.75022V19.6144H14.5113V20.386H16.5894V19.6144H21.3505V20.386H24.2616V9.35564H0V20.386ZM16.5894 13.7923C16.5894 13.5468 16.7911 13.3539 17.0278 13.3539H17.6854V11.4425H20.2457V13.3539H20.9121C21.1576 13.3539 21.3505 13.5468 21.3505 13.7923V14.0291H16.5894V13.7923ZM16.5894 15.2566H21.3505V18.3869H16.5894V15.2566ZM9.75022 13.7923C9.75022 13.5468 9.95189 13.3539 10.1886 13.3539H10.8462V11.4425H13.4066V13.3539H14.0729C14.3184 13.3539 14.5113 13.5468 14.5113 13.7923V14.0291H9.75022V13.7923ZM9.75022 15.2566H14.5113V18.3869H9.75022V15.2566ZM2.9198 13.7923C2.9198 13.5468 3.12147 13.3539 3.35821 13.3539H4.0246V11.4425H6.5849V13.3539H7.25129C7.4968 13.3539 7.6897 13.5468 7.6897 13.7923V14.0291H2.9198V13.7923ZM2.9198 15.2566H7.68093V18.3869H2.9198V15.2566Z" fill="var(--fill-0, #80DB42)"/>
<path id="Vector_4" d="M0 33.2491H24.2616V21.6137H0V33.2491ZM16.5894 27.5235C16.9577 27.1552 17.1681 25.5156 17.5451 25.1473H20.4036C20.7718 25.5156 20.9823 27.1552 21.3505 27.5235V28.4266H16.5894V27.5235ZM16.5894 29.6542H21.3505V32.1356H16.5894V29.6542ZM9.75022 27.5235C10.1185 27.1552 10.3289 25.5156 10.706 25.1473H13.5644C13.9326 25.5156 14.1431 27.1552 14.5113 27.5235V28.4266H9.75022V27.5235ZM9.75022 29.6542H14.5113V32.1356H9.75022V29.6542ZM2.9198 27.5235C3.28807 27.1552 3.49851 25.5156 3.87554 25.1473H6.73396C7.10223 25.5156 7.31266 27.1552 7.6897 27.5235V28.4266H2.9198V27.5235ZM2.9198 29.6542H7.68093V32.1356H2.9198V29.6542Z" fill="var(--fill-0, white)"/>
</g>
</svg>
