<svg preserveAspectRatio="none" width="100%" height="100%" overflow="visible" style="display: block;" viewBox="0 0 43.9631 44.1732" fill="none" xmlns="http://www.w3.org/2000/svg">
<g id="Group 427319241">
<g id="Group">
<path id="Vector" d="M43.7202 21.4083L37.5079 15.196L36.934 14.622V4.82535C36.934 4.33199 36.5312 3.91918 36.0278 3.91918H31.9098C31.4164 3.91918 31.0036 4.32192 31.0036 4.82535V8.70174L22.5561 0.234094C22.2439 -0.0780312 21.7304 -0.0780312 21.4183 0.234094L6.44639 15.196L0.234094 21.4083C-0.0780313 21.7204 -0.0780313 22.2339 0.234094 22.546C0.395191 22.7071 0.596562 22.7776 0.808001 22.7776C1.01944 22.7776 1.22081 22.697 1.38191 22.546L6.21481 17.7131V43.3678C6.21481 43.8108 6.57728 44.1732 7.0203 44.1732H36.944C37.387 44.1732 37.7495 43.8108 37.7495 43.3678V17.703L42.5824 22.5359C42.7435 22.697 42.9449 22.7675 43.1563 22.7675C43.3678 22.7675 43.5691 22.687 43.7302 22.5359C44.0424 22.2238 44.0424 21.7204 43.7202 21.4083ZM32.8159 39.2397H11.1484V17.4714L21.9822 6.63769L32.8159 17.4714V39.2397Z" fill="var(--fill-0, white)"/>
</g>
<path id="Vector_2" d="M25.9445 19.886C24.8974 19.3222 23.6992 19 22.4306 19C22.1688 19 21.897 19.0101 21.6452 19.0403C18.0709 19.4128 15.2517 22.3327 15.0201 25.9473C15.0101 26.1084 15 26.2594 15 26.4205C15 27.81 15.3826 29.0988 16.0371 30.2164C17.3359 32.3912 19.7121 33.8511 22.4205 33.8511C26.5184 33.8511 29.8511 30.5285 29.8511 26.4205C29.8612 23.5913 28.2804 21.1345 25.9445 19.886ZM26.5386 24.7592L22.0681 29.2296C21.9171 29.3807 21.7157 29.4612 21.4942 29.4612C21.2727 29.4612 21.0713 29.3807 20.9203 29.2296L18.3327 26.642C18.0206 26.3299 18.0206 25.8164 18.3327 25.5043C18.6448 25.1922 19.1583 25.1922 19.4704 25.5043L21.4942 27.5281L25.3907 23.6315C25.7029 23.3194 26.2164 23.3194 26.5285 23.6315C26.8507 23.9336 26.8507 24.4471 26.5386 24.7592Z" fill="var(--fill-0, #80DB42)"/>
</g>
</svg>
