<svg width="67" height="67" viewBox="0 0 67 67" fill="none" xmlns="http://www.w3.org/2000/svg">
<rect width="67" height="67" rx="26.3215" fill="white"/>
<path d="M50.024 15H15.5825C13.9386 15 12.6055 16.3929 12.6055 18.1209V23.4621H53.001V18.1209C53.001 16.3929 51.6678 15 50.024 15ZM17.908 20.8543C17.046 20.8543 16.3543 20.1317 16.3543 19.231C16.3543 18.3304 17.046 17.6077 17.908 17.6077C18.77 17.6077 19.4617 18.3304 19.4617 19.231C19.4617 20.1317 18.76 20.8543 17.908 20.8543ZM24.1428 20.8543C23.2807 20.8543 22.5891 20.1317 22.5891 19.231C22.5891 18.3304 23.2807 17.6077 24.1428 17.6077C25.0048 17.6077 25.6964 18.3304 25.6964 19.231C25.6964 20.1317 24.9948 20.8543 24.1428 20.8543Z" fill="#02172B"/>
<path d="M12.6057 26.645H15.8434V28.1112C15.8434 28.8548 16.4147 29.4517 17.1264 29.4517C17.8381 29.4517 18.4095 28.8548 18.4095 28.1112V26.645H23.9726L30.077 35.4527L25.1454 40.7205L24.153 39.7047V47.1404H12.6057V48.8789C12.6057 50.5964 13.9389 51.9998 15.5828 51.9998H50.0142C51.6581 51.9998 52.9912 50.6069 52.9912 48.8789V24.917H12.5957V26.645H12.6057ZM32.3524 27.996H46.5861C46.977 27.996 47.2877 28.3207 47.2877 28.7291C47.2877 29.1376 46.977 29.4622 46.5861 29.4622H32.3524C31.9615 29.4622 31.6508 29.1376 31.6508 28.7291C31.6508 28.3207 31.9715 27.996 32.3524 27.996ZM32.3524 32.0804H46.5861C46.977 32.0804 47.2877 32.4051 47.2877 32.8135C47.2877 33.222 46.977 33.5466 46.5861 33.5466H32.3524C31.9615 33.5466 31.6508 33.222 31.6508 32.8135C31.6508 32.4051 31.9715 32.0804 32.3524 32.0804ZM32.3524 36.1544H46.5861C46.977 36.1544 47.2877 36.479 47.2877 36.8875C47.2877 37.2959 46.977 37.6206 46.5861 37.6206H32.3524C31.9615 37.6206 31.6508 37.2959 31.6508 36.8875C31.6508 36.479 31.9715 36.1544 32.3524 36.1544ZM32.3524 40.2388H46.5861C46.977 40.2388 47.2877 40.5634 47.2877 40.9719C47.2877 41.3803 46.977 41.705 46.5861 41.705H32.3524C31.9615 41.705 31.6508 41.3803 31.6508 40.9719C31.6508 40.5634 31.9715 40.2388 32.3524 40.2388ZM32.3524 44.3232H46.5861C46.977 44.3232 47.2877 44.6479 47.2877 45.0563C47.2877 45.4647 46.977 45.7894 46.5861 45.7894H32.3524C31.9615 45.7894 31.6508 45.4647 31.6508 45.0563C31.6508 44.6479 31.9715 44.3232 32.3524 44.3232Z" fill="#80DB42"/>
<path d="M22.7496 45.6643V36.2073L25.1252 38.637L28.2426 35.3067L23.2508 28.1118H19.8026C19.8026 29.6618 18.5998 30.9185 17.1163 30.9185C15.6328 30.9185 14.4299 29.6618 14.4299 28.1118H10.9918L6 35.3067L9.11737 38.637L11.493 36.2073V45.6643H22.7496ZM15.6929 35.4533H18.5697C18.9606 35.4533 19.2714 35.778 19.2714 36.1864C19.2714 36.5948 18.9606 36.9195 18.5697 36.9195H15.6929C15.302 36.9195 14.9913 36.5948 14.9913 36.1864C14.9913 35.778 15.302 35.4533 15.6929 35.4533Z" fill="#02172B"/>
</svg>
