<svg width="67" height="67" viewBox="0 0 67 67" fill="none" xmlns="http://www.w3.org/2000/svg">
<rect width="67" height="67" rx="26.3215" fill="white"/>
<path d="M20.7969 29.0862V41.3593L24.5322 44.6089H34.0012V31.9866C34.0012 30.3842 32.355 29.0862 30.3226 29.0862H20.7969V29.0862Z" fill="#02172B"/>
<path d="M35.5901 31.9873V40.241C35.942 40.053 36.3621 39.9455 36.8276 39.9455V26.8041C35.6468 26.8041 34.6818 26.07 34.625 25.1479H30.7534C30.6966 26.07 29.7316 26.8041 28.5508 26.8041V27.8335H30.3333C33.2285 27.8335 35.5901 29.6955 35.5901 31.9873Z" fill="#80DB42"/>
<path d="M40.0053 43.2306V22.1309H25.3477V27.8422H26.9485V25.5595H28.538C28.8673 25.5595 29.1398 25.3536 29.1511 25.1029L29.2193 23.9033H36.1223L36.1904 25.1029C36.2018 25.3625 36.4743 25.5595 36.8036 25.5595H38.3931V41.2075H36.8036C36.6787 41.2075 36.5651 41.2344 36.4629 41.2881L35.566 41.7625V44.6271H38.2341C39.2219 44.6092 40.0053 43.9916 40.0053 43.2306Z" fill="#02172B"/>
<path d="M59.2279 28.5138H44.3773L41.5956 25.7745V42.8727L44.3773 40.8675H53.8122C50.2926 46.7131 42.7424 50.7683 34 50.7683C21.9197 50.7683 12.0987 43.0249 12.0987 33.5C12.0987 23.9751 21.9197 16.2317 34 16.2317C38.4734 16.2317 42.6402 17.2969 46.1144 19.1231L43.6507 21.0747L50.9965 22.6234L55.5948 23.5902L54.7659 21.1642L52.3817 14.1638L49.055 16.7867C44.8201 14.4055 39.6201 13 34 13C19.6376 13 8 22.1758 8 33.5C8 44.8242 19.6376 54 34 54C45.0699 54 54.5162 48.5483 58.2742 40.8585C59.3869 38.5758 60 36.0961 60 33.5C60 31.7812 59.7275 30.1072 59.2279 28.5138Z" fill="#80DB42"/>
</svg>
