<svg width="86" height="66" viewBox="0 0 86 66" fill="none" xmlns="http://www.w3.org/2000/svg">
<text fill="#02172B" style="white-space: pre" xml:space="preserve" font-family="Titillium Web" font-size="16.4639" font-weight="bold" letter-spacing="0em"><tspan x="4.97547" y="12.7518">Integra&#xe7;&#xe3;o</tspan></text>
<path d="M50.4311 43.8066C50.5851 43.3114 50.6718 42.7809 50.6718 42.2327C50.6718 39.0672 47.88 36.5118 44.4432 36.5118C41.6322 36.5118 39.2543 38.2272 38.4746 40.5704C38.0702 40.5085 37.6467 40.4731 37.2231 40.4731C32.9392 40.4731 29.4639 43.6651 29.4639 47.5998C29.4639 51.5346 32.9392 54.7266 37.2231 54.7266H50.2193C53.502 54.7266 56.1687 52.2773 56.1687 49.2621C56.1687 46.3089 53.6176 43.9038 50.4311 43.8066Z" fill="#80DB42"/>
<path d="M30.5984 31.2941H36.2686V35.777C36.2686 36.1219 36.5671 36.396 36.9425 36.396C37.318 36.396 37.6164 36.1219 37.6164 35.777V30.6751C37.6164 30.3303 37.318 30.0562 36.9425 30.0562H30.5214C30.1845 29.1366 29.2314 28.4646 28.1147 28.4646C26.7188 28.4646 25.5732 29.508 25.5732 30.7989C25.5732 32.0899 26.7092 33.1332 28.1147 33.1332C29.3277 33.1332 30.3481 32.3374 30.5984 31.2941ZM28.1147 31.8953C27.4601 31.8953 26.921 31.4002 26.921 30.7989C26.921 30.1976 27.4601 29.7025 28.1147 29.7025C28.7693 29.7025 29.3085 30.1976 29.3085 30.7989C29.3085 31.4002 28.7693 31.8953 28.1147 31.8953Z" fill="#02172B"/>
<path d="M59.653 33.1332C61.0489 33.1332 62.1945 32.0899 62.1945 30.7989C62.1945 29.508 61.0489 28.4646 59.653 28.4646C58.5363 28.4646 57.5833 29.1366 57.2463 30.0562H50.8252C50.4498 30.0562 50.1514 30.3303 50.1514 30.6751V35.777C50.1514 36.1219 50.4498 36.396 50.8252 36.396C51.2007 36.396 51.4991 36.1219 51.4991 35.777V31.2941H57.1693C57.4196 32.3374 58.4304 33.1332 59.653 33.1332ZM59.653 29.7025C60.3077 29.7025 60.8468 30.1976 60.8468 30.7989C60.8468 31.4002 60.3077 31.8953 59.653 31.8953C58.9984 31.8953 58.4593 31.4002 58.4593 30.7989C58.4593 30.1976 58.9888 29.7025 59.653 29.7025Z" fill="#02172B"/>
<path d="M42.9135 28.5802V34.1684C42.9135 34.5132 43.2119 34.7874 43.5874 34.7874C43.9628 34.7874 44.2613 34.5132 44.2613 34.1684V28.5802C45.3395 28.3061 46.1289 27.4042 46.1289 26.3343C46.1289 25.0522 44.9929 24 43.5874 24C42.1819 24 41.0459 25.0434 41.0459 26.3343C41.0459 27.4042 41.8449 28.3061 42.9135 28.5802ZM43.5874 25.2379C44.242 25.2379 44.7811 25.7331 44.7811 26.3343C44.7811 26.9356 44.242 27.4307 43.5874 27.4307C42.9328 27.4307 42.3937 26.9356 42.3937 26.3343C42.3937 25.7331 42.9328 25.2379 43.5874 25.2379Z" fill="#02172B"/>
<path d="M26.6143 44.9822H23.4663V41.3658C24.6023 41.1359 25.4687 40.1987 25.4687 39.0846C25.4687 37.8025 24.3327 36.7502 22.9272 36.7502C21.5217 36.7502 20.3857 37.7936 20.3857 39.0757C20.3857 40.1014 21.1174 40.9768 22.1186 41.2862V45.5923C22.1186 45.9372 22.417 46.2113 22.7924 46.2113H26.6143C26.9897 46.2113 27.2882 45.9372 27.2882 45.5923C27.2882 45.2475 26.9801 44.9822 26.6143 44.9822ZM21.7335 39.0757C21.7335 38.4745 22.2726 37.9793 22.9272 37.9793C23.5818 37.9793 24.121 38.4745 24.121 39.0757C24.121 39.677 23.5818 40.1721 22.9272 40.1721C22.2726 40.1721 21.7335 39.6858 21.7335 39.0757Z" fill="#02172B"/>
<path d="M26.6138 50.4909H23.9857C23.6873 49.5006 22.7054 48.7755 21.5405 48.7755C20.1446 48.7755 18.999 49.8189 18.999 51.1098C18.999 52.4008 20.135 53.4441 21.5405 53.4441C22.7054 53.4441 23.6873 52.7191 23.9857 51.7288H26.6042C26.9797 51.7288 27.2781 51.4547 27.2781 51.1098C27.2781 50.765 26.9797 50.4909 26.6138 50.4909ZM21.5405 52.1974C20.8859 52.1974 20.3468 51.7022 20.3468 51.101C20.3468 50.4997 20.8859 50.0046 21.5405 50.0046C22.1951 50.0046 22.7342 50.4997 22.7342 51.101C22.7342 51.7022 22.1951 52.1974 21.5405 52.1974Z" fill="#02172B"/>
<path d="M63.8796 54.1959V49.8898C63.8796 49.545 63.5811 49.2709 63.2057 49.2709H59.3838C59.0084 49.2709 58.71 49.545 58.71 49.8898C58.71 50.2347 59.0084 50.5088 59.3838 50.5088H62.5318V54.1252C61.3958 54.3551 60.5294 55.2923 60.5294 56.4064C60.5294 57.6885 61.6654 58.7408 63.0709 58.7408C64.4764 58.7408 65.6124 57.6974 65.6124 56.4064C65.6124 55.3808 64.8808 54.5054 63.8796 54.1959ZM63.0709 57.5029C62.4163 57.5029 61.8772 57.0077 61.8772 56.4064C61.8772 55.8052 62.4163 55.31 63.0709 55.31C63.7255 55.31 64.2646 55.8052 64.2646 56.4064C64.2646 57.0077 63.7255 57.5029 63.0709 57.5029Z" fill="#02172B"/>
<path d="M64.4593 42.0464C63.2944 42.0464 62.3125 42.7714 62.0141 43.7618H59.3956C59.0201 43.7618 58.7217 44.0359 58.7217 44.3807C58.7217 44.7255 59.0201 44.9996 59.3956 44.9996H62.0141C62.3125 45.99 63.2944 46.715 64.4593 46.715C65.8552 46.715 67.0007 45.6716 67.0007 44.3807C67.0007 43.0898 65.8552 42.0464 64.4593 42.0464ZM64.4593 45.4771C63.8046 45.4771 63.2655 44.982 63.2655 44.3807C63.2655 43.7794 63.8046 43.2843 64.4593 43.2843C65.1139 43.2843 65.653 43.7794 65.653 44.3807C65.653 44.982 65.1139 45.4771 64.4593 45.4771Z" fill="#02172B"/>
<path d="M49.3316 61.4198V57.4231C49.3316 57.0783 49.0331 56.8042 48.6577 56.8042C48.2822 56.8042 47.9838 57.0783 47.9838 57.4231V61.4198C46.9056 61.6939 46.1162 62.5958 46.1162 63.6657C46.1162 64.9478 47.2522 66 48.6577 66C50.0632 66 51.1992 64.9566 51.1992 63.6657C51.1895 62.5958 50.4001 61.6939 49.3316 61.4198ZM48.6577 64.7621C48.0031 64.7621 47.464 64.2669 47.464 63.6657C47.464 63.0644 48.0031 62.5692 48.6577 62.5692C49.3123 62.5692 49.8514 63.0644 49.8514 63.6657C49.8514 64.2669 49.3123 64.7621 48.6577 64.7621Z" fill="#02172B"/>
<path d="M40.255 59.952C39.0902 59.952 38.1082 60.677 37.8098 61.6673H35.7882V57.4231C35.7882 57.0783 35.4898 56.8042 35.1143 56.8042C34.7389 56.8042 34.4404 57.0783 34.4404 57.4231V62.2863C34.4404 62.6311 34.7389 62.9052 35.1143 62.9052H37.8098C38.1082 63.8956 39.0902 64.6206 40.255 64.6206C41.6509 64.6206 42.7965 63.5772 42.7965 62.2863C42.7965 60.9954 41.6509 59.952 40.255 59.952ZM40.255 63.3827C39.6004 63.3827 39.0613 62.8876 39.0613 62.2863C39.0613 61.685 39.6004 61.1899 40.255 61.1899C40.9097 61.1899 41.4488 61.685 41.4488 62.2863C41.4488 62.8876 40.9097 63.3827 40.255 63.3827Z" fill="#02172B"/>
</svg>
