<svg width="48" height="42" viewBox="0 0 48 42" fill="none" xmlns="http://www.w3.org/2000/svg">
<path d="M14.0002 25.904L10.6475 22.9672L7.74609 25.5086L18.8573 35.2416L21.7587 32.7001L14.0002 25.904Z" fill="#80DB42"/>
<path d="M19.0938 28.512L20.7056 29.9239L22.8226 31.7783L29.7107 25.7446L31.3548 27.1942L32.4186 26.2623L30.7745 24.8127L33.9123 22.0642L28.8832 17.6589L21.1999 24.3892C21.1784 24.408 21.157 24.4268 21.1355 24.4456C21.8554 25.4905 21.705 26.8647 20.6734 27.7684C20.2221 28.1637 19.674 28.4085 19.0938 28.512Z" fill="#02172B"/>
<path d="M32.427 28.1129L29.2812 30.8684L31.4696 32.7853L34.6153 30.0298L32.427 28.1129Z" fill="#80DB42"/>
<path d="M36.634 24.4344L33.4883 27.1899L35.6766 29.1068L38.8224 26.3513L36.634 24.4344Z" fill="#80DB42"/>
<path d="M35.6809 30.9719L32.5352 33.7274L34.032 35.0386L37.1778 32.2831L35.6809 30.9719Z" fill="#80DB42"/>
<path d="M38.2423 33.218L35.0938 35.9666L36.5874 37.275L39.736 34.5264L38.2423 33.218Z" fill="#80DB42"/>
<path d="M40.8059 35.4531L37.6602 38.2086L39.8485 40.1255L42.9942 37.37L40.8059 35.4531Z" fill="#80DB42"/>
<path d="M39.8879 27.2802L36.7422 30.0358L38.2391 31.347L41.3848 28.5914L39.8879 27.2802Z" fill="#80DB42"/>
<path d="M42.4465 29.5208L39.3008 32.2764L40.7977 33.5876L43.9434 30.832L42.4465 29.5208Z" fill="#80DB42"/>
<path d="M45.0051 31.768L41.8594 34.5236L44.0477 36.4404L47.1934 33.6849L45.0051 31.768Z" fill="#80DB42"/>
<path d="M5.34495 4.39304L2.19922 7.14856L4.38756 9.06545L7.53329 6.30992L5.34495 4.39304Z" fill="#80DB42"/>
<path d="M8.59105 7.24545L5.44531 10.001L6.9422 11.3122L10.0879 8.55666L8.59105 7.24545Z" fill="#80DB42"/>
<path d="M11.1535 9.47958L8.00781 12.2351L9.5047 13.5463L12.6504 10.7908L11.1535 9.47958Z" fill="#80DB42"/>
<path d="M15.8465 13.6958L15.9003 13.6487L13.7081 11.7285L10.5703 14.4771L12.7625 16.3973L15.8465 13.6958Z" fill="#80DB42"/>
<path d="M9.54116 0.708756L6.39453 3.4635L8.58225 5.38093L11.7289 2.62618L9.54116 0.708756Z" fill="#80DB42"/>
<path d="M12.8059 3.56039L9.66016 6.31592L11.157 7.62712L14.3028 4.8716L12.8059 3.56039Z" fill="#80DB42"/>
<path d="M15.3645 5.80099L12.2188 8.55652L13.7156 9.86772L16.8614 7.1122L15.3645 5.80099Z" fill="#80DB42"/>
<path d="M17.9235 8.03442L14.7773 10.7896L16.9654 12.7067L20.1116 9.95157L17.9235 8.03442Z" fill="#80DB42"/>
<path d="M18.0295 13.6487L17.4062 14.1947V14.2041L16.9657 14.5806L18.599 16.0114L11.7109 22.0356L13.398 23.5135L15.0529 24.9725L15.429 25.3019C15.5472 24.7936 15.8266 24.3136 16.2779 23.9276C17.3095 23.024 18.8784 22.8922 20.0712 23.5229C20.0927 23.504 20.1142 23.4852 20.1357 23.457L27.8297 16.7268L22.8007 12.3215L19.6629 15.0701L18.0295 13.6487Z" fill="#02172B"/>
<path d="M27.864 32.9355C27.6061 32.7096 27.187 32.7096 26.9291 32.9355L25.5322 34.1592L23.8881 32.719L22.8242 33.6509L24.4683 35.091L23.0821 36.3053C22.8242 36.5312 22.8242 36.8983 23.0821 37.1242L28.455 41.8307C28.7129 42.0566 29.132 42.0566 29.3899 41.8307L33.237 38.4609C33.4949 38.2349 33.4949 37.8678 33.237 37.6419L27.864 32.9355Z" fill="#80DB42"/>
<path d="M7.29486 29.6318C6.89726 29.7636 6.7898 30.206 7.09069 30.4695L13.2051 35.8255C13.506 36.089 14.011 35.9949 14.1615 35.6466L14.9996 33.7264L9.48701 28.907L7.29486 29.6318Z" fill="#02172B"/>
<path d="M9.58261 22.0355L10.6465 21.1036L9.00234 19.6635L10.453 18.3927C10.6787 18.1951 10.6787 17.8844 10.453 17.6868L4.95115 12.8674C4.72549 12.6697 4.37088 12.6697 4.14521 12.8674L0.169247 16.3501C-0.0564157 16.5478 -0.0564157 16.8584 0.169247 17.0561L5.67112 21.8755C5.89679 22.0732 6.2514 22.0732 6.47706 21.8755L7.92775 20.6048L9.58261 22.0355Z" fill="#80DB42"/>
<path d="M29.2791 13.0935L27.5382 14.6089L29.956 16.7268L31.31 17.9129L33.0508 16.3974C33.1368 16.4444 33.212 16.4821 33.298 16.5292C37.9187 18.9577 44.0116 18.4212 47.9983 14.929L30.9447 0.00012207C26.9579 3.4923 26.3454 8.82 29.1179 12.877C29.1716 12.9428 29.2253 13.0182 29.2791 13.0935Z" fill="#80DB42"/>
<path d="M41.0677 6.99411L43.4748 4.88562C44.2378 5.17742 45.1512 5.05505 45.7744 4.50911C46.5804 3.80314 46.5804 2.64535 45.7744 1.93939C44.9685 1.23342 43.6467 1.23342 42.8408 1.93939C42.2176 2.48533 42.0779 3.28543 42.411 3.95375L40.0039 6.06223L41.0677 6.99411Z" fill="#02172B"/>
</svg>
