<svg width="143" height="144" viewBox="0 0 143 144" fill="none" xmlns="http://www.w3.org/2000/svg">
<g filter="url(#filter0_d_272_1596)">
<rect width="126.694" height="128" rx="20.898" fill="white"/>
<text fill="#02172B" style="white-space: pre" xml:space="preserve" font-family="Titillium Web" font-size="16.4639" font-weight="bold" letter-spacing="0em"><tspan x="24.9755" y="43.7516">Integra&#xe7;&#xe3;o</tspan></text>
<path d="M70.4311 74.8063C70.5851 74.3112 70.6718 73.7806 70.6718 73.2324C70.6718 70.067 67.88 67.5116 64.4432 67.5116C61.6322 67.5116 59.2543 69.227 58.4746 71.5701C58.0702 71.5082 57.6467 71.4729 57.2231 71.4729C52.9392 71.4729 49.4639 74.6648 49.4639 78.5996C49.4639 82.5343 52.9392 85.7263 57.2231 85.7263H70.2193C73.502 85.7263 76.1687 83.277 76.1687 80.2619C76.1687 77.3086 73.6176 74.9036 70.4311 74.8063Z" fill="#80DB42"/>
<path d="M50.5984 62.2938H56.2686V66.7768C56.2686 67.1216 56.5671 67.3957 56.9425 67.3957C57.318 67.3957 57.6164 67.1216 57.6164 66.7768V61.6749C57.6164 61.33 57.318 61.0559 56.9425 61.0559H50.5214C50.1845 60.1364 49.2314 59.4644 48.1147 59.4644C46.7188 59.4644 45.5732 60.5077 45.5732 61.7987C45.5732 63.0896 46.7092 64.133 48.1147 64.133C49.3277 64.133 50.3481 63.3372 50.5984 62.2938ZM48.1147 62.8951C47.4601 62.8951 46.921 62.3999 46.921 61.7987C46.921 61.1974 47.4601 60.7022 48.1147 60.7022C48.7693 60.7022 49.3085 61.1974 49.3085 61.7987C49.3085 62.3999 48.7693 62.8951 48.1147 62.8951Z" fill="#02172B"/>
<path d="M79.653 64.133C81.0489 64.133 82.1945 63.0896 82.1945 61.7987C82.1945 60.5077 81.0489 59.4644 79.653 59.4644C78.5363 59.4644 77.5833 60.1364 77.2463 61.0559H70.8252C70.4498 61.0559 70.1514 61.33 70.1514 61.6749V66.7768C70.1514 67.1216 70.4498 67.3957 70.8252 67.3957C71.2007 67.3957 71.4991 67.1216 71.4991 66.7768V62.2938H77.1693C77.4196 63.3372 78.4304 64.133 79.653 64.133ZM79.653 60.7022C80.3077 60.7022 80.8468 61.1974 80.8468 61.7987C80.8468 62.3999 80.3077 62.8951 79.653 62.8951C78.9984 62.8951 78.4593 62.3999 78.4593 61.7987C78.4593 61.1974 78.9888 60.7022 79.653 60.7022Z" fill="#02172B"/>
<path d="M62.9135 59.58V65.1682C62.9135 65.513 63.2119 65.7871 63.5874 65.7871C63.9628 65.7871 64.2613 65.513 64.2613 65.1682V59.58C65.3395 59.3059 66.1289 58.404 66.1289 57.3341C66.1289 56.052 64.9929 54.9998 63.5874 54.9998C62.1819 54.9998 61.0459 56.0431 61.0459 57.3341C61.0459 58.404 61.8449 59.3059 62.9135 59.58ZM63.5874 56.2376C64.242 56.2376 64.7811 56.7328 64.7811 57.3341C64.7811 57.9353 64.242 58.4305 63.5874 58.4305C62.9328 58.4305 62.3937 57.9353 62.3937 57.3341C62.3937 56.7328 62.9328 56.2376 63.5874 56.2376Z" fill="#02172B"/>
<path d="M46.6143 75.982H43.4663V72.3656C44.6023 72.1357 45.4687 71.1984 45.4687 70.0843C45.4687 68.8022 44.3327 67.75 42.9272 67.75C41.5217 67.75 40.3857 68.7934 40.3857 70.0755C40.3857 71.1012 41.1174 71.9765 42.1186 72.286V76.5921C42.1186 76.9369 42.417 77.211 42.7924 77.211H46.6143C46.9897 77.211 47.2882 76.9369 47.2882 76.5921C47.2882 76.2473 46.9801 75.982 46.6143 75.982ZM41.7335 70.0755C41.7335 69.4742 42.2726 68.9791 42.9272 68.9791C43.5818 68.9791 44.121 69.4742 44.121 70.0755C44.121 70.6767 43.5818 71.1719 42.9272 71.1719C42.2726 71.1719 41.7335 70.6856 41.7335 70.0755Z" fill="#02172B"/>
<path d="M46.6138 81.4906H43.9857C43.6873 80.5003 42.7054 79.7753 41.5405 79.7753C40.1446 79.7753 38.999 80.8186 38.999 82.1096C38.999 83.4005 40.135 84.4439 41.5405 84.4439C42.7054 84.4439 43.6873 83.7188 43.9857 82.7285H46.6042C46.9797 82.7285 47.2781 82.4544 47.2781 82.1096C47.2781 81.7647 46.9797 81.4906 46.6138 81.4906ZM41.5405 83.1972C40.8859 83.1972 40.3468 82.702 40.3468 82.1007C40.3468 81.4995 40.8859 81.0043 41.5405 81.0043C42.1951 81.0043 42.7342 81.4995 42.7342 82.1007C42.7342 82.702 42.1951 83.1972 41.5405 83.1972Z" fill="#02172B"/>
<path d="M83.8796 85.1957V80.8896C83.8796 80.5447 83.5811 80.2706 83.2057 80.2706H79.3838C79.0084 80.2706 78.71 80.5447 78.71 80.8896C78.71 81.2344 79.0084 81.5085 79.3838 81.5085H82.5318V85.1249C81.3958 85.3548 80.5294 86.2921 80.5294 87.4062C80.5294 88.6883 81.6654 89.7405 83.0709 89.7405C84.4764 89.7405 85.6124 88.6971 85.6124 87.4062C85.6124 86.3805 84.8808 85.5051 83.8796 85.1957ZM83.0709 88.5026C82.4163 88.5026 81.8772 88.0075 81.8772 87.4062C81.8772 86.8049 82.4163 86.3098 83.0709 86.3098C83.7255 86.3098 84.2646 86.8049 84.2646 87.4062C84.2646 88.0075 83.7255 88.5026 83.0709 88.5026Z" fill="#02172B"/>
<path d="M84.4593 73.0461C83.2944 73.0461 82.3125 73.7712 82.0141 74.7615H79.3956C79.0201 74.7615 78.7217 75.0356 78.7217 75.3805C78.7217 75.7253 79.0201 75.9994 79.3956 75.9994H82.0141C82.3125 76.9897 83.2944 77.7148 84.4593 77.7148C85.8552 77.7148 87.0007 76.6714 87.0007 75.3805C87.0007 74.0895 85.8552 73.0461 84.4593 73.0461ZM84.4593 76.4769C83.8046 76.4769 83.2655 75.9817 83.2655 75.3805C83.2655 74.7792 83.8046 74.284 84.4593 74.284C85.1139 74.284 85.653 74.7792 85.653 75.3805C85.653 75.9817 85.1139 76.4769 84.4593 76.4769Z" fill="#02172B"/>
<path d="M69.3316 92.4195V88.4229C69.3316 88.0781 69.0331 87.804 68.6577 87.804C68.2822 87.804 67.9838 88.0781 67.9838 88.4229V92.4195C66.9056 92.6936 66.1162 93.5955 66.1162 94.6654C66.1162 95.9475 67.2522 96.9997 68.6577 96.9997C70.0632 96.9997 71.1992 95.9564 71.1992 94.6654C71.1895 93.5955 70.4001 92.6936 69.3316 92.4195ZM68.6577 95.7618C68.0031 95.7618 67.464 95.2667 67.464 94.6654C67.464 94.0642 68.0031 93.569 68.6577 93.569C69.3123 93.569 69.8514 94.0642 69.8514 94.6654C69.8514 95.2667 69.3123 95.7618 68.6577 95.7618Z" fill="#02172B"/>
<path d="M60.255 90.9517C59.0902 90.9517 58.1082 91.6768 57.8098 92.6671H55.7882V88.4229C55.7882 88.0781 55.4898 87.804 55.1143 87.804C54.7389 87.804 54.4404 88.0781 54.4404 88.4229V93.2861C54.4404 93.6309 54.7389 93.905 55.1143 93.905H57.8098C58.1082 94.8953 59.0902 95.6204 60.255 95.6204C61.6509 95.6204 62.7965 94.577 62.7965 93.2861C62.7965 91.9951 61.6509 90.9517 60.255 90.9517ZM60.255 94.3825C59.6004 94.3825 59.0613 93.8873 59.0613 93.2861C59.0613 92.6848 59.6004 92.1896 60.255 92.1896C60.9097 92.1896 61.4488 92.6848 61.4488 93.2861C61.4488 93.8873 60.9097 94.3825 60.255 94.3825Z" fill="#02172B"/>
</g>
<defs>
<filter id="filter0_d_272_1596" x="0" y="0" width="142.694" height="144" filterUnits="userSpaceOnUse" color-interpolation-filters="sRGB">
<feFlood flood-opacity="0" result="BackgroundImageFix"/>
<feColorMatrix in="SourceAlpha" type="matrix" values="0 0 0 0 0 0 0 0 0 0 0 0 0 0 0 0 0 0 127 0" result="hardAlpha"/>
<feOffset dx="8" dy="8"/>
<feGaussianBlur stdDeviation="4"/>
<feComposite in2="hardAlpha" operator="out"/>
<feColorMatrix type="matrix" values="0 0 0 0 1 0 0 0 0 1 0 0 0 0 1 0 0 0 0.25 0"/>
<feBlend mode="normal" in2="BackgroundImageFix" result="effect1_dropShadow_272_1596"/>
<feBlend mode="normal" in="SourceGraphic" in2="effect1_dropShadow_272_1596" result="shape"/>
</filter>
</defs>
</svg>
