<svg width="439" height="144" viewBox="0 0 439 144" fill="none" xmlns="http://www.w3.org/2000/svg">
<g filter="url(#filter0_d_272_1593)">
<rect width="126.694" height="128" rx="20.898" fill="white"/>
<text fill="#02172B" style="white-space: pre" xml:space="preserve" font-family="Titillium Web" font-size="16.4639" font-weight="bold" letter-spacing="0em"><tspan x="30.852" y="43.7518">Interface</tspan></text>
<path d="M84.2052 55H41.7961C40.262 55 39.0127 56.1641 39.0127 57.5937V78.0372H86.9996V57.5937C86.9996 56.1641 85.7503 55 84.2052 55ZM48.9191 67.6725C48.7218 67.6725 48.5246 67.601 48.3821 67.4683C48.0863 67.1926 48.0863 66.733 48.3821 66.4573L55.3188 59.9934C55.6147 59.7177 56.1078 59.7177 56.4037 59.9934C56.6996 60.2691 56.6996 60.7287 56.4037 61.0044L49.467 67.4683C49.3136 67.601 49.1163 67.6725 48.9191 67.6725ZM55.1873 74.8512C54.9901 74.8512 54.7928 74.7797 54.6394 74.647C54.3435 74.3713 54.3435 73.9117 54.6394 73.636L69.9702 59.3501C70.2661 59.0744 70.7592 59.0744 71.0551 59.3501C71.351 59.6258 71.351 60.0853 71.0551 60.361L55.7243 74.647C55.5818 74.7797 55.3846 74.8512 55.1873 74.8512ZM77.6301 67.4989L70.4524 74.1874C70.299 74.3304 70.1017 74.3917 69.9044 74.3917C69.7072 74.3917 69.5099 74.3202 69.3675 74.1874C69.0716 73.9117 69.0716 73.4522 69.3675 73.1765L76.5452 66.488C76.8411 66.2122 77.3342 66.2122 77.6301 66.488C77.926 66.7739 77.926 67.2232 77.6301 67.4989Z" fill="#80DB42"/>
<path d="M68.0299 87.5952H57.981C57.3016 90.5361 55.0989 97 48.7979 97H77.213C70.9119 96.9898 68.6983 90.5361 68.0299 87.5952Z" fill="#02172B"/>
<path d="M39.001 83.5619C39.001 84.2256 39.264 84.8281 39.7133 85.2876C40.042 85.6246 40.4584 85.8901 40.9297 86.033C41.2036 86.1147 41.4885 86.1556 41.7844 86.1556H84.2044C84.5003 86.1556 84.7962 86.1147 85.0592 86.033C85.5304 85.8901 85.9578 85.6348 86.2756 85.2876C86.7139 84.8281 86.9878 84.2256 86.9878 83.5619V79.467H39.001V83.5619ZM63.0547 81.4685C63.8546 81.4685 64.5012 82.071 64.5012 82.8164C64.5012 83.5619 63.8546 84.1643 63.0547 84.1643C62.2547 84.1643 61.6082 83.5619 61.6082 82.8164C61.6082 82.071 62.2547 81.4685 63.0547 81.4685Z" fill="#02172B"/>
</g>
<g filter="url(#filter1_d_272_1593)">
<rect x="147.694" width="126.694" height="128" rx="20.898" fill="white"/>
<text fill="#02172B" style="white-space: pre" xml:space="preserve" font-family="Titillium Web" font-size="16.4639" font-weight="bold" letter-spacing="0em"><tspan x="176.424" y="43.7517">Trajet&#xf3;ria</tspan></text>
<path d="M200.695 80.9037L197.343 77.9669L194.441 80.5084L205.553 90.2413L208.454 87.6998L200.695 80.9037Z" fill="#80DB42"/>
<path d="M205.789 83.5118L207.401 84.9237L209.518 86.778L216.406 80.7444L218.05 82.1939L219.114 81.2621L217.47 79.8125L220.608 77.0639L215.579 72.6587L207.895 79.3889C207.874 79.4077 207.852 79.4266 207.831 79.4454C208.551 80.4902 208.4 81.8645 207.369 82.7681C206.917 83.1635 206.369 83.4082 205.789 83.5118Z" fill="#02172B"/>
<path d="M219.122 83.1126L215.977 85.8682L218.165 87.785L221.311 85.0295L219.122 83.1126Z" fill="#80DB42"/>
<path d="M223.329 79.4342L220.184 82.1897L222.372 84.1066L225.518 81.3511L223.329 79.4342Z" fill="#80DB42"/>
<path d="M222.376 85.9716L219.23 88.7272L220.727 90.0384L223.873 87.2829L222.376 85.9716Z" fill="#80DB42"/>
<path d="M224.938 88.2178L221.789 90.9663L223.283 92.2747L226.431 89.5262L224.938 88.2178Z" fill="#80DB42"/>
<path d="M227.501 90.4528L224.355 93.2084L226.544 95.1253L229.69 92.3697L227.501 90.4528Z" fill="#80DB42"/>
<path d="M226.583 82.28L223.438 85.0355L224.934 86.3467L228.08 83.5912L226.583 82.28Z" fill="#80DB42"/>
<path d="M229.142 84.5206L225.996 87.2761L227.493 88.5873L230.639 85.8318L229.142 84.5206Z" fill="#80DB42"/>
<path d="M231.7 86.7678L228.555 89.5233L230.743 91.4402L233.889 88.6847L231.7 86.7678Z" fill="#80DB42"/>
<path d="M192.04 59.3928L188.895 62.1483L191.083 64.0652L194.229 61.3097L192.04 59.3928Z" fill="#80DB42"/>
<path d="M195.286 62.2452L192.141 65.0007L193.638 66.3119L196.783 63.5564L195.286 62.2452Z" fill="#80DB42"/>
<path d="M197.849 64.4793L194.703 67.2349L196.2 68.5461L199.346 65.7905L197.849 64.4793Z" fill="#80DB42"/>
<path d="M202.542 68.6956L202.596 68.6485L200.403 66.7283L197.266 69.4768L199.458 71.3971L202.542 68.6956Z" fill="#80DB42"/>
<path d="M196.236 55.7085L193.09 58.4633L195.278 60.3807L198.424 57.6259L196.236 55.7085Z" fill="#80DB42"/>
<path d="M199.501 58.5601L196.355 61.3157L197.852 62.6269L200.998 59.8714L199.501 58.5601Z" fill="#80DB42"/>
<path d="M202.06 60.8008L198.914 63.5563L200.411 64.8675L203.557 62.112L202.06 60.8008Z" fill="#80DB42"/>
<path d="M204.619 63.0342L201.473 65.7893L203.661 67.7065L206.807 64.9513L204.619 63.0342Z" fill="#80DB42"/>
<path d="M204.725 68.6485L204.102 69.1945V69.2039L203.661 69.5804L205.294 71.0111L198.406 77.0354L200.093 78.5132L201.748 79.9722L202.124 80.3017C202.243 79.7934 202.522 79.3133 202.973 78.9274C204.005 78.0237 205.574 77.892 206.767 78.5226C206.788 78.5038 206.81 78.485 206.831 78.4567L214.525 71.7265L209.496 67.3213L206.358 70.0699L204.725 68.6485Z" fill="#02172B"/>
<path d="M214.559 87.9352C214.301 87.7093 213.882 87.7093 213.624 87.9352L212.227 89.1589L210.583 87.7188L209.52 88.6506L211.164 90.0908L209.777 91.3051C209.52 91.531 209.52 91.8981 209.777 92.124L215.15 96.8304C215.408 97.0563 215.827 97.0563 216.085 96.8304L219.932 93.4606C220.19 93.2347 220.19 92.8676 219.932 92.6417L214.559 87.9352Z" fill="#80DB42"/>
<path d="M193.99 84.6315C193.593 84.7633 193.485 85.2057 193.786 85.4693L199.9 90.8252C200.201 91.0888 200.706 90.9946 200.857 90.6464L201.695 88.7261L196.182 83.9067L193.99 84.6315Z" fill="#02172B"/>
<path d="M196.278 77.0353L197.342 76.1034L195.698 74.6632L197.148 73.3925C197.374 73.1948 197.374 72.8842 197.148 72.6865L191.646 67.8671C191.421 67.6695 191.066 67.6695 190.841 67.8671L186.865 71.3499C186.639 71.5476 186.639 71.8582 186.865 72.0559L192.366 76.8753C192.592 77.0729 192.947 77.0729 193.172 76.8753L194.623 75.6045L196.278 77.0353Z" fill="#80DB42"/>
<path d="M215.974 68.0932L214.234 69.6087L216.651 71.7266L218.005 72.9126L219.746 71.3971C219.832 71.4442 219.907 71.4819 219.993 71.5289C224.614 73.9574 230.707 73.4209 234.694 69.9287L217.64 54.9999C213.653 58.4921 213.041 63.8198 215.813 67.8767C215.867 67.9426 215.921 68.0179 215.974 68.0932Z" fill="#80DB42"/>
<path d="M227.763 61.9939L230.17 59.8854C230.933 60.1772 231.846 60.0548 232.47 59.5089C233.276 58.8029 233.276 57.6451 232.47 56.9391C231.664 56.2332 230.342 56.2332 229.536 56.9391C228.913 57.4851 228.773 58.2852 229.106 58.9535L226.699 61.062L227.763 61.9939Z" fill="#02172B"/>
</g>
<g filter="url(#filter2_d_272_1593)">
<rect x="295.388" width="126.694" height="128" rx="20.898" fill="white"/>
<text fill="#02172B" style="white-space: pre" xml:space="preserve" font-family="Titillium Web" font-size="16.4639" font-weight="bold" letter-spacing="0em"><tspan x="320.363" y="43.7516">Integra&#xe7;&#xe3;o</tspan></text>
<path d="M365.819 74.8063C365.973 74.3112 366.059 73.7806 366.059 73.2324C366.059 70.067 363.268 67.5116 359.831 67.5116C357.02 67.5116 354.642 69.227 353.862 71.5701C353.458 71.5082 353.034 71.4729 352.611 71.4729C348.327 71.4729 344.852 74.6648 344.852 78.5996C344.852 82.5343 348.327 85.7263 352.611 85.7263H365.607C368.89 85.7263 371.556 83.277 371.556 80.2619C371.556 77.3086 369.005 74.9036 365.819 74.8063Z" fill="#80DB42"/>
<path d="M345.986 62.2938H351.656V66.7768C351.656 67.1216 351.955 67.3957 352.33 67.3957C352.706 67.3957 353.004 67.1216 353.004 66.7768V61.6749C353.004 61.33 352.706 61.0559 352.33 61.0559H345.909C345.572 60.1364 344.619 59.4644 343.502 59.4644C342.107 59.4644 340.961 60.5077 340.961 61.7987C340.961 63.0896 342.097 64.133 343.502 64.133C344.715 64.133 345.736 63.3372 345.986 62.2938ZM343.502 62.8951C342.848 62.8951 342.309 62.3999 342.309 61.7987C342.309 61.1974 342.848 60.7022 343.502 60.7022C344.157 60.7022 344.696 61.1974 344.696 61.7987C344.696 62.3999 344.157 62.8951 343.502 62.8951Z" fill="#02172B"/>
<path d="M375.041 64.133C376.437 64.133 377.582 63.0896 377.582 61.7987C377.582 60.5077 376.437 59.4644 375.041 59.4644C373.924 59.4644 372.971 60.1364 372.634 61.0559H366.213C365.837 61.0559 365.539 61.33 365.539 61.6749V66.7768C365.539 67.1216 365.837 67.3957 366.213 67.3957C366.588 67.3957 366.887 67.1216 366.887 66.7768V62.2938H372.557C372.807 63.3372 373.818 64.133 375.041 64.133ZM375.041 60.7022C375.695 60.7022 376.234 61.1974 376.234 61.7987C376.234 62.3999 375.695 62.8951 375.041 62.8951C374.386 62.8951 373.847 62.3999 373.847 61.7987C373.847 61.1974 374.376 60.7022 375.041 60.7022Z" fill="#02172B"/>
<path d="M358.301 59.58V65.1682C358.301 65.513 358.6 65.7871 358.975 65.7871C359.351 65.7871 359.649 65.513 359.649 65.1682V59.58C360.727 59.3059 361.517 58.404 361.517 57.3341C361.517 56.052 360.381 54.9998 358.975 54.9998C357.57 54.9998 356.434 56.0431 356.434 57.3341C356.434 58.404 357.233 59.3059 358.301 59.58ZM358.975 56.2376C359.63 56.2376 360.169 56.7328 360.169 57.3341C360.169 57.9353 359.63 58.4305 358.975 58.4305C358.32 58.4305 357.781 57.9353 357.781 57.3341C357.781 56.7328 358.32 56.2376 358.975 56.2376Z" fill="#02172B"/>
<path d="M342.002 75.982H338.854V72.3656C339.99 72.1357 340.856 71.1984 340.856 70.0843C340.856 68.8022 339.72 67.75 338.315 67.75C336.909 67.75 335.773 68.7934 335.773 70.0755C335.773 71.1012 336.505 71.9765 337.506 72.286V76.5921C337.506 76.9369 337.805 77.211 338.18 77.211H342.002C342.377 77.211 342.676 76.9369 342.676 76.5921C342.676 76.2473 342.368 75.982 342.002 75.982ZM337.121 70.0755C337.121 69.4742 337.66 68.9791 338.315 68.9791C338.97 68.9791 339.509 69.4742 339.509 70.0755C339.509 70.6767 338.97 71.1719 338.315 71.1719C337.66 71.1719 337.121 70.6856 337.121 70.0755Z" fill="#02172B"/>
<path d="M342.002 81.4906H339.373C339.075 80.5003 338.093 79.7753 336.928 79.7753C335.532 79.7753 334.387 80.8186 334.387 82.1096C334.387 83.4005 335.523 84.4439 336.928 84.4439C338.093 84.4439 339.075 83.7188 339.373 82.7285H341.992C342.367 82.7285 342.666 82.4544 342.666 82.1096C342.666 81.7647 342.367 81.4906 342.002 81.4906ZM336.928 83.1972C336.274 83.1972 335.734 82.702 335.734 82.1007C335.734 81.4995 336.274 81.0043 336.928 81.0043C337.583 81.0043 338.122 81.4995 338.122 82.1007C338.122 82.702 337.583 83.1972 336.928 83.1972Z" fill="#02172B"/>
<path d="M379.267 85.1957V80.8896C379.267 80.5447 378.969 80.2706 378.593 80.2706H374.772C374.396 80.2706 374.098 80.5447 374.098 80.8896C374.098 81.2344 374.396 81.5085 374.772 81.5085H377.92V85.1249C376.784 85.3548 375.917 86.2921 375.917 87.4062C375.917 88.6883 377.053 89.7405 378.459 89.7405C379.864 89.7405 381 88.6971 381 87.4062C381 86.3805 380.268 85.5051 379.267 85.1957ZM378.459 88.5026C377.804 88.5026 377.265 88.0075 377.265 87.4062C377.265 86.8049 377.804 86.3098 378.459 86.3098C379.113 86.3098 379.652 86.8049 379.652 87.4062C379.652 88.0075 379.113 88.5026 378.459 88.5026Z" fill="#02172B"/>
<path d="M379.847 73.0461C378.682 73.0461 377.7 73.7712 377.402 74.7615H374.783C374.408 74.7615 374.109 75.0356 374.109 75.3805C374.109 75.7253 374.408 75.9994 374.783 75.9994H377.402C377.7 76.9897 378.682 77.7148 379.847 77.7148C381.243 77.7148 382.388 76.6714 382.388 75.3805C382.388 74.0895 381.243 73.0461 379.847 73.0461ZM379.847 76.4769C379.192 76.4769 378.653 75.9817 378.653 75.3805C378.653 74.7792 379.192 74.284 379.847 74.284C380.502 74.284 381.041 74.7792 381.041 75.3805C381.041 75.9817 380.502 76.4769 379.847 76.4769Z" fill="#02172B"/>
<path d="M364.719 92.4195V88.4229C364.719 88.0781 364.421 87.804 364.045 87.804C363.67 87.804 363.372 88.0781 363.372 88.4229V92.4195C362.293 92.6936 361.504 93.5955 361.504 94.6654C361.504 95.9475 362.64 96.9997 364.045 96.9997C365.451 96.9997 366.587 95.9564 366.587 94.6654C366.577 93.5955 365.788 92.6936 364.719 92.4195ZM364.045 95.7618C363.391 95.7618 362.852 95.2667 362.852 94.6654C362.852 94.0642 363.391 93.569 364.045 93.569C364.7 93.569 365.239 94.0642 365.239 94.6654C365.239 95.2667 364.7 95.7618 364.045 95.7618Z" fill="#02172B"/>
<path d="M355.643 90.9517C354.478 90.9517 353.496 91.6768 353.198 92.6671H351.176V88.4229C351.176 88.0781 350.877 87.804 350.502 87.804C350.127 87.804 349.828 88.0781 349.828 88.4229V93.2861C349.828 93.6309 350.127 93.905 350.502 93.905H353.198C353.496 94.8953 354.478 95.6204 355.643 95.6204C357.039 95.6204 358.184 94.577 358.184 93.2861C358.184 91.9951 357.039 90.9517 355.643 90.9517ZM355.643 94.3825C354.988 94.3825 354.449 93.8873 354.449 93.2861C354.449 92.6848 354.988 92.1896 355.643 92.1896C356.297 92.1896 356.836 92.6848 356.836 93.2861C356.836 93.8873 356.297 94.3825 355.643 94.3825Z" fill="#02172B"/>
</g>
<defs>
<filter id="filter0_d_272_1593" x="0" y="0" width="142.694" height="144" filterUnits="userSpaceOnUse" color-interpolation-filters="sRGB">
<feFlood flood-opacity="0" result="BackgroundImageFix"/>
<feColorMatrix in="SourceAlpha" type="matrix" values="0 0 0 0 0 0 0 0 0 0 0 0 0 0 0 0 0 0 127 0" result="hardAlpha"/>
<feOffset dx="8" dy="8"/>
<feGaussianBlur stdDeviation="4"/>
<feComposite in2="hardAlpha" operator="out"/>
<feColorMatrix type="matrix" values="0 0 0 0 1 0 0 0 0 1 0 0 0 0 1 0 0 0 0.25 0"/>
<feBlend mode="normal" in2="BackgroundImageFix" result="effect1_dropShadow_272_1593"/>
<feBlend mode="normal" in="SourceGraphic" in2="effect1_dropShadow_272_1593" result="shape"/>
</filter>
<filter id="filter1_d_272_1593" x="147.694" y="0" width="142.694" height="144" filterUnits="userSpaceOnUse" color-interpolation-filters="sRGB">
<feFlood flood-opacity="0" result="BackgroundImageFix"/>
<feColorMatrix in="SourceAlpha" type="matrix" values="0 0 0 0 0 0 0 0 0 0 0 0 0 0 0 0 0 0 127 0" result="hardAlpha"/>
<feOffset dx="8" dy="8"/>
<feGaussianBlur stdDeviation="4"/>
<feComposite in2="hardAlpha" operator="out"/>
<feColorMatrix type="matrix" values="0 0 0 0 1 0 0 0 0 1 0 0 0 0 1 0 0 0 0.25 0"/>
<feBlend mode="normal" in2="BackgroundImageFix" result="effect1_dropShadow_272_1593"/>
<feBlend mode="normal" in="SourceGraphic" in2="effect1_dropShadow_272_1593" result="shape"/>
</filter>
<filter id="filter2_d_272_1593" x="295.388" y="0" width="142.694" height="144" filterUnits="userSpaceOnUse" color-interpolation-filters="sRGB">
<feFlood flood-opacity="0" result="BackgroundImageFix"/>
<feColorMatrix in="SourceAlpha" type="matrix" values="0 0 0 0 0 0 0 0 0 0 0 0 0 0 0 0 0 0 127 0" result="hardAlpha"/>
<feOffset dx="8" dy="8"/>
<feGaussianBlur stdDeviation="4"/>
<feComposite in2="hardAlpha" operator="out"/>
<feColorMatrix type="matrix" values="0 0 0 0 1 0 0 0 0 1 0 0 0 0 1 0 0 0 0.25 0"/>
<feBlend mode="normal" in2="BackgroundImageFix" result="effect1_dropShadow_272_1593"/>
<feBlend mode="normal" in="SourceGraphic" in2="effect1_dropShadow_272_1593" result="shape"/>
</filter>
</defs>
</svg>
