<svg width="86" height="66" viewBox="0 0 86 66" fill="none" xmlns="http://www.w3.org/2000/svg">
<text fill="#02172B" style="white-space: pre" xml:space="preserve" font-family="Titillium Web" font-size="16.4639" font-weight="bold" letter-spacing="0em"><tspan x="10.852" y="12.7518">Interface</tspan></text>
<path d="M64.2052 24H21.7961C20.262 24 19.0127 25.1641 19.0127 26.5937V47.0372H66.9996V26.5937C66.9996 25.1641 65.7503 24 64.2052 24ZM28.9191 36.6725C28.7218 36.6725 28.5246 36.601 28.3821 36.4683C28.0863 36.1926 28.0863 35.733 28.3821 35.4573L35.3188 28.9934C35.6147 28.7177 36.1078 28.7177 36.4037 28.9934C36.6996 29.2691 36.6996 29.7287 36.4037 30.0044L29.467 36.4683C29.3136 36.601 29.1163 36.6725 28.9191 36.6725ZM35.1873 43.8512C34.9901 43.8512 34.7928 43.7797 34.6394 43.647C34.3435 43.3713 34.3435 42.9117 34.6394 42.636L49.9702 28.3501C50.2661 28.0744 50.7592 28.0744 51.0551 28.3501C51.351 28.6258 51.351 29.0853 51.0551 29.361L35.7243 43.647C35.5818 43.7797 35.3846 43.8512 35.1873 43.8512ZM57.6301 36.4989L50.4524 43.1874C50.299 43.3304 50.1017 43.3917 49.9044 43.3917C49.7072 43.3917 49.5099 43.3202 49.3675 43.1874C49.0716 42.9117 49.0716 42.4522 49.3675 42.1765L56.5452 35.488C56.8411 35.2122 57.3342 35.2122 57.6301 35.488C57.926 35.7739 57.926 36.2232 57.6301 36.4989Z" fill="#80DB42"/>
<path d="M48.0299 56.5952H37.981C37.3016 59.5361 35.0989 66 28.7979 66H57.213C50.9119 65.9898 48.6983 59.5361 48.0299 56.5952Z" fill="#02172B"/>
<path d="M19.001 52.5619C19.001 53.2256 19.264 53.8281 19.7133 54.2876C20.042 54.6246 20.4584 54.8901 20.9297 55.033C21.2036 55.1147 21.4885 55.1556 21.7844 55.1556H64.2044C64.5003 55.1556 64.7962 55.1147 65.0592 55.033C65.5304 54.8901 65.9578 54.6348 66.2756 54.2876C66.7139 53.8281 66.9878 53.2256 66.9878 52.5619V48.467H19.001V52.5619ZM43.0547 50.4685C43.8546 50.4685 44.5012 51.071 44.5012 51.8164C44.5012 52.5619 43.8546 53.1643 43.0547 53.1643C42.2547 53.1643 41.6082 52.5619 41.6082 51.8164C41.6082 51.071 42.2547 50.4685 43.0547 50.4685Z" fill="#02172B"/>
</svg>
