<svg width="720" height="51" viewBox="0 0 720 51" fill="none" xmlns="http://www.w3.org/2000/svg">
<path d="M0.0584125 24.0314C0.280293 22.6518 1.01694 19.4387 2.18847 17.623C3.65288 15.3534 2.72098 16.822 3.91914 15.0864L18.9626 0H19.2289L33.873 14.8194C34.583 15.6649 36.1895 17.7832 36.935 19.4921C37.8669 21.6283 38 25.767 38 26.5681C38 27.3691 37.8669 28.3036 37.7338 29.2381L37.7337 29.2382C37.6006 30.1727 37.2013 30.9738 37.0681 31.2408L37.0681 31.2408C36.935 31.5079 36.6687 32.1754 36.1362 33.2435C35.6037 34.3115 35.3374 34.5785 35.2043 34.8455C35.0978 35.0592 34.1837 36.0916 33.7399 36.5812L32.0092 38.4503L28.681 41.6544L25.2197 45.1257C24.9587 45.3874 24.4164 45.9568 24.2947 46.1805C24.2904 46.189 24.2878 46.1937 24.2878 46.1937C24.2899 46.1895 24.2922 46.1851 24.2947 46.1805C24.3132 46.1436 24.3625 46.0352 24.3625 45.9267V45.555C24.3625 45.3927 24.4209 44.8586 24.4209 44.8586C24.4653 44.7251 25.1613 39.5183 25.1613 39.5183L29.8792 34.712L31.2105 33.2435L31.743 32.5759C31.743 32.5759 32.2755 31.7749 32.5417 31.2408L33.0742 30.1728C33.3405 29.6387 33.5826 28.8963 33.7399 28.0366C33.9745 26.7546 34.1393 25.5 34.1393 24.4319L33.873 23.6309L33.7399 22.9634C33.4736 22.1623 32.7814 20.2932 32.1423 19.2251C31.5033 18.1571 30.1454 16.822 29.6129 16.288L19.2289 5.87435H18.9626L16.0338 8.81152L11.7737 13.0838L7.5136 17.356L6.5817 18.2906C6.31545 18.6021 5.62318 19.4387 5.51668 19.7592L5.25042 20.2932L4.98416 20.9607L4.58478 22.1623C4.49603 22.4738 4.29189 23.4974 4.18539 25.0995C4.05226 27.1021 4.31852 28.3037 4.45165 28.8377C4.58478 29.3717 5.38355 31.9084 8.04611 34.5785C8.04611 34.5785 16.877 43.4791 16.9657 43.5236C17.0545 43.5681 17.2586 43.6304 17.3651 43.5236C17.4716 43.4168 17.6757 43.123 17.7645 42.9895C18.0751 42.411 18.8295 40.7199 18.8295 40.7199C18.9626 40.1859 19.4545 38.7113 19.6283 37.3822C19.7569 36.3986 19.8945 34.9791 19.8945 34.712C19.8945 31.8639 19.8413 26.1942 19.6283 26.301C19.4153 26.4079 19.362 26.5681 19.362 26.7016L19.2535 26.8104C19.2141 26.8796 19.0958 27.1466 19.0958 27.7696C19.0958 27.8586 19.0425 28.0901 18.8295 28.3037C18.6165 28.5173 18.6405 28.2165 18.5633 28.3037C18.4251 28.4595 18.5617 28.7404 18.4301 28.9712C18.3207 29.1633 18.0307 29.2382 18.0307 29.2382C17.942 29.1047 17.7379 29.1314 17.6314 29.2382C17.5249 29.345 17.4095 29.9058 17.3651 30.3063C17.3651 30.3953 17.3651 30.8403 17.232 30.7068C17.232 30.7068 17.0988 30.4398 16.8326 30.3063C16.7882 30.3063 16.6995 30.3597 16.6995 30.5733V31.2408C16.6995 31.3743 16.6995 31.6414 16.5663 31.6414C16.4332 31.6414 16.4332 31.3743 16.3001 31.3743C16.3001 31.3743 16.1669 31.8639 16.1669 32.0419C16.1226 32.1754 15.9806 32.4424 15.7676 32.4424C15.5013 32.4424 15.6344 32.3089 15.5013 32.3089C15.3682 32.3089 15.5013 32.4424 15.3682 32.5759C15.2794 32.6649 15.0753 32.8162 14.9688 32.7094C14.8357 32.5759 14.7025 33.5105 14.5694 33.644C14.4363 33.7775 14.17 34.0445 14.0369 33.911C13.9038 33.7775 13.9038 32.8429 13.9038 32.7094V31.7749C13.9038 31.6414 13.7706 31.7749 13.7706 31.6414V30.8403C13.7706 30.7068 13.7973 30.4398 13.9038 30.4398C14.0103 30.4398 14.1256 30.2618 14.17 30.1728C14.17 30.0393 14.1434 29.7722 14.0369 29.7722C13.9038 29.7722 13.9038 29.7722 13.9038 29.6387V29.1047C13.9038 28.9712 14.0759 28.6651 14.17 28.5707C14.3031 28.4372 14.3031 28.1702 14.17 28.0366C14.17 28.0366 14.0777 27.9645 14.0369 27.9031C13.9215 27.7296 13.9215 27.5426 14.0369 27.3691L14.5694 26.8351C14.7025 26.7016 14.7025 26.7016 14.7025 26.5681C14.7025 26.4346 14.4363 26.4346 14.4363 26.301C14.4363 26.1675 14.4363 26.1675 14.5694 26.034C14.6759 25.9272 15.0575 25.7225 15.235 25.6335C15.3238 25.589 15.5279 25.4733 15.6344 25.3665C15.7676 25.233 15.9007 25.233 15.9007 25.0995C15.6344 25.0105 15.1019 24.8058 15.1019 24.699C15.1019 24.5654 15.235 24.4319 15.3682 24.4319C15.6788 24.3874 16.2734 24.2717 16.1669 24.1649C16.0338 24.0314 16.4332 24.2984 15.7676 23.8979L14.4363 23.0969L13.3713 22.5628L11.8484 21.3613C11.8484 21.3613 10.9575 20.6679 10.7087 19.8927C10.6118 19.5908 10.5425 19.4123 10.5171 19.0916C10.4924 18.7789 10.4833 18.5894 10.5756 18.2906C10.739 17.7611 10.995 17.563 11.449 17.356C11.7837 17.2034 12.2478 17.2225 12.3809 17.2225C12.3809 17.2225 13.3045 17.1696 13.8454 17.356C14.5554 17.5785 16.3533 18.2906 17.6314 19.8927C17.8089 20.2042 18.1905 20.8005 18.297 20.6937C18.4301 20.5602 18.297 20.2932 18.4301 20.1597C18.5633 20.0262 18.8295 20.2932 18.9626 20.2932C19.0514 20.2932 19.2289 20.2665 19.2289 20.1597C19.2289 20.0262 19.2289 19.7592 19.362 19.6257C19.4952 19.4921 19.8945 19.3586 20.0277 19.3586C20.1608 19.3586 20.4271 18.9581 20.4271 18.9581C20.4271 18.9581 20.6059 18.5576 20.8264 18.5576C20.9596 18.5576 21.359 18.6911 21.4921 18.5576C21.714 18.2906 22.1843 17.7565 22.2909 17.7565C22.424 17.7565 22.5571 18.0236 22.6902 18.0236C22.7967 18.0236 23.1784 17.7565 23.3559 17.623C23.5334 17.4895 23.915 17.2225 24.0215 17.2225C24.1546 17.2225 24.1546 17.356 24.2878 17.356H24.4209C24.4209 17.356 24.9534 17.089 25.0865 16.9555C25.2197 16.822 25.7788 16.5817 25.8853 16.6885C25.9741 16.6885 26.1782 16.7152 26.2847 16.822C26.3912 16.9288 26.3291 17.0445 26.2847 17.089C26.1959 17.2225 25.9918 17.4895 25.8853 17.4895C25.7522 17.4895 25.7522 17.4895 25.6191 17.623C25.4859 17.7565 25.7522 18.0236 25.6191 18.1571C25.4859 18.2906 25.3528 18.2906 25.3528 18.4241C25.3528 18.5576 25.4859 18.4241 25.4859 18.5576C25.4859 18.6911 25.3528 18.8246 25.2197 18.9581C25.0865 19.0916 25.2197 19.2251 25.0865 19.3586C24.9534 19.4921 24.4209 19.8927 24.4209 20.0262V20.1597C24.3322 20.3377 24.128 20.6937 24.0215 20.6937C23.8884 20.6937 23.7553 20.6937 23.6221 20.8272C23.5156 20.934 23.4522 20.9836 23.489 21.0942C23.5123 21.1642 23.6221 21.1627 23.6221 21.2277C23.6221 21.3613 23.489 21.8953 23.3559 21.8953C23.2227 21.9398 22.9565 22.0555 22.9565 22.1623C22.9565 22.2958 22.8234 22.5628 22.9565 22.6963C23.063 22.8031 24.2609 22.7155 25.0865 22.8298C26.4733 23.0218 27.8238 23.0969 28.5479 23.7644C28.7165 23.9199 28.9018 24.1355 29.022 24.4319C29.2578 25.0135 29.1678 25.472 28.8889 26.034C28.4724 26.8731 27.7491 27.1021 26.8172 27.2356C25.8853 27.3691 23.489 27.2356 23.0896 27.1021C22.6902 26.9686 22.424 26.9686 21.4921 26.7016C21.3146 26.7016 20.9596 26.7283 20.9596 26.8351C20.9596 26.9686 21.6252 29.7722 21.6252 29.7722C21.6252 29.7722 21.7251 30.3063 21.7583 30.5733C21.8915 31.6414 22.0246 31.2408 22.1577 34.9791C22.5127 37.7827 22.5305 44.5649 19.2289 50.8665C19.1845 50.911 19.0691 51 18.9626 51C18.8561 51 9.24427 41.5654 4.45165 36.8482C2.76536 35.1571 -0.474101 30.2262 0.0584125 24.0314Z" fill="#80DB42"/>
<text fill="white" style="white-space: pre" xml:space="preserve" font-family="Titillium Web" font-size="28" font-weight="600" letter-spacing="0em"><tspan x="55" y="35.93">Bacharel em Ci&#xea;ncias Biol&#xf3;gicas &#x2013; UNESP (2007)</tspan></text>
</svg>
