<svg width="195" height="206" viewBox="0 0 195 206" fill="none" xmlns="http://www.w3.org/2000/svg">
<path d="M55.1186 78.3859C54.9135 78.5917 39.7676 95.3648 32.636 102.399C30.7018 100.458 24.7302 94.6129 16.3174 86.7541C5.80135 76.9306 3.78498 68.9263 2.33449 65.6518C0.883998 62.3773 -1.81527 52.5537 1.81096 39.4557C5.43718 26.3577 15.3893 16.8981 15.7519 16.5342C16.042 16.2432 25.3849 6.71071 32.636 0.161704C32.5152 0.161704 33.3613 -0.20213 33.7239 0.161704L33.7502 0.188105C34.5146 0.954701 44.5673 11.0369 53.3042 20.9002C60.7166 29.2684 62.4688 33.4327 64.1829 42.8503C65.2938 48.9543 64.8264 52.0274 64.7055 57.2836C63.255 70.0178 55.4813 78.0221 55.1186 78.3859Z" fill="#80DB42" stroke="#80DB42"/>
<path d="M119.666 78.3859C119.46 78.5917 104.314 95.3648 97.1829 102.399C95.2487 100.458 89.2771 94.6129 80.8643 86.7541C70.3482 76.9306 68.3319 68.9263 66.8814 65.6518C65.4309 62.3773 62.7316 52.5537 66.3578 39.4557C69.9841 26.3577 79.9362 16.8981 80.2988 16.5342C80.5889 16.2432 89.9318 6.71071 97.1829 0.161704C97.062 0.161704 97.9082 -0.20213 98.2708 0.161704L98.2971 0.188105C99.0615 0.954701 109.114 11.0369 117.851 20.9002C125.264 29.2684 127.016 33.4327 128.73 42.8503C129.841 48.9543 129.373 52.0274 129.252 57.2836C127.802 70.0178 120.028 78.0221 119.666 78.3859Z" stroke="#80DB42"/>
<path d="M184.212 78.3859C184.007 78.5917 168.861 95.3648 161.73 102.399C159.796 100.458 153.824 94.6129 145.411 86.7541C134.895 76.9306 132.879 68.9263 131.428 65.6518C129.978 62.3773 127.278 52.5537 130.905 39.4557C134.531 26.3577 144.483 16.8981 144.846 16.5342C145.136 16.2432 154.479 6.71071 161.73 0.161704C161.609 0.161704 162.455 -0.20213 162.818 0.161704L162.844 0.188105C163.608 0.954701 173.661 11.0369 182.398 20.9002C189.81 29.2684 191.563 33.4327 193.277 42.8503C194.388 48.9543 193.92 52.0274 193.799 57.2836C192.349 70.0178 184.575 78.0221 184.212 78.3859Z" fill="#80DB42" stroke="#80DB42"/>
<path d="M55.1186 180.987C54.9135 181.193 39.7676 197.966 32.636 205C30.7018 203.06 24.7302 197.214 16.3174 189.355C5.80135 179.532 3.78498 171.527 2.33449 168.253C0.883998 164.978 -1.81527 155.155 1.81096 142.057C5.43718 128.959 15.3893 119.499 15.7519 119.135C16.042 118.844 25.3849 109.312 32.636 102.763C32.5152 102.763 33.3613 102.399 33.7239 102.763L33.7502 102.789C34.5146 103.556 44.5673 113.638 53.3042 123.501C60.7166 131.869 62.4688 136.034 64.1829 145.451C65.2938 151.555 64.8264 154.628 64.7055 159.885C63.255 172.619 55.4813 180.623 55.1186 180.987Z" stroke="#80DB42"/>
<path d="M119.666 180.987C119.46 181.193 104.314 197.966 97.1829 205C95.2487 203.06 89.2771 197.214 80.8643 189.355C70.3482 179.532 68.3319 171.527 66.8814 168.253C65.4309 164.978 62.7316 155.155 66.3578 142.057C69.9841 128.959 79.9362 119.499 80.2988 119.135C80.5889 118.844 89.9318 109.312 97.1829 102.763C97.062 102.763 97.9082 102.399 98.2708 102.763L98.2971 102.789C99.0615 103.556 109.114 113.638 117.851 123.501C125.264 131.869 127.016 136.034 128.73 145.451C129.841 151.555 129.373 154.628 129.252 159.885C127.802 172.619 120.028 180.623 119.666 180.987Z" fill="#80DB42" stroke="#80DB42"/>
</svg>
