<svg width="86" height="66" viewBox="0 0 86 66" fill="none" xmlns="http://www.w3.org/2000/svg">
<text fill="#02172B" style="white-space: pre" xml:space="preserve" font-family="Titillium Web" font-size="16.4639" font-weight="bold" letter-spacing="0em"><tspan x="8.72969" y="12.7518">Trajet&#xf3;ria</tspan></text>
<path d="M33.0012 49.9039L29.6485 46.967L26.7471 49.5085L37.8583 59.2415L40.7597 56.7L33.0012 49.9039Z" fill="#80DB42"/>
<path d="M38.0947 52.5119L39.7066 53.9238L41.8235 55.7782L48.7116 49.7445L50.3557 51.1941L51.4196 50.2622L49.7755 48.8126L52.9133 46.064L47.8842 41.6588L40.2009 48.389C40.1794 48.4079 40.1579 48.4267 40.1364 48.4455C40.8564 49.4903 40.706 50.8646 39.6744 51.7683C39.223 52.1636 38.675 52.4083 38.0947 52.5119Z" fill="#02172B"/>
<path d="M51.428 52.1128L48.2822 54.8683L50.4706 56.7852L53.6163 54.0296L51.428 52.1128Z" fill="#80DB42"/>
<path d="M55.635 48.4343L52.4893 51.1898L54.6776 53.1067L57.8233 50.3512L55.635 48.4343Z" fill="#80DB42"/>
<path d="M54.6819 54.9718L51.5361 57.7273L53.033 59.0385L56.1787 56.283L54.6819 54.9718Z" fill="#80DB42"/>
<path d="M57.2433 57.2179L54.0947 59.9665L55.5884 61.2749L58.7369 58.5263L57.2433 57.2179Z" fill="#80DB42"/>
<path d="M59.8069 59.453L56.6611 62.2085L58.8495 64.1254L61.9952 61.3699L59.8069 59.453Z" fill="#80DB42"/>
<path d="M58.8889 51.2801L55.7432 54.0356L57.24 55.3468L60.3858 52.5913L58.8889 51.2801Z" fill="#80DB42"/>
<path d="M61.4475 53.5207L58.3018 56.2762L59.7986 57.5874L62.9444 54.8319L61.4475 53.5207Z" fill="#80DB42"/>
<path d="M64.0061 55.7679L60.8604 58.5234L63.0487 60.4403L66.1944 57.6848L64.0061 55.7679Z" fill="#80DB42"/>
<path d="M24.3459 28.3929L21.2002 31.1484L23.3885 33.0653L26.5343 30.3098L24.3459 28.3929Z" fill="#80DB42"/>
<path d="M27.592 31.2453L24.4463 34.0009L25.9432 35.3121L29.0889 32.5565L27.592 31.2453Z" fill="#80DB42"/>
<path d="M30.1545 33.4795L27.0088 36.235L28.5057 37.5462L31.6514 34.7907L30.1545 33.4795Z" fill="#80DB42"/>
<path d="M34.8475 37.6957L34.9012 37.6486L32.7091 35.7284L29.5713 38.477L31.7634 40.3972L34.8475 37.6957Z" fill="#80DB42"/>
<path d="M28.5421 24.7086L25.3955 27.4634L27.5832 29.3808L30.7299 26.6261L28.5421 24.7086Z" fill="#80DB42"/>
<path d="M31.8069 27.5603L28.6611 30.3158L30.158 31.627L33.3038 28.8715L31.8069 27.5603Z" fill="#80DB42"/>
<path d="M34.3655 29.8009L31.2197 32.5564L32.7166 33.8676L35.8623 31.1121L34.3655 29.8009Z" fill="#80DB42"/>
<path d="M36.9245 32.0343L33.7783 34.7894L35.9663 36.7066L39.1125 33.9515L36.9245 32.0343Z" fill="#80DB42"/>
<path d="M37.0305 37.6486L36.4072 38.1946V38.204L35.9666 38.5805L37.6 40.0113L30.7119 46.0355L32.399 47.5133L34.0539 48.9723L34.43 49.3018C34.5482 48.7935 34.8276 48.3134 35.2789 47.9275C36.3105 47.0239 37.8794 46.8921 39.0722 47.5227C39.0937 47.5039 39.1152 47.4851 39.1367 47.4569L46.8307 40.7266L41.8016 36.3214L38.6638 39.07L37.0305 37.6486Z" fill="#02172B"/>
<path d="M46.865 56.9354C46.6071 56.7095 46.188 56.7095 45.9301 56.9354L44.5331 58.159L42.889 56.7189L41.8252 57.6507L43.4693 59.0909L42.0831 60.3052C41.8252 60.5311 41.8252 60.8982 42.0831 61.1241L47.456 65.8305C47.7139 66.0565 48.133 66.0565 48.3909 65.8305L52.2379 62.4607C52.4958 62.2348 52.4958 61.8677 52.2379 61.6418L46.865 56.9354Z" fill="#80DB42"/>
<path d="M26.2958 53.6317C25.8982 53.7634 25.7908 54.2058 26.0917 54.4694L32.2061 59.8253C32.5069 60.0889 33.012 59.9948 33.1624 59.6465L34.0006 57.7263L28.488 52.9069L26.2958 53.6317Z" fill="#02172B"/>
<path d="M28.5836 46.0354L29.6474 45.1035L28.0033 43.6634L29.454 42.3926C29.6797 42.1949 29.6797 41.8843 29.454 41.6866L23.9521 36.8672C23.7265 36.6696 23.3719 36.6696 23.1462 36.8672L19.1702 40.35C18.9446 40.5477 18.9446 40.8583 19.1702 41.056L24.6721 45.8754C24.8978 46.0731 25.2524 46.0731 25.478 45.8754L26.9287 44.6046L28.5836 46.0354Z" fill="#80DB42"/>
<path d="M48.28 37.0933L46.5392 38.6088L48.957 40.7267L50.311 41.9127L52.0518 40.3973C52.1378 40.4443 52.213 40.482 52.299 40.529C56.9197 42.9576 63.0126 42.421 66.9993 38.9288L49.9456 24C45.9589 27.4922 45.3464 32.8199 48.1188 36.8768C48.1726 36.9427 48.2263 37.018 48.28 37.0933Z" fill="#80DB42"/>
<path d="M60.0687 30.994L62.4758 28.8855C63.2387 29.1773 64.1521 29.0549 64.7754 28.509C65.5813 27.803 65.5813 26.6452 64.7754 25.9393C63.9695 25.2333 62.6477 25.2333 61.8418 25.9393C61.2185 26.4852 61.0788 27.2853 61.412 27.9536L59.0049 30.0621L60.0687 30.994Z" fill="#02172B"/>
</svg>
