<svg width="143" height="144" viewBox="0 0 143 144" fill="none" xmlns="http://www.w3.org/2000/svg">
<g filter="url(#filter0_d_272_1594)">
<rect width="126.694" height="128" rx="20.898" fill="white"/>
<text fill="#02172B" style="white-space: pre" xml:space="preserve" font-family="Titillium Web" font-size="16.4639" font-weight="bold" letter-spacing="0em"><tspan x="30.852" y="43.7518">Interface</tspan></text>
<path d="M84.2052 55H41.7961C40.262 55 39.0127 56.1641 39.0127 57.5937V78.0372H86.9996V57.5937C86.9996 56.1641 85.7503 55 84.2052 55ZM48.9191 67.6725C48.7218 67.6725 48.5246 67.601 48.3821 67.4683C48.0863 67.1926 48.0863 66.733 48.3821 66.4573L55.3188 59.9934C55.6147 59.7177 56.1078 59.7177 56.4037 59.9934C56.6996 60.2691 56.6996 60.7287 56.4037 61.0044L49.467 67.4683C49.3136 67.601 49.1163 67.6725 48.9191 67.6725ZM55.1873 74.8512C54.9901 74.8512 54.7928 74.7797 54.6394 74.647C54.3435 74.3713 54.3435 73.9117 54.6394 73.636L69.9702 59.3501C70.2661 59.0744 70.7592 59.0744 71.0551 59.3501C71.351 59.6258 71.351 60.0853 71.0551 60.361L55.7243 74.647C55.5818 74.7797 55.3846 74.8512 55.1873 74.8512ZM77.6301 67.4989L70.4524 74.1874C70.299 74.3304 70.1017 74.3917 69.9044 74.3917C69.7072 74.3917 69.5099 74.3202 69.3675 74.1874C69.0716 73.9117 69.0716 73.4522 69.3675 73.1765L76.5452 66.488C76.8411 66.2122 77.3342 66.2122 77.6301 66.488C77.926 66.7739 77.926 67.2232 77.6301 67.4989Z" fill="#80DB42"/>
<path d="M68.0299 87.5952H57.981C57.3016 90.5361 55.0989 97 48.7979 97H77.213C70.9119 96.9898 68.6983 90.5361 68.0299 87.5952Z" fill="#02172B"/>
<path d="M39.001 83.5619C39.001 84.2256 39.264 84.8281 39.7133 85.2876C40.042 85.6246 40.4584 85.8901 40.9297 86.033C41.2036 86.1147 41.4885 86.1556 41.7844 86.1556H84.2044C84.5003 86.1556 84.7962 86.1147 85.0592 86.033C85.5304 85.8901 85.9578 85.6348 86.2756 85.2876C86.7139 84.8281 86.9878 84.2256 86.9878 83.5619V79.467H39.001V83.5619ZM63.0547 81.4685C63.8546 81.4685 64.5012 82.071 64.5012 82.8164C64.5012 83.5619 63.8546 84.1643 63.0547 84.1643C62.2547 84.1643 61.6082 83.5619 61.6082 82.8164C61.6082 82.071 62.2547 81.4685 63.0547 81.4685Z" fill="#02172B"/>
</g>
<defs>
<filter id="filter0_d_272_1594" x="0" y="0" width="142.694" height="144" filterUnits="userSpaceOnUse" color-interpolation-filters="sRGB">
<feFlood flood-opacity="0" result="BackgroundImageFix"/>
<feColorMatrix in="SourceAlpha" type="matrix" values="0 0 0 0 0 0 0 0 0 0 0 0 0 0 0 0 0 0 127 0" result="hardAlpha"/>
<feOffset dx="8" dy="8"/>
<feGaussianBlur stdDeviation="4"/>
<feComposite in2="hardAlpha" operator="out"/>
<feColorMatrix type="matrix" values="0 0 0 0 1 0 0 0 0 1 0 0 0 0 1 0 0 0 0.25 0"/>
<feBlend mode="normal" in2="BackgroundImageFix" result="effect1_dropShadow_272_1594"/>
<feBlend mode="normal" in="SourceGraphic" in2="effect1_dropShadow_272_1594" result="shape"/>
</filter>
</defs>
</svg>
