<svg width="720" height="380" viewBox="0 0 720 380" fill="none" xmlns="http://www.w3.org/2000/svg">
<path d="M0.0584125 24.0314C0.280293 22.6518 1.01694 19.4387 2.18847 17.623C3.65288 15.3534 2.72098 16.822 3.91914 15.0864L18.9626 0H19.2289L33.873 14.8194C34.583 15.6649 36.1895 17.7832 36.935 19.4921C37.8669 21.6283 38 25.767 38 26.5681C38 27.3691 37.8669 28.3036 37.7338 29.2381L37.7337 29.2382C37.6006 30.1727 37.2013 30.9738 37.0681 31.2408L37.0681 31.2408C36.935 31.5079 36.6687 32.1754 36.1362 33.2435C35.6037 34.3115 35.3374 34.5785 35.2043 34.8455C35.0978 35.0592 34.1837 36.0916 33.7399 36.5812L32.0092 38.4503L28.681 41.6544L25.2197 45.1257C24.9587 45.3874 24.4164 45.9568 24.2947 46.1805C24.2904 46.189 24.2878 46.1937 24.2878 46.1937C24.2899 46.1895 24.2922 46.1851 24.2947 46.1805C24.3132 46.1436 24.3625 46.0352 24.3625 45.9267V45.555C24.3625 45.3927 24.4209 44.8586 24.4209 44.8586C24.4653 44.7251 25.1613 39.5183 25.1613 39.5183L29.8792 34.712L31.2105 33.2435L31.743 32.5759C31.743 32.5759 32.2755 31.7749 32.5417 31.2408L33.0742 30.1728C33.3405 29.6387 33.5826 28.8963 33.7399 28.0366C33.9745 26.7546 34.1393 25.5 34.1393 24.4319L33.873 23.6309L33.7399 22.9634C33.4736 22.1623 32.7814 20.2932 32.1423 19.2251C31.5033 18.1571 30.1454 16.822 29.6129 16.288L19.2289 5.87435H18.9626L16.0338 8.81152L11.7737 13.0838L7.5136 17.356L6.5817 18.2906C6.31545 18.6021 5.62318 19.4387 5.51668 19.7592L5.25042 20.2932L4.98416 20.9607L4.58478 22.1623C4.49603 22.4738 4.29189 23.4974 4.18539 25.0995C4.05226 27.1021 4.31852 28.3037 4.45165 28.8377C4.58478 29.3717 5.38355 31.9084 8.04611 34.5785C8.04611 34.5785 16.877 43.4791 16.9657 43.5236C17.0545 43.5681 17.2586 43.6304 17.3651 43.5236C17.4716 43.4168 17.6757 43.123 17.7645 42.9895C18.0751 42.411 18.8295 40.7199 18.8295 40.7199C18.9626 40.1859 19.4545 38.7113 19.6283 37.3822C19.7569 36.3986 19.8945 34.9791 19.8945 34.712C19.8945 31.8639 19.8413 26.1942 19.6283 26.301C19.4153 26.4079 19.362 26.5681 19.362 26.7016L19.2535 26.8104C19.2141 26.8796 19.0958 27.1466 19.0958 27.7696C19.0958 27.8586 19.0425 28.0901 18.8295 28.3037C18.6165 28.5173 18.6405 28.2165 18.5633 28.3037C18.4251 28.4595 18.5617 28.7404 18.4301 28.9712C18.3207 29.1633 18.0307 29.2382 18.0307 29.2382C17.942 29.1047 17.7379 29.1314 17.6314 29.2382C17.5249 29.345 17.4095 29.9058 17.3651 30.3063C17.3651 30.3953 17.3651 30.8403 17.232 30.7068C17.232 30.7068 17.0988 30.4398 16.8326 30.3063C16.7882 30.3063 16.6995 30.3597 16.6995 30.5733V31.2408C16.6995 31.3743 16.6995 31.6414 16.5663 31.6414C16.4332 31.6414 16.4332 31.3743 16.3001 31.3743C16.3001 31.3743 16.1669 31.8639 16.1669 32.0419C16.1226 32.1754 15.9806 32.4424 15.7676 32.4424C15.5013 32.4424 15.6344 32.3089 15.5013 32.3089C15.3682 32.3089 15.5013 32.4424 15.3682 32.5759C15.2794 32.6649 15.0753 32.8162 14.9688 32.7094C14.8357 32.5759 14.7025 33.5105 14.5694 33.644C14.4363 33.7775 14.17 34.0445 14.0369 33.911C13.9038 33.7775 13.9038 32.8429 13.9038 32.7094V31.7749C13.9038 31.6414 13.7706 31.7749 13.7706 31.6414V30.8403C13.7706 30.7068 13.7973 30.4398 13.9038 30.4398C14.0103 30.4398 14.1256 30.2618 14.17 30.1728C14.17 30.0393 14.1434 29.7722 14.0369 29.7722C13.9038 29.7722 13.9038 29.7722 13.9038 29.6387V29.1047C13.9038 28.9712 14.0759 28.6651 14.17 28.5707C14.3031 28.4372 14.3031 28.1702 14.17 28.0366C14.17 28.0366 14.0777 27.9645 14.0369 27.9031C13.9215 27.7296 13.9215 27.5426 14.0369 27.3691L14.5694 26.8351C14.7025 26.7016 14.7025 26.7016 14.7025 26.5681C14.7025 26.4346 14.4363 26.4346 14.4363 26.301C14.4363 26.1675 14.4363 26.1675 14.5694 26.034C14.6759 25.9272 15.0575 25.7225 15.235 25.6335C15.3238 25.589 15.5279 25.4733 15.6344 25.3665C15.7676 25.233 15.9007 25.233 15.9007 25.0995C15.6344 25.0105 15.1019 24.8058 15.1019 24.699C15.1019 24.5654 15.235 24.4319 15.3682 24.4319C15.6788 24.3874 16.2734 24.2717 16.1669 24.1649C16.0338 24.0314 16.4332 24.2984 15.7676 23.8979L14.4363 23.0969L13.3713 22.5628L11.8484 21.3613C11.8484 21.3613 10.9575 20.6679 10.7087 19.8927C10.6118 19.5908 10.5425 19.4123 10.5171 19.0916C10.4924 18.7789 10.4833 18.5894 10.5756 18.2906C10.739 17.7611 10.995 17.563 11.449 17.356C11.7837 17.2034 12.2478 17.2225 12.3809 17.2225C12.3809 17.2225 13.3045 17.1696 13.8454 17.356C14.5554 17.5785 16.3533 18.2906 17.6314 19.8927C17.8089 20.2042 18.1905 20.8005 18.297 20.6937C18.4301 20.5602 18.297 20.2932 18.4301 20.1597C18.5633 20.0262 18.8295 20.2932 18.9626 20.2932C19.0514 20.2932 19.2289 20.2665 19.2289 20.1597C19.2289 20.0262 19.2289 19.7592 19.362 19.6257C19.4952 19.4921 19.8945 19.3586 20.0277 19.3586C20.1608 19.3586 20.4271 18.9581 20.4271 18.9581C20.4271 18.9581 20.6059 18.5576 20.8264 18.5576C20.9596 18.5576 21.359 18.6911 21.4921 18.5576C21.714 18.2906 22.1843 17.7565 22.2909 17.7565C22.424 17.7565 22.5571 18.0236 22.6902 18.0236C22.7967 18.0236 23.1784 17.7565 23.3559 17.623C23.5334 17.4895 23.915 17.2225 24.0215 17.2225C24.1546 17.2225 24.1546 17.356 24.2878 17.356H24.4209C24.4209 17.356 24.9534 17.089 25.0865 16.9555C25.2197 16.822 25.7788 16.5817 25.8853 16.6885C25.9741 16.6885 26.1782 16.7152 26.2847 16.822C26.3912 16.9288 26.3291 17.0445 26.2847 17.089C26.1959 17.2225 25.9918 17.4895 25.8853 17.4895C25.7522 17.4895 25.7522 17.4895 25.6191 17.623C25.4859 17.7565 25.7522 18.0236 25.6191 18.1571C25.4859 18.2906 25.3528 18.2906 25.3528 18.4241C25.3528 18.5576 25.4859 18.4241 25.4859 18.5576C25.4859 18.6911 25.3528 18.8246 25.2197 18.9581C25.0865 19.0916 25.2197 19.2251 25.0865 19.3586C24.9534 19.4921 24.4209 19.8927 24.4209 20.0262V20.1597C24.3322 20.3377 24.128 20.6937 24.0215 20.6937C23.8884 20.6937 23.7553 20.6937 23.6221 20.8272C23.5156 20.934 23.4522 20.9836 23.489 21.0942C23.5123 21.1642 23.6221 21.1627 23.6221 21.2277C23.6221 21.3613 23.489 21.8953 23.3559 21.8953C23.2227 21.9398 22.9565 22.0555 22.9565 22.1623C22.9565 22.2958 22.8234 22.5628 22.9565 22.6963C23.063 22.8031 24.2609 22.7155 25.0865 22.8298C26.4733 23.0218 27.8238 23.0969 28.5479 23.7644C28.7165 23.9199 28.9018 24.1355 29.022 24.4319C29.2578 25.0135 29.1678 25.472 28.8889 26.034C28.4724 26.8731 27.7491 27.1021 26.8172 27.2356C25.8853 27.3691 23.489 27.2356 23.0896 27.1021C22.6902 26.9686 22.424 26.9686 21.4921 26.7016C21.3146 26.7016 20.9596 26.7283 20.9596 26.8351C20.9596 26.9686 21.6252 29.7722 21.6252 29.7722C21.6252 29.7722 21.7251 30.3063 21.7583 30.5733C21.8915 31.6414 22.0246 31.2408 22.1577 34.9791C22.5127 37.7827 22.5305 44.5649 19.2289 50.8665C19.1845 50.911 19.0691 51 18.9626 51C18.8561 51 9.24427 41.5654 4.45165 36.8482C2.76536 35.1571 -0.474101 30.2262 0.0584125 24.0314Z" fill="#80DB42"/>
<text fill="white" style="white-space: pre" xml:space="preserve" font-family="Titillium Web" font-size="28" font-weight="600" letter-spacing="0em"><tspan x="55" y="36.93">Doutor pelo Programa de P&#xf3;s-Gradua&#xe7;&#xe3;o em Gen&#xe9;tica </tspan><tspan x="55" y="63.93">e Melhoramento da Universidade Federal de Vi&#xe7;osa </tspan><tspan x="55" y="90.93">(UFV), avaliado com nota 7 pela CAPES &#x2014; n&#xed;vel </tspan><tspan x="55" y="117.93">internacional de excel&#xea;ncia acad&#xea;mica.</tspan></text>
<path d="M0.0584125 166.031C0.280293 164.652 1.01694 161.439 2.18847 159.623C3.65288 157.353 2.72098 158.822 3.91914 157.086L18.9626 142H19.2289L33.873 156.819C34.583 157.665 36.1895 159.783 36.935 161.492C37.8669 163.628 38 167.767 38 168.568C38 169.369 37.8669 170.304 37.7338 171.238L37.7337 171.238C37.6006 172.173 37.2013 172.974 37.0681 173.241L37.0681 173.241C36.935 173.508 36.6687 174.175 36.1362 175.243C35.6037 176.312 35.3374 176.579 35.2043 176.846C35.0978 177.059 34.1837 178.092 33.7399 178.581L32.0092 180.45L28.681 183.654L25.2197 187.126C24.9587 187.387 24.4164 187.957 24.2947 188.181C24.2904 188.189 24.2878 188.194 24.2878 188.194C24.2899 188.189 24.2922 188.185 24.2947 188.181C24.3132 188.144 24.3625 188.035 24.3625 187.927V187.555C24.3625 187.393 24.4209 186.859 24.4209 186.859C24.4653 186.725 25.1613 181.518 25.1613 181.518L29.8792 176.712L31.2105 175.243L31.743 174.576C31.743 174.576 32.2755 173.775 32.5417 173.241L33.0742 172.173C33.3405 171.639 33.5826 170.896 33.7399 170.037C33.9745 168.755 34.1393 167.5 34.1393 166.432L33.873 165.631L33.7399 164.963C33.4736 164.162 32.7814 162.293 32.1423 161.225C31.5033 160.157 30.1454 158.822 29.6129 158.288L19.2289 147.874H18.9626L16.0338 150.812L11.7737 155.084L7.5136 159.356L6.5817 160.291C6.31545 160.602 5.62318 161.439 5.51668 161.759L5.25042 162.293L4.98416 162.961L4.58478 164.162C4.49603 164.474 4.29189 165.497 4.18539 167.099C4.05226 169.102 4.31852 170.304 4.45165 170.838C4.58478 171.372 5.38355 173.908 8.04611 176.579C8.04611 176.579 16.877 185.479 16.9657 185.524C17.0545 185.568 17.2586 185.63 17.3651 185.524C17.4716 185.417 17.6757 185.123 17.7645 184.99C18.0751 184.411 18.8295 182.72 18.8295 182.72C18.9626 182.186 19.4545 180.711 19.6283 179.382C19.7569 178.399 19.8945 176.979 19.8945 176.712C19.8945 173.864 19.8413 168.194 19.6283 168.301C19.4153 168.408 19.362 168.568 19.362 168.702L19.2535 168.81C19.2141 168.88 19.0958 169.147 19.0958 169.77C19.0958 169.859 19.0425 170.09 18.8295 170.304C18.6165 170.517 18.6405 170.217 18.5633 170.304C18.4251 170.46 18.5617 170.74 18.4301 170.971C18.3207 171.163 18.0307 171.238 18.0307 171.238C17.942 171.105 17.7379 171.131 17.6314 171.238C17.5249 171.345 17.4095 171.906 17.3651 172.306C17.3651 172.395 17.3651 172.84 17.232 172.707C17.232 172.707 17.0988 172.44 16.8326 172.306C16.7882 172.306 16.6995 172.36 16.6995 172.573V173.241C16.6995 173.374 16.6995 173.641 16.5663 173.641C16.4332 173.641 16.4332 173.374 16.3001 173.374C16.3001 173.374 16.1669 173.864 16.1669 174.042C16.1226 174.175 15.9806 174.442 15.7676 174.442C15.5013 174.442 15.6344 174.309 15.5013 174.309C15.3682 174.309 15.5013 174.442 15.3682 174.576C15.2794 174.665 15.0753 174.816 14.9688 174.709C14.8357 174.576 14.7025 175.51 14.5694 175.644C14.4363 175.777 14.17 176.045 14.0369 175.911C13.9038 175.777 13.9038 174.843 13.9038 174.709V173.775C13.9038 173.641 13.7706 173.775 13.7706 173.641V172.84C13.7706 172.707 13.7973 172.44 13.9038 172.44C14.0103 172.44 14.1256 172.262 14.17 172.173C14.17 172.039 14.1434 171.772 14.0369 171.772C13.9038 171.772 13.9038 171.772 13.9038 171.639V171.105C13.9038 170.971 14.0759 170.665 14.17 170.571C14.3031 170.437 14.3031 170.17 14.17 170.037C14.17 170.037 14.0777 169.964 14.0369 169.903C13.9215 169.73 13.9215 169.543 14.0369 169.369L14.5694 168.835C14.7025 168.702 14.7025 168.702 14.7025 168.568C14.7025 168.435 14.4363 168.435 14.4363 168.301C14.4363 168.168 14.4363 168.168 14.5694 168.034C14.6759 167.927 15.0575 167.723 15.235 167.634C15.3238 167.589 15.5279 167.473 15.6344 167.366C15.7676 167.233 15.9007 167.233 15.9007 167.099C15.6344 167.01 15.1019 166.806 15.1019 166.699C15.1019 166.565 15.235 166.432 15.3682 166.432C15.6788 166.387 16.2734 166.272 16.1669 166.165C16.0338 166.031 16.4332 166.298 15.7676 165.898L14.4363 165.097L13.3713 164.563L11.8484 163.361C11.8484 163.361 10.9575 162.668 10.7087 161.893C10.6118 161.591 10.5425 161.412 10.5171 161.092C10.4924 160.779 10.4833 160.589 10.5756 160.291C10.739 159.761 10.995 159.563 11.449 159.356C11.7837 159.203 12.2478 159.223 12.3809 159.223C12.3809 159.223 13.3045 159.17 13.8454 159.356C14.5554 159.579 16.3533 160.291 17.6314 161.893C17.8089 162.204 18.1905 162.801 18.297 162.694C18.4301 162.56 18.297 162.293 18.4301 162.16C18.5633 162.026 18.8295 162.293 18.9626 162.293C19.0514 162.293 19.2289 162.266 19.2289 162.16C19.2289 162.026 19.2289 161.759 19.362 161.626C19.4952 161.492 19.8945 161.359 20.0277 161.359C20.1608 161.359 20.4271 160.958 20.4271 160.958C20.4271 160.958 20.6059 160.558 20.8264 160.558C20.9596 160.558 21.359 160.691 21.4921 160.558C21.714 160.291 22.1843 159.757 22.2909 159.757C22.424 159.757 22.5571 160.024 22.6902 160.024C22.7967 160.024 23.1784 159.757 23.3559 159.623C23.5334 159.49 23.915 159.223 24.0215 159.223C24.1546 159.223 24.1546 159.356 24.2878 159.356H24.4209C24.4209 159.356 24.9534 159.089 25.0865 158.955C25.2197 158.822 25.7788 158.582 25.8853 158.688C25.9741 158.688 26.1782 158.715 26.2847 158.822C26.3912 158.929 26.3291 159.045 26.2847 159.089C26.1959 159.223 25.9918 159.49 25.8853 159.49C25.7522 159.49 25.7522 159.49 25.6191 159.623C25.4859 159.757 25.7522 160.024 25.6191 160.157C25.4859 160.291 25.3528 160.291 25.3528 160.424C25.3528 160.558 25.4859 160.424 25.4859 160.558C25.4859 160.691 25.3528 160.825 25.2197 160.958C25.0865 161.092 25.2197 161.225 25.0865 161.359C24.9534 161.492 24.4209 161.893 24.4209 162.026V162.16C24.3322 162.338 24.128 162.694 24.0215 162.694C23.8884 162.694 23.7553 162.694 23.6221 162.827C23.5156 162.934 23.4522 162.984 23.489 163.094C23.5123 163.164 23.6221 163.163 23.6221 163.228C23.6221 163.361 23.489 163.895 23.3559 163.895C23.2227 163.94 22.9565 164.055 22.9565 164.162C22.9565 164.296 22.8234 164.563 22.9565 164.696C23.063 164.803 24.2609 164.716 25.0865 164.83C26.4733 165.022 27.8238 165.097 28.5479 165.764C28.7165 165.92 28.9018 166.135 29.022 166.432C29.2578 167.014 29.1678 167.472 28.8889 168.034C28.4724 168.873 27.7491 169.102 26.8172 169.236C25.8853 169.369 23.489 169.236 23.0896 169.102C22.6902 168.969 22.424 168.969 21.4921 168.702C21.3146 168.702 20.9596 168.728 20.9596 168.835C20.9596 168.969 21.6252 171.772 21.6252 171.772C21.6252 171.772 21.7251 172.306 21.7583 172.573C21.8915 173.641 22.0246 173.241 22.1577 176.979C22.5127 179.783 22.5305 186.565 19.2289 192.866C19.1845 192.911 19.0691 193 18.9626 193C18.8561 193 9.24427 183.565 4.45165 178.848C2.76536 177.157 -0.474101 172.226 0.0584125 166.031Z" fill="#80DB42"/>
<text fill="white" style="white-space: pre" xml:space="preserve" font-family="Titillium Web" font-size="28" font-weight="600" letter-spacing="0em"><tspan x="55" y="178.93">Especialista em Gest&#xe3;o da Inova&#xe7;&#xe3;o em </tspan><tspan x="55" y="205.93">Medicamentos da Biodiversidade &#x2013; FIOCRUZ-RJ </tspan><tspan x="55" y="232.93">(2016)</tspan></text>
<path d="M0.0584125 281.031C0.280293 279.652 1.01694 276.439 2.18847 274.623C3.65288 272.353 2.72098 273.822 3.91914 272.086L18.9626 257H19.2289L33.873 271.819C34.583 272.665 36.1895 274.783 36.935 276.492C37.8669 278.628 38 282.767 38 283.568C38 284.369 37.8669 285.304 37.7338 286.238L37.7337 286.238C37.6006 287.173 37.2013 287.974 37.0681 288.241L37.0681 288.241C36.935 288.508 36.6687 289.175 36.1362 290.243C35.6037 291.312 35.3374 291.579 35.2043 291.846C35.0978 292.059 34.1837 293.092 33.7399 293.581L32.0092 295.45L28.681 298.654L25.2197 302.126C24.9587 302.387 24.4164 302.957 24.2947 303.181C24.2904 303.189 24.2878 303.194 24.2878 303.194C24.2899 303.189 24.2922 303.185 24.2947 303.181C24.3132 303.144 24.3625 303.035 24.3625 302.927V302.555C24.3625 302.393 24.4209 301.859 24.4209 301.859C24.4653 301.725 25.1613 296.518 25.1613 296.518L29.8792 291.712L31.2105 290.243L31.743 289.576C31.743 289.576 32.2755 288.775 32.5417 288.241L33.0742 287.173C33.3405 286.639 33.5826 285.896 33.7399 285.037C33.9745 283.755 34.1393 282.5 34.1393 281.432L33.873 280.631L33.7399 279.963C33.4736 279.162 32.7814 277.293 32.1423 276.225C31.5033 275.157 30.1454 273.822 29.6129 273.288L19.2289 262.874H18.9626L16.0338 265.812L11.7737 270.084L7.5136 274.356L6.5817 275.291C6.31545 275.602 5.62318 276.439 5.51668 276.759L5.25042 277.293L4.98416 277.961L4.58478 279.162C4.49603 279.474 4.29189 280.497 4.18539 282.099C4.05226 284.102 4.31852 285.304 4.45165 285.838C4.58478 286.372 5.38355 288.908 8.04611 291.579C8.04611 291.579 16.877 300.479 16.9657 300.524C17.0545 300.568 17.2586 300.63 17.3651 300.524C17.4716 300.417 17.6757 300.123 17.7645 299.99C18.0751 299.411 18.8295 297.72 18.8295 297.72C18.9626 297.186 19.4545 295.711 19.6283 294.382C19.7569 293.399 19.8945 291.979 19.8945 291.712C19.8945 288.864 19.8413 283.194 19.6283 283.301C19.4153 283.408 19.362 283.568 19.362 283.702L19.2535 283.81C19.2141 283.88 19.0958 284.147 19.0958 284.77C19.0958 284.859 19.0425 285.09 18.8295 285.304C18.6165 285.517 18.6405 285.217 18.5633 285.304C18.4251 285.46 18.5617 285.74 18.4301 285.971C18.3207 286.163 18.0307 286.238 18.0307 286.238C17.942 286.105 17.7379 286.131 17.6314 286.238C17.5249 286.345 17.4095 286.906 17.3651 287.306C17.3651 287.395 17.3651 287.84 17.232 287.707C17.232 287.707 17.0988 287.44 16.8326 287.306C16.7882 287.306 16.6995 287.36 16.6995 287.573V288.241C16.6995 288.374 16.6995 288.641 16.5663 288.641C16.4332 288.641 16.4332 288.374 16.3001 288.374C16.3001 288.374 16.1669 288.864 16.1669 289.042C16.1226 289.175 15.9806 289.442 15.7676 289.442C15.5013 289.442 15.6344 289.309 15.5013 289.309C15.3682 289.309 15.5013 289.442 15.3682 289.576C15.2794 289.665 15.0753 289.816 14.9688 289.709C14.8357 289.576 14.7025 290.51 14.5694 290.644C14.4363 290.777 14.17 291.045 14.0369 290.911C13.9038 290.777 13.9038 289.843 13.9038 289.709V288.775C13.9038 288.641 13.7706 288.775 13.7706 288.641V287.84C13.7706 287.707 13.7973 287.44 13.9038 287.44C14.0103 287.44 14.1256 287.262 14.17 287.173C14.17 287.039 14.1434 286.772 14.0369 286.772C13.9038 286.772 13.9038 286.772 13.9038 286.639V286.105C13.9038 285.971 14.0759 285.665 14.17 285.571C14.3031 285.437 14.3031 285.17 14.17 285.037C14.17 285.037 14.0777 284.964 14.0369 284.903C13.9215 284.73 13.9215 284.543 14.0369 284.369L14.5694 283.835C14.7025 283.702 14.7025 283.702 14.7025 283.568C14.7025 283.435 14.4363 283.435 14.4363 283.301C14.4363 283.168 14.4363 283.168 14.5694 283.034C14.6759 282.927 15.0575 282.723 15.235 282.634C15.3238 282.589 15.5279 282.473 15.6344 282.366C15.7676 282.233 15.9007 282.233 15.9007 282.099C15.6344 282.01 15.1019 281.806 15.1019 281.699C15.1019 281.565 15.235 281.432 15.3682 281.432C15.6788 281.387 16.2734 281.272 16.1669 281.165C16.0338 281.031 16.4332 281.298 15.7676 280.898L14.4363 280.097L13.3713 279.563L11.8484 278.361C11.8484 278.361 10.9575 277.668 10.7087 276.893C10.6118 276.591 10.5425 276.412 10.5171 276.092C10.4924 275.779 10.4833 275.589 10.5756 275.291C10.739 274.761 10.995 274.563 11.449 274.356C11.7837 274.203 12.2478 274.223 12.3809 274.223C12.3809 274.223 13.3045 274.17 13.8454 274.356C14.5554 274.579 16.3533 275.291 17.6314 276.893C17.8089 277.204 18.1905 277.801 18.297 277.694C18.4301 277.56 18.297 277.293 18.4301 277.16C18.5633 277.026 18.8295 277.293 18.9626 277.293C19.0514 277.293 19.2289 277.266 19.2289 277.16C19.2289 277.026 19.2289 276.759 19.362 276.626C19.4952 276.492 19.8945 276.359 20.0277 276.359C20.1608 276.359 20.4271 275.958 20.4271 275.958C20.4271 275.958 20.6059 275.558 20.8264 275.558C20.9596 275.558 21.359 275.691 21.4921 275.558C21.714 275.291 22.1843 274.757 22.2909 274.757C22.424 274.757 22.5571 275.024 22.6902 275.024C22.7967 275.024 23.1784 274.757 23.3559 274.623C23.5334 274.49 23.915 274.223 24.0215 274.223C24.1546 274.223 24.1546 274.356 24.2878 274.356H24.4209C24.4209 274.356 24.9534 274.089 25.0865 273.955C25.2197 273.822 25.7788 273.582 25.8853 273.688C25.9741 273.688 26.1782 273.715 26.2847 273.822C26.3912 273.929 26.3291 274.045 26.2847 274.089C26.1959 274.223 25.9918 274.49 25.8853 274.49C25.7522 274.49 25.7522 274.49 25.6191 274.623C25.4859 274.757 25.7522 275.024 25.6191 275.157C25.4859 275.291 25.3528 275.291 25.3528 275.424C25.3528 275.558 25.4859 275.424 25.4859 275.558C25.4859 275.691 25.3528 275.825 25.2197 275.958C25.0865 276.092 25.2197 276.225 25.0865 276.359C24.9534 276.492 24.4209 276.893 24.4209 277.026V277.16C24.3322 277.338 24.128 277.694 24.0215 277.694C23.8884 277.694 23.7553 277.694 23.6221 277.827C23.5156 277.934 23.4522 277.984 23.489 278.094C23.5123 278.164 23.6221 278.163 23.6221 278.228C23.6221 278.361 23.489 278.895 23.3559 278.895C23.2227 278.94 22.9565 279.055 22.9565 279.162C22.9565 279.296 22.8234 279.563 22.9565 279.696C23.063 279.803 24.2609 279.716 25.0865 279.83C26.4733 280.022 27.8238 280.097 28.5479 280.764C28.7165 280.92 28.9018 281.135 29.022 281.432C29.2578 282.014 29.1678 282.472 28.8889 283.034C28.4724 283.873 27.7491 284.102 26.8172 284.236C25.8853 284.369 23.489 284.236 23.0896 284.102C22.6902 283.969 22.424 283.969 21.4921 283.702C21.3146 283.702 20.9596 283.728 20.9596 283.835C20.9596 283.969 21.6252 286.772 21.6252 286.772C21.6252 286.772 21.7251 287.306 21.7583 287.573C21.8915 288.641 22.0246 288.241 22.1577 291.979C22.5127 294.783 22.5305 301.565 19.2289 307.866C19.1845 307.911 19.0691 308 18.9626 308C18.8561 308 9.24427 298.565 4.45165 293.848C2.76536 292.157 -0.474101 287.226 0.0584125 281.031Z" fill="#80DB42"/>
<text fill="white" style="white-space: pre" xml:space="preserve" font-family="Titillium Web" font-size="28" font-weight="600" letter-spacing="0em"><tspan x="55" y="292.93">Mestre em Agroecologia &#x2013; UFV (2013) </tspan></text>
<path d="M0.0584125 353.031C0.280293 351.652 1.01694 348.439 2.18847 346.623C3.65288 344.353 2.72098 345.822 3.91914 344.086L18.9626 329H19.2289L33.873 343.819C34.583 344.665 36.1895 346.783 36.935 348.492C37.8669 350.628 38 354.767 38 355.568C38 356.369 37.8669 357.304 37.7338 358.238L37.7337 358.238C37.6006 359.173 37.2013 359.974 37.0681 360.241L37.0681 360.241C36.935 360.508 36.6687 361.175 36.1362 362.243C35.6037 363.312 35.3374 363.579 35.2043 363.846C35.0978 364.059 34.1837 365.092 33.7399 365.581L32.0092 367.45L28.681 370.654L25.2197 374.126C24.9587 374.387 24.4164 374.957 24.2947 375.181C24.2904 375.189 24.2878 375.194 24.2878 375.194C24.2899 375.189 24.2922 375.185 24.2947 375.181C24.3132 375.144 24.3625 375.035 24.3625 374.927V374.555C24.3625 374.393 24.4209 373.859 24.4209 373.859C24.4653 373.725 25.1613 368.518 25.1613 368.518L29.8792 363.712L31.2105 362.243L31.743 361.576C31.743 361.576 32.2755 360.775 32.5417 360.241L33.0742 359.173C33.3405 358.639 33.5826 357.896 33.7399 357.037C33.9745 355.755 34.1393 354.5 34.1393 353.432L33.873 352.631L33.7399 351.963C33.4736 351.162 32.7814 349.293 32.1423 348.225C31.5033 347.157 30.1454 345.822 29.6129 345.288L19.2289 334.874H18.9626L16.0338 337.812L11.7737 342.084L7.5136 346.356L6.5817 347.291C6.31545 347.602 5.62318 348.439 5.51668 348.759L5.25042 349.293L4.98416 349.961L4.58478 351.162C4.49603 351.474 4.29189 352.497 4.18539 354.099C4.05226 356.102 4.31852 357.304 4.45165 357.838C4.58478 358.372 5.38355 360.908 8.04611 363.579C8.04611 363.579 16.877 372.479 16.9657 372.524C17.0545 372.568 17.2586 372.63 17.3651 372.524C17.4716 372.417 17.6757 372.123 17.7645 371.99C18.0751 371.411 18.8295 369.72 18.8295 369.72C18.9626 369.186 19.4545 367.711 19.6283 366.382C19.7569 365.399 19.8945 363.979 19.8945 363.712C19.8945 360.864 19.8413 355.194 19.6283 355.301C19.4153 355.408 19.362 355.568 19.362 355.702L19.2535 355.81C19.2141 355.88 19.0958 356.147 19.0958 356.77C19.0958 356.859 19.0425 357.09 18.8295 357.304C18.6165 357.517 18.6405 357.217 18.5633 357.304C18.4251 357.46 18.5617 357.74 18.4301 357.971C18.3207 358.163 18.0307 358.238 18.0307 358.238C17.942 358.105 17.7379 358.131 17.6314 358.238C17.5249 358.345 17.4095 358.906 17.3651 359.306C17.3651 359.395 17.3651 359.84 17.232 359.707C17.232 359.707 17.0988 359.44 16.8326 359.306C16.7882 359.306 16.6995 359.36 16.6995 359.573V360.241C16.6995 360.374 16.6995 360.641 16.5663 360.641C16.4332 360.641 16.4332 360.374 16.3001 360.374C16.3001 360.374 16.1669 360.864 16.1669 361.042C16.1226 361.175 15.9806 361.442 15.7676 361.442C15.5013 361.442 15.6344 361.309 15.5013 361.309C15.3682 361.309 15.5013 361.442 15.3682 361.576C15.2794 361.665 15.0753 361.816 14.9688 361.709C14.8357 361.576 14.7025 362.51 14.5694 362.644C14.4363 362.777 14.17 363.045 14.0369 362.911C13.9038 362.777 13.9038 361.843 13.9038 361.709V360.775C13.9038 360.641 13.7706 360.775 13.7706 360.641V359.84C13.7706 359.707 13.7973 359.44 13.9038 359.44C14.0103 359.44 14.1256 359.262 14.17 359.173C14.17 359.039 14.1434 358.772 14.0369 358.772C13.9038 358.772 13.9038 358.772 13.9038 358.639V358.105C13.9038 357.971 14.0759 357.665 14.17 357.571C14.3031 357.437 14.3031 357.17 14.17 357.037C14.17 357.037 14.0777 356.964 14.0369 356.903C13.9215 356.73 13.9215 356.543 14.0369 356.369L14.5694 355.835C14.7025 355.702 14.7025 355.702 14.7025 355.568C14.7025 355.435 14.4363 355.435 14.4363 355.301C14.4363 355.168 14.4363 355.168 14.5694 355.034C14.6759 354.927 15.0575 354.723 15.235 354.634C15.3238 354.589 15.5279 354.473 15.6344 354.366C15.7676 354.233 15.9007 354.233 15.9007 354.099C15.6344 354.01 15.1019 353.806 15.1019 353.699C15.1019 353.565 15.235 353.432 15.3682 353.432C15.6788 353.387 16.2734 353.272 16.1669 353.165C16.0338 353.031 16.4332 353.298 15.7676 352.898L14.4363 352.097L13.3713 351.563L11.8484 350.361C11.8484 350.361 10.9575 349.668 10.7087 348.893C10.6118 348.591 10.5425 348.412 10.5171 348.092C10.4924 347.779 10.4833 347.589 10.5756 347.291C10.739 346.761 10.995 346.563 11.449 346.356C11.7837 346.203 12.2478 346.223 12.3809 346.223C12.3809 346.223 13.3045 346.17 13.8454 346.356C14.5554 346.579 16.3533 347.291 17.6314 348.893C17.8089 349.204 18.1905 349.801 18.297 349.694C18.4301 349.56 18.297 349.293 18.4301 349.16C18.5633 349.026 18.8295 349.293 18.9626 349.293C19.0514 349.293 19.2289 349.266 19.2289 349.16C19.2289 349.026 19.2289 348.759 19.362 348.626C19.4952 348.492 19.8945 348.359 20.0277 348.359C20.1608 348.359 20.4271 347.958 20.4271 347.958C20.4271 347.958 20.6059 347.558 20.8264 347.558C20.9596 347.558 21.359 347.691 21.4921 347.558C21.714 347.291 22.1843 346.757 22.2909 346.757C22.424 346.757 22.5571 347.024 22.6902 347.024C22.7967 347.024 23.1784 346.757 23.3559 346.623C23.5334 346.49 23.915 346.223 24.0215 346.223C24.1546 346.223 24.1546 346.356 24.2878 346.356H24.4209C24.4209 346.356 24.9534 346.089 25.0865 345.955C25.2197 345.822 25.7788 345.582 25.8853 345.688C25.9741 345.688 26.1782 345.715 26.2847 345.822C26.3912 345.929 26.3291 346.045 26.2847 346.089C26.1959 346.223 25.9918 346.49 25.8853 346.49C25.7522 346.49 25.7522 346.49 25.6191 346.623C25.4859 346.757 25.7522 347.024 25.6191 347.157C25.4859 347.291 25.3528 347.291 25.3528 347.424C25.3528 347.558 25.4859 347.424 25.4859 347.558C25.4859 347.691 25.3528 347.825 25.2197 347.958C25.0865 348.092 25.2197 348.225 25.0865 348.359C24.9534 348.492 24.4209 348.893 24.4209 349.026V349.16C24.3322 349.338 24.128 349.694 24.0215 349.694C23.8884 349.694 23.7553 349.694 23.6221 349.827C23.5156 349.934 23.4522 349.984 23.489 350.094C23.5123 350.164 23.6221 350.163 23.6221 350.228C23.6221 350.361 23.489 350.895 23.3559 350.895C23.2227 350.94 22.9565 351.055 22.9565 351.162C22.9565 351.296 22.8234 351.563 22.9565 351.696C23.063 351.803 24.2609 351.716 25.0865 351.83C26.4733 352.022 27.8238 352.097 28.5479 352.764C28.7165 352.92 28.9018 353.135 29.022 353.432C29.2578 354.014 29.1678 354.472 28.8889 355.034C28.4724 355.873 27.7491 356.102 26.8172 356.236C25.8853 356.369 23.489 356.236 23.0896 356.102C22.6902 355.969 22.424 355.969 21.4921 355.702C21.3146 355.702 20.9596 355.728 20.9596 355.835C20.9596 355.969 21.6252 358.772 21.6252 358.772C21.6252 358.772 21.7251 359.306 21.7583 359.573C21.8915 360.641 22.0246 360.241 22.1577 363.979C22.5127 366.783 22.5305 373.565 19.2289 379.866C19.1845 379.911 19.0691 380 18.9626 380C18.8561 380 9.24427 370.565 4.45165 365.848C2.76536 364.157 -0.474101 359.226 0.0584125 353.031Z" fill="#80DB42"/>
<text fill="white" style="white-space: pre" xml:space="preserve" font-family="Titillium Web" font-size="28" font-weight="600" letter-spacing="0em"><tspan x="55" y="364.93">Bacharel em Ci&#xea;ncias Biol&#xf3;gicas &#x2013; UNESP (2007)</tspan></text>
</svg>
