<svg width="53" height="58" viewBox="0 0 53 58" fill="none" xmlns="http://www.w3.org/2000/svg">
<rect width="53" height="58" rx="16" fill="#02172B"/>
<path d="M8.00732 47.9662C8.00732 48.8957 8.73506 49.6497 9.63205 49.6497H27.2755C28.1725 49.6497 28.9003 48.8957 28.9003 47.9662V27.6328H8.00732V47.9662ZM24.6607 45.7391H21.4451V42.4072H24.6607V45.7391ZM21.2928 30.1931C21.5213 29.9564 21.9021 29.9564 22.1306 30.1931L22.8414 30.9296L24.6523 29.0533C24.8808 28.8165 25.2616 28.8165 25.49 29.0533C25.7185 29.29 25.7185 29.6846 25.49 29.9213L23.2645 32.2273C23.146 32.3501 23.0022 32.4115 22.8499 32.4115C22.6975 32.4115 22.5452 32.3501 22.4352 32.2273L21.3098 31.0612C21.0644 30.8244 21.0644 30.4386 21.2928 30.1931ZM21.2928 36.8569C21.5213 36.6202 21.9021 36.6202 22.1306 36.8569L22.8414 37.5935L24.6523 35.7171C24.8808 35.4803 25.2616 35.4803 25.49 35.7171C25.7185 35.9538 25.7185 36.3484 25.49 36.5851L23.2645 38.8912C23.146 39.0139 23.0022 39.0753 22.8499 39.0753C22.6975 39.0753 22.5452 39.0139 22.4352 38.8912L21.3098 37.725C21.0644 37.4882 21.0644 37.1024 21.2928 36.8569ZM12.4669 30.1317H18.458C18.788 30.1317 19.0504 30.4036 19.0504 30.7455C19.0504 31.0875 18.788 31.3593 18.458 31.3593H12.4669C12.1368 31.3593 11.8745 31.0875 11.8745 30.7455C11.8745 30.4036 12.1368 30.1317 12.4669 30.1317ZM12.4669 36.7956H18.458C18.788 36.7956 19.0504 37.0674 19.0504 37.4093C19.0504 37.7513 18.788 38.0231 18.458 38.0231H12.4669C12.1368 38.0231 11.8745 37.7513 11.8745 37.4093C11.8745 37.0674 12.1368 36.7956 12.4669 36.7956ZM12.4669 43.4594H18.458C18.788 43.4594 19.0504 43.7312 19.0504 44.0732C19.0504 44.4151 18.788 44.6869 18.458 44.6869H12.4669C12.1368 44.6869 11.8745 44.4151 11.8745 44.0732C11.8745 43.7312 12.1368 43.4594 12.4669 43.4594Z" fill="white"/>
<path d="M34.658 9C30.2154 9 26.5005 12.2092 25.5527 16.5143H25.7051V18.6099H27.279C27.4736 18.6099 27.6683 18.6275 27.8544 18.6713C27.8544 14.787 30.9008 11.6305 34.658 11.6305C38.4151 11.6305 41.4615 14.787 41.4615 18.6801C41.4615 22.5731 38.4151 25.7297 34.658 25.7297C32.8978 25.7297 31.29 25.037 30.0884 23.8971V27.1238C31.4424 27.913 32.9994 28.3601 34.658 28.3601C39.8198 28.3601 44.0001 24.0287 44.0001 18.6801C43.9917 13.3315 39.8114 9 34.658 9Z" fill="white"/>
<path d="M27.9706 19.9966C27.759 19.8913 27.5221 19.83 27.2767 19.83H24.518V17.7344H21.3024V19.83H15.6074V17.7344H12.3918V19.83H9.62472C8.72774 19.83 8 20.584 8 21.5135V26.4061H28.8845V21.5222C28.8929 20.8471 28.5206 20.2684 27.9706 19.9966Z" fill="#80DB42"/>
<path d="M34.9269 20.3266H33.2852C32.9552 20.3266 32.6929 20.5985 32.6929 20.9404C32.6929 21.2824 32.9552 21.5542 33.2852 21.5542H34.0637V21.9575C34.0637 22.2995 34.3261 22.5713 34.6561 22.5713C34.9861 22.5713 35.2484 22.2995 35.2484 21.9575V21.5191C36.0269 21.3613 36.6108 20.6511 36.6108 19.8093C36.6108 18.8448 35.8577 18.0645 34.9269 18.0645H34.3768C34.0976 18.0645 33.8776 17.8277 33.8776 17.5471C33.8776 17.2578 34.106 17.0298 34.3768 17.0298H36.0185C36.3485 17.0298 36.6108 16.758 36.6108 16.416C36.6108 16.0741 36.3485 15.8023 36.0185 15.8023H35.2484V15.3989C35.2484 15.057 34.9861 14.7852 34.6561 14.7852C34.3261 14.7852 34.0637 15.057 34.0637 15.3989V15.8373C33.2852 15.9952 32.6929 16.6966 32.6929 17.5471C32.6929 18.5116 33.446 19.292 34.3768 19.292H34.9269C35.2061 19.292 35.4261 19.52 35.4261 19.8093C35.4261 20.0899 35.2061 20.3266 34.9269 20.3266Z" fill="#80DB42"/>
</svg>
